<?xml version="1.0" encoding="UTF-8" standalone="no"?>
<!-- Created with Inkscape (http://www.inkscape.org/) -->

<svg
   xmlns:dc="http://purl.org/dc/elements/1.1/"
   xmlns:cc="http://creativecommons.org/ns#"
   xmlns:rdf="http://www.w3.org/1999/02/22-rdf-syntax-ns#"
   xmlns:svg="http://www.w3.org/2000/svg"
   xmlns="http://www.w3.org/2000/svg"
   xmlns:sodipodi="http://sodipodi.sourceforge.net/DTD/sodipodi-0.dtd"
   xmlns:inkscape="http://www.inkscape.org/namespaces/inkscape"
   width="1920"
   height="1080"
   viewBox="0 0 507.99999 285.75001"
   version="1.1"
   id="svg8"
   inkscape:version="0.92.5 (2060ec1f9f, 2020-04-08)"
   sodipodi:docname="title_slide.svg">
  <defs
     id="defs2">
    <clipPath
       clipPathUnits="userSpaceOnUse"
       id="clipPath18">
      <path
         inkscape:connector-curvature="0"
         d="m 565.437,400.089 c 0.007,-0.024 0.017,-0.036 0.023,-0.079 v 0 c -0.005,0.036 -0.002,0.05 -0.005,0.08 v 0 z"
         id="path16" />
    </clipPath>
    <linearGradient
       x1="0"
       y1="0"
       x2="1"
       y2="0"
       gradientUnits="userSpaceOnUse"
       gradientTransform="matrix(0.0235596,0,0,-0.0235596,565.4364,400.05023)"
       spreadMethod="pad"
       id="linearGradient30">
      <stop
         style="stop-opacity:1;stop-color:#009ee2"
         offset="0"
         id="stop24" />
      <stop
         style="stop-opacity:1;stop-color:#29235c"
         offset="0.996396"
         id="stop26" />
      <stop
         style="stop-opacity:1;stop-color:#29235c"
         offset="1"
         id="stop28" />
    </linearGradient>
    <clipPath
       clipPathUnits="userSpaceOnUse"
       id="clipPath40">
      <path
         inkscape:connector-curvature="0"
         d="m 362.011,388.493 v -17.974 l -14.12,-8.487 v -36.587 l 14.662,-7.875 v -17.146 l 31.437,-18.338 21.869,18.179 c 4.091,-8.801 13.721,-15.611 25.453,-15.611 v 0 c 11.31,0 20.651,6.333 21.965,14.473 v 0 c 1.61,-0.499 3.299,-0.765 5.011,-0.765 v 0 c 2.69,0 5.433,0.637 7.993,1.982 v 0 c 7.767,4.08 11.121,13.233 7.964,20.988 v 0 c 3.822,2.382 6.75,5.786 8.313,9.735 v 0 c 1.755,4.434 1.592,9.01 -0.45,12.901 v 0 c 1.203,2.283 1.892,4.876 1.892,7.63 v 0 c 0,8.403 -6.34,15.342 -14.486,16.312 v 0 c 0.414,1.846 0.653,3.78 0.653,5.785 v 0 c 0,11.281 -8.505,21.19 -18.416,21.778 v 0 c -2.747,6.225 -8.811,11.933 -18.012,13.906 v 0 c -7.071,1.512 -15.072,-0.133 -19.466,-4.005 v 0 c -0.631,-0.557 -1.174,-1.146 -1.627,-1.762 v 0 c -1.171,-1.596 -1.733,-3.375 -1.658,-5.245 v 0 l -3.295,2.705 -15.438,12.674 z m 18.408,-27.967 -16.081,9.982 v 16.697 L 401,410.21 v -22.737 l 5.769,-5.769 v -17.006 h 2.328 v 17.97 l -5.768,5.769 v 21.416 l 13.4,-10.997 3.37,-2.572 c 0.787,-0.762 1.28,-0.841 2.073,-0.536 v 0 c 0.679,0.26 1.1,0.879 1.154,1.697 v 0 l -0.008,0.752 c -0.213,2.485 1.24,4.324 2.494,5.431 v 0 c 3.877,3.414 11.048,4.845 17.438,3.474 v 0 c 11.608,-2.488 17.872,-11.776 17.872,-19.252 v 0 c 0,-7.781 -6.329,-14.111 -14.109,-14.111 v 0 -2.329 c 9.063,0 16.438,7.376 16.438,16.44 v 0 c 0,1.694 -0.273,3.449 -0.796,5.197 v 0 c 7.506,-1.134 15.184,-9.029 15.184,-19.352 v 0 c 0,-10.756 -6.921,-19.507 -15.427,-19.507 v 0 -2.328 c 7.477,0 13.874,5.719 16.487,13.78 v 0 c 7.155,-0.676 12.773,-6.714 12.773,-14.042 v 0 c 0,-7.779 -6.331,-14.11 -14.11,-14.11 v 0 -2.328 c 5.32,0 10.045,2.552 13.051,6.485 v 0 c 1.162,-2.998 1.096,-6.397 -0.219,-9.721 v 0 c -1.537,-3.883 -4.582,-7.192 -8.573,-9.316 v 0 c -8.174,-4.353 -17.8,-2.304 -21.455,4.563 v 0 l -2.055,-1.094 c 2.774,-5.209 8.419,-8.078 14.591,-8.078 v 0 c 3.063,0 6.253,0.717 9.287,2.195 v 0 c 2.53,-6.603 -0.381,-14.316 -6.991,-17.789 v 0 c -7.11,-3.736 -15.838,-1.169 -19.455,5.719 v 0 l -2.062,-1.084 c 1.678,-3.196 4.299,-5.588 7.363,-7.045 v 0 c -0.791,-7.267 -9.329,-13.013 -19.732,-13.013 v 0 c -10.923,0 -20.982,8.366 -24.766,16.402 v 0 l -0.512,-0.901 -0.178,0.854 -22.129,-18.402 -28.845,16.825 v 15.823 l 14.904,8.302 12.095,-7.194 v -17.599 h 2.327 v 18.923 l -13.238,7.875 v 16.05 l 14.324,8.417 v 18.861 h -2.328 V 353.69 l -14.325,-8.418 v -9.118 l -19.723,12.73 -1.263,-1.957 20.986,-13.545 v -5.47 l -14.934,-8.318 -13.489,7.244 v 15.746 2.786 15.345 l 12.947,7.78 16.027,-9.948 z"
         id="path38" />
    </clipPath>
    <linearGradient
       x1="0"
       y1="0"
       x2="1"
       y2="0"
       gradientUnits="userSpaceOnUse"
       gradientTransform="matrix(146.10986,0,0,-146.10986,347.89008,347.91559)"
       spreadMethod="pad"
       id="linearGradient52">
      <stop
         style="stop-opacity:1;stop-color:#3cbeec"
         offset="0"
         id="stop46" />
      <stop
         style="stop-opacity:1;stop-color:#28316d"
         offset="0.996397"
         id="stop48" />
      <stop
         style="stop-opacity:1;stop-color:#28316d"
         offset="1"
         id="stop50" />
    </linearGradient>
    <clipPath
       clipPathUnits="userSpaceOnUse"
       id="clipPath62">
      <path
         inkscape:connector-curvature="0"
         d="m 354.997,347.906 c 0,-1.817 1.472,-3.291 3.29,-3.291 v 0 c 1.817,0 3.29,1.474 3.29,3.291 v 0 c 0,1.817 -1.473,3.29 -3.29,3.29 v 0 c -1.818,0 -3.29,-1.473 -3.29,-3.29"
         id="path60" />
    </clipPath>
    <linearGradient
       x1="0"
       y1="0"
       x2="1"
       y2="0"
       gradientUnits="userSpaceOnUse"
       gradientTransform="matrix(6.5802784,0,0,-6.5802784,354.99677,347.90564)"
       spreadMethod="pad"
       id="linearGradient74">
      <stop
         style="stop-opacity:1;stop-color:#3cbeec"
         offset="0"
         id="stop68" />
      <stop
         style="stop-opacity:1;stop-color:#28316d"
         offset="0.996396"
         id="stop70" />
      <stop
         style="stop-opacity:1;stop-color:#28316d"
         offset="1"
         id="stop72" />
    </linearGradient>
    <clipPath
       clipPathUnits="userSpaceOnUse"
       id="clipPath84">
      <path
         inkscape:connector-curvature="0"
         d="m 390.718,304.097 c -1.285,-1.285 -1.285,-3.367 0,-4.653 v 0 c 1.284,-1.285 3.368,-1.285 4.653,0 v 0 c 1.285,1.286 1.285,3.368 0,4.653 v 0 c -0.643,0.643 -1.485,0.964 -2.327,0.964 v 0 c -0.842,0 -1.684,-0.321 -2.326,-0.964"
         id="path82" />
    </clipPath>
    <linearGradient
       x1="0"
       y1="0"
       x2="1"
       y2="0"
       gradientUnits="userSpaceOnUse"
       gradientTransform="matrix(6.5802784,0,0,-6.5802784,389.75406,301.77081)"
       spreadMethod="pad"
       id="linearGradient96">
      <stop
         style="stop-opacity:1;stop-color:#3cbeec"
         offset="0"
         id="stop90" />
      <stop
         style="stop-opacity:1;stop-color:#28316d"
         offset="0.996397"
         id="stop92" />
      <stop
         style="stop-opacity:1;stop-color:#28316d"
         offset="1"
         id="stop94" />
    </linearGradient>
    <clipPath
       clipPathUnits="userSpaceOnUse"
       id="clipPath106">
      <path
         inkscape:connector-curvature="0"
         d="m 376.515,359.536 c 0,-1.817 1.473,-3.29 3.29,-3.29 v 0 c 1.817,0 3.291,1.473 3.291,3.29 v 0 c 0,1.818 -1.474,3.291 -3.291,3.291 v 0 c -1.817,0 -3.29,-1.473 -3.29,-3.291"
         id="path104" />
    </clipPath>
    <linearGradient
       x1="0"
       y1="0"
       x2="1"
       y2="0"
       gradientUnits="userSpaceOnUse"
       gradientTransform="matrix(6.5802784,0,0,-6.5802784,376.5152,359.53665)"
       spreadMethod="pad"
       id="linearGradient118">
      <stop
         style="stop-opacity:1;stop-color:#3cbeec"
         offset="0"
         id="stop112" />
      <stop
         style="stop-opacity:1;stop-color:#28316d"
         offset="0.996396"
         id="stop114" />
      <stop
         style="stop-opacity:1;stop-color:#28316d"
         offset="1"
         id="stop116" />
    </linearGradient>
    <clipPath
       clipPathUnits="userSpaceOnUse"
       id="clipPath128">
      <path
         inkscape:connector-curvature="0"
         d="m 390.84,371.187 c 0,-1.817 1.474,-3.29 3.291,-3.29 v 0 c 1.816,0 3.289,1.473 3.289,3.29 v 0 c 0,1.818 -1.473,3.29 -3.289,3.29 v 0 c -1.817,0 -3.291,-1.472 -3.291,-3.29"
         id="path126" />
    </clipPath>
    <linearGradient
       x1="0"
       y1="0"
       x2="1"
       y2="0"
       gradientUnits="userSpaceOnUse"
       gradientTransform="matrix(6.5802784,0,0,-6.5802784,390.84024,371.18729)"
       spreadMethod="pad"
       id="linearGradient140">
      <stop
         style="stop-opacity:1;stop-color:#3cbeec"
         offset="0"
         id="stop134" />
      <stop
         style="stop-opacity:1;stop-color:#28316d"
         offset="0.996396"
         id="stop136" />
      <stop
         style="stop-opacity:1;stop-color:#28316d"
         offset="1"
         id="stop138" />
    </linearGradient>
    <clipPath
       clipPathUnits="userSpaceOnUse"
       id="clipPath150">
      <path
         inkscape:connector-curvature="0"
         d="M 0,595.28 H 841.89 V 0 H 0 Z"
         id="path148" />
    </clipPath>
    <clipPath
       clipPathUnits="userSpaceOnUse"
       id="clipPath162">
      <path
         inkscape:connector-curvature="0"
         d="m 405.607,367.025 c -1.286,-1.286 -1.286,-3.368 0,-4.654 v 0 c 1.285,-1.285 3.367,-1.285 4.653,0 v 0 c 1.285,1.286 1.285,3.368 0,4.654 v 0 c -0.643,0.642 -1.485,0.963 -2.327,0.963 v 0 c -0.842,0 -1.684,-0.321 -2.326,-0.963"
         id="path160" />
    </clipPath>
    <linearGradient
       x1="0"
       y1="0"
       x2="1"
       y2="0"
       gradientUnits="userSpaceOnUse"
       gradientTransform="matrix(6.5802784,0,0,-6.5802784,404.64307,364.69812)"
       spreadMethod="pad"
       id="linearGradient174">
      <stop
         style="stop-opacity:1;stop-color:#3cbeec"
         offset="0"
         id="stop168" />
      <stop
         style="stop-opacity:1;stop-color:#28316d"
         offset="0.996396"
         id="stop170" />
      <stop
         style="stop-opacity:1;stop-color:#28316d"
         offset="1"
         id="stop172" />
    </linearGradient>
    <clipPath
       clipPathUnits="userSpaceOnUse"
       id="clipPath184">
      <path
         inkscape:connector-curvature="0"
         d="M 0,595.28 H 841.89 V 0 H 0 Z"
         id="path182" />
    </clipPath>
    <inkscape:perspective
       id="perspective3601"
       inkscape:persp3d-origin="270.99998 : 54.66667 : 1"
       inkscape:vp_z="541.99997 : 82.000005 : 1"
       inkscape:vp_y="0 : 1000.0001 : 0"
       inkscape:vp_x="0 : 82.000005 : 1"
       sodipodi:type="inkscape:persp3d" />
  </defs>
  <sodipodi:namedview
     id="base"
     pagecolor="#ffffff"
     bordercolor="#666666"
     borderopacity="1.0"
     inkscape:pageopacity="0.0"
     inkscape:pageshadow="2"
     inkscape:zoom="0.35355339"
     inkscape:cx="766.86707"
     inkscape:cy="569.68678"
     inkscape:document-units="mm"
     inkscape:current-layer="layer2"
     showgrid="false"
     fit-margin-top="0"
     fit-margin-left="0"
     fit-margin-right="0"
     fit-margin-bottom="0"
     inkscape:window-width="1676"
     inkscape:window-height="1007"
     inkscape:window-x="0"
     inkscape:window-y="20"
     inkscape:window-maximized="0"
     units="px" />
  <metadata
     id="metadata5">
    <rdf:RDF>
      <cc:Work
         rdf:about="">
        <dc:format>image/svg+xml</dc:format>
        <dc:type
           rdf:resource="http://purl.org/dc/dcmitype/StillImage" />
        <dc:title></dc:title>
      </cc:Work>
    </rdf:RDF>
  </metadata>
  <g
     inkscape:label="module information"
     inkscape:groupmode="layer"
     id="layer1"
     transform="translate(0,-11.249994)">
    <g
       id="g551">
      <rect
         ry="0"
         y="11.116766"
         x="-3.8163462"
         height="287.05734"
         width="515.11536"
         id="rect877"
         style="opacity:1;fill:#f2f2f2;fill-opacity:1;stroke:#f2f2f2;stroke-width:1.89001417;stroke-linecap:round;stroke-linejoin:miter;stroke-miterlimit:4;stroke-dasharray:none;stroke-dashoffset:27.90684128;stroke-opacity:1" />
      <text
         id="text18"
         y="213.05229"
         x="177.91989"
         style="font-style:normal;font-weight:normal;font-size:14.11111069px;line-height:1.25;font-family:sans-serif;letter-spacing:0px;word-spacing:0px;fill:#000000;fill-opacity:1;stroke:none;stroke-width:0.26458332"
         xml:space="preserve"><tspan
           style="font-style:normal;font-variant:normal;font-weight:normal;font-stretch:normal;font-size:16.93333244px;font-family:Arial;-inkscape-font-specification:Arial;stroke-width:0.26458332"
           y="213.05229"
           x="177.91989"
           id="tspan16"
           sodipodi:role="line">Miquel Perello Nieto</tspan></text>
      <text
         id="text22"
         y="227.6452"
         x="180.87164"
         style="font-style:normal;font-variant:normal;font-weight:normal;font-stretch:normal;font-size:14.11111069px;line-height:1.25;font-family:Arial;-inkscape-font-specification:Arial;letter-spacing:0px;word-spacing:0px;fill:#000000;fill-opacity:1;stroke:none;stroke-width:0.26458332"
         xml:space="preserve"><tspan
           style="font-size:9.87777805px;stroke-width:0.26458332"
           y="227.6452"
           x="180.87164"
           id="tspan20"
           sodipodi:role="line">miquel.perellonieto@bristol.ac.uk</tspan></text>
      <g
         transform="matrix(0.23057707,0,0,-0.23057707,315.16802,328.04144)"
         id="g10">
        <g
           id="g12">
          <g
             clip-path="url(#clipPath18)"
             id="g14">
            <g
               id="g20">
              <g
                 id="g22">
                <path
                   id="path32"
                   style="fill:url(#linearGradient30);stroke:none"
                   d="m 565.437,400.089 c 0.007,-0.024 0.017,-0.036 0.023,-0.079 v 0 c -0.005,0.036 -0.002,0.05 -0.005,0.08 v 0 z"
                   inkscape:connector-curvature="0" />
              </g>
            </g>
          </g>
        </g>
        <g
           id="g34">
          <g
             clip-path="url(#clipPath40)"
             id="g36">
            <g
               id="g42">
              <g
                 id="g44">
                <path
                   id="path54"
                   style="fill:url(#linearGradient52);stroke:none"
                   d="m 362.011,388.493 v -17.974 l -14.12,-8.487 v -36.587 l 14.662,-7.875 v -17.146 l 31.437,-18.338 21.869,18.179 c 4.091,-8.801 13.721,-15.611 25.453,-15.611 v 0 c 11.31,0 20.651,6.333 21.965,14.473 v 0 c 1.61,-0.499 3.299,-0.765 5.011,-0.765 v 0 c 2.69,0 5.433,0.637 7.993,1.982 v 0 c 7.767,4.08 11.121,13.233 7.964,20.988 v 0 c 3.822,2.382 6.75,5.786 8.313,9.735 v 0 c 1.755,4.434 1.592,9.01 -0.45,12.901 v 0 c 1.203,2.283 1.892,4.876 1.892,7.63 v 0 c 0,8.403 -6.34,15.342 -14.486,16.312 v 0 c 0.414,1.846 0.653,3.78 0.653,5.785 v 0 c 0,11.281 -8.505,21.19 -18.416,21.778 v 0 c -2.747,6.225 -8.811,11.933 -18.012,13.906 v 0 c -7.071,1.512 -15.072,-0.133 -19.466,-4.005 v 0 c -0.631,-0.557 -1.174,-1.146 -1.627,-1.762 v 0 c -1.171,-1.596 -1.733,-3.375 -1.658,-5.245 v 0 l -3.295,2.705 -15.438,12.674 z m 18.408,-27.967 -16.081,9.982 v 16.697 L 401,410.21 v -22.737 l 5.769,-5.769 v -17.006 h 2.328 v 17.97 l -5.768,5.769 v 21.416 l 13.4,-10.997 3.37,-2.572 c 0.787,-0.762 1.28,-0.841 2.073,-0.536 v 0 c 0.679,0.26 1.1,0.879 1.154,1.697 v 0 l -0.008,0.752 c -0.213,2.485 1.24,4.324 2.494,5.431 v 0 c 3.877,3.414 11.048,4.845 17.438,3.474 v 0 c 11.608,-2.488 17.872,-11.776 17.872,-19.252 v 0 c 0,-7.781 -6.329,-14.111 -14.109,-14.111 v 0 -2.329 c 9.063,0 16.438,7.376 16.438,16.44 v 0 c 0,1.694 -0.273,3.449 -0.796,5.197 v 0 c 7.506,-1.134 15.184,-9.029 15.184,-19.352 v 0 c 0,-10.756 -6.921,-19.507 -15.427,-19.507 v 0 -2.328 c 7.477,0 13.874,5.719 16.487,13.78 v 0 c 7.155,-0.676 12.773,-6.714 12.773,-14.042 v 0 c 0,-7.779 -6.331,-14.11 -14.11,-14.11 v 0 -2.328 c 5.32,0 10.045,2.552 13.051,6.485 v 0 c 1.162,-2.998 1.096,-6.397 -0.219,-9.721 v 0 c -1.537,-3.883 -4.582,-7.192 -8.573,-9.316 v 0 c -8.174,-4.353 -17.8,-2.304 -21.455,4.563 v 0 l -2.055,-1.094 c 2.774,-5.209 8.419,-8.078 14.591,-8.078 v 0 c 3.063,0 6.253,0.717 9.287,2.195 v 0 c 2.53,-6.603 -0.381,-14.316 -6.991,-17.789 v 0 c -7.11,-3.736 -15.838,-1.169 -19.455,5.719 v 0 l -2.062,-1.084 c 1.678,-3.196 4.299,-5.588 7.363,-7.045 v 0 c -0.791,-7.267 -9.329,-13.013 -19.732,-13.013 v 0 c -10.923,0 -20.982,8.366 -24.766,16.402 v 0 l -0.512,-0.901 -0.178,0.854 -22.129,-18.402 -28.845,16.825 v 15.823 l 14.904,8.302 12.095,-7.194 v -17.599 h 2.327 v 18.923 l -13.238,7.875 v 16.05 l 14.324,8.417 v 18.861 h -2.328 V 353.69 l -14.325,-8.418 v -9.118 l -19.723,12.73 -1.263,-1.957 20.986,-13.545 v -5.47 l -14.934,-8.318 -13.489,7.244 v 15.746 2.786 15.345 l 12.947,7.78 16.027,-9.948 z"
                   inkscape:connector-curvature="0" />
              </g>
            </g>
          </g>
        </g>
        <g
           id="g56">
          <g
             clip-path="url(#clipPath62)"
             id="g58">
            <g
               id="g64">
              <g
                 id="g66">
                <path
                   id="path76"
                   style="fill:url(#linearGradient74);stroke:none"
                   d="m 354.997,347.906 c 0,-1.817 1.472,-3.291 3.29,-3.291 v 0 c 1.817,0 3.29,1.474 3.29,3.291 v 0 c 0,1.817 -1.473,3.29 -3.29,3.29 v 0 c -1.818,0 -3.29,-1.473 -3.29,-3.29"
                   inkscape:connector-curvature="0" />
              </g>
            </g>
          </g>
        </g>
        <g
           id="g78">
          <g
             clip-path="url(#clipPath84)"
             id="g80">
            <g
               id="g86">
              <g
                 id="g88">
                <path
                   id="path98"
                   style="fill:url(#linearGradient96);stroke:none"
                   d="m 390.718,304.097 c -1.285,-1.285 -1.285,-3.367 0,-4.653 v 0 c 1.284,-1.285 3.368,-1.285 4.653,0 v 0 c 1.285,1.286 1.285,3.368 0,4.653 v 0 c -0.643,0.643 -1.485,0.964 -2.327,0.964 v 0 c -0.842,0 -1.684,-0.321 -2.326,-0.964"
                   inkscape:connector-curvature="0" />
              </g>
            </g>
          </g>
        </g>
        <g
           id="g100">
          <g
             clip-path="url(#clipPath106)"
             id="g102">
            <g
               id="g108">
              <g
                 id="g110">
                <path
                   id="path120"
                   style="fill:url(#linearGradient118);stroke:none"
                   d="m 376.515,359.536 c 0,-1.817 1.473,-3.29 3.29,-3.29 v 0 c 1.817,0 3.291,1.473 3.291,3.29 v 0 c 0,1.818 -1.474,3.291 -3.291,3.291 v 0 c -1.817,0 -3.29,-1.473 -3.29,-3.291"
                   inkscape:connector-curvature="0" />
              </g>
            </g>
          </g>
        </g>
        <g
           id="g122">
          <g
             clip-path="url(#clipPath128)"
             id="g124">
            <g
               id="g130">
              <g
                 id="g132">
                <path
                   id="path142"
                   style="fill:url(#linearGradient140);stroke:none"
                   d="m 390.84,371.187 c 0,-1.817 1.474,-3.29 3.291,-3.29 v 0 c 1.816,0 3.289,1.473 3.289,3.29 v 0 c 0,1.818 -1.473,3.29 -3.289,3.29 v 0 c -1.817,0 -3.291,-1.472 -3.291,-3.29"
                   inkscape:connector-curvature="0" />
              </g>
            </g>
          </g>
        </g>
        <g
           id="g144">
          <g
             clip-path="url(#clipPath150)"
             id="g146">
            <g
               transform="translate(415.3276,303.4904)"
               id="g152">
              <path
                 id="path154"
                 style="fill:#28306d;fill-opacity:1;fill-rule:nonzero;stroke:none"
                 d="m 0,0 -0.176,-5.506 1.334,-0.12 0.531,5.508 z"
                 inkscape:connector-curvature="0" />
            </g>
          </g>
        </g>
        <g
           id="g156">
          <g
             clip-path="url(#clipPath162)"
             id="g158">
            <g
               id="g164">
              <g
                 id="g166">
                <path
                   id="path176"
                   style="fill:url(#linearGradient174);stroke:none"
                   d="m 405.607,367.025 c -1.286,-1.286 -1.286,-3.368 0,-4.654 v 0 c 1.285,-1.285 3.367,-1.285 4.653,0 v 0 c 1.285,1.286 1.285,3.368 0,4.654 v 0 c -0.643,0.642 -1.485,0.963 -2.327,0.963 v 0 c -0.842,0 -1.684,-0.321 -2.326,-0.963"
                   inkscape:connector-curvature="0" />
              </g>
            </g>
          </g>
        </g>
        <g
           id="g178">
          <g
             clip-path="url(#clipPath184)"
             id="g180">
            <g
               transform="translate(420.2837,395.3801)"
               id="g186">
              <path
                 id="path188"
                 style="fill:#28306d;fill-opacity:1;fill-rule:nonzero;stroke:none"
                 d="m 0,0 c -0.077,-2.138 -0.08,-4.255 0.062,-6.324 0.085,-1.252 0.256,-2.491 0.495,-3.565 0.272,-1.224 0.785,-1.251 1.224,-0.097 0.341,0.893 0.657,1.948 0.86,3.04 0.796,4.28 1.251,8.595 1.361,12.924 0.057,2.217 0.023,4.438 -0.103,6.659 -0.005,0.081 -0.009,0.162 -0.014,0.243 -0.065,1.098 -0.275,2.15 -0.51,3.061 -0.242,0.944 -0.644,0.969 -1.03,0.196 -0.784,-1.574 -1.107,-3.74 -1.444,-5.89 0,0 -0.427,-3.122 -0.648,-5.756 m 0,0 C 0.229,4.204 0.208,3.923 0.189,3.653 0.111,2.432 0.044,1.212 0,0 m -1.475,5.268 c 0.366,3.973 0.598,5.464 0.598,5.464 0.436,3.328 1.028,6.498 1.978,9.28 0.095,0.279 0.192,0.554 0.296,0.812 1.268,3.148 2.594,3.121 3.464,-0.146 0.63,-2.367 0.863,-5.123 0.957,-8.004 C 5.84,11.966 5.855,11.251 5.866,10.533 5.886,9.027 5.856,7.521 5.79,6.015 5.667,3.215 5.424,0.415 5.17,-2.383 4.4,-10.871 3.632,-19.359 2.841,-27.841 1.955,-37.349 1.045,-46.852 0.142,-56.356 c -0.777,-8.174 -1.555,-16.348 -2.338,-24.519 -0.352,-3.672 -0.705,-7.343 -1.059,-11.014 -0.172,-1.778 -0.343,-3.555 -0.515,-5.333 -0.354,-3.671 -0.708,-7.343 -1.061,-11.015 -0.263,-2.738 -0.52,-5.477 -0.779,-8.217 -0.097,0.007 -0.059,0.004 -0.156,0.011 0.223,6.579 0.437,13.024 0.645,19.377 0.062,1.91 1.956,61.728 2.96,91.6 0.071,2.103 0.179,4.211 0.325,6.316 m 0,0 c 0.068,0.983 0.145,1.967 0.23,2.948 0.045,0.524 0.089,1.014 0.131,1.47"
                 inkscape:connector-curvature="0" />
            </g>
            <g
               transform="translate(418.6636,400.2756)"
               id="g190">
              <path
                 id="path192"
                 style="fill:#1f75a8;fill-opacity:1;fill-rule:nonzero;stroke:none"
                 d="M 0,0 2.325,-1.908 1.82,-4.326 -1.294,-1.908 Z"
                 inkscape:connector-curvature="0" />
            </g>
            <g
               transform="translate(267.0991,261.3923)"
               id="g194">
              <path
                 id="path196"
                 style="fill:#28306d;fill-opacity:1;fill-rule:nonzero;stroke:none"
                 d="M 0,0 H 52.919 V -5.64 H 29.796 V -64.668 H 23.123 V -5.64 H 0 Z"
                 inkscape:connector-curvature="0" />
            </g>
            <g
               transform="translate(349.7866,250.8405)"
               id="g198">
              <path
                 id="path200"
                 style="fill:#39beed;fill-opacity:1;fill-rule:nonzero;stroke:none"
                 d="M 0,0 -11.545,-31.289 H 11.811 L 0.353,0 Z m -3.349,6.522 h 7.316 l 22.827,-60.638 h -6.523 l -6.433,17.451 h -27.323 l -6.434,-17.451 h -6.258 z"
                 inkscape:connector-curvature="0" />
            </g>
            <g
               transform="translate(341.0513,223.4685)"
               id="g202">
              <path
                 id="path204"
                 style="fill:#39beed;fill-opacity:1;fill-rule:nonzero;stroke:none"
                 d="M 0,0 H 17.743 L 8.905,24.134 Z M 23.349,-4.917 H -5.621 L 7.37,31.29 h 3.087 z m 7.023,-17.91 h 2.327 L 11.346,33.895 H 6.742 l -21.353,-56.722 h 2.062 l 6.434,17.452 h 30.053 z m 7.988,-3.917 H 27.642 L 21.208,-9.293 H -3.384 L -9.818,-26.744 H -20.272 L 4.031,37.812 h 10.027 z"
                 inkscape:connector-curvature="0" />
            </g>
            <path
               id="path206"
               style="fill:#39beed;fill-opacity:1;fill-rule:nonzero;stroke:none"
               d="m 385.925,258.363 h 6.258 v -60.639 h -6.258 z"
               inkscape:connector-curvature="0" />
            <path
               id="path208"
               style="fill:#39beed;fill-opacity:1;fill-rule:nonzero;stroke:none"
               d="m 387.883,200.641 h 2.341 v 56.722 h -2.341 z m 6.259,-3.917 h -10.176 v 64.556 h 10.176 z"
               inkscape:connector-curvature="0" />
            <g
               transform="translate(408.8843,261.3923)"
               id="g210">
              <path
                 id="path212"
                 style="fill:#28306d;fill-opacity:1;fill-rule:nonzero;stroke:none"
                 d="m 0,0 h 6.674 v -58.841 h 32.993 v -5.827 H 0 Z"
                 inkscape:connector-curvature="0" />
            </g>
            <g
               transform="translate(482.9551,201.7995)"
               id="g214">
              <path
                 id="path216"
                 style="fill:#28306d;fill-opacity:1;fill-rule:nonzero;stroke:none"
                 d="M 0,0 C 14.287,0 24.062,11.656 24.062,27.259 24.062,42.861 14.287,54.518 0,54.518 -14.381,54.518 -24.062,42.861 -24.062,27.259 -24.062,11.656 -14.381,0 0,0 m 0,60.627 c 18.141,0 31.019,-14.193 31.019,-33.368 C 31.019,8.084 18.141,-6.109 0,-6.109 c -18.517,0 -31.018,14.193 -31.018,33.368 0,19.175 12.501,33.368 31.018,33.368"
                 inkscape:connector-curvature="0" />
            </g>
            <g
               transform="translate(533.6211,255.5652)"
               id="g218">
              <path
                 id="path220"
                 style="fill:#28306d;fill-opacity:1;fill-rule:nonzero;stroke:none"
                 d="m 0,0 v -26.601 h 17.859 c 9.776,0 14.757,5.921 14.757,13.818 C 32.616,-4.889 27.447,0 17.859,0 Z m -6.673,5.827 h 24.25 c 14.194,0 21.713,-6.861 21.713,-18.61 0,-9.87 -5.264,-17.014 -15.228,-19.081 L 41.17,-58.841 H 33.933 L 16.92,-32.429 H 0 v -26.412 h -6.673 z"
                 inkscape:connector-curvature="0" />
            </g>
          </g>
        </g>
      </g>
      <g
         id="g3091"
         xml:space="preserve"
         transform="matrix(0.23511691,0,0,0.23511691,25.086326,166.51434)">
<clipPath
   id="clippath1"> 	<path
   inkscape:connector-curvature="0"
   d="M 0,634.957 V 792 H 542.832 V 634.957"
   id="path3094" />
</clipPath>
<g
   id="g3096"> 





















<g
   id="g4202"><g
     transform="translate(17.933824,-296.90442)"
     style="fill:#000000;fill-rule:nonzero;stroke-width:0;stroke-linecap:butt;stroke-linejoin:miter;stroke-miterlimit:10"
     id="g3098">
	<path
   inkscape:connector-curvature="0"
   style="fill:#000000"
   id="path3100"
   d="m 194.152,757.535 h 10.004 c 10.836,0 16.301,7.32 16.301,14.449 0,7.223 -3.519,14.817 -15.746,14.817 -7.781,0 -10.559,-2.5 -10.559,-9.539 z m -7.683,22.41 c 0,5.84 -1.485,7.598 -9.074,7.598 h -2.133 v 1.758 h 33.894 c 14.914,0 20.008,-10.278 20.008,-17.594 0,-7.223 -5.094,-12.875 -13.797,-15.469 v -0.187 c 6.203,-1.11 10.555,-6.016 10.555,-11.293 0,-4.449 -1.852,-7.602 -5.649,-10.281 -3.335,-2.411 -10.464,-3.618 -18.617,-3.618 -1.761,0 -8.797,0.094 -13.894,0.282 -2.684,0.093 -9.074,0.464 -11.668,0.55 v 1.762 h 3.242 c 6.48,0 7.133,2.777 7.133,8.059 z m 7.683,-47.047 c 2.317,-0.093 6.118,-0.277 8.153,-0.277 11.39,0 15.281,5.926 15.281,12.41 0,7.227 -4.445,10.742 -13.336,10.742 h -10.098 v -22.875" />
</g><g
     transform="translate(17.933824,-296.90442)"
     style="fill:#000000;fill-rule:nonzero;stroke-width:0;stroke-linecap:butt;stroke-linejoin:miter;stroke-miterlimit:10"
     id="g3102">
	<path
   inkscape:connector-curvature="0"
   style="fill:#000000"
   id="path3104"
   d="m 254.543,763.371 c -2.133,0 -3.523,0.09 -5.742,-0.183 v -30.383 c 1.664,-0.184 2.871,-0.184 4.629,-0.184 14.273,0 18.156,6.668 18.156,15.281 0,11.114 -6.754,15.469 -17.043,15.469 z m 68.437,-29.918 v -1.762 h -22.507 v 1.762 c 5.183,0.277 6.949,1.664 6.949,6.668 v 39.457 c 0,6.02 -1.149,7.586 -6.445,7.934 -7.067,-0.371 -10.067,-3.145 -15.133,-8.207 l -7.313,-7.321 c -4.347,-4.351 -7.125,-6.949 -10.554,-9.632 7.593,-2.223 12.312,-8.059 12.312,-15.004 0,-9.45 -7.684,-16.489 -24.82,-16.489 -6.024,0 -7.875,0.094 -11.672,0.282 -3.797,0.183 -9.449,0.55 -11.668,0.55 v 1.762 h 2.035 c 5.371,0 6.949,1.664 6.949,7.41 v 38.993 c 0,6.207 -1.949,7.687 -7.41,7.687 h -1.574 v 1.758 h 26.215 v -1.758 h -2.133 c -5.191,0 -7.41,-1.391 -7.41,-6.945 v -15.657 c 1.48,0.094 2.683,0.192 4.722,0.192 2.504,0 3.985,-0.098 6.301,-0.192 2.227,1.485 5.473,4.168 9.543,8.247 l 6.113,6.117 c 8.004,8.011 11.422,10.543 26.504,9.996 h 20.996 v -1.758 c -6.39,0 -7.871,-1.852 -7.871,-7.316 v -39.27 c 0,-6.203 2.036,-7.504 7.871,-7.504" />
</g><g
     transform="translate(17.933824,-296.90442)"
     style="fill:#000000;fill-rule:nonzero;stroke-width:0;stroke-linecap:butt;stroke-linejoin:miter;stroke-miterlimit:10"
     id="g3106">
	<path
   inkscape:connector-curvature="0"
   style="fill:#000000"
   id="path3108"
   d="m 329.277,775.227 c 1.95,8.242 8.426,13.058 15.653,13.058 6.207,0 12.781,-3.613 12.781,-10.929 0,-13.34 -29.731,-17.411 -29.731,-33.618 0,-7.691 7.04,-13.433 16.489,-13.433 7.773,0 9.351,2.316 12.594,2.316 0.742,0 1.109,-0.187 1.667,-0.93 h 1.481 l 1.574,11.766 h -1.574 c -2.594,-6.668 -8.52,-10.926 -14.91,-10.926 -6.113,0 -10.375,3.516 -10.375,8.703 0,13.153 29.73,16.676 29.73,33.711 0,9.078 -8.058,15.84 -18.894,15.84 -5.094,0 -11.574,-2.5 -12.871,-2.5 -0.832,0 -1.485,0.461 -1.856,1.016 h -1.57 l -1.945,-14.074 h 1.757" />
</g><g
     transform="translate(17.933824,-296.90442)"
     style="fill:#000000;fill-rule:nonzero;stroke-width:0;stroke-linecap:butt;stroke-linejoin:miter;stroke-miterlimit:10"
     id="g3110">
	<path
   inkscape:connector-curvature="0"
   style="fill:#000000"
   id="path3112"
   d="m 400.316,780.785 c 0,5 1.664,6.758 7.313,6.758 h 3.434 v 1.758 h -29.18 v -1.758 h 3.43 c 5.648,0 7.312,-1.758 7.312,-6.758 v -45.754 h -16.113 c -3.703,0 -5.371,2.125 -6.766,10.278 h -1.664 l 1.481,-15.004 h 1.757 c 0.102,0.554 0.469,0.929 1.024,1.109 0.554,0.191 1.207,0.277 1.851,0.277 h 44.547 c 1.301,0 2.692,-0.277 2.875,-1.386 h 1.758 l 1.484,15.004 h -1.671 c -1.383,-8.153 -3.051,-10.278 -6.754,-10.278 h -16.118 v 45.754" />
</g><g
     transform="translate(17.933824,-296.90442)"
     style="fill:#000000;fill-rule:nonzero;stroke-width:0;stroke-linecap:butt;stroke-linejoin:miter;stroke-miterlimit:10"
     id="g3114">
	<path
   inkscape:connector-curvature="0"
   style="fill:#000000"
   id="path3116"
   d="m 492.672,758.926 c 0,-16.672 -15.004,-28.621 -32.508,-28.621 -19.726,0 -33.902,13.058 -33.902,31.488 0,17.324 15.289,28.992 33.437,28.992 17.969,0 32.973,-13.152 32.973,-31.859 z m -8.707,3.054 c 0,13.149 -7.223,26.485 -22.32,26.485 -14.915,0 -26.672,-12.219 -26.672,-29.539 0,-11.117 6.476,-26.305 22.781,-26.305 15.281,0 26.211,12.137 26.211,29.359" />
</g><g
     transform="translate(17.933824,-296.90442)"
     style="fill:#000000;fill-rule:nonzero;stroke-width:0;stroke-linecap:butt;stroke-linejoin:miter;stroke-miterlimit:10"
     id="g3118">
	<path
   inkscape:connector-curvature="0"
   style="fill:#000000"
   id="path3120"
   d="m 535.703,789.301 h -41.398 v -1.758 h 3.05 c 4.262,0 5.836,-1.391 5.836,-6.113 v -41.032 c 0,-4.906 -1.48,-6.945 -7.312,-6.945 h -1.297 v -1.762 h 27.32 v 1.762 h -3.429 c -6.016,0 -7.594,0.649 -7.594,6.391 v 42.695 c 0,2.5 1.019,3.43 3.707,3.43 h 13.609 c 5.465,0 7.129,-2.129 12.973,-10.188 h 1.664 l -7.129,13.52" />
</g><g
     transform="translate(17.933824,-296.90442)"
     style="fill:#bf2f38;fill-opacity:1;fill-rule:nonzero;stroke-width:0;stroke-linecap:butt;stroke-linejoin:miter;stroke-miterlimit:10"
     id="g3122">
	<path
   inkscape:connector-curvature="0"
   style="fill:#bf2f38;fill-opacity:1"
   id="path3124"
   d="m 103.047,705.219 c -0.067,-5.391 -1.899,-16.41 -14.7931,-22.664 13.0941,4.16 19.3941,15.226 20.0351,23.48 13.75,2.742 25.953,9.211 45.766,2.379 l 0.066,-0.043 c 0,0 -26.07,0.238 -36.973,-7.648 5.633,0.211 12.114,-1.063 14.239,-4.25 2.261,-3.395 2.496,-6.903 8.074,-7.082 3.133,-0.102 13.758,0.691 14.871,-14.911 -3.398,5.739 -7.082,8.11 -12.641,6.692 -3.55,-0.902 -10.031,-3.621 -14.664,1.914 -3.824,4.566 -7.929,6.941 -14.48,6.234 2.621,-3.543 41.68,-54.258 41.68,-54.258 0,0 -50.039,40.161 -52.801,42.5 -0.531,-7.332 1.664,-10.023 4.601,-13.246 2.407,-2.636 6.586,-6.207 3.258,-13.742 -2.687,-6.09 -2.336,-9.773 4.996,-15.617 -5.843,0.426 -14.7615,4.355 -13.707,15.086 0.641,6.48 -3.9529,7.043 -5.6287,7.969 -4.3555,2.41 -4.9219,9.422 -5.0664,14.875 -0.4922,-1.774 -6.832,-29.024 -9.0625,-37.84 0,0.004 0,73.324 0,73.324 h 0.168 c 8.4922,-3.344 15.5547,-3.855 22.0626,-3.152" />
</g><g
     transform="translate(17.933824,-296.90442)"
     style="fill:#000000;fill-rule:nonzero;stroke-width:0;stroke-linecap:butt;stroke-linejoin:miter;stroke-miterlimit:10"
     id="g3126">
	<path
   inkscape:connector-curvature="0"
   style="fill:#000000"
   id="path3128"
   d="m 227.512,665.637 v 1.304 c -4.602,0.071 -6.25,1.922 -6.25,6.321 v 18.543 c 0,8.515 -5.426,17.648 -20.328,17.648 -13.118,0 -19.848,-7.484 -19.848,-17.305 v -20.054 c 0,-4.395 -1.238,-5.082 -5.906,-5.153 v -1.304 h 17.648 v 1.304 h -0.617 c -3.777,0 -5.426,1.032 -5.426,5.016 v 19.09 c 0,9.273 5.426,14.836 15.66,14.836 7.758,0 15.66,-3.227 15.66,-14.903 v -16.003 c 0,-6.594 -1.031,-7.758 -6.734,-8.036 v -1.304 h 16.141" />
</g><g
     transform="translate(17.933824,-296.90442)"
     style="fill:#000000;fill-rule:nonzero;stroke-width:0;stroke-linecap:butt;stroke-linejoin:miter;stroke-miterlimit:10"
     id="g3130">
	<path
   inkscape:connector-curvature="0"
   style="fill:#000000"
   id="path3132"
   d="m 236.539,702.379 c 0,3.777 0.891,4.672 4.598,4.672 v 1.304 h -13.801 v -1.304 c 3.019,0 4.602,-1.649 4.602,-4.328 v -14.422 c 0,-2.539 -0.278,-3.024 -2.063,-3.367 l -2.336,-0.477 v -1.102 l 7.899,-2.882 h 1.101 v 5.355 c 4.598,-2.883 8.445,-5.426 11.813,-5.426 4.668,0 7.347,3.434 7.347,10.301 0,9.137 -0.48,10.922 -0.551,13.602 -0.066,1.851 1.032,2.746 3.848,2.746 h 1.512 v 1.304 h -14.77 v -1.304 c 1.992,-0.071 3.16,-0.551 3.914,-1.305 1.309,-1.305 1.446,-6.32 1.446,-15.453 0,-5.496 -2.68,-7.211 -5.426,-7.211 -2.199,0 -5.563,1.922 -9.133,4.395 v 14.902" />
</g><g
     transform="translate(17.933824,-296.90442)"
     style="fill:#000000;fill-rule:nonzero;stroke-width:0;stroke-linecap:butt;stroke-linejoin:miter;stroke-miterlimit:10"
     id="g3134">
	<path
   inkscape:connector-curvature="0"
   style="fill:#000000"
   id="path3136"
   d="m 270.824,664.605 c 1.649,0 3.024,1.168 3.024,2.614 0,1.441 -1.375,2.609 -3.024,2.609 -1.648,0 -2.953,-1.168 -2.953,-2.609 0,-1.446 1.305,-2.614 2.953,-2.614 z m 2.817,38.532 c 0,2.402 1.304,3.914 4.945,3.914 v 1.304 H 263.34 v -1.304 c 4.187,0 5.699,-1.375 5.699,-5.016 v -13.801 c 0,-2.679 -0.344,-3.023 -2.129,-3.367 l -3.226,-0.617 v -1.102 l 8.925,-3.089 h 1.032 v 23.078" />
</g><g
     transform="translate(17.933824,-296.90442)"
     style="fill:#000000;fill-rule:nonzero;stroke-width:0;stroke-linecap:butt;stroke-linejoin:miter;stroke-miterlimit:10"
     id="g3138">
	<path
   inkscape:connector-curvature="0"
   style="fill:#000000"
   id="path3140"
   d="m 294.27,708.973 -9.957,-22.801 c -1.036,-2.402 -1.926,-3.227 -3.024,-3.434 l -2.133,-0.343 v -1.235 h 14.016 v 1.235 c -4.192,0.136 -5.496,0.687 -3.852,3.914 l 7.285,17.101 7.004,-15.863 c 1.239,-2.817 0.618,-4.809 -4.394,-5.152 v -1.235 h 11.945 v 1.235 c -2.605,0.48 -4.121,1.992 -5.422,5.015 l -9.476,21.563 h -1.992" />
</g><g
     transform="translate(17.933824,-296.90442)"
     style="fill:#000000;fill-rule:nonzero;stroke-width:0;stroke-linecap:butt;stroke-linejoin:miter;stroke-miterlimit:10"
     id="g3142">
	<path
   inkscape:connector-curvature="0"
   style="fill:#000000"
   id="path3144"
   d="m 336.781,690.91 v -1.578 c -2.261,-2.27 -2.058,-8.93 -11.332,-8.93 -8.379,0 -13.254,7.418 -13.254,14.7 0,7.964 5.219,14.078 11.95,14.078 5.015,0 9.339,-3.434 12.226,-7.075 l -0.758,-0.824 c -2.605,3.09 -5.285,4.465 -8.718,4.465 -5.426,0 -10.442,-4.808 -10.442,-11.949 0,-0.895 0.141,-1.856 0.277,-2.887 z m -19.847,-1.785 c 1.582,-6.387 5.015,-7.418 7.285,-7.418 3.293,0 6.039,2.953 6.797,7.418 h -14.082" />
</g><g
     transform="translate(17.933824,-296.90442)"
     style="fill:#000000;fill-rule:nonzero;stroke-width:0;stroke-linecap:butt;stroke-linejoin:miter;stroke-miterlimit:10"
     id="g3146">
	<path
   inkscape:connector-curvature="0"
   style="fill:#000000"
   id="path3148"
   d="m 350.027,703.344 c 0,2.812 1.032,3.707 4.461,3.707 h 2.614 v 1.304 H 340.82 v -1.304 c 3.504,-0.071 4.606,-1.512 4.606,-5.153 v -15.863 l -4.606,-1.648 v -1.168 l 7.832,-2.746 h 1.375 v 7.277 h 0.137 c 3.434,-5.629 4.258,-6.934 6.524,-6.934 0.828,0 1.031,0.067 2.335,0.618 0.688,0.273 1.922,0.546 3.575,1.031 l -1.653,4.117 c -1.031,-0.137 -2.336,-0.48 -3.636,-1.098 -0.754,-0.343 -1.579,-0.687 -2.407,-0.687 -1.238,0 -1.992,0.824 -2.675,1.785 -0.895,1.238 -1.653,2.406 -2.2,3.438 v 13.324" />
</g><g
     transform="translate(17.933824,-296.90442)"
     style="fill:#000000;fill-rule:nonzero;stroke-width:0;stroke-linecap:butt;stroke-linejoin:miter;stroke-miterlimit:10"
     id="g3150">
	<path
   inkscape:connector-curvature="0"
   style="fill:#000000"
   id="path3152"
   d="m 367.34,701.418 c 0.82,4.121 3.43,6.457 6.523,6.457 2.742,0 4.875,-2.062 4.875,-4.531 0,-1.446 -0.343,-2.336 -2.199,-4.192 -4.879,-4.875 -10.301,-5.355 -10.301,-11.058 0,-4.532 3.575,-7.692 8.789,-7.692 1.856,0 3.782,0.414 5.496,1.098 l 0.137,6.25 h -1.168 c -0.48,-3.5 -2.75,-5.699 -5.496,-5.699 -2.266,0 -4.183,1.578 -4.183,3.847 0,6.043 12.769,7.075 12.769,15.454 0,4.461 -3.707,7.828 -8.516,7.828 -1.3,0 -2.265,-0.207 -3.019,-0.481 -0.758,-0.207 -1.305,-0.414 -1.856,-0.414 -0.414,0 -0.824,0.278 -1.168,0.824 h -1.031 l -0.754,-7.691 h 1.102" />
</g><g
     transform="translate(17.933824,-296.90442)"
     style="fill:#000000;fill-rule:nonzero;stroke-width:0;stroke-linecap:butt;stroke-linejoin:miter;stroke-miterlimit:10"
     id="g3154">
	<path
   inkscape:connector-curvature="0"
   style="fill:#000000"
   id="path3156"
   d="m 394.273,664.605 c 1.653,0 3.028,1.168 3.028,2.614 0,1.441 -1.375,2.609 -3.028,2.609 -1.64,0 -2.949,-1.168 -2.949,-2.609 0,-1.446 1.309,-2.614 2.949,-2.614 z m 2.821,38.532 c 0,2.402 1.304,3.914 4.941,3.914 v 1.304 h -15.246 v -1.304 c 4.191,0 5.699,-1.375 5.699,-5.016 v -13.801 c 0,-2.679 -0.34,-3.023 -2.129,-3.367 l -3.222,-0.617 v -1.102 l 8.926,-3.089 h 1.031 v 23.078" />
</g><g
     transform="translate(17.933824,-296.90442)"
     style="fill:#000000;fill-rule:nonzero;stroke-width:0;stroke-linecap:butt;stroke-linejoin:miter;stroke-miterlimit:10"
     id="g3158">
	<path
   inkscape:connector-curvature="0"
   style="fill:#000000"
   id="path3160"
   d="m 421.609,681.16 -1.097,3.02 h -8.723 v 16.004 c 0,4.324 3.094,5.769 4.531,5.769 1.512,0 2.887,-1.168 4.192,-3.437 l 1.097,1.031 c -1.648,3.57 -4.328,5.633 -7.488,5.633 -4.051,0 -6.933,-3.367 -6.933,-7.965 V 684.18 h -3.161 v -1.098 c 2.68,-1.305 5.016,-4.465 6.594,-8.723 h 1.168 v 6.801 h 9.82" />
</g><g
     transform="translate(17.933824,-296.90442)"
     style="fill:#000000;fill-rule:nonzero;stroke-width:0;stroke-linecap:butt;stroke-linejoin:miter;stroke-miterlimit:10"
     id="g3162">
	<path
   inkscape:connector-curvature="0"
   style="fill:#000000"
   id="path3164"
   d="m 448.777,688.781 c 2.059,-5.219 0.754,-6.25 -3.297,-6.386 v -1.235 h 11.399 v 1.235 c -2.816,0.343 -4.395,2.265 -5.695,5.492 l -11.676,29.121 c -2.067,5.082 -3.645,7.347 -6.043,7.347 -1.652,0 -2.82,-1.027 -2.82,-2.402 0,-2.816 3.984,-2.129 5.703,-3.844 0.754,-0.757 1.785,-2.543 2.332,-3.918 l 2.058,-5.148 -10.64,-22.598 c -1.305,-2.816 -2.543,-3.98 -5.426,-4.05 v -1.235 h 13.805 v 1.235 c -4.192,0.07 -4.668,1.304 -3.297,4.187 l 7.758,16.762 5.839,-14.563" />
</g><g
     transform="translate(17.933824,-296.90442)"
     style="fill:#000000;fill-rule:nonzero;stroke-width:0;stroke-linecap:butt;stroke-linejoin:miter;stroke-miterlimit:10"
     id="g3166">
	<path
   inkscape:connector-curvature="0"
   style="fill:#000000"
   id="path3168"
   d="m 472.293,694.965 c 0,8.031 6.523,14.215 15.039,14.215 8.176,0 14.563,-6.25 14.563,-14.356 0,-8.172 -6.387,-14.422 -14.766,-14.422 -7.145,0 -14.836,5.082 -14.836,14.563 z m 5.148,-2.34 c 0,-5.902 4.192,-10.574 8.723,-10.574 5.77,0 10.578,6.664 10.578,14.492 0,6.867 -4.601,10.988 -8.652,10.988 -5.906,0 -10.649,-6.593 -10.649,-14.906" />
</g><g
     transform="translate(17.933824,-296.90442)"
     style="fill:#000000;fill-rule:nonzero;stroke-width:0;stroke-linecap:butt;stroke-linejoin:miter;stroke-miterlimit:10"
     id="g3170">
	<path
   inkscape:connector-curvature="0"
   style="fill:#000000"
   id="path3172"
   d="m 521.809,684.18 h -7.418 v 18.816 c 0,3.16 1.238,4.055 5.082,4.055 h 2.613 v 1.304 h -16.965 v -1.304 c 3.984,0 4.668,-0.895 4.668,-4.738 V 684.18 h -5.082 v -1.168 c 1.922,-0.41 3.57,-1.032 5.082,-1.852 0,-5.703 1.238,-10.027 5.289,-14.082 3.363,-3.363 6.594,-4.875 9.75,-4.875 3.848,0 7.074,2.199 7.074,3.227 0,0.55 -1.3,3.297 -1.851,3.297 -0.961,0 -3.504,-3.364 -8.035,-3.364 -4.946,0 -7.625,3.914 -7.625,10.574 v 5.223 h 6.937 l 0.481,3.02" />
</g><g
     transform="translate(17.933824,-296.90442)"
     style="fill:#bf2f38;fill-opacity:1;fill-rule:nonzero;stroke-width:0;stroke-linecap:butt;stroke-linejoin:miter;stroke-miterlimit:10"
     id="g3174">
	<path
   inkscape:connector-curvature="0"
   style="fill:#bf2f38;fill-opacity:1"
   id="path3176"
   d="m 53.9414,674.707 c -0.5703,-3.047 -0.2851,-9.066 2.6914,-15.016 -10.9805,8.286 -11.1211,15.016 -11.1211,15.016 0,0 2.125,-1.629 8.4297,0 z m -5.1016,-18.133 c 0,0 -13.3164,1.914 -17.1406,2.27 -2.6367,1.554 -5.664,5.914 -5.664,5.914 0,0 -3.1172,0.457 -9.3516,1.59 -4.332,2.828 -6.94141,9.422 -1.5586,14.804 -1.6992,-0.355 -1.6992,-0.355 -4.1758,-0.781 -5.31248,3.402 -2.83592,9.707 8.2149,7.512 -3.1172,-0.11 -4.6758,-1.629 -4.6407,-3.613 -0.0703,-2.161 4.1446,-4.852 9.2774,-3.473 -4.8867,-9.242 0.5312,-12.891 0.5312,-12.891 0,0 -2.8672,7.633 3.4024,13.883 0.5664,-0.922 2.4414,-3.504 7.7187,-3.613 5.2578,-0.106 8.5625,2.48 8.6407,5.457 0.0703,2.621 -3.2579,5.383 -7.5782,5.383 l -0.0703,-6.262 c 0,0 -1.4062,0.504 -1.8047,1.058 0.0039,0.29 -0.039,5.274 -0.039,5.274 -1.6993,0 -5.168,-0.707 -7.0078,-3.649 -1.418,-0.14 -9.3165,-1.312 -9.3165,-1.312 l 0.4258,2.09 c 0,0 2.7617,0.461 3.293,3.222 0.6445,3.344 2.5508,6.411 4.25,7.653 3.293,-0.391 8.7461,-4.535 18.7695,-4.391 -9.207,1.274 -18.5547,11.117 -32.0156,7.364 21.3906,7.296 23.5859,-8.922 50.3594,-3.825 -4.1797,-2.55 -10.4102,-3.328 -10.4102,-3.328 0,0 3.3281,-3.613 3.4688,-9.137 0.4258,-0.027 0.9922,-0.07 2.0547,-0.175 0.3554,-1.774 0.6015,-3.571 0.6015,-3.571 0,0 -5.8437,-0.007 -10.7461,-0.007 -11.9375,-12.079 0.5117,-23.446 0.5117,-23.446 z m -29.8867,-0.211 c 3.3633,0.176 7.4532,-1.914 7.7188,-2.09 0,0 -1.418,3.579 1.7695,3.364 3.4609,-0.231 7.4414,-2.004 8.0039,-2.266 v -4.605 c -0.3086,0.226 -3.6797,2.609 -7.5078,3.472 -1.3984,0.313 -0.9219,-0.922 -0.7812,-1.629 0.1445,-0.707 0.2382,-1.289 -2.2657,-0.25 -10.2343,4.25 -10.7656,1.348 -10.7656,0.993 -0.4219,0.496 -0.2422,2.796 3.8281,3.011 z m 54.2461,-21.316 c 0,0 0,72.152 0,73.324 -29.5,-11.617 -41.789,10.906 -73.1992,0 0,0.332 0,-73.324 0,-73.324 h 14.9453 v 7.914 h 8.5703 v -7.914 h 8.4297 v 7.914 h 8.4961 l 0.0039,-7.914 h 8.4961 v 7.914 h 9.2422 v -7.914 h 15.0156" />
</g><g
     transform="translate(17.933824,-296.90442)"
     style="fill:#bf2f38;fill-opacity:1;fill-rule:nonzero;stroke-width:0;stroke-linecap:butt;stroke-linejoin:miter;stroke-miterlimit:10"
     id="g3178">
	<path
   inkscape:connector-curvature="0"
   style="fill:#bf2f38;fill-opacity:1"
   id="path3180"
   d="m 101.352,734.781 c 0,0 -0.348,-0.172 0.316,-0.73 0.082,-0.067 0.211,0.086 0.598,0.09 0.519,0.007 0.793,-0.172 1.226,-0.696 0.653,-0.789 -0.711,-1.093 -1.152,-0.711 -0.485,0.414 -0.832,0.844 -1.25,1.227 0,0 -0.699,0.621 0.262,0.82 z m 25.253,37.043 c -1.167,0.953 -4.781,2.778 -5.683,3.203 -0.902,0.426 -1.195,0.684 -1.859,2 -0.817,1.614 -1.594,4.536 -1.383,4.746 2.23,-0.351 3.824,-2.23 3.824,-2.23 0,0 0.035,-0.461 -0.461,-1.242 -0.41,-0.645 0.391,-1.344 0.887,-0.938 0.379,0.313 0.902,0.375 1.222,0.106 0.317,-0.266 7.278,-4.692 7.594,-5.203 -1.414,-1.399 -2.496,-2.817 -2.496,-2.817 0,0 -0.477,1.418 -1.645,2.375 z m -27.1987,-19.41 c -2.9766,-1.203 -3.6407,-2.008 -4.1954,-2.25 -0.4961,-0.207 -2.5429,0.66 -2.8867,1.543 -0.9219,2.371 -2.9765,6.25 -3.2773,6.801 -0.1602,0.293 -0.336,0.637 -0.3008,1.027 0.0352,0.387 0.1523,1.91 0.1172,2.266 -0.0352,0.355 0.0156,0.816 0.1601,1.168 0.1407,0.355 0.3243,1.875 1.1055,3.398 1.7344,-1.734 1.9883,-4.293 1.875,-3.789 0,0.016 0.5508,-0.933 -0.832,-1.363 -0.3906,-0.121 -0.3321,-1.145 0.0898,-1.274 0.5156,-0.16 0.7774,-0.3 1.0274,-1.218 0.2461,-0.926 1.1836,-4.235 1.4882,-4.871 0.0469,-0.098 0.1329,-0.266 0.3047,-0.344 0.2657,-0.125 0.5821,-0.211 0.8438,-0.254 0.1328,-0.02 0.3828,0.121 0.457,0.199 0.4727,0.477 2.9258,2.469 2.9258,2.469 0,0 1.0977,-0.106 1.7694,-0.391 -0.4217,-0.672 -0.6014,-2.301 -0.6717,-3.117 z m -3,-13.988 c 0,0 -1.0391,1.277 0.1328,1.594 0.0273,0.371 0.1718,1.105 0.3164,1.488 0.1953,0.512 0.5312,0.347 0.9062,-0.082 0.3711,-0.422 0.9688,-1.231 1.4063,-1.696 0.3984,-0.425 1.785,-0.273 1.223,0.583 -0.371,0.566 -0.6644,0.718 -1.1449,0.824 -0.375,0.082 -0.4883,-0.242 -0.9023,0.32 -0.4336,0.586 -0.8946,0.996 -0.1329,0.996 0.3985,0 1.1563,0.371 1.6602,0.289 0.4769,-0.074 0.5269,-0.383 0.5779,-0.808 0.055,-0.446 -0.031,-0.7 0.465,-0.973 0.637,-0.356 1.574,-1.207 1.859,-1.508 0.325,-0.344 0.743,-0.265 1.168,-0.265 0.422,0 2.477,0.25 3.7,-1.583 0.863,-1.292 0.957,-3.054 0.636,-4.648 0.586,0.582 1.371,2.422 0.957,4.141 -0.738,3.066 -2.246,3.238 -3.773,3.558 -0.637,0.903 -2.266,3.223 -3.133,7.442 -0.371,0.246 -3.453,3.218 -0.875,8.101 -0.664,0.215 -2.621,1.055 -3.7811,1.317 -0.7774,0.175 -1.4297,0.218 -1.7461,0.593 -0.3516,0.422 -1.168,1.805 -0.7422,2.496 0.3008,0.489 2.2305,4.805 2.3906,6.137 0.1602,1.324 0.6406,1.641 1.1172,2.071 0.5313,0.476 0.875,0.453 1.6176,1.011 0.754,0.563 1.379,1.578 2.074,2.121 0.742,0.586 1.574,0.852 2.16,0.797 -0.145,-2.16 -0.605,-4.285 -1.277,-4.992 -0.7,-0.734 -1.575,0.316 -1.786,0.371 -0.214,0.055 -0.511,-0.152 -0.64,-0.742 -0.133,-0.613 0.426,-1.117 -0.106,-1.914 -0.9879,-1.481 -1.9293,-3.149 -2.0426,-3.375 -0.6914,-1.352 0.4805,-1.711 0.7695,-1.645 0.6911,0.16 4.8321,0.719 5.4691,0.77 0.636,0.055 0.992,0.16 1.277,-0.16 0.875,-0.981 1.379,-1.7 1.887,-2.707 0.926,0.691 0.289,2.019 0.023,3.593 0.266,0.231 6.27,3.258 14.524,1.063 3.445,-0.914 3.05,-0.191 3.379,0.441 2,3.879 3.418,5.379 5.793,7.282 0.707,0.562 1.203,1.484 1.519,2.015 0.32,0.531 0.398,1.477 0.145,2.09 -0.321,0.762 -2.164,4.066 -2.481,4.531 -0.601,0.887 -1.387,1.629 -2.055,1.985 -2.089,1.117 -2.609,2.117 -2.839,2.898 0.476,0 5.363,0 5.363,0 0,0 0.125,-0.281 0.062,-0.949 -0.089,-0.938 0.762,-1.098 1.028,-1.152 0.265,-0.051 0.742,0.16 1.168,-0.848 0.797,-1.899 3.914,-7.192 4.179,-7.668 0.266,-0.481 1.239,-1.758 0.282,-2.32 -1.805,-1.063 -2.868,-2.809 -3.223,-4.766 -0.141,-0.777 -0.055,-2.059 1.699,-4.246 3.754,-4.676 0.957,-14.309 -7.398,-14.133 -4.742,0.102 -7.379,-0.301 -10.465,-0.918 -1.129,-0.226 -1.324,-0.836 -1.082,-1.523 0.25,-0.707 0.488,-2.118 0.496,-2.692 -0.813,-0.746 -2.055,-1.203 -2.656,-1.418 -0.649,-0.226 -0.973,-0.746 -0.317,-0.797 0.653,-0.05 3.133,0.215 3.133,0.215 0,0 0.09,-1.328 -0.266,-3.277 -1.062,-0.461 -2.41,-0.852 -3.824,-1.027 -0.375,-0.047 -0.703,-0.465 0.246,-0.602 1.243,-0.176 2.375,0.02 3.258,-0.035 0.055,-0.106 -0.422,-2.586 -1.301,-3.586 -0.609,-0.184 -0.933,-0.27 -3.054,-0.524 -0.742,-0.085 -0.778,-0.3 -0.282,-0.46 0.575,-0.184 1.532,-0.372 2.727,-0.293 -0.461,-0.633 -3.543,-6.254 -9.934,-4.567 0.715,0.879 1.063,1.285 1.274,1.887 0.191,0.539 -0.379,0.711 -0.902,0.16 -2.02,-2.125 -3.083,-2.074 -4.383,-2.312 0.851,0.824 1.222,1.648 1.515,2.468 -1.461,1.039 -3.5348,3.508 -3.8278,3.989 -0.5547,0.906 0.2148,1.398 0.2148,1.398 z m 41.3007,-14.235 c -6.535,2.286 -5.57,9.329 -3.809,12.039 2.305,3.543 4.25,3.614 5.719,7.774 1.149,3.246 -0.902,4.941 -2.922,5.684 3.453,2.128 7.016,-0.071 8.289,-2.196 2.348,-3.129 -0.312,-7.191 2.196,-9.312 0.672,-0.567 1.804,-0.957 3.328,-1.028 -1.524,-2.16 -5.098,-1.914 -6.531,0.106 -1.012,-2.336 -3.844,-4.379 -2.817,-8.004 0.672,-2.371 4.426,-3.258 5.844,-1.309 0.773,1.067 0.883,3.153 -1.383,4.215 1.418,-0.105 4.109,-2.551 2.266,-5.879 -1.293,-2.34 -3.469,-2.515 -5.239,-2.515 -3.222,0 -8.57,3.683 -5.152,11.632 -1.969,-1.75 -5.152,-7.859 0.211,-11.207 z m 16.301,-8.277 c 0,-1.172 0,73.41 0,73.414 -40.582,9.879 -41.754,-11.687 -73.2033,0 0.0039,0.953 -0.0117,-73.422 0,-73.414 28.8983,-12.113 40.1603,10.836 73.2033,0" />
</g><g
     transform="translate(17.933824,-296.90442)"
     style="fill:#bf2f38;fill-opacity:1;fill-rule:nonzero;stroke-width:0;stroke-linecap:butt;stroke-linejoin:miter;stroke-miterlimit:10"
     id="g3182">
	<path
   inkscape:connector-curvature="0"
   style="fill:#bf2f38;fill-opacity:1"
   id="path3184"
   d="m 26.6289,757.797 c 0,0 -1.2851,0.836 0.3242,4.367 1.6094,3.524 3.6055,6.809 0.1289,10.684 1.9727,0.023 6.2735,-2.575 1.6719,-10.317 -1.0586,-1.785 -2.2031,-3.019 -2.125,-4.734 z m -4.3516,1.66 c 1.0625,-0.07 1.1954,-1.375 1.004,-2.059 -0.2266,-0.808 -1.5743,-0.91 -1.9024,0.122 -0.3203,1.019 -0.0391,2.007 -0.0391,2.007 0.2657,0.985 1.3711,1.262 1.4688,1.164 -0.6172,-0.55 -0.4492,-0.867 -0.5313,-1.234 z m 1.0196,4.688 c -0.2539,3.117 -2.043,3.578 -2.043,3.578 -3.1211,-1.434 -4.793,2.492 -2.1758,3.648 3.3203,1.469 5.3477,-2.82 5.5469,-3.613 0.5586,-2.25 0.6133,-3.84 0.3594,-7.488 -0.211,-3.114 0.5547,-3.582 1.0664,-3.668 0.5156,-0.086 1.582,-0.129 2.6445,3.113 1.0664,3.242 3.3672,3.711 3.3672,3.711 0,0 -3.332,-5.422 1.3008,-10.426 2.1562,-2.324 6.5469,-3.648 5.7344,-6.906 0,0 -0.6797,1.168 -2,1.511 -1.3204,0.34 -3.8829,0.723 -3.8829,0.723 0,0 6.1446,-2.898 7.25,-6.226 0,0 1.9219,3.199 -0.6367,7.89 0,0 2.4336,-0.871 5.0586,0.313 6.6836,2.961 5.9727,12.48 -2.4844,14.75 -12.0351,3.23 -7.664,12.539 -0.7734,13.109 -0.7383,-0.469 -0.9062,-3.273 0.3047,-4.941 0.6016,-0.539 1.6836,-1.625 2.3672,0.66 1.2109,4.031 4.7422,4.359 6.3828,3.855 -0.4297,-0.363 -1.2344,-1.59 -1.1367,-2.297 0.2031,-1.41 1.9648,0.055 2.6054,0.239 4.7422,1.343 7.2618,0.168 7.5313,-0.539 -1.0586,-0.219 -0.875,-0.102 -1.5469,-0.27 -0.625,-0.156 -1.8437,-1.023 0.4375,-1.547 4.1875,-0.957 6.4922,-5.277 3.7344,-8.605 -2.6328,-3.18 -5.9492,-2.692 -7.0273,-2.254 4.539,0.976 4.7656,4.629 2.4531,6.488 -2.0156,1.516 -7.0274,2.117 -8.7422,-1.242 -1.082,0.781 -1.4609,2.035 -1.2774,3.598 -0.4531,-0.172 -2.3554,-2.875 0.4688,-5.11 13.0977,-8.445 10.9844,-22.633 -0.0977,-28.472 l -0.1406,-0.059 c -10.0547,-5.777 -18.8515,-0.504 -18.8515,-0.504 6.2187,-6.226 16.9609,-2.523 18.5078,-1.75 0,0 -1.2383,-1.074 -1.8946,-2.062 -0.8515,-1.278 -0.8203,-2.5 -0.8203,-2.5 -4.2656,2.382 -5.3633,-1.274 -5.3633,-1.274 0,0 -3.6953,3.328 -6.0937,0.621 -2.0938,-2.371 1.3008,-5.586 1.3008,-5.586 -21.6367,7.102 -17.5352,19.321 -17.5352,19.321 0,0 -3.1328,2.875 -3.8359,9.812 -0.7969,7.875 3.1289,13.477 8.0312,11.938 1.125,-0.352 1.6797,-0.887 1.8985,-1.477 z m 49.9062,-48.231 c 0.0117,-0.008 -0.0039,74.367 0,73.414 -31.4492,-11.687 -32.6172,9.879 -73.2031,0 0,-0.004 0,-74.586 0,-73.414 33.0391,10.836 44.3047,-12.113 73.2031,0" />
</g></g>
</g>
</g>      <text
         id="text881"
         y="100.18461"
         x="44.615704"
         style="font-style:normal;font-variant:normal;font-weight:normal;font-stretch:normal;font-size:14.11111069px;line-height:1.25;font-family:Arial;-inkscape-font-specification:Arial;letter-spacing:0px;word-spacing:0px;fill:#000000;fill-opacity:1;stroke:none;stroke-width:0.26458332"
         xml:space="preserve"><tspan
           style="font-style:normal;font-variant:normal;font-weight:bold;font-stretch:normal;font-size:35.27777863px;font-family:Arial;-inkscape-font-specification:'Arial Bold';stroke-width:0.26458332"
           y="100.18461"
           x="44.615704"
           id="tspan879"
           sodipodi:role="line">Optimal Decision Making</tspan></text>
      <text
         id="text885"
         y="63.172096"
         x="128.37459"
         style="font-style:normal;font-variant:normal;font-weight:normal;font-stretch:normal;font-size:14.11111069px;line-height:1.25;font-family:Arial;-inkscape-font-specification:Arial;letter-spacing:0px;word-spacing:0px;fill:#000000;fill-opacity:1;stroke:none;stroke-width:0.26458332"
         xml:space="preserve"><tspan
           id="tspan887"
           style="font-style:normal;font-variant:normal;font-weight:bold;font-stretch:normal;font-size:35.27777863px;font-family:Arial;-inkscape-font-specification:'Arial Bold';stroke-width:0.26458332"
           y="63.172096"
           x="128.37459"
           sodipodi:role="line">Introduction to </tspan></text>
    </g>
  </g>
  <g
     inkscape:groupmode="layer"
     id="layer2"
     inkscape:label="section" />
</svg>
