<?xml version="1.0" encoding="UTF-8" standalone="no"?>
<!-- Created with Inkscape (http://www.inkscape.org/) -->

<svg
   xmlns:dc="http://purl.org/dc/elements/1.1/"
   xmlns:cc="http://creativecommons.org/ns#"
   xmlns:rdf="http://www.w3.org/1999/02/22-rdf-syntax-ns#"
   xmlns:svg="http://www.w3.org/2000/svg"
   xmlns="http://www.w3.org/2000/svg"
   xmlns:sodipodi="http://sodipodi.sourceforge.net/DTD/sodipodi-0.dtd"
   xmlns:inkscape="http://www.inkscape.org/namespaces/inkscape"
   width="52.349823mm"
   height="54.060112mm"
   viewBox="0 0 52.349823 54.060112"
   version="1.1"
   id="svg5020"
   inkscape:version="0.92.3 (2405546, 2018-03-11)"
   sodipodi:docname="m_random_weak.svg">
  <defs
     id="defs5014">
    <clipPath
       id="p21b5a2699a">
      <rect
         height="115.5"
         width="130.58533"
         x="311.29999"
         y="26.799999"
         id="rect2281" />
    </clipPath>
    <clipPath
       id="clipPath4621">
      <rect
         height="115.5"
         width="130.58533"
         x="311.29999"
         y="26.799999"
         id="rect4619" />
    </clipPath>
    <clipPath
       id="clipPath4625">
      <rect
         height="115.5"
         width="130.58533"
         x="311.29999"
         y="26.799999"
         id="rect4623" />
    </clipPath>
    <clipPath
       id="clipPath4629">
      <rect
         height="115.5"
         width="130.58533"
         x="311.29999"
         y="26.799999"
         id="rect4627" />
    </clipPath>
    <clipPath
       id="clipPath4633">
      <rect
         height="115.5"
         width="130.58533"
         x="311.29999"
         y="26.799999"
         id="rect4631" />
    </clipPath>
    <clipPath
       id="clipPath4637">
      <rect
         height="115.5"
         width="130.58533"
         x="311.29999"
         y="26.799999"
         id="rect4635" />
    </clipPath>
    <clipPath
       id="clipPath4641">
      <rect
         height="115.5"
         width="130.58533"
         x="311.29999"
         y="26.799999"
         id="rect4639" />
    </clipPath>
    <clipPath
       id="clipPath4645">
      <rect
         height="115.5"
         width="130.58533"
         x="311.29999"
         y="26.799999"
         id="rect4643" />
    </clipPath>
    <clipPath
       id="clipPath4649">
      <rect
         height="115.5"
         width="130.58533"
         x="311.29999"
         y="26.799999"
         id="rect4647" />
    </clipPath>
    <clipPath
       id="clipPath4653">
      <rect
         height="115.5"
         width="130.58533"
         x="311.29999"
         y="26.799999"
         id="rect4651" />
    </clipPath>
    <clipPath
       id="clipPath4657">
      <rect
         height="115.5"
         width="130.58533"
         x="311.29999"
         y="26.799999"
         id="rect4655" />
    </clipPath>
    <clipPath
       id="clipPath4661">
      <rect
         height="115.5"
         width="130.58533"
         x="311.29999"
         y="26.799999"
         id="rect4659" />
    </clipPath>
    <clipPath
       id="clipPath4665">
      <rect
         height="115.5"
         width="130.58533"
         x="311.29999"
         y="26.799999"
         id="rect4663" />
    </clipPath>
    <clipPath
       id="clipPath4669">
      <rect
         height="115.5"
         width="130.58533"
         x="311.29999"
         y="26.799999"
         id="rect4667" />
    </clipPath>
    <clipPath
       id="clipPath4673">
      <rect
         height="115.5"
         width="130.58533"
         x="311.29999"
         y="26.799999"
         id="rect4671" />
    </clipPath>
    <clipPath
       id="clipPath4677">
      <rect
         height="115.5"
         width="130.58533"
         x="311.29999"
         y="26.799999"
         id="rect4675" />
    </clipPath>
    <clipPath
       id="clipPath4681">
      <rect
         height="115.5"
         width="130.58533"
         x="311.29999"
         y="26.799999"
         id="rect4679" />
    </clipPath>
    <clipPath
       id="clipPath4685">
      <rect
         height="115.5"
         width="130.58533"
         x="311.29999"
         y="26.799999"
         id="rect4683" />
    </clipPath>
    <clipPath
       id="clipPath4689">
      <rect
         height="115.5"
         width="130.58533"
         x="311.29999"
         y="26.799999"
         id="rect4687" />
    </clipPath>
    <clipPath
       id="clipPath4693">
      <rect
         height="115.5"
         width="130.58533"
         x="311.29999"
         y="26.799999"
         id="rect4691" />
    </clipPath>
    <clipPath
       id="clipPath4697">
      <rect
         height="115.5"
         width="130.58533"
         x="311.29999"
         y="26.799999"
         id="rect4695" />
    </clipPath>
    <clipPath
       id="clipPath4701">
      <rect
         height="115.5"
         width="130.58533"
         x="311.29999"
         y="26.799999"
         id="rect4699" />
    </clipPath>
    <clipPath
       id="clipPath4705">
      <rect
         height="115.5"
         width="130.58533"
         x="311.29999"
         y="26.799999"
         id="rect4703" />
    </clipPath>
    <clipPath
       id="clipPath4709">
      <rect
         height="115.5"
         width="130.58533"
         x="311.29999"
         y="26.799999"
         id="rect4707" />
    </clipPath>
    <clipPath
       id="clipPath4713">
      <rect
         height="115.5"
         width="130.58533"
         x="311.29999"
         y="26.799999"
         id="rect4711" />
    </clipPath>
    <clipPath
       id="clipPath4717">
      <rect
         height="115.5"
         width="130.58533"
         x="311.29999"
         y="26.799999"
         id="rect4715" />
    </clipPath>
    <clipPath
       id="clipPath4721">
      <rect
         height="115.5"
         width="130.58533"
         x="311.29999"
         y="26.799999"
         id="rect4719" />
    </clipPath>
    <clipPath
       id="clipPath4725">
      <rect
         height="115.5"
         width="130.58533"
         x="311.29999"
         y="26.799999"
         id="rect4723" />
    </clipPath>
    <clipPath
       id="clipPath4729">
      <rect
         height="115.5"
         width="130.58533"
         x="311.29999"
         y="26.799999"
         id="rect4727" />
    </clipPath>
    <clipPath
       id="clipPath4733">
      <rect
         height="115.5"
         width="130.58533"
         x="311.29999"
         y="26.799999"
         id="rect4731" />
    </clipPath>
    <clipPath
       id="clipPath4737">
      <rect
         height="115.5"
         width="130.58533"
         x="311.29999"
         y="26.799999"
         id="rect4735" />
    </clipPath>
    <clipPath
       id="clipPath4741">
      <rect
         height="115.5"
         width="130.58533"
         x="311.29999"
         y="26.799999"
         id="rect4739" />
    </clipPath>
    <clipPath
       id="clipPath4745">
      <rect
         height="115.5"
         width="130.58533"
         x="311.29999"
         y="26.799999"
         id="rect4743" />
    </clipPath>
    <clipPath
       id="clipPath4749">
      <rect
         height="115.5"
         width="130.58533"
         x="311.29999"
         y="26.799999"
         id="rect4747" />
    </clipPath>
    <clipPath
       id="clipPath4753">
      <rect
         height="115.5"
         width="130.58533"
         x="311.29999"
         y="26.799999"
         id="rect4751" />
    </clipPath>
    <clipPath
       id="clipPath4757">
      <rect
         height="115.5"
         width="130.58533"
         x="311.29999"
         y="26.799999"
         id="rect4755" />
    </clipPath>
    <clipPath
       id="clipPath4761">
      <rect
         height="115.5"
         width="130.58533"
         x="311.29999"
         y="26.799999"
         id="rect4759" />
    </clipPath>
    <clipPath
       id="clipPath4765">
      <rect
         height="115.5"
         width="130.58533"
         x="311.29999"
         y="26.799999"
         id="rect4763" />
    </clipPath>
    <clipPath
       id="clipPath4769">
      <rect
         height="115.5"
         width="130.58533"
         x="311.29999"
         y="26.799999"
         id="rect4767" />
    </clipPath>
    <clipPath
       id="clipPath4773">
      <rect
         height="115.5"
         width="130.58533"
         x="311.29999"
         y="26.799999"
         id="rect4771" />
    </clipPath>
    <clipPath
       id="clipPath4777">
      <rect
         height="115.5"
         width="130.58533"
         x="311.29999"
         y="26.799999"
         id="rect4775" />
    </clipPath>
    <clipPath
       id="clipPath4781">
      <rect
         height="115.5"
         width="130.58533"
         x="311.29999"
         y="26.799999"
         id="rect4779" />
    </clipPath>
    <clipPath
       id="clipPath4785">
      <rect
         height="115.5"
         width="130.58533"
         x="311.29999"
         y="26.799999"
         id="rect4783" />
    </clipPath>
    <clipPath
       id="clipPath4789">
      <rect
         height="115.5"
         width="130.58533"
         x="311.29999"
         y="26.799999"
         id="rect4787" />
    </clipPath>
    <clipPath
       id="clipPath4793">
      <rect
         height="115.5"
         width="130.58533"
         x="311.29999"
         y="26.799999"
         id="rect4791" />
    </clipPath>
    <clipPath
       id="clipPath4797">
      <rect
         height="115.5"
         width="130.58533"
         x="311.29999"
         y="26.799999"
         id="rect4795" />
    </clipPath>
    <clipPath
       id="clipPath4801">
      <rect
         height="115.5"
         width="130.58533"
         x="311.29999"
         y="26.799999"
         id="rect4799" />
    </clipPath>
    <clipPath
       id="clipPath4805">
      <rect
         height="115.5"
         width="130.58533"
         x="311.29999"
         y="26.799999"
         id="rect4803" />
    </clipPath>
    <clipPath
       id="clipPath4809">
      <rect
         height="115.5"
         width="130.58533"
         x="311.29999"
         y="26.799999"
         id="rect4807" />
    </clipPath>
    <clipPath
       id="clipPath4813">
      <rect
         height="115.5"
         width="130.58533"
         x="311.29999"
         y="26.799999"
         id="rect4811" />
    </clipPath>
    <clipPath
       id="clipPath4817">
      <rect
         height="115.5"
         width="130.58533"
         x="311.29999"
         y="26.799999"
         id="rect4815" />
    </clipPath>
    <clipPath
       id="clipPath4821">
      <rect
         height="115.5"
         width="130.58533"
         x="311.29999"
         y="26.799999"
         id="rect4819" />
    </clipPath>
    <clipPath
       id="clipPath4825">
      <rect
         height="115.5"
         width="130.58533"
         x="311.29999"
         y="26.799999"
         id="rect4823" />
    </clipPath>
    <clipPath
       id="clipPath4829">
      <rect
         height="115.5"
         width="130.58533"
         x="311.29999"
         y="26.799999"
         id="rect4827" />
    </clipPath>
    <clipPath
       id="clipPath4833">
      <rect
         height="115.5"
         width="130.58533"
         x="311.29999"
         y="26.799999"
         id="rect4831" />
    </clipPath>
    <clipPath
       id="clipPath4837">
      <rect
         height="115.5"
         width="130.58533"
         x="311.29999"
         y="26.799999"
         id="rect4835" />
    </clipPath>
    <clipPath
       id="clipPath4841">
      <rect
         height="115.5"
         width="130.58533"
         x="311.29999"
         y="26.799999"
         id="rect4839" />
    </clipPath>
    <clipPath
       id="clipPath4845">
      <rect
         height="115.5"
         width="130.58533"
         x="311.29999"
         y="26.799999"
         id="rect4843" />
    </clipPath>
    <clipPath
       id="clipPath4849">
      <rect
         height="115.5"
         width="130.58533"
         x="311.29999"
         y="26.799999"
         id="rect4847" />
    </clipPath>
    <clipPath
       id="clipPath4853">
      <rect
         height="115.5"
         width="130.58533"
         x="311.29999"
         y="26.799999"
         id="rect4851" />
    </clipPath>
    <clipPath
       id="clipPath4857">
      <rect
         height="115.5"
         width="130.58533"
         x="311.29999"
         y="26.799999"
         id="rect4855" />
    </clipPath>
    <path
       style="stroke-linecap:butt;stroke-linejoin:round"
       inkscape:connector-curvature="0"
       id="DejaVuSans-97"
       d="m 34.28125,27.484375 q -10.890625,0 -15.09375,-2.484375 -4.203125,-2.484375 -4.203125,-8.5 0,-4.78125 3.15625,-7.59375 3.15625,-2.796875 8.5625,-2.796875 7.484375,0 12,5.296875 4.515625,5.296875 4.515625,14.078125 v 2 z m 17.921875,3.71875 V 0 H 43.21875 v 8.296875 q -3.078125,-4.96875 -7.671875,-7.34375 -4.59375,-2.375 -11.234375,-2.375 -8.390625,0 -13.359375,4.71875 Q 6,8.015625 6,15.921875 q 0,9.21875 6.171875,13.90625 6.1875,4.6875 18.4375,4.6875 H 43.21875 v 0.890625 q 0,6.203125 -4.078125,9.59375 -4.078125,3.390625 -11.453125,3.390625 -4.6875,0 -9.140625,-1.125 -4.4375,-1.125 -8.53125,-3.375 v 8.3125 q 4.921875,1.90625 9.5625,2.84375 Q 24.21875,56 28.609375,56 q 11.875,0 17.734375,-6.15625 5.859375,-6.140625 5.859375,-18.640625 z" />
    <path
       style="stroke-linecap:butt;stroke-linejoin:round"
       inkscape:connector-curvature="0"
       id="DejaVuSans-109"
       d="M 52,44.1875 Q 55.375,50.25 60.0625,53.125 64.75,56 71.09375,56 q 8.546875,0 13.1875,-5.984375 4.640625,-5.96875 4.640625,-17 V 0 h -9.03125 v 32.71875 q 0,7.859375 -2.796875,11.65625 -2.78125,3.8125 -8.484375,3.8125 -6.984375,0 -11.046875,-4.640625 -4.046875,-4.625 -4.046875,-12.640625 V 0 h -9.03125 v 32.71875 q 0,7.90625 -2.78125,11.6875 -2.78125,3.78125 -8.59375,3.78125 -6.890625,0 -10.953125,-4.65625 -4.046875,-4.65625 -4.046875,-12.625 V 0 h -9.03125 v 54.6875 h 9.03125 v -8.5 q 3.078125,5.03125 7.375,7.421875 Q 29.78125,56 35.6875,56 41.65625,56 45.828125,52.96875 50,49.953125 52,44.1875 Z" />
    <path
       style="stroke-linecap:butt;stroke-linejoin:round"
       inkscape:connector-curvature="0"
       id="DejaVuSans-119"
       d="M 4.203125,54.6875 H 13.1875 L 24.421875,12.015625 35.59375,54.6875 H 46.1875 L 57.421875,12.015625 68.609375,54.6875 H 77.59375 L 63.28125,0 H 52.6875 L 40.921875,44.828125 29.109375,0 H 18.5 Z" />
    <path
       style="stroke-linecap:butt;stroke-linejoin:round"
       inkscape:connector-curvature="0"
       id="DejaVuSans-107"
       d="m 9.078125,75.984375 h 9.03125 v -44.875 l 26.8125,23.578125 h 11.46875 l -29,-25.578125 L 57.625,0 H 45.90625 L 18.109375,26.703125 V 0 h -9.03125 z" />
  </defs>
  <sodipodi:namedview
     id="base"
     pagecolor="#ffffff"
     bordercolor="#666666"
     borderopacity="1.0"
     inkscape:pageopacity="0.0"
     inkscape:pageshadow="2"
     inkscape:zoom="1.4"
     inkscape:cx="41.479452"
     inkscape:cy="57.617001"
     inkscape:document-units="mm"
     inkscape:current-layer="layer1"
     showgrid="false"
     fit-margin-top="3"
     fit-margin-right="3"
     fit-margin-bottom="3"
     fit-margin-left="3"
     inkscape:window-width="1596"
     inkscape:window-height="861"
     inkscape:window-x="0"
     inkscape:window-y="18"
     inkscape:window-maximized="0" />
  <metadata
     id="metadata5017">
    <rdf:RDF>
      <cc:Work
         rdf:about="">
        <dc:format>image/svg+xml</dc:format>
        <dc:type
           rdf:resource="http://purl.org/dc/dcmitype/StillImage" />
        <dc:title></dc:title>
      </cc:Work>
    </rdf:RDF>
  </metadata>
  <g
     inkscape:label="Layer 1"
     inkscape:groupmode="layer"
     id="layer1"
     transform="translate(-8.2060063,-88.377409)">
    <g
       id="matplotlib.axis_5"
       style="stroke-linecap:butt;stroke-linejoin:round"
       transform="matrix(0.35277777,0,0,0.35277777,-98.835663,89.096134)" />
    <g
       id="matplotlib.axis_6"
       style="stroke-linecap:butt;stroke-linejoin:round"
       transform="matrix(0.35277777,0,0,0.35277777,-98.835663,89.096134)" />
    <g
       id="g6445"
       transform="translate(0.36306062)">
      <g
         transform="matrix(0.35277777,0,0,0.35277777,-98.835663,89.096134)"
         style="stroke-linecap:butt;stroke-linejoin:round"
         id="patch_156">
        <path
           inkscape:connector-curvature="0"
           id="path544"
           style="fill:#ffffff;stroke-linecap:butt;stroke-linejoin:round"
           d="M 311.3,142.3 H 441.88533 V 26.8 H 311.3 Z" />
      </g>
      <g
         transform="matrix(0.35277777,0,0,0.35277777,-98.835663,89.096134)"
         style="stroke-linecap:butt;stroke-linejoin:round"
         id="patch_157">
        <path
           inkscape:connector-curvature="0"
           id="path547"
           style="fill:#fdc086;stroke:#000000;stroke-width:0.40000001;stroke-linecap:butt;stroke-linejoin:miter"
           d="m 399.05027,55.479487 c 0,-1.818495 -0.72316,-3.564369 -2.00903,-4.850239 -1.28587,-1.28587 -3.03175,-2.009034 -4.85024,-2.009034 -1.8185,0 -3.56437,0.723164 -4.85024,2.009034 -1.28587,1.28587 -2.00903,3.031744 -2.00903,4.850239 h 6.85927 z"
           clip-path="url(#p21b5a2699a)" />
      </g>
      <g
         transform="matrix(0.35277777,0,0,0.35277777,-98.835663,89.096134)"
         style="stroke-linecap:butt;stroke-linejoin:round"
         id="patch_158">
        <path
           inkscape:connector-curvature="0"
           id="path550"
           style="fill:#ffff99;stroke:#000000;stroke-width:0.40000001;stroke-linecap:butt;stroke-linejoin:miter"
           d="m 385.33173,55.479487 c 0,1.818494 0.72316,3.564368 2.00903,4.850238 1.28587,1.28587 3.03174,2.009034 4.85024,2.009034 1.81849,0 3.56437,-0.723164 4.85024,-2.009034 1.28587,-1.28587 2.00903,-3.031744 2.00903,-4.850238 H 392.191 Z"
           clip-path="url(#p21b5a2699a)" />
      </g>
      <g
         transform="matrix(0.35277777,0,0,0.35277777,-98.835663,89.096134)"
         style="stroke-linecap:butt;stroke-linejoin:round"
         id="patch_159">
        <path
           inkscape:connector-curvature="0"
           id="path553"
           style="fill:#ffff99;stroke:#000000;stroke-width:0.40000001;stroke-linecap:butt;stroke-linejoin:miter"
           d="m 402.2049,116.22987 c 0,-0.90075 -0.17743,-1.79275 -0.52213,-2.62493 -0.3447,-0.83219 -0.84997,-1.58838 -1.4869,-2.22531 -0.63693,-0.63693 -1.39312,-1.1422 -2.22531,-1.4869 -0.83219,-0.34471 -1.72418,-0.52214 -2.62493,-0.52214 -0.90075,0 -1.79274,0.17743 -2.62493,0.52214 -0.83219,0.3447 -1.58838,0.84997 -2.22531,1.4869 -0.63692,0.63693 -1.1422,1.39312 -1.4869,2.22531 -0.3447,0.83218 -0.52213,1.72418 -0.52213,2.62493 0,0.90075 0.17743,1.79274 0.52213,2.62493 0.3447,0.83218 0.84998,1.58838 1.4869,2.22531 0.63693,0.63692 1.39312,1.1422 2.22531,1.4869 0.83219,0.3447 1.72418,0.52213 2.62493,0.52213 0.90075,0 1.79274,-0.17743 2.62493,-0.52213 0.83219,-0.3447 1.58838,-0.84998 2.22531,-1.4869 0.63693,-0.63693 1.1422,-1.39313 1.4869,-2.22531 0.3447,-0.83219 0.52213,-1.72418 0.52213,-2.62493 m -6.85927,0 m 6.85927,0 z"
           clip-path="url(#p21b5a2699a)" />
      </g>
      <g
         transform="matrix(0.35277777,0,0,0.35277777,-98.835663,89.096134)"
         style="stroke-linecap:butt;stroke-linejoin:round"
         id="patch_160">
        <path
           inkscape:connector-curvature="0"
           id="path556"
           style="fill:#beaed4;stroke:#000000;stroke-width:0.40000001;stroke-linecap:butt;stroke-linejoin:miter"
           d="m 400.73695,73.627025 c 0,-0.900751 -0.17742,-1.792744 -0.52213,-2.62493 -0.3447,-0.832186 -0.84997,-1.588381 -1.4869,-2.225308 -0.63693,-0.636928 -1.39312,-1.142201 -2.22531,-1.486904 -0.83218,-0.344702 -1.72418,-0.522131 -2.62493,-0.522131 -0.90075,0 -1.79274,0.177429 -2.62493,0.522131 -0.83218,0.344703 -1.58838,0.849976 -2.22531,1.486904 -0.63692,0.636927 -1.1422,1.393122 -1.4869,2.225308 -0.3447,0.832186 -0.52213,1.724179 -0.52213,2.62493 0,0.900752 0.17743,1.792744 0.52213,2.62493 0.3447,0.832186 0.84998,1.588381 1.4869,2.225309 0.63693,0.636927 1.39313,1.1422 2.22531,1.486903 0.83219,0.344703 1.72418,0.522131 2.62493,0.522131 0.90075,0 1.79275,-0.177428 2.62493,-0.522131 0.83219,-0.344703 1.58838,-0.849976 2.22531,-1.486903 0.63693,-0.636928 1.1422,-1.393123 1.4869,-2.225309 0.34471,-0.832186 0.52213,-1.724178 0.52213,-2.62493 m -6.85927,0 m 6.85927,0 z"
           clip-path="url(#p21b5a2699a)" />
      </g>
      <g
         transform="matrix(0.35277777,0,0,0.35277777,-98.835663,89.096134)"
         style="stroke-linecap:butt;stroke-linejoin:round"
         id="patch_161">
        <path
           inkscape:connector-curvature="0"
           id="path559"
           style="fill:#7fc97f;stroke:#000000;stroke-width:0.40000001;stroke-linecap:butt;stroke-linejoin:miter"
           d="m 362.43213,68.953507 c 0,-0.900751 -0.17743,-1.792744 -0.52213,-2.62493 -0.3447,-0.832186 -0.84998,-1.588381 -1.4869,-2.225308 -0.63693,-0.636928 -1.39313,-1.142201 -2.22531,-1.486904 -0.83219,-0.344702 -1.72418,-0.522131 -2.62493,-0.522131 -0.90075,0 -1.79275,0.177429 -2.62493,0.522131 -0.83219,0.344703 -1.58838,0.849976 -2.22531,1.486904 -0.63693,0.636927 -1.1422,1.393122 -1.4869,2.225308 -0.34471,0.832186 -0.52213,1.724179 -0.52213,2.62493 0,0.900751 0.17742,1.792744 0.52213,2.62493 0.3447,0.832186 0.84997,1.588381 1.4869,2.225308 0.63693,0.636928 1.39312,1.142201 2.22531,1.486904 0.83218,0.344702 1.72418,0.522131 2.62493,0.522131 0.90075,0 1.79274,-0.177429 2.62493,-0.522131 0.83218,-0.344703 1.58838,-0.849976 2.22531,-1.486904 0.63692,-0.636927 1.1422,-1.393122 1.4869,-2.225308 0.3447,-0.832186 0.52213,-1.724179 0.52213,-2.62493 m -6.85927,0 m 6.85927,0 z"
           clip-path="url(#p21b5a2699a)" />
      </g>
      <g
         transform="matrix(0.35277777,0,0,0.35277777,-98.835663,89.096134)"
         style="stroke-linecap:butt;stroke-linejoin:round"
         id="patch_162">
        <path
           inkscape:connector-curvature="0"
           id="path562"
           style="fill:#fdc086;stroke:#000000;stroke-width:0.40000001;stroke-linecap:butt;stroke-linejoin:miter"
           d="m 354.29341,114.41886 c 0,-0.90075 -0.17743,-1.79274 -0.52213,-2.62492 -0.34471,-0.83219 -0.84998,-1.58839 -1.48691,-2.22531 -0.63692,-0.63693 -1.39312,-1.1422 -2.22531,-1.48691 -0.83218,-0.3447 -1.72417,-0.52213 -2.62492,-0.52213 -0.90076,0 -1.79275,0.17743 -2.62493,0.52213 -0.83219,0.34471 -1.58839,0.84998 -2.22531,1.48691 -0.63693,0.63692 -1.1422,1.39312 -1.48691,2.22531 -0.3447,0.83218 -0.52213,1.72417 -0.52213,2.62492 0,0.90076 0.17743,1.79275 0.52213,2.62494 0.34471,0.83218 0.84998,1.58838 1.48691,2.2253 0.63692,0.63693 1.39312,1.1422 2.22531,1.48691 0.83218,0.3447 1.72417,0.52213 2.62493,0.52213 0.90075,0 1.79274,-0.17743 2.62492,-0.52213 0.83219,-0.34471 1.58839,-0.84998 2.22531,-1.48691 0.63693,-0.63692 1.1422,-1.39312 1.48691,-2.2253 0.3447,-0.83219 0.52213,-1.72418 0.52213,-2.62494 m -6.85927,0 m 6.85927,0 z"
           clip-path="url(#p21b5a2699a)" />
      </g>
      <g
         transform="matrix(0.35277777,0,0,0.35277777,-98.835663,89.096134)"
         style="stroke-linecap:butt;stroke-linejoin:round"
         id="patch_163">
        <path
           inkscape:connector-curvature="0"
           id="path565"
           style="fill:#beaed4;stroke:#000000;stroke-width:0.40000001;stroke-linecap:butt;stroke-linejoin:miter"
           d="m 422.0542,49.765875 c 0,-0.900752 -0.17743,-1.792744 -0.52213,-2.62493 -0.3447,-0.832186 -0.84998,-1.588381 -1.4869,-2.225308 -0.63693,-0.636928 -1.39313,-1.142201 -2.22531,-1.486904 -0.83219,-0.344703 -1.72418,-0.522131 -2.62493,-0.522131 -0.90075,0 -1.79275,0.177428 -2.62493,0.522131 -0.83219,0.344703 -1.58838,0.849976 -2.22531,1.486904 -0.63693,0.636927 -1.1422,1.393122 -1.4869,2.225308 -0.34471,0.832186 -0.52214,1.724178 -0.52214,2.62493 0,0.900751 0.17743,1.792744 0.52214,2.62493 0.3447,0.832186 0.84997,1.588381 1.4869,2.225308 0.63693,0.636928 1.39312,1.142201 2.22531,1.486904 0.83218,0.344702 1.72418,0.522131 2.62493,0.522131 0.90075,0 1.79274,-0.177429 2.62493,-0.522131 0.83218,-0.344703 1.58838,-0.849976 2.22531,-1.486904 0.63692,-0.636927 1.1422,-1.393122 1.4869,-2.225308 0.3447,-0.832186 0.52213,-1.724179 0.52213,-2.62493 m -6.85927,0 m 6.85927,0 z"
           clip-path="url(#p21b5a2699a)" />
      </g>
      <g
         transform="matrix(0.35277777,0,0,0.35277777,-98.835663,89.096134)"
         style="stroke-linecap:butt;stroke-linejoin:round"
         id="patch_164">
        <path
           inkscape:connector-curvature="0"
           id="path568"
           style="fill:#fdc086;stroke:#000000;stroke-width:0.40000001;stroke-linecap:butt;stroke-linejoin:miter"
           d="m 355.62839,121.19953 c 0,-0.90075 -0.17742,-1.79275 -0.52213,-2.62493 -0.3447,-0.83219 -0.84997,-1.58838 -1.4869,-2.22531 -0.63693,-0.63693 -1.39312,-1.1422 -2.22531,-1.4869 -0.83218,-0.34471 -1.72418,-0.52213 -2.62493,-0.52213 -0.90075,0 -1.79274,0.17742 -2.62493,0.52213 -0.83218,0.3447 -1.58838,0.84997 -2.22531,1.4869 -0.63692,0.63693 -1.1422,1.39312 -1.4869,2.22531 -0.3447,0.83218 -0.52213,1.72418 -0.52213,2.62493 0,0.90075 0.17743,1.79274 0.52213,2.62493 0.3447,0.83218 0.84998,1.58838 1.4869,2.22531 0.63693,0.63692 1.39313,1.1422 2.22531,1.4869 0.83219,0.3447 1.72418,0.52213 2.62493,0.52213 0.90075,0 1.79275,-0.17743 2.62493,-0.52213 0.83219,-0.3447 1.58838,-0.84998 2.22531,-1.4869 0.63693,-0.63693 1.1422,-1.39313 1.4869,-2.22531 0.34471,-0.83219 0.52213,-1.72418 0.52213,-2.62493 m -6.85927,0 m 6.85927,0 z"
           clip-path="url(#p21b5a2699a)" />
      </g>
      <g
         transform="matrix(0.35277777,0,0,0.35277777,-98.835663,89.096134)"
         style="stroke-linecap:butt;stroke-linejoin:round"
         id="patch_165">
        <path
           inkscape:connector-curvature="0"
           id="path571"
           style="fill:#7fc97f;stroke:#000000;stroke-width:0.40000001;stroke-linecap:butt;stroke-linejoin:miter"
           d="m 375.26948,69.970774 c 0,-1.203964 -0.31699,-2.386973 -0.91897,-3.429636 -0.60199,-1.042664 -1.46801,-1.908686 -2.51067,-2.510669 -1.04266,-0.601982 -2.22567,-0.918968 -3.42964,-0.918968 -1.20396,0 -2.38697,0.316986 -3.42963,0.918968 l 3.42963,5.940305 z"
           clip-path="url(#p21b5a2699a)" />
      </g>
      <g
         transform="matrix(0.35277777,0,0,0.35277777,-98.835663,89.096134)"
         style="stroke-linecap:butt;stroke-linejoin:round"
         id="patch_166">
        <path
           inkscape:connector-curvature="0"
           id="path574"
           style="fill:#fdc086;stroke:#000000;stroke-width:0.40000001;stroke-linecap:butt;stroke-linejoin:miter"
           d="m 364.98057,64.030469 c -1.04267,0.601983 -1.90869,1.468005 -2.51067,2.510669 -0.60198,1.042663 -0.91897,2.225672 -0.91897,3.429636 0,1.203964 0.31699,2.386973 0.91897,3.429636 0.60198,1.042664 1.468,1.908686 2.51067,2.510669 l 3.42963,-5.940305 z"
           clip-path="url(#p21b5a2699a)" />
      </g>
      <g
         transform="matrix(0.35277777,0,0,0.35277777,-98.835663,89.096134)"
         style="stroke-linecap:butt;stroke-linejoin:round"
         id="patch_167">
        <path
           inkscape:connector-curvature="0"
           id="path577"
           style="fill:#ffff99;stroke:#000000;stroke-width:0.40000001;stroke-linecap:butt;stroke-linejoin:miter"
           d="m 364.98057,75.911079 c 1.04266,0.601982 2.22567,0.918968 3.42963,0.918968 1.20397,0 2.38698,-0.316986 3.42964,-0.918968 1.04266,-0.601983 1.90868,-1.468005 2.51067,-2.510669 0.60198,-1.042663 0.91897,-2.225672 0.91897,-3.429636 h -6.85928 z"
           clip-path="url(#p21b5a2699a)" />
      </g>
      <g
         transform="matrix(0.35277777,0,0,0.35277777,-98.835663,89.096134)"
         style="stroke-linecap:butt;stroke-linejoin:round"
         id="patch_168">
        <path
           inkscape:connector-curvature="0"
           id="path580"
           style="fill:#7fc97f;stroke:#000000;stroke-width:0.40000001;stroke-linecap:butt;stroke-linejoin:miter"
           d="m 406.82328,110.98576 c 0,-1.81849 -0.72317,-3.56436 -2.00904,-4.85023 -1.28587,-1.28587 -3.03174,-2.00904 -4.85024,-2.00904 -1.81849,0 -3.56437,0.72317 -4.85024,2.00904 -1.28586,1.28587 -2.00903,3.03174 -2.00903,4.85023 h 6.85927 z"
           clip-path="url(#p21b5a2699a)" />
      </g>
      <g
         transform="matrix(0.35277777,0,0,0.35277777,-98.835663,89.096134)"
         style="stroke-linecap:butt;stroke-linejoin:round"
         id="patch_169">
        <path
           inkscape:connector-curvature="0"
           id="path583"
           style="fill:#beaed4;stroke:#000000;stroke-width:0.40000001;stroke-linecap:butt;stroke-linejoin:miter"
           d="m 393.10473,110.98576 c 0,1.8185 0.72317,3.56437 2.00903,4.85024 1.28587,1.28587 3.03175,2.00904 4.85024,2.00904 1.8185,0 3.56437,-0.72317 4.85024,-2.00904 1.28587,-1.28587 2.00904,-3.03174 2.00904,-4.85024 H 399.964 Z"
           clip-path="url(#p21b5a2699a)" />
      </g>
      <g
         transform="matrix(0.35277777,0,0,0.35277777,-98.835663,89.096134)"
         style="stroke-linecap:butt;stroke-linejoin:round"
         id="patch_170">
        <path
           inkscape:connector-curvature="0"
           id="path586"
           style="fill:#beaed4;stroke:#000000;stroke-width:0.40000001;stroke-linecap:butt;stroke-linejoin:miter"
           d="m 406.52301,60.609018 c 0,-0.900752 -0.17743,-1.792745 -0.52213,-2.62493 -0.3447,-0.832186 -0.84998,-1.588381 -1.4869,-2.225309 -0.63693,-0.636927 -1.39313,-1.1422 -2.22531,-1.486903 -0.83219,-0.344703 -1.72418,-0.522131 -2.62493,-0.522131 -0.90075,0 -1.79275,0.177428 -2.62493,0.522131 -0.83219,0.344703 -1.58838,0.849976 -2.22531,1.486903 -0.63693,0.636928 -1.1422,1.393123 -1.4869,2.225309 -0.34471,0.832185 -0.52214,1.724178 -0.52214,2.62493 0,0.900751 0.17743,1.792744 0.52214,2.62493 0.3447,0.832186 0.84997,1.588381 1.4869,2.225308 0.63693,0.636928 1.39312,1.142201 2.22531,1.486904 0.83218,0.344702 1.72418,0.522131 2.62493,0.522131 0.90075,0 1.79274,-0.177429 2.62493,-0.522131 0.83218,-0.344703 1.58838,-0.849976 2.22531,-1.486904 0.63692,-0.636927 1.1422,-1.393122 1.4869,-2.225308 0.3447,-0.832186 0.52213,-1.724179 0.52213,-2.62493 m -6.85927,0 m 6.85927,0 z"
           clip-path="url(#p21b5a2699a)" />
      </g>
      <g
         transform="matrix(0.35277777,0,0,0.35277777,-98.835663,89.096134)"
         style="stroke-linecap:butt;stroke-linejoin:round"
         id="patch_171">
        <path
           inkscape:connector-curvature="0"
           id="path589"
           style="fill:#ffff99;stroke:#000000;stroke-width:0.40000001;stroke-linecap:butt;stroke-linejoin:miter"
           d="m 412.33911,105.61454 c 0,-0.90075 -0.17743,-1.79274 -0.52213,-2.62493 -0.34471,-0.83218 -0.84998,-1.58838 -1.48691,-2.2253 -0.63692,-0.63693 -1.39312,-1.142205 -2.22531,-1.486908 -0.83218,-0.344703 -1.72417,-0.522131 -2.62493,-0.522131 -0.90075,0 -1.79274,0.177428 -2.62493,0.522131 -0.83218,0.344703 -1.58838,0.849978 -2.2253,1.486908 -0.63693,0.63692 -1.1422,1.39312 -1.48691,2.2253 -0.3447,0.83219 -0.52213,1.72418 -0.52213,2.62493 0,0.90075 0.17743,1.79275 0.52213,2.62493 0.34471,0.83219 0.84998,1.58839 1.48691,2.22531 0.63692,0.63693 1.39312,1.1422 2.2253,1.48691 0.83219,0.3447 1.72418,0.52213 2.62493,0.52213 0.90076,0 1.79275,-0.17743 2.62493,-0.52213 0.83219,-0.34471 1.58839,-0.84998 2.22531,-1.48691 0.63693,-0.63692 1.1422,-1.39312 1.48691,-2.22531 0.3447,-0.83218 0.52213,-1.72418 0.52213,-2.62493 m -6.85928,0 m 6.85928,0 z"
           clip-path="url(#p21b5a2699a)" />
      </g>
      <g
         transform="matrix(0.35277777,0,0,0.35277777,-98.835663,89.096134)"
         style="stroke-linecap:butt;stroke-linejoin:round"
         id="patch_172">
        <path
           inkscape:connector-curvature="0"
           id="path592"
           style="fill:#ffff99;stroke:#000000;stroke-width:0.40000001;stroke-linecap:butt;stroke-linejoin:miter"
           d="m 413.2417,124.13625 c 0,-0.90075 -0.17743,-1.79274 -0.52213,-2.62493 -0.3447,-0.83218 -0.84998,-1.58838 -1.4869,-2.22531 -0.63693,-0.63692 -1.39313,-1.1422 -2.22531,-1.4869 -0.83219,-0.3447 -1.72418,-0.52213 -2.62493,-0.52213 -0.90075,0 -1.79275,0.17743 -2.62493,0.52213 -0.83219,0.3447 -1.58838,0.84998 -2.22531,1.4869 -0.63693,0.63693 -1.1422,1.39313 -1.48691,2.22531 -0.3447,0.83219 -0.52213,1.72418 -0.52213,2.62493 0,0.90075 0.17743,1.79275 0.52213,2.62493 0.34471,0.83219 0.84998,1.58838 1.48691,2.22531 0.63693,0.63693 1.39312,1.1422 2.22531,1.4869 0.83218,0.34471 1.72418,0.52213 2.62493,0.52213 0.90075,0 1.79274,-0.17742 2.62493,-0.52213 0.83218,-0.3447 1.58838,-0.84997 2.22531,-1.4869 0.63692,-0.63693 1.1422,-1.39312 1.4869,-2.22531 0.3447,-0.83218 0.52213,-1.72418 0.52213,-2.62493 m -6.85927,0 m 6.85927,0 z"
           clip-path="url(#p21b5a2699a)" />
      </g>
      <g
         transform="matrix(0.35277777,0,0,0.35277777,-98.835663,89.096134)"
         style="stroke-linecap:butt;stroke-linejoin:round"
         id="patch_173">
        <path
           inkscape:connector-curvature="0"
           id="path595"
           style="fill:#7fc97f;stroke:#000000;stroke-width:0.40000001;stroke-linecap:butt;stroke-linejoin:miter"
           d="m 358.99434,58.509365 c 0,-1.818494 -0.72317,-3.564368 -2.00904,-4.850238 -1.28587,-1.28587 -3.03174,-2.009034 -4.85023,-2.009034 -1.8185,0 -3.56437,0.723164 -4.85024,2.009034 -1.28587,1.28587 -2.00904,3.031744 -2.00904,4.850238 h 6.85928 z"
           clip-path="url(#p21b5a2699a)" />
      </g>
      <g
         transform="matrix(0.35277777,0,0,0.35277777,-98.835663,89.096134)"
         style="stroke-linecap:butt;stroke-linejoin:round"
         id="patch_174">
        <path
           inkscape:connector-curvature="0"
           id="path598"
           style="fill:#beaed4;stroke:#000000;stroke-width:0.40000001;stroke-linecap:butt;stroke-linejoin:miter"
           d="m 345.27579,58.509365 c 0,1.818495 0.72317,3.564369 2.00904,4.850239 1.28587,1.28587 3.03174,2.009034 4.85024,2.009034 1.81849,0 3.56436,-0.723164 4.85023,-2.009034 1.28587,-1.28587 2.00904,-3.031744 2.00904,-4.850239 h -6.85927 z"
           clip-path="url(#p21b5a2699a)" />
      </g>
      <g
         transform="matrix(0.35277777,0,0,0.35277777,-98.835663,89.096134)"
         style="stroke-linecap:butt;stroke-linejoin:round"
         id="patch_175">
        <path
           inkscape:connector-curvature="0"
           id="path601"
           style="fill:#7fc97f;stroke:#000000;stroke-width:0.40000001;stroke-linecap:butt;stroke-linejoin:miter"
           d="m 372.1852,63.594429 c 0,-0.900751 -0.17743,-1.792744 -0.52213,-2.62493 -0.34471,-0.832186 -0.84998,-1.588381 -1.4869,-2.225308 -0.63693,-0.636928 -1.39313,-1.142201 -2.22531,-1.486904 -0.83219,-0.344702 -1.72418,-0.522131 -2.62493,-0.522131 -0.90075,0 -1.79275,0.177429 -2.62493,0.522131 -0.83219,0.344703 -1.58839,0.849976 -2.22531,1.486904 -0.63693,0.636927 -1.1422,1.393122 -1.48691,2.225308 -0.3447,0.832186 -0.52213,1.724179 -0.52213,2.62493 0,0.900752 0.17743,1.792744 0.52213,2.62493 0.34471,0.832186 0.84998,1.588381 1.48691,2.225309 0.63692,0.636927 1.39312,1.1422 2.22531,1.486903 0.83218,0.344703 1.72418,0.522131 2.62493,0.522131 0.90075,0 1.79274,-0.177428 2.62493,-0.522131 0.83218,-0.344703 1.58838,-0.849976 2.22531,-1.486903 0.63692,-0.636928 1.14219,-1.393123 1.4869,-2.225309 0.3447,-0.832186 0.52213,-1.724178 0.52213,-2.62493 m -6.85927,0 m 6.85927,0 z"
           clip-path="url(#p21b5a2699a)" />
      </g>
      <g
         transform="matrix(0.35277777,0,0,0.35277777,-98.835663,89.096134)"
         style="stroke-linecap:butt;stroke-linejoin:round"
         id="patch_176">
        <path
           inkscape:connector-curvature="0"
           id="path604"
           style="fill:#beaed4;stroke:#000000;stroke-width:0.40000001;stroke-linecap:butt;stroke-linejoin:miter"
           d="m 402.06461,78.258066 c 0,-0.900752 -0.17743,-1.792744 -0.52213,-2.62493 -0.34471,-0.832186 -0.84998,-1.588381 -1.48691,-2.225309 -0.63692,-0.636927 -1.39312,-1.1422 -2.22531,-1.486903 -0.83218,-0.344703 -1.72417,-0.522131 -2.62493,-0.522131 -0.90075,0 -1.79274,0.177428 -2.62493,0.522131 -0.83218,0.344703 -1.58838,0.849976 -2.2253,1.486903 -0.63693,0.636928 -1.1422,1.393123 -1.48691,2.225309 -0.3447,0.832186 -0.52213,1.724178 -0.52213,2.62493 0,0.900751 0.17743,1.792744 0.52213,2.62493 0.34471,0.832186 0.84998,1.588381 1.48691,2.225308 0.63692,0.636928 1.39312,1.142201 2.2253,1.486904 0.83219,0.344702 1.72418,0.522131 2.62493,0.522131 0.90076,0 1.79275,-0.177429 2.62493,-0.522131 0.83219,-0.344703 1.58839,-0.849976 2.22531,-1.486904 0.63693,-0.636927 1.1422,-1.393122 1.48691,-2.225308 0.3447,-0.832186 0.52213,-1.724179 0.52213,-2.62493 m -6.85928,0 m 6.85928,0 z"
           clip-path="url(#p21b5a2699a)" />
      </g>
      <g
         transform="matrix(0.35277777,0,0,0.35277777,-98.835663,89.096134)"
         style="stroke-linecap:butt;stroke-linejoin:round"
         id="patch_177">
        <path
           inkscape:connector-curvature="0"
           id="path607"
           style="fill:#7fc97f;stroke:#000000;stroke-width:0.40000001;stroke-linecap:butt;stroke-linejoin:miter"
           d="m 374.4147,58.595592 c 0,-0.900751 -0.17743,-1.792744 -0.52213,-2.62493 -0.3447,-0.832186 -0.84998,-1.588381 -1.4869,-2.225308 -0.63693,-0.636928 -1.39313,-1.142201 -2.22531,-1.486904 -0.83219,-0.344702 -1.72418,-0.522131 -2.62493,-0.522131 -0.90075,0 -1.79275,0.177429 -2.62493,0.522131 -0.83219,0.344703 -1.58838,0.849976 -2.22531,1.486904 -0.63693,0.636927 -1.1422,1.393122 -1.4869,2.225308 -0.34471,0.832186 -0.52213,1.724179 -0.52213,2.62493 0,0.900752 0.17742,1.792744 0.52213,2.62493 0.3447,0.832186 0.84997,1.588381 1.4869,2.225308 0.63693,0.636928 1.39312,1.142201 2.22531,1.486904 0.83218,0.344703 1.72418,0.522131 2.62493,0.522131 0.90075,0 1.79274,-0.177428 2.62493,-0.522131 0.83218,-0.344703 1.58838,-0.849976 2.22531,-1.486904 0.63692,-0.636927 1.1422,-1.393122 1.4869,-2.225308 0.3447,-0.832186 0.52213,-1.724178 0.52213,-2.62493 m -6.85927,0 m 6.85927,0 z"
           clip-path="url(#p21b5a2699a)" />
      </g>
      <g
         transform="matrix(0.35277777,0,0,0.35277777,-98.835663,89.096134)"
         style="stroke-linecap:butt;stroke-linejoin:round"
         id="patch_178">
        <path
           inkscape:connector-curvature="0"
           id="path610"
           style="fill:#ffff99;stroke:#000000;stroke-width:0.40000001;stroke-linecap:butt;stroke-linejoin:miter"
           d="m 411.11613,103.38428 c 0,-0.90075 -0.17742,-1.79275 -0.52213,-2.62493 -0.3447,-0.832189 -0.84997,-1.588384 -1.4869,-2.225312 -0.63693,-0.636927 -1.39312,-1.1422 -2.22531,-1.486903 -0.83218,-0.344703 -1.72418,-0.522131 -2.62493,-0.522131 -0.90075,0 -1.79274,0.177428 -2.62493,0.522131 -0.83219,0.344703 -1.58838,0.849976 -2.22531,1.486903 -0.63692,0.636928 -1.1422,1.393123 -1.4869,2.225312 -0.3447,0.83218 -0.52213,1.72418 -0.52213,2.62493 0,0.90075 0.17743,1.79274 0.52213,2.62493 0.3447,0.83218 0.84998,1.58838 1.4869,2.22531 0.63693,0.63692 1.39312,1.1422 2.22531,1.4869 0.83219,0.3447 1.72418,0.52213 2.62493,0.52213 0.90075,0 1.79275,-0.17743 2.62493,-0.52213 0.83219,-0.3447 1.58838,-0.84998 2.22531,-1.4869 0.63693,-0.63693 1.1422,-1.39313 1.4869,-2.22531 0.34471,-0.83219 0.52213,-1.72418 0.52213,-2.62493 m -6.85927,0 m 6.85927,0 z"
           clip-path="url(#p21b5a2699a)" />
      </g>
      <g
         transform="matrix(0.35277777,0,0,0.35277777,-98.835663,89.096134)"
         style="stroke-linecap:butt;stroke-linejoin:round"
         id="patch_179">
        <path
           inkscape:connector-curvature="0"
           id="path613"
           style="fill:#7fc97f;stroke:#000000;stroke-width:0.40000001;stroke-linecap:butt;stroke-linejoin:miter"
           d="m 361.03629,49.890453 c 0,-0.900752 -0.17743,-1.792745 -0.52213,-2.624931 -0.3447,-0.832185 -0.84998,-1.58838 -1.4869,-2.225308 -0.63693,-0.636927 -1.39313,-1.142201 -2.22531,-1.486903 -0.83219,-0.344703 -1.72418,-0.522131 -2.62493,-0.522131 -0.90075,0 -1.79275,0.177428 -2.62493,0.522131 -0.83219,0.344702 -1.58838,0.849976 -2.22531,1.486903 -0.63693,0.636928 -1.1422,1.393123 -1.48691,2.225308 -0.3447,0.832186 -0.52213,1.724179 -0.52213,2.624931 0,0.900751 0.17743,1.792744 0.52213,2.62493 0.34471,0.832186 0.84998,1.58838 1.48691,2.225308 0.63693,0.636927 1.39312,1.142201 2.22531,1.486903 0.83218,0.344703 1.72418,0.522131 2.62493,0.522131 0.90075,0 1.79274,-0.177428 2.62493,-0.522131 0.83218,-0.344702 1.58838,-0.849976 2.22531,-1.486903 0.63692,-0.636928 1.1422,-1.393122 1.4869,-2.225308 0.3447,-0.832186 0.52213,-1.724179 0.52213,-2.62493 m -6.85927,0 m 6.85927,0 z"
           clip-path="url(#p21b5a2699a)" />
      </g>
      <g
         transform="matrix(0.35277777,0,0,0.35277777,-98.835663,89.096134)"
         style="stroke-linecap:butt;stroke-linejoin:round"
         id="patch_180">
        <path
           inkscape:connector-curvature="0"
           id="path616"
           style="fill:#ffff99;stroke:#000000;stroke-width:0.40000001;stroke-linecap:butt;stroke-linejoin:miter"
           d="m 400.55362,102.74168 c 0,-0.90075 -0.17742,-1.79274 -0.52213,-2.62493 -0.3447,-0.832185 -0.84997,-1.58838 -1.4869,-2.225307 -0.63693,-0.636928 -1.39312,-1.142201 -2.22531,-1.486904 -0.83218,-0.344702 -1.72418,-0.522131 -2.62493,-0.522131 -0.90075,0 -1.79274,0.177429 -2.62493,0.522131 -0.83218,0.344703 -1.58838,0.849976 -2.22531,1.486904 -0.63692,0.636927 -1.1422,1.393122 -1.4869,2.225307 -0.3447,0.83219 -0.52213,1.72418 -0.52213,2.62493 0,0.90075 0.17743,1.79275 0.52213,2.62493 0.3447,0.83219 0.84998,1.58838 1.4869,2.22531 0.63693,0.63693 1.39313,1.1422 2.22531,1.4869 0.83219,0.34471 1.72418,0.52213 2.62493,0.52213 0.90075,0 1.79275,-0.17742 2.62493,-0.52213 0.83219,-0.3447 1.58838,-0.84997 2.22531,-1.4869 0.63693,-0.63693 1.1422,-1.39312 1.4869,-2.22531 0.34471,-0.83218 0.52213,-1.72418 0.52213,-2.62493 m -6.85927,0 m 6.85927,0 z"
           clip-path="url(#p21b5a2699a)" />
      </g>
      <g
         transform="matrix(0.35277777,0,0,0.35277777,-98.835663,89.096134)"
         style="stroke-linecap:butt;stroke-linejoin:round"
         id="patch_181">
        <path
           inkscape:connector-curvature="0"
           id="path619"
           style="fill:#ffff99;stroke:#000000;stroke-width:0.40000001;stroke-linecap:butt;stroke-linejoin:miter"
           d="m 421.68649,95.792894 c 0,-0.900752 -0.17743,-1.792745 -0.52214,-2.624931 -0.3447,-0.832185 -0.84997,-1.58838 -1.4869,-2.225308 -0.63693,-0.636927 -1.39312,-1.142201 -2.22531,-1.486903 -0.83218,-0.344703 -1.72418,-0.522131 -2.62493,-0.522131 -0.90075,0 -1.79274,0.177428 -2.62493,0.522131 -0.83218,0.344702 -1.58838,0.849976 -2.22531,1.486903 -0.63692,0.636928 -1.1422,1.393123 -1.4869,2.225308 -0.3447,0.832186 -0.52213,1.724179 -0.52213,2.624931 0,0.900751 0.17743,1.792744 0.52213,2.62493 0.3447,0.832185 0.84998,1.588376 1.4869,2.225306 0.63693,0.63693 1.39313,1.1422 2.22531,1.48691 0.83219,0.3447 1.72418,0.52213 2.62493,0.52213 0.90075,0 1.79275,-0.17743 2.62493,-0.52213 0.83219,-0.34471 1.58838,-0.84998 2.22531,-1.48691 0.63693,-0.63693 1.1422,-1.393121 1.4869,-2.225306 0.34471,-0.832186 0.52214,-1.724179 0.52214,-2.62493 m -6.85928,0 m 6.85928,0 z"
           clip-path="url(#p21b5a2699a)" />
      </g>
      <g
         transform="matrix(0.35277777,0,0,0.35277777,-98.835663,89.096134)"
         style="stroke-linecap:butt;stroke-linejoin:round"
         id="patch_182">
        <path
           inkscape:connector-curvature="0"
           id="path622"
           style="fill:#fdc086;stroke:#000000;stroke-width:0.40000001;stroke-linecap:butt;stroke-linejoin:miter"
           d="m 360.39606,108.95171 c 0,-0.90075 -0.17743,-1.79275 -0.52213,-2.62493 -0.34471,-0.83219 -0.84998,-1.58838 -1.48691,-2.22531 -0.63692,-0.63693 -1.39312,-1.1422 -2.2253,-1.4869 -0.83219,-0.34471 -1.72418,-0.52214 -2.62493,-0.52214 -0.90076,0 -1.79275,0.17743 -2.62493,0.52214 -0.83219,0.3447 -1.58839,0.84997 -2.22531,1.4869 -0.63693,0.63693 -1.1422,1.39312 -1.48691,2.22531 -0.3447,0.83218 -0.52213,1.72418 -0.52213,2.62493 0,0.90075 0.17743,1.79274 0.52213,2.62493 0.34471,0.83218 0.84998,1.58838 1.48691,2.22531 0.63692,0.63692 1.39312,1.1422 2.22531,1.4869 0.83218,0.3447 1.72417,0.52213 2.62493,0.52213 0.90075,0 1.79274,-0.17743 2.62493,-0.52213 0.83218,-0.3447 1.58838,-0.84998 2.2253,-1.4869 0.63693,-0.63693 1.1422,-1.39313 1.48691,-2.22531 0.3447,-0.83219 0.52213,-1.72418 0.52213,-2.62493 m -6.85927,0 m 6.85927,0 z"
           clip-path="url(#p21b5a2699a)" />
      </g>
      <g
         transform="matrix(0.35277777,0,0,0.35277777,-98.835663,89.096134)"
         style="stroke-linecap:butt;stroke-linejoin:round"
         id="patch_183">
        <path
           inkscape:connector-curvature="0"
           id="path625"
           style="fill:#7fc97f;stroke:#000000;stroke-width:0.40000001;stroke-linecap:butt;stroke-linejoin:miter"
           d="m 338.76355,56.502449 c 0,-0.900752 -0.17742,-1.792745 -0.52213,-2.624931 -0.3447,-0.832185 -0.84997,-1.58838 -1.4869,-2.225308 -0.63693,-0.636927 -1.39312,-1.142201 -2.22531,-1.486903 -0.83218,-0.344703 -1.72418,-0.522131 -2.62493,-0.522131 -0.90075,0 -1.79274,0.177428 -2.62493,0.522131 -0.83218,0.344702 -1.58838,0.849976 -2.22531,1.486903 -0.63692,0.636928 -1.1422,1.393123 -1.4869,2.225308 -0.3447,0.832186 -0.52213,1.724179 -0.52213,2.624931 0,0.900751 0.17743,1.792744 0.52213,2.62493 0.3447,0.832185 0.84998,1.58838 1.4869,2.225308 0.63693,0.636927 1.39313,1.142201 2.22531,1.486903 0.83219,0.344703 1.72418,0.522131 2.62493,0.522131 0.90075,0 1.79275,-0.177428 2.62493,-0.522131 0.83219,-0.344702 1.58838,-0.849976 2.22531,-1.486903 0.63693,-0.636928 1.1422,-1.393123 1.4869,-2.225308 0.34471,-0.832186 0.52213,-1.724179 0.52213,-2.62493 m -6.85927,0 m 6.85927,0 z"
           clip-path="url(#p21b5a2699a)" />
      </g>
      <g
         transform="matrix(0.35277777,0,0,0.35277777,-98.835663,89.096134)"
         style="stroke-linecap:butt;stroke-linejoin:round"
         id="patch_184">
        <path
           inkscape:connector-curvature="0"
           id="path628"
           style="fill:#ffff99;stroke:#000000;stroke-width:0.40000001;stroke-linecap:butt;stroke-linejoin:miter"
           d="m 406.06662,101.35435 c 0,-0.90075 -0.17743,-1.792741 -0.52213,-2.624927 -0.3447,-0.832186 -0.84998,-1.588381 -1.4869,-2.225309 -0.63693,-0.636927 -1.39313,-1.1422 -2.22531,-1.486903 -0.83219,-0.344703 -1.72418,-0.522131 -2.62493,-0.522131 -0.90075,0 -1.79275,0.177428 -2.62493,0.522131 -0.83219,0.344703 -1.58838,0.849976 -2.22531,1.486903 -0.63693,0.636928 -1.1422,1.393123 -1.4869,2.225309 -0.34471,0.832186 -0.52214,1.724177 -0.52214,2.624927 0,0.90075 0.17743,1.79275 0.52214,2.62493 0.3447,0.83219 0.84997,1.58838 1.4869,2.22531 0.63693,0.63693 1.39312,1.1422 2.22531,1.48691 0.83218,0.3447 1.72418,0.52213 2.62493,0.52213 0.90075,0 1.79274,-0.17743 2.62493,-0.52213 0.83218,-0.34471 1.58838,-0.84998 2.22531,-1.48691 0.63692,-0.63693 1.1422,-1.39312 1.4869,-2.22531 0.3447,-0.83218 0.52213,-1.72418 0.52213,-2.62493 m -6.85927,0 m 6.85927,0 z"
           clip-path="url(#p21b5a2699a)" />
      </g>
      <g
         transform="matrix(0.35277777,0,0,0.35277777,-98.835663,89.096134)"
         style="stroke-linecap:butt;stroke-linejoin:round"
         id="patch_185">
        <path
           inkscape:connector-curvature="0"
           id="path631"
           style="fill:#beaed4;stroke:#000000;stroke-width:0.40000001;stroke-linecap:butt;stroke-linejoin:miter"
           d="m 352.35406,111.02061 c 0,-1.81849 -0.72316,-3.56437 -2.00903,-4.85023 -1.28587,-1.28587 -3.03175,-2.00904 -4.85024,-2.00904 -1.8185,0 -3.56437,0.72317 -4.85024,2.00904 -1.28587,1.28586 -2.00903,3.03174 -2.00903,4.85023 h 6.85927 z"
           clip-path="url(#p21b5a2699a)" />
      </g>
      <g
         transform="matrix(0.35277777,0,0,0.35277777,-98.835663,89.096134)"
         style="stroke-linecap:butt;stroke-linejoin:round"
         id="patch_186">
        <path
           inkscape:connector-curvature="0"
           id="path634"
           style="fill:#ffff99;stroke:#000000;stroke-width:0.40000001;stroke-linecap:butt;stroke-linejoin:miter"
           d="m 338.63552,111.02061 c 0,1.8185 0.72316,3.56437 2.00903,4.85024 1.28587,1.28587 3.03174,2.00904 4.85024,2.00904 1.81849,0 3.56437,-0.72317 4.85024,-2.00904 1.28587,-1.28587 2.00903,-3.03174 2.00903,-4.85024 h -6.85927 z"
           clip-path="url(#p21b5a2699a)" />
      </g>
      <g
         transform="matrix(0.35277777,0,0,0.35277777,-98.835663,89.096134)"
         style="stroke-linecap:butt;stroke-linejoin:round"
         id="patch_187">
        <path
           inkscape:connector-curvature="0"
           id="path637"
           style="fill:#fdc086;stroke:#000000;stroke-width:0.40000001;stroke-linecap:butt;stroke-linejoin:miter"
           d="m 365.86775,110.38442 c 0,-0.90075 -0.17743,-1.79275 -0.52214,-2.62493 -0.3447,-0.83219 -0.84997,-1.58838 -1.4869,-2.22531 -0.63693,-0.63693 -1.39312,-1.1422 -2.22531,-1.4869 -0.83218,-0.34471 -1.72418,-0.52213 -2.62493,-0.52213 -0.90075,0 -1.79274,0.17742 -2.62493,0.52213 -0.83218,0.3447 -1.58838,0.84997 -2.22531,1.4869 -0.63692,0.63693 -1.1422,1.39312 -1.4869,2.22531 -0.3447,0.83218 -0.52213,1.72418 -0.52213,2.62493 0,0.90075 0.17743,1.79274 0.52213,2.62493 0.3447,0.83219 0.84998,1.58838 1.4869,2.22531 0.63693,0.63693 1.39313,1.1422 2.22531,1.4869 0.83219,0.3447 1.72418,0.52213 2.62493,0.52213 0.90075,0 1.79275,-0.17743 2.62493,-0.52213 0.83219,-0.3447 1.58838,-0.84997 2.22531,-1.4869 0.63693,-0.63693 1.1422,-1.39312 1.4869,-2.22531 0.34471,-0.83219 0.52214,-1.72418 0.52214,-2.62493 m -6.85928,0 m 6.85928,0 z"
           clip-path="url(#p21b5a2699a)" />
      </g>
      <g
         transform="matrix(0.35277777,0,0,0.35277777,-98.835663,89.096134)"
         style="stroke-linecap:butt;stroke-linejoin:round"
         id="patch_188">
        <path
           inkscape:connector-curvature="0"
           id="path640"
           style="fill:#7fc97f;stroke:#000000;stroke-width:0.40000001;stroke-linecap:butt;stroke-linejoin:miter"
           d="m 367.6928,63.150127 c 0,-1.203964 -0.31699,-2.386972 -0.91897,-3.429636 -0.60198,-1.042664 -1.46801,-1.908686 -2.51067,-2.510668 -1.04266,-0.601982 -2.22567,-0.918968 -3.42964,-0.918968 -1.20396,0 -2.38697,0.316986 -3.42963,0.918968 l 3.42963,5.940304 z"
           clip-path="url(#p21b5a2699a)" />
      </g>
      <g
         transform="matrix(0.35277777,0,0,0.35277777,-98.835663,89.096134)"
         style="stroke-linecap:butt;stroke-linejoin:round"
         id="patch_189">
        <path
           inkscape:connector-curvature="0"
           id="path643"
           style="fill:#beaed4;stroke:#000000;stroke-width:0.40000001;stroke-linecap:butt;stroke-linejoin:miter"
           d="m 357.40389,57.209823 c -1.04267,0.601982 -1.90869,1.468004 -2.51067,2.510668 -0.60198,1.042664 -0.91897,2.225672 -0.91897,3.429636 0,1.203965 0.31699,2.386973 0.91897,3.429637 0.60198,1.042664 1.468,1.908686 2.51067,2.510668 l 3.42963,-5.940305 z"
           clip-path="url(#p21b5a2699a)" />
      </g>
      <g
         transform="matrix(0.35277777,0,0,0.35277777,-98.835663,89.096134)"
         style="stroke-linecap:butt;stroke-linejoin:round"
         id="patch_190">
        <path
           inkscape:connector-curvature="0"
           id="path646"
           style="fill:#ffff99;stroke:#000000;stroke-width:0.40000001;stroke-linecap:butt;stroke-linejoin:miter"
           d="m 357.40389,69.090432 c 1.04266,0.601982 2.22567,0.918968 3.42963,0.918968 1.20397,0 2.38698,-0.316986 3.42964,-0.918968 1.04266,-0.601982 1.90869,-1.468004 2.51067,-2.510668 0.60198,-1.042664 0.91897,-2.225672 0.91897,-3.429637 h -6.85928 z"
           clip-path="url(#p21b5a2699a)" />
      </g>
      <g
         transform="matrix(0.35277777,0,0,0.35277777,-98.835663,89.096134)"
         style="stroke-linecap:butt;stroke-linejoin:round"
         id="patch_191">
        <path
           inkscape:connector-curvature="0"
           id="path649"
           style="fill:#7fc97f;stroke:#000000;stroke-width:0.40000001;stroke-linecap:butt;stroke-linejoin:miter"
           d="m 359.61401,107.91233 c 0,-1.8185 -0.72317,-3.56437 -2.00904,-4.85024 -1.28587,-1.28587 -3.03174,-2.00904 -4.85023,-2.00904 -1.8185,0 -3.56437,0.72317 -4.85024,2.00904 -1.28587,1.28587 -2.00904,3.03174 -2.00904,4.85024 h 6.85928 z"
           clip-path="url(#p21b5a2699a)" />
      </g>
      <g
         transform="matrix(0.35277777,0,0,0.35277777,-98.835663,89.096134)"
         style="stroke-linecap:butt;stroke-linejoin:round"
         id="patch_192">
        <path
           inkscape:connector-curvature="0"
           id="path652"
           style="fill:#fdc086;stroke:#000000;stroke-width:0.40000001;stroke-linecap:butt;stroke-linejoin:miter"
           d="m 345.89546,107.91233 c 0,1.81849 0.72317,3.56436 2.00904,4.85023 1.28587,1.28587 3.03174,2.00904 4.85024,2.00904 1.81849,0 3.56436,-0.72317 4.85023,-2.00904 1.28587,-1.28587 2.00904,-3.03174 2.00904,-4.85023 h -6.85927 z"
           clip-path="url(#p21b5a2699a)" />
      </g>
      <g
         transform="matrix(0.35277777,0,0,0.35277777,-98.835663,89.096134)"
         style="stroke-linecap:butt;stroke-linejoin:round"
         id="patch_193">
        <path
           inkscape:connector-curvature="0"
           id="path655"
           style="fill:#ffff99;stroke:#000000;stroke-width:0.40000001;stroke-linecap:butt;stroke-linejoin:miter"
           d="m 412.71878,117.10491 c 0,-0.90075 -0.17743,-1.79274 -0.52213,-2.62493 -0.3447,-0.83218 -0.84998,-1.58838 -1.4869,-2.2253 -0.63693,-0.63693 -1.39313,-1.14221 -2.22531,-1.48691 -0.83219,-0.3447 -1.72418,-0.52213 -2.62493,-0.52213 -0.90075,0 -1.79275,0.17743 -2.62493,0.52213 -0.83219,0.3447 -1.58838,0.84998 -2.22531,1.48691 -0.63693,0.63692 -1.1422,1.39312 -1.4869,2.2253 -0.34471,0.83219 -0.52213,1.72418 -0.52213,2.62493 0,0.90075 0.17742,1.79275 0.52213,2.62493 0.3447,0.83219 0.84997,1.58838 1.4869,2.22531 0.63693,0.63693 1.39312,1.1422 2.22531,1.4869 0.83218,0.34471 1.72418,0.52214 2.62493,0.52214 0.90075,0 1.79274,-0.17743 2.62493,-0.52214 0.83218,-0.3447 1.58838,-0.84997 2.22531,-1.4869 0.63692,-0.63693 1.1422,-1.39312 1.4869,-2.22531 0.3447,-0.83218 0.52213,-1.72418 0.52213,-2.62493 m -6.85927,0 m 6.85927,0 z"
           clip-path="url(#p21b5a2699a)" />
      </g>
      <g
         transform="matrix(0.35277777,0,0,0.35277777,-98.835663,89.096134)"
         style="stroke-linecap:butt;stroke-linejoin:round"
         id="patch_194">
        <path
           inkscape:connector-curvature="0"
           id="path658"
           style="fill:#beaed4;stroke:#000000;stroke-width:0.40000001;stroke-linecap:butt;stroke-linejoin:miter"
           d="m 428.14032,73.910677 c 0,-0.900752 -0.17743,-1.792744 -0.52214,-2.62493 -0.3447,-0.832186 -0.84997,-1.588381 -1.4869,-2.225309 -0.63693,-0.636927 -1.39312,-1.1422 -2.22531,-1.486903 -0.83218,-0.344703 -1.72417,-0.522131 -2.62493,-0.522131 -0.90075,0 -1.79274,0.177428 -2.62493,0.522131 -0.83218,0.344703 -1.58838,0.849976 -2.2253,1.486903 -0.63693,0.636928 -1.14221,1.393123 -1.48691,2.225309 -0.3447,0.832186 -0.52213,1.724178 -0.52213,2.62493 0,0.900751 0.17743,1.792744 0.52213,2.62493 0.3447,0.832186 0.84998,1.588381 1.48691,2.225308 0.63692,0.636928 1.39312,1.142201 2.2253,1.486904 0.83219,0.344702 1.72418,0.522131 2.62493,0.522131 0.90076,0 1.79275,-0.177429 2.62493,-0.522131 0.83219,-0.344703 1.58838,-0.849976 2.22531,-1.486904 0.63693,-0.636927 1.1422,-1.393122 1.4869,-2.225308 0.34471,-0.832186 0.52214,-1.724179 0.52214,-2.62493 m -6.85928,0 m 6.85928,0 z"
           clip-path="url(#p21b5a2699a)" />
      </g>
      <g
         transform="matrix(0.35277777,0,0,0.35277777,-98.835663,89.096134)"
         style="stroke-linecap:butt;stroke-linejoin:round"
         id="patch_195">
        <path
           inkscape:connector-curvature="0"
           id="path661"
           style="fill:#beaed4;stroke:#000000;stroke-width:0.40000001;stroke-linecap:butt;stroke-linejoin:miter"
           d="m 405.18732,65.517904 c 0,-0.900751 -0.17743,-1.792744 -0.52213,-2.62493 -0.3447,-0.832185 -0.84997,-1.58838 -1.4869,-2.225308 -0.63693,-0.636927 -1.39312,-1.142201 -2.22531,-1.486903 -0.83219,-0.344703 -1.72418,-0.522131 -2.62493,-0.522131 -0.90075,0 -1.79274,0.177428 -2.62493,0.522131 -0.83219,0.344702 -1.58838,0.849976 -2.22531,1.486903 -0.63692,0.636928 -1.1422,1.393123 -1.4869,2.225308 -0.3447,0.832186 -0.52213,1.724179 -0.52213,2.62493 0,0.900752 0.17743,1.792745 0.52213,2.624931 0.3447,0.832185 0.84998,1.58838 1.4869,2.225308 0.63693,0.636927 1.39312,1.142201 2.22531,1.486903 0.83219,0.344703 1.72418,0.522131 2.62493,0.522131 0.90075,0 1.79274,-0.177428 2.62493,-0.522131 0.83219,-0.344702 1.58838,-0.849976 2.22531,-1.486903 0.63693,-0.636928 1.1422,-1.393123 1.4869,-2.225308 0.3447,-0.832186 0.52213,-1.724179 0.52213,-2.624931 m -6.85927,0 m 6.85927,0 z"
           clip-path="url(#p21b5a2699a)" />
      </g>
      <g
         transform="matrix(0.35277777,0,0,0.35277777,-98.835663,89.096134)"
         style="stroke-linecap:butt;stroke-linejoin:round"
         id="patch_196">
        <path
           inkscape:connector-curvature="0"
           id="path664"
           style="fill:#beaed4;stroke:#000000;stroke-width:0.40000001;stroke-linecap:butt;stroke-linejoin:miter"
           d="m 367.92939,43.394363 c 0,-1.818495 -0.72316,-3.564369 -2.00903,-4.850239 -1.28587,-1.285869 -3.03175,-2.009034 -4.85024,-2.009034 -1.8185,0 -3.56437,0.723165 -4.85024,2.009034 -1.28587,1.28587 -2.00903,3.031744 -2.00903,4.850239 h 6.85927 z"
           clip-path="url(#p21b5a2699a)" />
      </g>
      <g
         transform="matrix(0.35277777,0,0,0.35277777,-98.835663,89.096134)"
         style="stroke-linecap:butt;stroke-linejoin:round"
         id="patch_197">
        <path
           inkscape:connector-curvature="0"
           id="path667"
           style="fill:#ffff99;stroke:#000000;stroke-width:0.40000001;stroke-linecap:butt;stroke-linejoin:miter"
           d="m 354.21085,43.394363 c 0,1.818494 0.72316,3.564368 2.00903,4.850238 1.28587,1.28587 3.03174,2.009035 4.85024,2.009035 1.81849,0 3.56437,-0.723165 4.85024,-2.009035 1.28587,-1.28587 2.00903,-3.031744 2.00903,-4.850238 h -6.85927 z"
           clip-path="url(#p21b5a2699a)" />
      </g>
      <g
         transform="matrix(0.35277777,0,0,0.35277777,-98.835663,89.096134)"
         style="stroke-linecap:butt;stroke-linejoin:round"
         id="patch_198">
        <path
           inkscape:connector-curvature="0"
           id="path670"
           style="fill:#fdc086;stroke:#000000;stroke-width:0.40000001;stroke-linecap:butt;stroke-linejoin:miter"
           d="m 352.45177,108.25446 c 0,-0.90075 -0.17743,-1.79275 -0.52213,-2.62493 -0.3447,-0.83219 -0.84998,-1.58838 -1.4869,-2.22531 -0.63693,-0.63693 -1.39313,-1.1422 -2.22531,-1.4869 -0.83219,-0.3447 -1.72418,-0.52213 -2.62493,-0.52213 -0.90075,0 -1.79275,0.17743 -2.62493,0.52213 -0.83219,0.3447 -1.58838,0.84997 -2.22531,1.4869 -0.63693,0.63693 -1.1422,1.39312 -1.4869,2.22531 -0.34471,0.83218 -0.52214,1.72418 -0.52214,2.62493 0,0.90075 0.17743,1.79274 0.52214,2.62493 0.3447,0.83218 0.84997,1.58838 1.4869,2.22531 0.63693,0.63693 1.39312,1.1422 2.22531,1.4869 0.83218,0.3447 1.72418,0.52213 2.62493,0.52213 0.90075,0 1.79274,-0.17743 2.62493,-0.52213 0.83218,-0.3447 1.58838,-0.84997 2.22531,-1.4869 0.63692,-0.63693 1.1422,-1.39313 1.4869,-2.22531 0.3447,-0.83219 0.52213,-1.72418 0.52213,-2.62493 m -6.85927,0 m 6.85927,0 z"
           clip-path="url(#p21b5a2699a)" />
      </g>
      <g
         transform="matrix(0.35277777,0,0,0.35277777,-98.835663,89.096134)"
         style="stroke-linecap:butt;stroke-linejoin:round"
         id="patch_199">
        <path
           inkscape:connector-curvature="0"
           id="path673"
           style="fill:#beaed4;stroke:#000000;stroke-width:0.40000001;stroke-linecap:butt;stroke-linejoin:miter"
           d="m 354.60836,114.44519 c 0,-1.81849 -0.72316,-3.56437 -2.00903,-4.85024 -1.28587,-1.28587 -3.03175,-2.00903 -4.85024,-2.00903 -1.81849,0 -3.56437,0.72316 -4.85024,2.00903 -1.28587,1.28587 -2.00903,3.03175 -2.00903,4.85024 h 6.85927 z"
           clip-path="url(#p21b5a2699a)" />
      </g>
      <g
         transform="matrix(0.35277777,0,0,0.35277777,-98.835663,89.096134)"
         style="stroke-linecap:butt;stroke-linejoin:round"
         id="patch_200">
        <path
           inkscape:connector-curvature="0"
           id="path676"
           style="fill:#ffff99;stroke:#000000;stroke-width:0.40000001;stroke-linecap:butt;stroke-linejoin:miter"
           d="m 340.88982,114.44519 c 0,1.8185 0.72316,3.56437 2.00903,4.85024 1.28587,1.28587 3.03175,2.00903 4.85024,2.00903 1.81849,0 3.56437,-0.72316 4.85024,-2.00903 1.28587,-1.28587 2.00903,-3.03174 2.00903,-4.85024 h -6.85927 z"
           clip-path="url(#p21b5a2699a)" />
      </g>
      <g
         transform="matrix(0.35277777,0,0,0.35277777,-98.835663,89.096134)"
         style="stroke-linecap:butt;stroke-linejoin:round"
         id="patch_201">
        <path
           inkscape:connector-curvature="0"
           id="path679"
           style="fill:#7fc97f;stroke:#000000;stroke-width:0.40000001;stroke-linecap:butt;stroke-linejoin:miter"
           d="m 366.98546,68.029157 c 0,-0.900752 -0.17743,-1.792744 -0.52213,-2.62493 -0.3447,-0.832186 -0.84998,-1.588381 -1.4869,-2.225308 -0.63693,-0.636928 -1.39313,-1.142201 -2.22531,-1.486904 -0.83219,-0.344703 -1.72418,-0.522131 -2.62493,-0.522131 -0.90075,0 -1.79275,0.177428 -2.62493,0.522131 -0.83219,0.344703 -1.58838,0.849976 -2.22531,1.486904 -0.63693,0.636927 -1.1422,1.393122 -1.4869,2.225308 -0.34471,0.832186 -0.52214,1.724178 -0.52214,2.62493 0,0.900751 0.17743,1.792744 0.52214,2.62493 0.3447,0.832186 0.84997,1.588381 1.4869,2.225308 0.63693,0.636928 1.39312,1.142201 2.22531,1.486904 0.83218,0.344702 1.72418,0.522131 2.62493,0.522131 0.90075,0 1.79274,-0.177429 2.62493,-0.522131 0.83218,-0.344703 1.58838,-0.849976 2.22531,-1.486904 0.63692,-0.636927 1.1422,-1.393122 1.4869,-2.225308 0.3447,-0.832186 0.52213,-1.724179 0.52213,-2.62493 m -6.85927,0 m 6.85927,0 z"
           clip-path="url(#p21b5a2699a)" />
      </g>
      <g
         transform="matrix(0.35277777,0,0,0.35277777,-98.835663,89.096134)"
         style="stroke-linecap:butt;stroke-linejoin:round"
         id="patch_202">
        <path
           inkscape:connector-curvature="0"
           id="path682"
           style="fill:#ffff99;stroke:#000000;stroke-width:0.40000001;stroke-linecap:butt;stroke-linejoin:miter"
           d="m 419.13079,112.93545 c 0,-0.90075 -0.17743,-1.79274 -0.52213,-2.62493 -0.34471,-0.83218 -0.84998,-1.58838 -1.48691,-2.22531 -0.63692,-0.63692 -1.39312,-1.1422 -2.2253,-1.4869 -0.83219,-0.3447 -1.72418,-0.52213 -2.62493,-0.52213 -0.90076,0 -1.79275,0.17743 -2.62493,0.52213 -0.83219,0.3447 -1.58839,0.84998 -2.22531,1.4869 -0.63693,0.63693 -1.1422,1.39313 -1.48691,2.22531 -0.3447,0.83219 -0.52213,1.72418 -0.52213,2.62493 0,0.90075 0.17743,1.79275 0.52213,2.62493 0.34471,0.83219 0.84998,1.58838 1.48691,2.22531 0.63692,0.63693 1.39312,1.1422 2.22531,1.4869 0.83218,0.34471 1.72417,0.52214 2.62493,0.52214 0.90075,0 1.79274,-0.17743 2.62493,-0.52214 0.83218,-0.3447 1.58838,-0.84997 2.2253,-1.4869 0.63693,-0.63693 1.1422,-1.39312 1.48691,-2.22531 0.3447,-0.83218 0.52213,-1.72418 0.52213,-2.62493 m -6.85927,0 m 6.85927,0 z"
           clip-path="url(#p21b5a2699a)" />
      </g>
      <g
         transform="matrix(0.35277777,0,0,0.35277777,-98.835663,89.096134)"
         style="stroke-linecap:butt;stroke-linejoin:round"
         id="patch_203">
        <path
           inkscape:connector-curvature="0"
           id="path685"
           style="fill:#beaed4;stroke:#000000;stroke-width:0.40000001;stroke-linecap:butt;stroke-linejoin:miter"
           d="m 419.55618,51.970649 c 0,-0.900751 -0.17743,-1.792744 -0.52213,-2.62493 -0.3447,-0.832185 -0.84998,-1.58838 -1.48691,-2.225308 -0.63692,-0.636927 -1.39312,-1.142201 -2.2253,-1.486903 -0.83219,-0.344703 -1.72418,-0.522131 -2.62493,-0.522131 -0.90076,0 -1.79275,0.177428 -2.62493,0.522131 -0.83219,0.344702 -1.58838,0.849976 -2.22531,1.486903 -0.63693,0.636928 -1.1422,1.393123 -1.48691,2.225308 -0.3447,0.832186 -0.52213,1.724179 -0.52213,2.62493 0,0.900752 0.17743,1.792745 0.52213,2.624931 0.34471,0.832185 0.84998,1.58838 1.48691,2.225308 0.63693,0.636927 1.39312,1.142201 2.22531,1.486903 0.83218,0.344703 1.72417,0.522131 2.62493,0.522131 0.90075,0 1.79274,-0.177428 2.62493,-0.522131 0.83218,-0.344702 1.58838,-0.849976 2.2253,-1.486903 0.63693,-0.636928 1.14221,-1.393123 1.48691,-2.225308 0.3447,-0.832186 0.52213,-1.724179 0.52213,-2.624931 m -6.85927,0 m 6.85927,0 z"
           clip-path="url(#p21b5a2699a)" />
      </g>
      <g
         transform="matrix(0.35277777,0,0,0.35277777,-98.835663,89.096134)"
         style="stroke-linecap:butt;stroke-linejoin:round"
         id="patch_204">
        <path
           inkscape:connector-curvature="0"
           id="path688"
           style="fill:#beaed4;stroke:#000000;stroke-width:0.40000001;stroke-linecap:butt;stroke-linejoin:miter"
           d="m 410.67574,58.777229 c 0,-0.900751 -0.17743,-1.792744 -0.52213,-2.62493 -0.3447,-0.832186 -0.84997,-1.58838 -1.4869,-2.225308 -0.63693,-0.636927 -1.39312,-1.142201 -2.22531,-1.486903 -0.83219,-0.344703 -1.72418,-0.522131 -2.62493,-0.522131 -0.90075,0 -1.79274,0.177428 -2.62493,0.522131 -0.83219,0.344702 -1.58838,0.849976 -2.22531,1.486903 -0.63693,0.636928 -1.1422,1.393122 -1.4869,2.225308 -0.3447,0.832186 -0.52213,1.724179 -0.52213,2.62493 0,0.900752 0.17743,1.792745 0.52213,2.62493 0.3447,0.832186 0.84997,1.588381 1.4869,2.225309 0.63693,0.636927 1.39312,1.142201 2.22531,1.486903 0.83219,0.344703 1.72418,0.522131 2.62493,0.522131 0.90075,0 1.79274,-0.177428 2.62493,-0.522131 0.83219,-0.344702 1.58838,-0.849976 2.22531,-1.486903 0.63693,-0.636928 1.1422,-1.393123 1.4869,-2.225309 0.3447,-0.832185 0.52213,-1.724178 0.52213,-2.62493 m -6.85927,0 m 6.85927,0 z"
           clip-path="url(#p21b5a2699a)" />
      </g>
      <g
         transform="matrix(0.35277777,0,0,0.35277777,-98.835663,89.096134)"
         style="stroke-linecap:butt;stroke-linejoin:round"
         id="patch_205">
        <path
           inkscape:connector-curvature="0"
           id="path691"
           style="fill:#fdc086;stroke:#000000;stroke-width:0.40000001;stroke-linecap:butt;stroke-linejoin:miter"
           d="m 346.5188,113.20645 c 0,-0.90075 -0.17743,-1.79274 -0.52213,-2.62493 -0.34471,-0.83219 -0.84998,-1.58838 -1.48691,-2.22531 -0.63693,-0.63693 -1.39312,-1.1422 -2.22531,-1.4869 -0.83218,-0.34471 -1.72417,-0.52213 -2.62493,-0.52213 -0.90075,0 -1.79274,0.17742 -2.62493,0.52213 -0.83218,0.3447 -1.58838,0.84997 -2.2253,1.4869 -0.63693,0.63693 -1.14221,1.39312 -1.48691,2.22531 -0.3447,0.83219 -0.52213,1.72418 -0.52213,2.62493 0,0.90075 0.17743,1.79274 0.52213,2.62493 0.3447,0.83219 0.84998,1.58838 1.48691,2.22531 0.63692,0.63693 1.39312,1.1422 2.2253,1.4869 0.83219,0.3447 1.72418,0.52213 2.62493,0.52213 0.90076,0 1.79275,-0.17743 2.62493,-0.52213 0.83219,-0.3447 1.58838,-0.84997 2.22531,-1.4869 0.63693,-0.63693 1.1422,-1.39312 1.48691,-2.22531 0.3447,-0.83219 0.52213,-1.72418 0.52213,-2.62493 m -6.85928,0 m 6.85928,0 z"
           clip-path="url(#p21b5a2699a)" />
      </g>
      <g
         transform="matrix(0.35277777,0,0,0.35277777,-98.835663,89.096134)"
         style="stroke-linecap:butt;stroke-linejoin:round"
         id="patch_206">
        <path
           inkscape:connector-curvature="0"
           id="path694"
           style="fill:#7fc97f;stroke:#000000;stroke-width:0.40000001;stroke-linecap:butt;stroke-linejoin:miter"
           d="m 363.51227,59.144623 c 0,-0.900751 -0.17743,-1.792744 -0.52213,-2.62493 -0.3447,-0.832186 -0.84998,-1.588381 -1.4869,-2.225308 -0.63693,-0.636928 -1.39313,-1.142201 -2.22531,-1.486903 -0.83219,-0.344703 -1.72418,-0.522132 -2.62493,-0.522132 -0.90075,0 -1.79275,0.177429 -2.62493,0.522132 -0.83219,0.344702 -1.58838,0.849975 -2.22531,1.486903 -0.63693,0.636927 -1.1422,1.393122 -1.4869,2.225308 -0.34471,0.832186 -0.52214,1.724179 -0.52214,2.62493 0,0.900752 0.17743,1.792745 0.52214,2.62493 0.3447,0.832186 0.84997,1.588381 1.4869,2.225309 0.63693,0.636927 1.39312,1.1422 2.22531,1.486903 0.83218,0.344703 1.72418,0.522131 2.62493,0.522131 0.90075,0 1.79274,-0.177428 2.62493,-0.522131 0.83218,-0.344703 1.58838,-0.849976 2.22531,-1.486903 0.63692,-0.636928 1.1422,-1.393123 1.4869,-2.225309 0.3447,-0.832185 0.52213,-1.724178 0.52213,-2.62493 m -6.85927,0 m 6.85927,0 z"
           clip-path="url(#p21b5a2699a)" />
      </g>
      <g
         transform="matrix(0.35277777,0,0,0.35277777,-98.835663,89.096134)"
         style="stroke-linecap:butt;stroke-linejoin:round"
         id="patch_207">
        <path
           inkscape:connector-curvature="0"
           id="path697"
           style="fill:#7fc97f;stroke:#000000;stroke-width:0.40000001;stroke-linecap:butt;stroke-linejoin:miter"
           d="m 409.77404,63.445992 c 0,-1.818494 -0.72317,-3.564368 -2.00904,-4.850238 -1.28587,-1.28587 -3.03174,-2.009035 -4.85024,-2.009035 -1.81849,0 -3.56437,0.723165 -4.85024,2.009035 -1.28587,1.28587 -2.00903,3.031744 -2.00903,4.850238 h 6.85927 z"
           clip-path="url(#p21b5a2699a)" />
      </g>
      <g
         transform="matrix(0.35277777,0,0,0.35277777,-98.835663,89.096134)"
         style="stroke-linecap:butt;stroke-linejoin:round"
         id="patch_208">
        <path
           inkscape:connector-curvature="0"
           id="path700"
           style="fill:#ffff99;stroke:#000000;stroke-width:0.40000001;stroke-linecap:butt;stroke-linejoin:miter"
           d="m 396.05549,63.445992 c 0,1.818495 0.72316,3.564369 2.00903,4.850239 1.28587,1.285869 3.03175,2.009034 4.85024,2.009034 1.8185,0 3.56437,-0.723165 4.85024,-2.009034 1.28587,-1.28587 2.00904,-3.031744 2.00904,-4.850239 h -6.85928 z"
           clip-path="url(#p21b5a2699a)" />
      </g>
      <g
         transform="matrix(0.35277777,0,0,0.35277777,-98.835663,89.096134)"
         style="stroke-linecap:butt;stroke-linejoin:round"
         id="patch_209">
        <path
           inkscape:connector-curvature="0"
           id="path703"
           style="fill:#fdc086;stroke:#000000;stroke-width:0.40000001;stroke-linecap:butt;stroke-linejoin:miter"
           d="m 353.13159,125.70564 c 0,-0.90075 -0.17743,-1.79275 -0.52213,-2.62493 -0.3447,-0.83219 -0.84998,-1.58838 -1.4869,-2.22531 -0.63693,-0.63693 -1.39313,-1.1422 -2.22531,-1.48691 -0.83219,-0.3447 -1.72418,-0.52213 -2.62493,-0.52213 -0.90075,0 -1.79275,0.17743 -2.62493,0.52213 -0.83219,0.34471 -1.58838,0.84998 -2.22531,1.48691 -0.63693,0.63693 -1.1422,1.39312 -1.4869,2.22531 -0.34471,0.83218 -0.52213,1.72418 -0.52213,2.62493 0,0.90075 0.17742,1.79274 0.52213,2.62493 0.3447,0.83218 0.84997,1.58838 1.4869,2.22531 0.63693,0.63692 1.39312,1.1422 2.22531,1.4869 0.83218,0.3447 1.72418,0.52213 2.62493,0.52213 0.90075,0 1.79274,-0.17743 2.62493,-0.52213 0.83218,-0.3447 1.58838,-0.84998 2.22531,-1.4869 0.63692,-0.63693 1.1422,-1.39313 1.4869,-2.22531 0.3447,-0.83219 0.52213,-1.72418 0.52213,-2.62493 m -6.85927,0 m 6.85927,0 z"
           clip-path="url(#p21b5a2699a)" />
      </g>
      <g
         transform="matrix(0.35277777,0,0,0.35277777,-98.835663,89.096134)"
         style="stroke-linecap:butt;stroke-linejoin:round"
         id="patch_210">
        <path
           inkscape:connector-curvature="0"
           id="path706"
           style="fill:#beaed4;stroke:#000000;stroke-width:0.40000001;stroke-linecap:butt;stroke-linejoin:miter"
           d="m 395.30537,45.790224 c 0,-0.900752 -0.17743,-1.792745 -0.52213,-2.62493 -0.3447,-0.832186 -0.84998,-1.588381 -1.4869,-2.225309 -0.63693,-0.636927 -1.39313,-1.142201 -2.22531,-1.486903 -0.83219,-0.344703 -1.72418,-0.522131 -2.62493,-0.522131 -0.90075,0 -1.79275,0.177428 -2.62493,0.522131 -0.83219,0.344702 -1.58838,0.849976 -2.22531,1.486903 -0.63693,0.636928 -1.1422,1.393123 -1.4869,2.225309 -0.34471,0.832185 -0.52213,1.724178 -0.52213,2.62493 0,0.900751 0.17742,1.792744 0.52213,2.62493 0.3447,0.832186 0.84997,1.58838 1.4869,2.225308 0.63693,0.636927 1.39312,1.142201 2.22531,1.486903 0.83218,0.344703 1.72418,0.522131 2.62493,0.522131 0.90075,0 1.79274,-0.177428 2.62493,-0.522131 0.83218,-0.344702 1.58838,-0.849976 2.22531,-1.486903 0.63692,-0.636928 1.1422,-1.393122 1.4869,-2.225308 0.3447,-0.832186 0.52213,-1.724179 0.52213,-2.62493 m -6.85927,0 m 6.85927,0 z"
           clip-path="url(#p21b5a2699a)" />
      </g>
      <g
         transform="matrix(0.35277777,0,0,0.35277777,-98.835663,89.096134)"
         style="stroke-linecap:butt;stroke-linejoin:round"
         id="patch_211">
        <path
           inkscape:connector-curvature="0"
           id="path709"
           style="fill:#fdc086;stroke:#000000;stroke-width:0.40000001;stroke-linecap:butt;stroke-linejoin:miter"
           d="m 366.13157,60.895363 c 0,-0.900751 -0.17743,-1.792744 -0.52213,-2.62493 -0.3447,-0.832186 -0.84998,-1.588381 -1.4869,-2.225308 -0.63693,-0.636927 -1.39312,-1.142201 -2.22531,-1.486903 -0.83219,-0.344703 -1.72418,-0.522132 -2.62493,-0.522132 -0.90075,0 -1.79275,0.177429 -2.62493,0.522132 -0.83219,0.344702 -1.58838,0.849976 -2.22531,1.486903 -0.63693,0.636927 -1.1422,1.393122 -1.4869,2.225308 -0.34471,0.832186 -0.52213,1.724179 -0.52213,2.62493 0,0.900752 0.17742,1.792745 0.52213,2.62493 0.3447,0.832186 0.84997,1.588381 1.4869,2.225309 0.63693,0.636927 1.39312,1.1422 2.22531,1.486903 0.83218,0.344703 1.72418,0.522131 2.62493,0.522131 0.90075,0 1.79274,-0.177428 2.62493,-0.522131 0.83219,-0.344703 1.58838,-0.849976 2.22531,-1.486903 0.63692,-0.636928 1.1422,-1.393123 1.4869,-2.225309 0.3447,-0.832185 0.52213,-1.724178 0.52213,-2.62493 m -6.85927,0 m 6.85927,0 z"
           clip-path="url(#p21b5a2699a)" />
      </g>
      <g
         transform="matrix(0.35277777,0,0,0.35277777,-98.835663,89.096134)"
         style="stroke-linecap:butt;stroke-linejoin:round"
         id="patch_212">
        <path
           inkscape:connector-curvature="0"
           id="path712"
           style="fill:#beaed4;stroke:#000000;stroke-width:0.40000001;stroke-linecap:butt;stroke-linejoin:miter"
           d="m 418.80559,121.64707 c 0,-0.90075 -0.17743,-1.79274 -0.52213,-2.62493 -0.3447,-0.83218 -0.84998,-1.58838 -1.48691,-2.22531 -0.63692,-0.63692 -1.39312,-1.1422 -2.2253,-1.4869 -0.83219,-0.3447 -1.72418,-0.52213 -2.62493,-0.52213 -0.90076,0 -1.79275,0.17743 -2.62493,0.52213 -0.83219,0.3447 -1.58839,0.84998 -2.22531,1.4869 -0.63693,0.63693 -1.1422,1.39313 -1.48691,2.22531 -0.3447,0.83219 -0.52213,1.72418 -0.52213,2.62493 0,0.90075 0.17743,1.79275 0.52213,2.62493 0.34471,0.83219 0.84998,1.58838 1.48691,2.22531 0.63692,0.63693 1.39312,1.1422 2.22531,1.4869 0.83218,0.34471 1.72417,0.52213 2.62493,0.52213 0.90075,0 1.79274,-0.17742 2.62493,-0.52213 0.83218,-0.3447 1.58838,-0.84997 2.2253,-1.4869 0.63693,-0.63693 1.14221,-1.39312 1.48691,-2.22531 0.3447,-0.83218 0.52213,-1.72418 0.52213,-2.62493 m -6.85927,0 m 6.85927,0 z"
           clip-path="url(#p21b5a2699a)" />
      </g>
      <g
         transform="matrix(0.35277777,0,0,0.35277777,-98.835663,89.096134)"
         style="stroke-linecap:butt;stroke-linejoin:round"
         id="patch_213">
        <path
           inkscape:connector-curvature="0"
           id="path715"
           style="fill:#ffff99;stroke:#000000;stroke-width:0.40000001;stroke-linecap:butt;stroke-linejoin:miter"
           d="m 361.31197,114.76759 c 0,-0.90075 -0.17743,-1.79274 -0.52213,-2.62493 -0.3447,-0.83218 -0.84998,-1.58838 -1.4869,-2.22531 -0.63693,-0.63692 -1.39313,-1.1422 -2.22531,-1.4869 -0.83219,-0.3447 -1.72418,-0.52213 -2.62493,-0.52213 -0.90075,0 -1.79275,0.17743 -2.62493,0.52213 -0.83219,0.3447 -1.58838,0.84998 -2.22531,1.4869 -0.63693,0.63693 -1.1422,1.39313 -1.4869,2.22531 -0.34471,0.83219 -0.52213,1.72418 -0.52213,2.62493 0,0.90075 0.17742,1.79275 0.52213,2.62493 0.3447,0.83219 0.84997,1.58838 1.4869,2.22531 0.63693,0.63693 1.39312,1.1422 2.22531,1.4869 0.83218,0.34471 1.72418,0.52213 2.62493,0.52213 0.90075,0 1.79274,-0.17742 2.62493,-0.52213 0.83218,-0.3447 1.58838,-0.84997 2.22531,-1.4869 0.63692,-0.63693 1.1422,-1.39312 1.4869,-2.22531 0.3447,-0.83218 0.52213,-1.72418 0.52213,-2.62493 m -6.85927,0 m 6.85927,0 z"
           clip-path="url(#p21b5a2699a)" />
      </g>
      <g
         transform="matrix(0.35277777,0,0,0.35277777,-98.835663,89.096134)"
         style="stroke-linecap:butt;stroke-linejoin:round"
         id="patch_214">
        <path
           inkscape:connector-curvature="0"
           id="path718"
           style="fill:#ffff99;stroke:#000000;stroke-width:0.40000001;stroke-linecap:butt;stroke-linejoin:miter"
           d="m 399.77407,104.01035 c 0,-0.90075 -0.17743,-1.79274 -0.52213,-2.62493 -0.3447,-0.83218 -0.84998,-1.588376 -1.48691,-2.225304 -0.63692,-0.636927 -1.39312,-1.142201 -2.2253,-1.486903 -0.83219,-0.344703 -1.72418,-0.522131 -2.62493,-0.522131 -0.90075,0 -1.79275,0.177428 -2.62493,0.522131 -0.83219,0.344702 -1.58838,0.849976 -2.22531,1.486903 -0.63693,0.636928 -1.1422,1.393124 -1.48691,2.225304 -0.3447,0.83219 -0.52213,1.72418 -0.52213,2.62493 0,0.90076 0.17743,1.79275 0.52213,2.62493 0.34471,0.83219 0.84998,1.58838 1.48691,2.22531 0.63693,0.63693 1.39312,1.1422 2.22531,1.48691 0.83218,0.3447 1.72418,0.52213 2.62493,0.52213 0.90075,0 1.79274,-0.17743 2.62493,-0.52213 0.83218,-0.34471 1.58838,-0.84998 2.2253,-1.48691 0.63693,-0.63693 1.14221,-1.39312 1.48691,-2.22531 0.3447,-0.83218 0.52213,-1.72417 0.52213,-2.62493 m -6.85927,0 m 6.85927,0 z"
           clip-path="url(#p21b5a2699a)" />
      </g>
      <g
         transform="matrix(0.35277777,0,0,0.35277777,-98.835663,89.096134)"
         style="stroke-linecap:butt;stroke-linejoin:round"
         id="patch_215">
        <path
           inkscape:connector-curvature="0"
           id="path721"
           style="fill:#fdc086;stroke:#000000;stroke-width:0.40000001;stroke-linecap:butt;stroke-linejoin:miter"
           d="m 346.38418,107.62783 c 0,-0.90075 -0.17743,-1.79275 -0.52213,-2.62493 -0.3447,-0.83219 -0.84997,-1.58838 -1.4869,-2.22531 -0.63693,-0.63693 -1.39312,-1.1422 -2.22531,-1.48691 -0.83219,-0.3447 -1.72418,-0.52213 -2.62493,-0.52213 -0.90075,0 -1.79274,0.17743 -2.62493,0.52213 -0.83219,0.34471 -1.58838,0.84998 -2.22531,1.48691 -0.63693,0.63693 -1.1422,1.39312 -1.4869,2.22531 -0.3447,0.83218 -0.52213,1.72418 -0.52213,2.62493 0,0.90075 0.17743,1.79274 0.52213,2.62493 0.3447,0.83218 0.84997,1.58838 1.4869,2.22531 0.63693,0.63692 1.39312,1.1422 2.22531,1.4869 0.83219,0.3447 1.72418,0.52213 2.62493,0.52213 0.90075,0 1.79274,-0.17743 2.62493,-0.52213 0.83219,-0.3447 1.58838,-0.84998 2.22531,-1.4869 0.63693,-0.63693 1.1422,-1.39313 1.4869,-2.22531 0.3447,-0.83219 0.52213,-1.72418 0.52213,-2.62493 m -6.85927,0 m 6.85927,0 z"
           clip-path="url(#p21b5a2699a)" />
      </g>
      <g
         transform="matrix(0.35277777,0,0,0.35277777,-98.835663,89.096134)"
         style="stroke-linecap:butt;stroke-linejoin:round"
         id="patch_216">
        <path
           inkscape:connector-curvature="0"
           id="path724"
           style="fill:#7fc97f;stroke:#000000;stroke-width:0.40000001;stroke-linecap:butt;stroke-linejoin:miter"
           d="m 406.19751,64.396671 c 0,-1.818494 -0.72316,-3.564368 -2.00903,-4.850238 -1.28587,-1.28587 -3.03174,-2.009035 -4.85024,-2.009035 -1.81849,0 -3.56437,0.723165 -4.85024,2.009035 -1.28587,1.28587 -2.00903,3.031744 -2.00903,4.850238 h 6.85927 z"
           clip-path="url(#p21b5a2699a)" />
      </g>
      <g
         transform="matrix(0.35277777,0,0,0.35277777,-98.835663,89.096134)"
         style="stroke-linecap:butt;stroke-linejoin:round"
         id="patch_217">
        <path
           inkscape:connector-curvature="0"
           id="path727"
           style="fill:#fdc086;stroke:#000000;stroke-width:0.40000001;stroke-linecap:butt;stroke-linejoin:miter"
           d="m 392.47897,64.396671 c 0,1.818495 0.72316,3.564369 2.00903,4.850239 1.28587,1.285869 3.03175,2.009034 4.85024,2.009034 1.8185,0 3.56437,-0.723165 4.85024,-2.009034 1.28587,-1.28587 2.00903,-3.031744 2.00903,-4.850239 h -6.85927 z"
           clip-path="url(#p21b5a2699a)" />
      </g>
      <g
         transform="matrix(0.35277777,0,0,0.35277777,-98.835663,89.096134)"
         style="stroke-linecap:butt;stroke-linejoin:round"
         id="patch_218">
        <path
           inkscape:connector-curvature="0"
           id="path732"
           style="fill:none;stroke:#000000;stroke-width:0.80000001;stroke-linecap:square;stroke-linejoin:miter"
           d="M 311.3,142.3 V 26.8" />
      </g>
      <g
         transform="matrix(0.35277777,0,0,0.35277777,-98.835663,89.096134)"
         style="stroke-linecap:butt;stroke-linejoin:round"
         id="patch_219">
        <path
           inkscape:connector-curvature="0"
           id="path735"
           style="fill:none;stroke:#000000;stroke-width:0.80000001;stroke-linecap:square;stroke-linejoin:miter"
           d="M 441.88533,142.3 V 26.8" />
      </g>
      <g
         transform="matrix(0.35277777,0,0,0.35277777,-98.835663,89.096134)"
         style="stroke-linecap:butt;stroke-linejoin:round"
         id="patch_220">
        <path
           inkscape:connector-curvature="0"
           id="path738"
           style="fill:none;stroke:#000000;stroke-width:0.80000001;stroke-linecap:square;stroke-linejoin:miter"
           d="M 311.3,142.3 H 441.88533" />
      </g>
      <g
         transform="matrix(0.35277777,0,0,0.35277777,-98.835663,89.096134)"
         style="stroke-linecap:butt;stroke-linejoin:round"
         id="patch_221">
        <path
           inkscape:connector-curvature="0"
           id="path741"
           style="fill:none;stroke:#000000;stroke-width:0.80000001;stroke-linecap:square;stroke-linejoin:miter"
           d="M 311.3,26.8 H 441.88533" />
      </g>
    </g>
    <text
       xml:space="preserve"
       style="font-style:normal;font-weight:normal;font-size:2.82222223px;line-height:1.25;font-family:sans-serif;letter-spacing:0px;word-spacing:0px;fill:#000000;fill-opacity:1;stroke:none;stroke-width:0.26458332"
       x="16.441963"
       y="94.59375"
       id="text6311"><tspan
         sodipodi:role="line"
         id="tspan6309"
         x="16.441963"
         y="94.59375"
         style="font-size:4.23333311px;stroke-width:0.26458332">M Random Weak</tspan></text>
  </g>
</svg>
