<?xml version="1.0" encoding="UTF-8" standalone="no"?>
<!-- Created with Inkscape (http://www.inkscape.org/) -->

<svg
   xmlns:dc="http://purl.org/dc/elements/1.1/"
   xmlns:cc="http://creativecommons.org/ns#"
   xmlns:rdf="http://www.w3.org/1999/02/22-rdf-syntax-ns#"
   xmlns:svg="http://www.w3.org/2000/svg"
   xmlns="http://www.w3.org/2000/svg"
   xmlns:inkscape="http://www.inkscape.org/namespaces/inkscape"
   version="1.1"
   width="584.328"
   height="502.36099"
   id="svg2"
   xml:space="preserve"><metadata
     id="metadata8"><rdf:RDF><cc:Work
         rdf:about=""><dc:format>image/svg+xml</dc:format><dc:type
           rdf:resource="http://purl.org/dc/dcmitype/StillImage" /></cc:Work></rdf:RDF></metadata><defs
     id="defs6"><clipPath
       id="clipPath12"><path
         d="M 0,0 842,0 842,595 0,595 0,0 z"
         inkscape:connector-curvature="0"
         id="path14" /></clipPath><clipPath
       id="clipPath22"><path
         d="m 60.96363,27.50912 719.9999,0 0,540 -719.9999,0 0,-540 z"
         inkscape:connector-curvature="0"
         id="path24" /></clipPath><clipPath
       id="clipPath94"><path
         d="m 414.9639,345.2171 35.74994,0 0,39.63586 -35.74994,0 0,-39.63586 z"
         inkscape:connector-curvature="0"
         id="path96" /></clipPath><clipPath
       id="clipPath108"><path
         d="m 60.96363,27.50912 719.9999,0 0,540 -719.9999,0 0,-540 z"
         inkscape:connector-curvature="0"
         id="path110" /></clipPath></defs><g
     transform="matrix(1.25,0,0,-1.25,-244.69237,627.879)"
     clip-path="url(#clipPath12)"
     id="g10"><g
       id="g16" /><g
       id="g18"><g
         clip-path="url(#clipPath22)"
         id="g20"><path
           d="m 60.96363,27.50916 719.9999,0 0,539.9999 -719.9999,0 0,-539.9999 z"
           inkscape:connector-curvature="0"
           id="path26"
           style="fill:#ffffff;fill-opacity:1;fill-rule:evenodd;stroke:none" /><path
           d="m 372.9638,295.3421 c 0,1.795 1.4551,3.25 3.25,3.25 1.795,0 3.25,-1.455 3.25,-3.25 0,-1.7949 -1.455,-3.25 -3.25,-3.25 -1.7949,0 -3.25,1.4551 -3.25,3.25 z"
           inkscape:connector-curvature="0"
           id="path28"
           style="fill:#4180ff;fill-opacity:1;fill-rule:evenodd;stroke:none" /><g
           transform="matrix(7.874014e-5,0,0,-7.874014e-5,372.9638,298.5921)"
           id="g30"><path
             d="M -0.045847,41275.09 C -0.045847,18479.58 18479.45,0.08319408 41274.96,0.08319408 64070.47,0.08319408 82549.97,18479.58 82549.97,41275.09 c 0,22795.51 -18479.5,41275 -41275.01,41275 -22795.51,0 -41275.005847,-18479.49 -41275.005847,-41275 z"
             inkscape:connector-curvature="0"
             id="path32"
             style="fill:none;stroke:#000000;stroke-width:9525;stroke-linecap:butt;stroke-linejoin:round;stroke-miterlimit:10;stroke-opacity:1;stroke-dasharray:none" /></g><path
           d="m 469.9638,305.2171 c 0,1.7949 1.4831,3.25 3.3125,3.25 1.8295,0 3.3125,-1.4551 3.3125,-3.25 0,-1.7949 -1.483,-3.25 -3.3125,-3.25 -1.8294,0 -3.3125,1.4551 -3.3125,3.25 z"
           inkscape:connector-curvature="0"
           id="path34"
           style="fill:#4180ff;fill-opacity:1;fill-rule:evenodd;stroke:none" /><g
           transform="matrix(7.874014e-5,0,0,-7.874014e-5,469.9638,308.4671)"
           id="g36"><path
             d="M -0.2439672,41274.96 C -0.2439672,18479.45 18834.66,-0.04851973 42068.9,-0.04851973 65302.76,-0.04851973 84137.66,18479.45 84137.66,41274.96 c 0,22795.51 -18834.9,41275 -42068.76,41275 -23234.24,0 -42069.1439672,-18479.49 -42069.1439672,-41275 z"
             inkscape:connector-curvature="0"
             id="path38"
             style="fill:none;stroke:#000000;stroke-width:9525;stroke-linecap:butt;stroke-linejoin:round;stroke-miterlimit:10;stroke-opacity:1;stroke-dasharray:none" /></g><path
           d="m 469.9638,305.2171 c 0,1.7949 1.4831,3.25 3.3125,3.25 1.8295,0 3.3125,-1.4551 3.3125,-3.25 0,-1.7949 -1.483,-3.25 -3.3125,-3.25 -1.8294,0 -3.3125,1.4551 -3.3125,3.25 z"
           inkscape:connector-curvature="0"
           id="path40"
           style="fill:#4180ff;fill-opacity:1;fill-rule:evenodd;stroke:none" /><g
           transform="matrix(7.874014e-5,0,0,-7.874014e-5,469.9638,308.4671)"
           id="g42"><path
             d="M -0.2439672,41274.96 C -0.2439672,18479.45 18834.66,-0.04851973 42068.9,-0.04851973 65302.76,-0.04851973 84137.66,18479.45 84137.66,41274.96 c 0,22795.51 -18834.9,41275 -42068.76,41275 -23234.24,0 -42069.1439672,-18479.49 -42069.1439672,-41275 z"
             inkscape:connector-curvature="0"
             id="path44"
             style="fill:none;stroke:#000000;stroke-width:9525;stroke-linecap:butt;stroke-linejoin:round;stroke-miterlimit:10;stroke-opacity:1;stroke-dasharray:none" /></g><path
           d="m 457.9638,317.2171 c 0,1.7949 1.4831,3.25 3.3125,3.25 1.8295,0 3.3125,-1.4551 3.3125,-3.25 0,-1.7949 -1.483,-3.25 -3.3125,-3.25 -1.8294,0 -3.3125,1.4551 -3.3125,3.25 z"
           inkscape:connector-curvature="0"
           id="path46"
           style="fill:#4180ff;fill-opacity:1;fill-rule:evenodd;stroke:none" /><g
           transform="matrix(7.874014e-5,0,0,-7.874014e-5,457.9638,320.4671)"
           id="g48"><path
             d="M -0.2674047,41275.18 C -0.2674047,18479.67 18834.63,0.1780428 42068.88,0.1780428 65302.73,0.1780428 84137.63,18479.67 84137.63,41275.18 c 0,22795.52 -18834.9,41275.01 -42068.75,41275.01 C 18834.63,82550.19 -0.2674047,64070.7 -0.2674047,41275.18 z"
             inkscape:connector-curvature="0"
             id="path50"
             style="fill:none;stroke:#000000;stroke-width:9525;stroke-linecap:butt;stroke-linejoin:round;stroke-miterlimit:10;stroke-opacity:1;stroke-dasharray:none" /></g><path
           d="m 223.5888,150.8422 191.375,311.3749 191.3749,-311.3749 -382.7499,0 z"
           inkscape:connector-curvature="0"
           id="path52"
           style="fill:#6095c9;fill-opacity:1;fill-rule:evenodd;stroke:none" /><g
           transform="matrix(7.874014e-5,0,0,-7.874014e-5,223.5888,462.2171)"
           id="g54"><path
             d="M 0.02483165,3954462 2430463,0.2887606 4860925,3954462 0.02483165,3954462 z"
             inkscape:connector-curvature="0"
             id="path56"
             style="fill:none;stroke:#000000;stroke-width:9525;stroke-linecap:butt;stroke-linejoin:round;stroke-miterlimit:10;stroke-opacity:1;stroke-dasharray:none" /></g><g
           transform="translate(373.656,503.1237)"
           id="g58"><text
             transform="matrix(1,0,0,-1,0,-32)"
             id="text60"><tspan
               x="0 10.656 26.656 34.655998 50.655998 58.655998 74.655998 85.311996"
               y="0"
               id="tspan62"
               style="font-size:32px;font-variant:normal;font-weight:normal;writing-mode:lr-tb;fill:#000000;fill-opacity:1;fill-rule:nonzero;stroke:none;font-family:Times New Roman;-inkscape-font-specification:TimesNewRomanPSMT">(0,0,1) </tspan></text>
</g><g
           transform="translate(202.4138,146.7422)"
           id="g64"><text
             transform="matrix(1,0,0,-1,0,-32)"
             id="text66"><tspan
               x="0 10.656 26.656 34.655998 50.655998 58.655998 74.655998 85.311996"
               y="0"
               id="tspan68"
               style="font-size:32px;font-variant:normal;font-weight:normal;writing-mode:lr-tb;fill:#000000;fill-opacity:1;fill-rule:nonzero;stroke:none;font-family:Times New Roman;-inkscape-font-specification:TimesNewRomanPSMT">(1,0,0) </tspan></text>
</g><g
           transform="translate(570.9138,146.7422)"
           id="g70"><text
             transform="matrix(1,0,0,-1,0,-32)"
             id="text72"><tspan
               x="0 10.656 26.656 34.655998 50.655998 58.655998 74.655998 85.311996"
               y="0"
               id="tspan74"
               style="font-size:32px;font-variant:normal;font-weight:normal;writing-mode:lr-tb;fill:#000000;fill-opacity:1;fill-rule:nonzero;stroke:none;font-family:Times New Roman;-inkscape-font-specification:TimesNewRomanPSMT">(0,1,0) </tspan></text>
</g><path
           d="m 319.8388,306.3922 95.0001,155.3249 95.9999,-155.3249 -95.9999,-51.8001 -95.0001,51.8001 z"
           inkscape:connector-curvature="0"
           id="path76"
           style="fill:#f5c6ad;fill-opacity:1;fill-rule:evenodd;stroke:none" /><g
           transform="matrix(7.874014e-5,0,0,-7.874014e-5,319.8388,461.7171)"
           id="g78"><path
             d="M -0.03718007,1972627 1206502,0.2897372 2425700,1972627 1206502,2630488 -0.03718007,1972627 z"
             inkscape:connector-curvature="0"
             id="path80"
             style="fill:none;stroke:#000000;stroke-width:19050;stroke-linecap:butt;stroke-linejoin:round;stroke-miterlimit:10;stroke-opacity:1;stroke-dasharray:none" /></g><g
           transform="matrix(7.874014e-5,0,0,-7.874014e-5,414.9638,462.2171)"
           id="g82"><path
             d="M 0.1486109,0.2887606 1.311331,3954462"
             inkscape:connector-curvature="0"
             id="path84"
             style="fill:none;stroke:#000000;stroke-width:9525;stroke-linecap:butt;stroke-linejoin:round;stroke-miterlimit:10;stroke-opacity:1;stroke-dasharray:28575, 9525;stroke-dashoffset:0" /></g><g
           transform="matrix(-7.874014e-5,0,0,-7.874014e-5,510.6513,306.5296)"
           id="g86"><path
             d="M 0.3020727,0.06769115 3645694,1983581"
             inkscape:connector-curvature="0"
             id="path88"
             style="fill:none;stroke:#000000;stroke-width:9525;stroke-linecap:butt;stroke-linejoin:round;stroke-miterlimit:10;stroke-opacity:1;stroke-dasharray:28575, 9525;stroke-dashoffset:0" /></g></g></g><g
       id="g90"><g
         clip-path="url(#clipPath94)"
         id="g92"><g
           transform="matrix(0.1015625,0,0,0.09527861,421.4639,360.4616)"
           id="g98"><text
             transform="matrix(1,0,0,-1,2,0)"
             id="text100"><tspan
               x="0"
               y="0"
               id="tspan102"
               style="font-size:384px;font-variant:normal;font-weight:normal;writing-mode:lr-tb;fill:#000000;fill-opacity:1;fill-rule:nonzero;stroke:#000000;stroke-width:9.21600056;stroke-linecap:butt;stroke-linejoin:miter;stroke-miterlimit:10;stroke-opacity:1;stroke-dasharray:none;font-family:Symbol;-inkscape-font-specification:Symbol">η</tspan></text>
</g></g></g><g
       id="g104"><g
         clip-path="url(#clipPath108)"
         id="g106"><path
           d="m 451.9638,359.7171 c 0,1.7949 1.4831,3.25 3.3125,3.25 1.8295,0 3.3125,-1.4551 3.3125,-3.25 0,-1.7949 -1.483,-3.25 -3.3125,-3.25 -1.8294,0 -3.3125,1.4551 -3.3125,3.25 z"
           inkscape:connector-curvature="0"
           id="path112"
           style="fill:#4180ff;fill-opacity:1;fill-rule:evenodd;stroke:none" /><g
           transform="matrix(7.874014e-5,0,0,-7.874014e-5,451.9638,362.9671)"
           id="g114"><path
             d="M -0.2791234,41275.1 C -0.2791234,18479.59 18834.62,0.09503496 42068.86,0.09503496 65302.72,0.09503496 84137.62,18479.59 84137.62,41275.1 c 0,22795.51 -18834.9,41275.01 -42068.76,41275.01 C 18834.62,82550.11 -0.2791234,64070.61 -0.2791234,41275.1 z"
             inkscape:connector-curvature="0"
             id="path116"
             style="fill:none;stroke:#000000;stroke-width:9525;stroke-linecap:butt;stroke-linejoin:round;stroke-miterlimit:10;stroke-opacity:1;stroke-dasharray:none" /></g><path
           d="m 499.9014,385.3645 106.4374,0 0,75.12653 -106.4374,0 0,-75.12653 z"
           inkscape:connector-curvature="0"
           id="path118"
           style="fill:#ffffff;fill-opacity:0.30199998;fill-rule:evenodd;stroke:none" /><g
           transform="translate(507.1014,456.891)"
           id="g120"><text
             transform="matrix(1,0,0,-1,0,-28)"
             id="text122"><tspan
               x="0 14.4648 24.225599 38.998402 53.715199 67.648003 77.408798"
               y="0"
               id="tspan124"
               style="font-size:28px;font-variant:normal;font-weight:normal;writing-mode:lr-tb;fill:#000000;fill-opacity:1;fill-rule:nonzero;stroke:none;font-family:Calibri;-inkscape-font-specification:Calibri">Proper </tspan></text>
</g><g
           transform="translate(507.1014,423.891)"
           id="g126"><text
             transform="matrix(1,0,0,-1,0,-28)"
             id="text128"><tspan
               x="0 6.4260001 21.195999 32.158001 43.119999 50.610001"
               y="0"
               id="tspan130"
               style="font-size:28px;font-variant:normal;font-weight:normal;writing-mode:lr-tb;fill:#000000;fill-opacity:1;fill-rule:nonzero;stroke:none;font-family:Calibri;-inkscape-font-specification:Calibri">loss: </tspan></text>
</g><path
           d="m 373.6508,289.0269 96.31299,0 0,41.19843 -96.31299,0 0,-41.19843 z"
           inkscape:connector-curvature="0"
           id="path132"
           style="fill:#ffffff;fill-opacity:0.30199998;fill-rule:evenodd;stroke:none" /><g
           transform="translate(380.8508,326.6254)"
           id="g134"><text
             transform="matrix(1,0,0,-1,0,-28)"
             id="text136"><tspan
               x="0 14.9296 29.8592 36.192799 42.610401 57.372002 68.3256 79.279198"
               y="0"
               id="tspan138"
               style="font-size:28px;font-variant:normal;font-weight:normal;writing-mode:lr-tb;fill:#000000;fill-opacity:1;fill-rule:nonzero;stroke:none;font-family:Calibri;-inkscape-font-specification:Calibri">CC loss </tspan></text>
</g><g
           transform="matrix(7.874014e-5,0,0,7.874014e-5,458.5887,359.7171)"
           id="g140"><path
             d="M -0.04133058,0.01104409 49212.46,8731.263 96043.73,34131.27 l 44449.97,39687.5 39687.5,51593.73 34131.3,61118.8 25400,67468.7 17462.5,73025.1 5556.2,74612.5 5556.3,74612.5 16668.7,73025 26193.8,67468.8 33337.5,60325 39687.5,51593.7 44450,39687.5 46831.3,25400 24203.2,4294"
             inkscape:connector-curvature="0"
             id="path142"
             style="fill:none;stroke:#000000;stroke-width:12700;stroke-linecap:butt;stroke-linejoin:round;stroke-miterlimit:10;stroke-opacity:1;stroke-dasharray:none" /></g><path
           d="m 494.5176,418.9026 5.3836,4.0019 -6.4317,1.9058 1.0481,-5.9077 z"
           inkscape:connector-curvature="0"
           id="path144"
           style="fill:#000000;fill-opacity:1;fill-rule:evenodd;stroke:none" /><g
           transform="matrix(7.874014e-5,0,0,-7.874014e-5,319.2763,306.5296)"
           id="g146"><path
             d="M -0.175852,0.06769115 3645694,1983581"
             inkscape:connector-curvature="0"
             id="path148"
             style="fill:none;stroke:#000000;stroke-width:9525;stroke-linecap:butt;stroke-linejoin:round;stroke-miterlimit:10;stroke-opacity:1;stroke-dasharray:28575, 9525;stroke-dashoffset:0" /></g></g></g></g></svg>