<?xml version="1.0" encoding="UTF-8" standalone="no"?>
<!-- Created with Inkscape (http://www.inkscape.org/) -->

<svg
   xmlns:dc="http://purl.org/dc/elements/1.1/"
   xmlns:cc="http://creativecommons.org/ns#"
   xmlns:rdf="http://www.w3.org/1999/02/22-rdf-syntax-ns#"
   xmlns:svg="http://www.w3.org/2000/svg"
   xmlns="http://www.w3.org/2000/svg"
   xmlns:sodipodi="http://sodipodi.sourceforge.net/DTD/sodipodi-0.dtd"
   xmlns:inkscape="http://www.inkscape.org/namespaces/inkscape"
   width="22.84375"
   height="18.584057"
   id="svg2"
   version="1.1"
   inkscape:version="0.48.4 r9939"
   sodipodi:docname="briefcase.svg">
  <defs
     id="defs4" />
  <sodipodi:namedview
     id="base"
     pagecolor="#ffffff"
     bordercolor="#666666"
     borderopacity="1.0"
     inkscape:pageopacity="0.0"
     inkscape:pageshadow="2"
     inkscape:zoom="15.839192"
     inkscape:cx="12.171624"
     inkscape:cy="12.07912"
     inkscape:document-units="px"
     inkscape:current-layer="layer1"
     showgrid="false"
     fit-margin-top="0"
     fit-margin-left="0"
     fit-margin-right="0"
     fit-margin-bottom="0"
     inkscape:window-width="1598"
     inkscape:window-height="879"
     inkscape:window-x="1920"
     inkscape:window-y="19"
     inkscape:window-maximized="0" />
  <metadata
     id="metadata7">
    <rdf:RDF>
      <cc:Work
         rdf:about="">
        <dc:format>image/svg+xml</dc:format>
        <dc:type
           rdf:resource="http://purl.org/dc/dcmitype/StillImage" />
        <dc:title></dc:title>
      </cc:Work>
    </rdf:RDF>
  </metadata>
  <g
     inkscape:label="Layer 1"
     inkscape:groupmode="layer"
     id="layer1"
     transform="translate(-29.910714,-447.86741)">
    <path
       style="fill:#0b3861;fill-opacity:1;fill-rule:nonzero;stroke:none"
       d="M 2.21875,3.59375 C 0.98214282,3.59375 0,4.5758928 0,5.8125 L 0,8.125 c 0,0 6.3060025,1.6441401 10.3125,1.9375 C 10.436822,9.870304 10.65478,9.75 10.90625,9.75 l 1.03125,0 c 0.25147,0 0.469428,0.120304 0.59375,0.3125 4.000143,-0.2867678 10.3125,-1.9375 10.3125,-1.9375 l 0,-2.3125 c 0,-1.2366072 -0.982143,-2.21875 -2.21875,-2.21875 l -18.40625,0 z M 0,9.6875 0,16.40625 C 0,17.642857 0.98214282,18.625 2.21875,18.625 l 18.40625,0 c 1.236607,0 2.21875,-0.982143 2.21875,-2.21875 l 0,-6.71875 c 0,0 -6.181413,1.624859 -10.1875,1.9375 l 0,0.96875 c 0,0.379469 -0.329037,0.6875 -0.71875,0.6875 l -1.03125,0 c -0.389713,0 -0.71875,-0.308031 -0.71875,-0.6875 l 0,-0.96875 C 6.1754144,11.306097 0,9.6875 0,9.6875 z"
       transform="translate(29.910714,447.82647)"
       id="rect3841"
       inkscape:connector-curvature="0" />
    <rect
       style="fill:none;stroke:#0b3861;stroke-width:1.39999998000000003;stroke-miterlimit:4;stroke-dasharray:none;stroke-opacity:1"
       id="rect3843"
       width="7.9464288"
       height="5.5357141"
       x="37.36607"
       y="448.56741"
       rx="0.89285767"
       ry="0.93750435" />
  </g>
</svg>
