<?xml version="1.0" encoding="UTF-8" standalone="no"?>
<!-- Created with Inkscape (http://www.inkscape.org/) -->

<svg
   xmlns:dc="http://purl.org/dc/elements/1.1/"
   xmlns:cc="http://creativecommons.org/ns#"
   xmlns:rdf="http://www.w3.org/1999/02/22-rdf-syntax-ns#"
   xmlns:svg="http://www.w3.org/2000/svg"
   xmlns="http://www.w3.org/2000/svg"
   xmlns:sodipodi="http://sodipodi.sourceforge.net/DTD/sodipodi-0.dtd"
   xmlns:inkscape="http://www.inkscape.org/namespaces/inkscape"
   width="144.1375mm"
   height="87.216553mm"
   viewBox="0 0 144.13749 87.216555"
   version="1.1"
   id="svg8"
   inkscape:version="0.92.5 (2060ec1f9f, 2020-04-08)"
   sodipodi:docname="map.svg">
  <defs
     id="defs2" />
  <sodipodi:namedview
     id="base"
     pagecolor="#ffffff"
     bordercolor="#666666"
     borderopacity="1.0"
     inkscape:pageopacity="0.0"
     inkscape:pageshadow="2"
     inkscape:zoom="0.98994949"
     inkscape:cx="566.21285"
     inkscape:cy="121.69812"
     inkscape:document-units="mm"
     inkscape:current-layer="layer1"
     showgrid="false"
     fit-margin-top="0"
     fit-margin-left="0"
     fit-margin-right="0"
     fit-margin-bottom="0"
     inkscape:window-width="1916"
     inkscape:window-height="1037"
     inkscape:window-x="1680"
     inkscape:window-y="20"
     inkscape:window-maximized="0" />
  <metadata
     id="metadata5">
    <rdf:RDF>
      <cc:Work
         rdf:about="">
        <dc:format>image/svg+xml</dc:format>
        <dc:type
           rdf:resource="http://purl.org/dc/dcmitype/StillImage" />
        <dc:title></dc:title>
      </cc:Work>
    </rdf:RDF>
  </metadata>
  <g
     inkscape:label="Layer 1"
     inkscape:groupmode="layer"
     id="layer1"
     transform="translate(-65.826165,-125.13043)">
    <path
       style="opacity:1;fill:#000000;fill-opacity:1;stroke:#000000;stroke-width:1;stroke-miterlimit:4;stroke-dasharray:none;stroke-dashoffset:0.57106102;stroke-opacity:1"
       id="path911"
       d="m 103.18793,133.13039 c -0.12195,0.0149 -0.23794,0.0571 -0.35492,0.0929 -0.21476,0.0569 -0.42566,0.1255 -0.63212,0.20744 -0.25499,0.0999 -0.50327,0.21648 -0.74426,0.34637 0.99744,-0.58456 0.47564,-0.28276 0.27167,-0.12786 -0.11815,0.0897 -0.23074,0.18723 -0.34378,0.28321 -0.22567,0.1928 -0.43211,0.40622 -0.62385,0.63242 -0.19446,0.23317 -0.35762,0.48894 -0.49605,0.75858 -0.13647,0.27813 -0.23264,0.57284 -0.321147,0.86894 -0.1013,0.34539 -0.18018,0.69661 -0.24089,1.05124 -0.0664,0.40677 -0.0945,0.81831 -0.0873,1.23009 0.006,0.41116 0.0673,0.81776 0.16234,1.21693 0.0955,0.36632 0.292767,0.68699 0.510017,0.99202 0.23293,0.3079 0.48891,0.59711 0.73022,0.89834 0.28576,0.35318 0.53252,0.73285 0.73256,1.14033 0.21353,0.47317 0.3822,0.96479 0.53701,1.45975 0.16201,0.53554 0.30781,1.07602 0.43354,1.62121 0.12421,0.52256 0.15852,1.0568 0.17035,1.59169 -10e-4,0.56734 -0.0202,1.13448 -0.0349,1.70159 -0.0315,0.55163 0.0195,1.10102 0.1113,1.64434 0.0793,0.44694 0.20694,0.88034 0.42898,1.27697 0.16032,0.27509 0.37841,0.50491 0.62089,0.70813 0.17477,0.13582 0.35656,0.21631 0.57571,0.16144 0.33875,-0.18171 -0.3037,0.18039 -0.46099,0.26043 -0.0354,0.018 0.0634,-0.0481 0.0929,-0.0747 0.10576,-0.0954 0.19254,-0.20755 0.27973,-0.31938 0.20047,-0.26493 0.35658,-0.55795 0.49809,-0.85737 0.1637,-0.35127 0.28694,-0.71888 0.41677,-1.0834 0.14775,-0.40069 0.3014,-0.79925 0.47923,-1.18764 0.18636,-0.39117 0.40326,-0.76623 0.63664,-1.13091 0.24722,-0.36656 0.50963,-0.72261 0.77502,-1.07613 0.2705,-0.35821 0.5273,-0.72683 0.77656,-1.10008 0.25472,-0.38234 0.47372,-0.78624 0.6797,-1.19636 0.20686,-0.42284 0.40826,-0.84799 0.59499,-1.28012 0.18221,-0.44692 0.37316,-0.89006 0.58476,-1.32387 0.2276,-0.43262 0.45867,-0.86309 0.66742,-1.30522 0.21738,-0.47246 0.41142,-0.95564 0.53181,-1.46215 0.0964,-0.45896 0.01,-0.90805 -0.10928,-1.35218 -0.12279,-0.43576 -0.31139,-0.84691 -0.51774,-1.2483 -0.22392,-0.41626 -0.48466,-0.81049 -0.75982,-1.19422 -0.28192,-0.38926 -0.61158,-0.73861 -0.95678,-1.07156 -0.33957,-0.33341 -0.73357,-0.59948 -1.13882,-0.84514 -0.399,-0.22871 -0.82155,-0.41157 -1.2467,-0.58516 -0.45211,-0.18307 -0.91561,-0.33603 -1.38496,-0.46804 -0.48245,-0.12127 -0.97467,-0.19809 -1.46811,-0.25752 -0.0824,-0.007 -0.16473,-0.0132 -0.2471,-0.0198 0,0 0.5976,-0.42653 0.5976,-0.42653 v 0 c 0.0829,0.007 0.16585,0.0147 0.24877,0.0221 0.49571,0.0625 0.99043,0.14051 1.47436,0.26696 0.47103,0.13514 0.93698,0.28854 1.39084,0.47403 0.4278,0.17594 0.85316,0.36113 1.25324,0.59481 0.40816,0.25036 0.80429,0.52215 1.14698,0.85921 0.34748,0.33681 0.67923,0.69008 0.96333,1.08309 0.27706,0.38676 0.54055,0.78355 0.76628,1.20292 0.20913,0.40574 0.39986,0.82153 0.52584,1.26166 0.12334,0.45435 0.21478,0.91477 0.12304,1.38566 -0.11539,0.51146 -0.30812,0.99895 -0.52463,1.47582 -0.20582,0.44376 -0.43576,0.8751 -0.66655,1.30629 -0.21302,0.43206 -0.40559,0.87352 -0.58572,1.32029 -0.18555,0.43358 -0.38631,0.85986 -0.59296,1.28375 -0.20438,0.41272 -0.422,0.81925 -0.67537,1.2044 -0.24764,0.37513 -0.50534,0.74405 -0.77454,1.10403 -0.26647,0.3514 -0.5263,0.708 -0.77683,1.07094 -0.23427,0.36167 -0.45255,0.73324 -0.64038,1.12145 -0.18084,0.3852 -0.33345,0.78234 -0.48135,1.1812 -0.13067,0.36537 -0.25071,0.7352 -0.412,1.08877 -0.13917,0.30322 -0.29174,0.6006 -0.48923,0.87083 -0.30427,0.41027 -0.66291,0.73543 -1.19163,0.87673 -0.23428,0.0219 -0.42869,-0.0698 -0.609,-0.21729 -0.2463,-0.2118 -0.46773,-0.44998 -0.63024,-0.73362 -0.22343,-0.40535 -0.35617,-0.84581 -0.4367,-1.30125 -0.0928,-0.54782 -0.14586,-1.10206 -0.11502,-1.65835 0.0144,-0.56577 0.0324,-1.13156 0.0346,-1.69754 -0.0112,-0.5303 -0.0411,-1.06037 -0.1624,-1.57899 -0.12443,-0.54353 -0.26975,-1.08219 -0.43144,-1.61584 -0.15438,-0.49101 -0.32129,-0.97921 -0.5342,-1.44842 -0.19859,-0.40213 -0.44287,-0.77711 -0.72603,-1.12542 -0.24333,-0.3017 -0.503187,-0.58988 -0.735247,-0.90057 -0.22102,-0.31366 -0.42266,-0.64273 -0.52257,-1.01731 -0.0972,-0.40387 -0.16077,-0.81536 -0.16848,-1.23153 -0.0104,-0.41559 0.0155,-0.8309 0.0803,-1.24189 0.0574,-0.35689 0.13411,-0.71029 0.23389,-1.0579 0.0871,-0.29954 0.1816,-0.59766 0.31484,-0.88048 0.13401,-0.27547 0.29631,-0.53562 0.489097,-0.77421 0.18857,-0.23106 0.39446,-0.44738 0.61902,-0.644 0.41401,-0.3575 0.83028,-0.66931 1.34004,-0.89998 0.24413,-0.12662 0.49402,-0.24255 0.75113,-0.34052 0.20966,-0.0782 0.42284,-0.14493 0.63821,-0.2056 0.1188,-0.0365 0.23836,-0.0684 0.36019,-0.093 0,0 -0.59766,0.45798 -0.59766,0.45798 z"
       inkscape:connector-curvature="0" />
    <path
       style="opacity:1;fill:#000000;fill-opacity:1;stroke:#000000;stroke-width:1;stroke-miterlimit:4;stroke-dasharray:none;stroke-dashoffset:0.57106102;stroke-opacity:1"
       id="path913"
       d="m 95.719273,136.45638 c -0.0777,0.066 -0.14896,0.13878 -0.22319,0.20855 -0.1725,0.16212 -0.3567,0.31156 -0.54114,0.45981 -0.272357,0.22014 -0.547557,0.43596 -0.804957,0.67363 -0.30685,0.29464 -0.58485,0.61662 -0.84316,0.95408 -0.27838,0.3677 -0.50771,0.76832 -0.74836,1.16075 -0.2554,0.4242 -0.55975,0.81497 -0.88098,1.19065 -0.34178,0.40066 -0.73211,0.75478 -1.10663,1.1237 -0.36941,0.37086 -0.71637,0.76308 -1.04732,1.16839 -0.323877,0.36818 -0.560227,0.78182 -0.730337,1.23897 -0.12711,0.37655 -0.19004,0.76969 -0.2122,1.16539 -0.0165,0.33819 0.0677,0.66309 0.18582,0.97648 0.15074,0.34329 0.39756,0.63231 0.666137,0.88934 0.22385,0.21547 0.4916,0.34526 0.79696,0.38908 0.23871,0.0222 0.46296,-0.0391 0.67924,-0.13357 0.36104,-0.19958 -0.29036,0.17112 -0.43826,0.25182 -0.0344,0.0188 0.0653,-0.0435 0.0975,-0.0659 0.10342,-0.0722 0.20567,-0.14611 0.30897,-0.21849 0.2358,-0.15597 0.459,-0.32942 0.67868,-0.50707 0.24827,-0.20407 0.47279,-0.43401 0.69291,-0.66754 0.25411,-0.26873 0.46149,-0.57548 0.68415,-0.86948 0.25003,-0.31394 0.48041,-0.64099 0.69216,-0.98173 0.22805,-0.37517 0.4187,-0.77106 0.60936,-1.16602 0.20329,-0.42613 0.39478,-0.85741 0.573337,-1.29443 0.18453,-0.46024 0.34118,-0.93086 0.50521,-1.39861 0.16828,-0.45392 0.28961,-0.92153 0.36798,-1.39873 0.0693,-0.41922 0.088,-0.84317 0.0882,-1.26724 0,0 0.6572,-0.33494 0.6572,-0.33494 v 0 c 0.001,0.42775 -0.015,0.85549 -0.0843,1.27852 -0.0765,0.48144 -0.19538,0.95362 -0.3645,1.41147 -0.1639,0.46844 -0.32043,0.93968 -0.5027,1.40143 -0.17735,0.43829 -0.36772,0.87077 -0.57026,1.29805 -0.19002,0.39661 -0.379937,0.79413 -0.604977,1.17245 -0.2095,0.34304 -0.43555,0.67398 -0.68739,0.98767 -0.22525,0.29317 -0.4293,0.60316 -0.68035,0.8758 -0.2179,0.23618 -0.4414,0.4677 -0.68674,0.67572 -0.21721,0.18058 -0.43987,0.35554 -0.67551,0.51166 -0.39839,0.28222 -0.79366,0.57352 -1.24679,0.76706 -0.22628,0.0858 -0.45989,0.13522 -0.70292,0.0995 -0.312977,-0.0622 -0.587837,-0.20361 -0.817147,-0.429 -0.27335,-0.26734 -0.52743,-0.56423 -0.68356,-0.9168 -0.12291,-0.32174 -0.21377,-0.65574 -0.20017,-1.00373 0.0203,-0.40253 0.0826,-0.80241 0.20644,-1.18699 0.16686,-0.465 0.39455,-0.8893 0.7236,-1.26263 0.32929,-0.40811 0.675907,-0.80203 1.044067,-1.17569 0.37241,-0.36981 0.76516,-0.72006 1.10848,-1.11819 0.32289,-0.37084 0.62752,-0.75862 0.88392,-1.1791 0.24234,-0.39261 0.46873,-0.79609 0.74461,-1.16691 0.25582,-0.34087 0.53158,-0.66571 0.83603,-0.96458 0.25337,-0.24143 0.52688,-0.45762 0.79894,-0.67743 0.18269,-0.14579 0.36414,-0.29368 0.537247,-0.45073 0.072,-0.0715 0.14546,-0.14122 0.21879,-0.21078 0,0 0.69784,-0.28362 0.69784,-0.28362 z"
       inkscape:connector-curvature="0" />
    <path
       style="opacity:1;fill:#000000;fill-opacity:1;stroke:#000000;stroke-width:1;stroke-miterlimit:4;stroke-dasharray:none;stroke-dashoffset:0.57106102;stroke-opacity:1"
       id="path917"
       d="m 87.038729,150.35978 c 0.10052,0.0129 0.19173,0.0571 0.28388,0.0967 0.14628,0.0614 0.29826,0.10761 0.45015,0.15273 0.25,0.0724 0.50633,0.11844 0.7627,0.16131 0.33529,0.0628 0.67444,0.0868 1.014917,0.094 0.43432,0.008 0.86873,-0.007 1.30215,-0.0342 0.41092,-0.0473 0.8178,-0.10236 1.23212,-0.0914 0.3431,0.014 0.67597,0.0973 1.00158,0.2007 0.29645,0.0983 0.56997,0.24742 0.82653,0.42348 0.26094,0.18375 0.47815,0.41707 0.68192,0.66047 0.217697,0.26757 0.394457,0.56385 0.558997,0.866 0.17806,0.30108 0.2429,0.63858 0.27882,0.98126 0.0269,0.38618 0.029,0.77136 0.0992,1.15285 0.10624,0.42013 0.28034,0.81941 0.46128,1.21189 0.17977,0.38324 0.39941,0.74153 0.68722,1.05228 0.19652,0.19171 0.43836,0.30993 0.70239,0.37445 0.22885,0.063 0.43425,0.0252 0.63661,-0.0907 -1.12823,0.71973 -0.17522,0.0255 0.0716,-0.16194 0.46875,-0.3418 0.97089,-0.64094 1.49151,-0.89639 0.32631,-0.15408 0.666567,-0.27566 1.004937,-0.40002 0.3662,-0.13732 0.74088,-0.24745 1.12887,-0.29881 0.41757,-0.025 0.78248,0.19578 1.13227,0.39581 0.46079,0.27226 0.91947,0.54811 1.37261,0.83296 0.37524,0.24092 0.74255,0.49444 1.06651,0.80184 0.22795,0.22874 0.38442,0.50907 0.51462,0.80135 0.10125,0.25986 0.10063,0.53232 0.0499,0.80228 -0.0634,0.27148 -0.2049,0.50747 -0.37681,0.72296 -0.25159,0.28454 -0.54635,0.52609 -0.83475,0.77167 -0.32549,0.27873 -0.67124,0.53235 -1.01316,0.79025 -0.36256,0.26622 -0.72291,0.53527 -1.08049,0.80812 -0.6015,0.47159 -1.2785,0.82983 -1.93938,1.20845 0.12385,-0.15398 -0.729057,0.49739 -0.5849,0.32681 0.0763,-0.0904 0.39389,-0.25759 0.30801,-0.17625 -0.0904,0.0856 -0.21498,0.12566 -0.32192,0.18942 -0.283147,0.16885 -0.385807,0.23374 -0.667337,0.40755 -0.66833,0.40782 -1.33011,0.82652 -1.97911,1.26448 -0.57823,0.40026 -1.16868,0.78238 -1.74191,1.18981 -0.47433,0.33771 -0.90236,0.73196 -1.295937,1.15969 -0.28616,0.3203 -0.4984,0.69934 -0.82764,0.97909 -0.36969,0.23663 -0.0749,0.0511 -0.88364,0.50939 -0.0372,0.0211 -0.14848,0.0845 -0.1113,0.0635 0.17919,-0.10139 0.35533,-0.20835 0.53735,-0.30457 0.0626,-0.0331 -0.11083,0.0883 -0.16279,0.13636 -0.097,0.10486 -0.20567,0.2281 -0.19849,0.37921 0.0771,0.13644 0.21768,0.21876 0.31652,0.33945 0.148,0.3186 0.34502,0.60402 0.55667,0.88344 0.29924,0.36106 0.5842,0.7319 0.80293,1.14766 0.1428,0.29349 0.20617,0.60947 0.21211,0.93371 1.5e-4,0.23306 -0.0841,0.42355 -0.25264,0.58021 -0.37097,0.26822 -0.73809,0.55757 -1.19503,0.48192 -0.23453,-0.0481 -0.44348,-0.16448 -0.64599,-0.28708 -0.24216,-0.15635 -0.45779,-0.35012 -0.66905,-0.54521 -0.24108,-0.22135 -0.44137,-0.47988 -0.63129,-0.74498 -0.21154,-0.30878 -0.40115,-0.63167 -0.60256,-0.94702 -0.2422,-0.36344 -0.50489,-0.7125 -0.75509,-1.0704 -0.26698,-0.36847 -0.527537,-0.74153 -0.788627,-1.11418 -0.29439,-0.42145 -0.55478,-0.86538 -0.825,-1.30243 -0.32487,-0.5141 -0.68022,-1.00743 -1.05245,-1.48801 -0.42985,-0.53805 -0.90117,-1.04067 -1.36535,-1.54873 -0.45866,-0.50888 -0.89878,-1.03411 -1.33897,-1.55894 -0.431467,-0.49074 -0.831347,-1.00707 -1.225137,-1.52806 -0.38606,-0.53944 -0.82344,-1.03626 -1.27743,-1.51859 -0.47749,-0.50235 -0.9718,-0.98808 -1.448,-1.49169 -0.44534,-0.469 -0.85712,-0.96711 -1.22864,-1.49624 -0.31442,-0.4726 -0.567587,-0.98149 -0.809317,-1.49391 -0.23661,-0.49938 -0.43714,-1.01391 -0.60893,-1.5388 -0.16037,-0.47436 -0.18944,-0.96006 -0.0941,-1.44885 0.14844,-0.50966 0.50378,-0.91326 0.8465,-1.30451 0.361957,-0.39935 0.798637,-0.71456 1.253417,-0.99848 0.67006,-0.43345 1.38772,-0.76795 2.12551,-1.06363 0.50843,-0.21642 1.03359,-0.35633 1.58269,-0.40918 0.53705,-0.0192 1.064127,0.097 1.580277,0.23186 0.49276,0.12601 0.95425,0.33799 1.41316,0.55204 0.32418,0.15931 0.66557,0.27228 1.01561,0.35754 0,0 -0.60754,0.41895 -0.60754,0.41895 v 0 c -0.35179,-0.0911 -0.69479,-0.20878 -1.02098,-0.37089 -0.45495,-0.21306 -0.91459,-0.41903 -1.40383,-0.54198 -0.511367,-0.13018 -1.033767,-0.24249 -1.564977,-0.21067 -0.54417,0.0615 -1.06446,0.20962 -1.56883,0.42431 -0.34639,0.14071 -0.69006,0.28597 -1.02393,0.4548 -0.0798,0.0403 -0.31106,0.17546 -0.23744,0.12473 0.12552,-0.0865 0.26252,-0.15496 0.39377,-0.23245 -0.45679,0.27708 -0.89523,0.58684 -1.26225,0.97868 -0.33989,0.38174 -0.695217,0.77446 -0.858747,1.26836 -0.1062,0.47596 -0.0802,0.95146 0.0734,1.41654 0.16908,0.52264 0.368927,1.03422 0.603947,1.53102 0.23968,0.50876 0.49034,1.0143 0.80109,1.48426 0.36858,0.52676 0.77736,1.02255 1.22037,1.48881 0.47599,0.50384 0.97002,0.98987 1.44783,1.49194 0.45609,0.48406 0.89535,0.9828 1.28303,1.52439 0.393217,0.51983 0.792187,1.03525 1.222247,1.52554 0.43913,0.5243 0.87851,1.04874 1.3364,1.55687 0.46551,0.50963 0.9381,1.01385 1.37042,1.55251 0.37457,0.48212 0.73202,0.97716 1.05952,1.49272 0.27054,0.4353 0.53216,0.87693 0.826857,1.29656 0.26115,0.37263 0.52161,0.74578 0.7887,1.11419 0.25115,0.35851 0.51519,0.70788 0.75826,1.072 0.20178,0.31364 0.39177,0.63483 0.60344,0.94201 0.18747,0.26081 0.38574,0.51463 0.62453,0.73123 0.20905,0.19069 0.42144,0.38138 0.66239,0.53136 0.19747,0.11578 0.40192,0.22549 0.63148,0.25983 0.0942,0.008 0.17562,0.009 0.26751,-0.0184 0.0305,-0.009 0.11632,-0.0497 0.0895,-0.0327 -0.36173,0.22882 -0.77224,0.43895 -0.46574,0.28058 0.17786,-0.12956 0.27635,-0.29675 0.28288,-0.52155 0.004,-0.31366 -0.0559,-0.62026 -0.1899,-0.90552 -0.21369,-0.41371 -0.49599,-0.78165 -0.79389,-1.13837 -0.21235,-0.2769 -0.4142,-0.55872 -0.56622,-0.87374 -0.1105,-0.12854 -0.26553,-0.21862 -0.33935,-0.37587 -0.031,-0.17238 0.062,-0.31598 0.17245,-0.44302 0.26819,-0.278 0.48347,-0.34449 0.89521,-0.58478 0.0367,-0.0214 0.14838,-0.083 0.11193,-0.0611 -0.17025,0.1022 -0.34338,0.19955 -0.5134,0.30215 -0.0418,0.0252 0.0857,-0.0466 0.12853,-0.0699 0.34919,-0.26086 0.55788,-0.64629 0.84054,-0.97174 0.39177,-0.43398 0.81983,-0.8334 1.294837,-1.17596 0.57333,-0.41032 1.16614,-0.79188 1.74573,-1.19322 0.64817,-0.44021 1.31044,-0.85933 1.97912,-1.26766 0.82265,-0.51014 1.658517,-0.99848 2.505967,-1.4664 -0.11897,0.0697 -0.23894,0.13777 -0.35693,0.20914 -0.0804,0.0486 0.16356,-0.0927 0.24418,-0.14093 0.27756,-0.16624 0.54318,-0.35131 0.80146,-0.54593 0.35774,-0.27218 0.71563,-0.54406 1.07952,-0.80805 0.34095,-0.25809 0.68754,-0.50943 1.01404,-0.7859 0.28559,-0.24412 0.5788,-0.48161 0.83466,-0.75785 0.17504,-0.20278 0.31895,-0.42827 0.39037,-0.68934 0.0585,-0.25394 0.0643,-0.51395 -0.0275,-0.76183 -0.12456,-0.28411 -0.27507,-0.55659 -0.49664,-0.77796 -0.31954,-0.30416 -0.68265,-0.55468 -1.05296,-0.79315 -0.4521,-0.28501 -0.90994,-0.56084 -1.37231,-0.82888 -0.34419,-0.19098 -0.70038,-0.39741 -1.1085,-0.35339 -0.38402,0.06 -0.75539,0.17289 -1.11863,0.3106 -0.337937,0.12563 -0.677887,0.24851 -1.001787,0.40795 -0.30261,0.15479 -0.24563,0.12922 0.33822,-0.20919 0.0494,-0.0286 -0.0984,0.0581 -0.14696,0.0882 -0.14195,0.0877 -0.28037,0.18114 -0.41481,0.27998 -0.43473,0.32674 -0.83511,0.67848 -1.34303,0.90257 -0.21886,0.0977 -0.43673,0.11581 -0.66908,0.0469 -0.27192,-0.0791 -0.52029,-0.20856 -0.72047,-0.41314 -0.28765,-0.32014 -0.51184,-0.68462 -0.69597,-1.07348 -0.18332,-0.39793 -0.35946,-0.80248 -0.47052,-1.2274 -0.0745,-0.3825 -0.0804,-0.76848 -0.10597,-1.15652 -0.0324,-0.33378 -0.0886,-0.663 -0.263747,-0.95594 -0.16171,-0.29809 -0.3369,-0.5896 -0.55235,-0.85263 -0.20049,-0.23767 -0.4144,-0.46512 -0.67183,-0.64261 -0.25317,-0.16957 -0.52246,-0.31304 -0.81398,-0.4057 -0.32138,-0.0987 -0.64974,-0.17653 -0.98765,-0.18477 -0.41183,-0.004 -0.81692,0.0545 -1.22612,0.0942 -0.43532,0.025 -0.871397,0.0397 -1.307487,0.0303 -0.34387,-0.01 -0.68638,-0.036 -1.02499,-0.0998 -0.25919,-0.0444 -0.51826,-0.0926 -0.7709,-0.16672 -0.15459,-0.0464 -0.30939,-0.0932 -0.45765,-0.15762 -0.0918,-0.0382 -0.18486,-0.069 -0.28232,-0.0892 0,0 0.62281,-0.42402 0.62281,-0.42402 z"
       inkscape:connector-curvature="0" />
    <path
       style="opacity:1;fill:#000000;fill-opacity:1;stroke:#000000;stroke-width:1;stroke-miterlimit:4;stroke-dasharray:none;stroke-dashoffset:0.57106102;stroke-opacity:1"
       id="path923"
       d="m 96.667123,174.07077 c 0.16302,0.0229 0.32767,0.0298 0.49126,0.0475 0.28181,0.0241 0.56069,0.0676 0.83978,0.11217 0.33512,0.0596 0.66462,0.14632 0.99067,0.24315 0.36699,0.10807 0.72014,0.25037 1.064897,0.41505 0.38087,0.19826 0.73029,0.4495 1.09118,0.6808 0.41194,0.26662 0.84433,0.49537 1.29331,0.69224 0.51488,0.20561 1.05023,0.34806 1.51922,0.65094 0.2836,0.20061 0.47032,0.47234 0.61499,0.78178 0.13482,0.30485 0.19952,0.63404 0.26618,0.95889 0.0779,0.39075 0.13521,0.78519 0.1903,1.17967 0.0622,0.4036 0.0691,0.81101 0.0224,1.21604 -0.058,0.41048 -0.20097,0.7984 -0.36564,1.1763 -0.18827,0.42102 -0.44431,0.80552 -0.70026,1.18738 -0.28835,0.42943 -0.57047,0.86296 -0.85166,1.29708 -0.31056,0.49541 -0.65415,0.96804 -1.00641,1.43423 -0.37497,0.50011 -0.74964,1.00051 -1.11035,1.51103 -0.36286,0.52511 -0.6914,1.07293 -0.98568,1.63909 -0.287087,0.60006 -0.507517,1.229 -0.721117,1.85807 -0.22012,0.66498 -0.40269,1.34153 -0.57957,2.01903 -0.17592,0.66786 -0.3147,1.34464 -0.49865,2.01034 -0.18673,0.62763 -0.4169,1.24127 -0.65352,1.85149 -0.21827,0.57344 -0.48877,1.12425 -0.76966,1.669 -0.19695,0.39121 -0.4248,0.76389 -0.69272,1.11014 -0.35974,0.46189 -0.60496,0.52571 -1.17712,0.83158 -0.17738,0.007 -0.278427,-0.13863 -0.354527,-0.27912 -0.11147,-0.24653 -0.16062,-0.51532 -0.20081,-0.78113 -0.0553,-0.44649 -0.0849,-0.8957 -0.11452,-1.34447 -0.037,-0.58167 -0.0635,-1.16392 -0.09,-1.74613 -0.0272,-0.63218 -0.017,-1.26509 0.004,-1.89726 0.0261,-0.6419 0.0561,-1.28364 0.0836,-1.92548 0.0288,-0.675 0.0526,-1.3502 0.0752,-2.02544 0.0269,-0.75824 0.0465,-1.51658 0.0526,-2.27527 0.0131,-0.74868 0.0108,-1.49543 -0.0604,-2.24113 -0.0839,-0.6604 -0.17502,-1.32036 -0.30271,-1.97384 -0.14064,-0.64801 -0.31607,-1.28764 -0.49101,-1.927 -0.16902,-0.63124 -0.39463,-1.24363 -0.66347,-1.83859 -0.28478,-0.57321 -0.57844,-1.14171 -0.84276,-1.72479 -0.1483,-0.36646 -0.32416,-0.72779 -0.41244,-1.11545 -0.053,-0.23254 -0.0464,-0.28616 -0.0592,-0.51928 -0.008,-0.48038 0.17386,-0.90832 0.40922,-1.31554 0.22572,-0.38031 0.52105,-0.70839 0.83398,-1.01782 0.45832,-0.4131 0.97778,-0.80411 1.57242,-0.99215 0.0818,-0.0259 0.16621,-0.0425 0.24932,-0.0637 0.634367,-0.1144 1.282347,-0.0821 1.923417,-0.0697 0,0 -0.58597,0.42415 -0.58597,0.42415 v 0 c -0.63997,-0.0102 -1.288577,-0.039 -1.919187,0.0924 -0.0816,0.0238 -0.16486,0.0428 -0.24494,0.0714 -0.0436,0.0156 -0.9708,0.43549 0.20722,-0.15638 0.0668,-0.0335 -0.1239,0.0836 -0.18352,0.12859 -0.11654,0.088 -0.22759,0.18824 -0.33749,0.28411 -0.31433,0.30394 -0.61297,0.62543 -0.84235,1.00025 -0.23699,0.3943 -0.42823,0.8075 -0.42954,1.27816 0.008,0.22632 2.1e-4,0.27958 0.049,0.50585 0.0832,0.38539 0.25912,0.74334 0.40445,1.10715 0.26349,0.5835 0.55741,1.15191 0.84178,1.72536 0.27093,0.59822 0.49895,1.21375 0.66861,1.84884 0.17553,0.64096 0.35153,1.28214 0.4938,1.93152 0.129737,0.65566 0.220067,1.31826 0.304227,1.98116 0.0717,0.74847 0.0747,1.4978 0.0607,2.24931 -0.005,0.75862 -0.0233,1.51695 -0.0484,2.27518 -0.0216,0.67513 -0.0449,1.35021 -0.073,2.0251 -0.0267,0.64164 -0.0571,1.28311 -0.0836,1.92475 -0.0215,0.63026 -0.0316,1.26129 -0.005,1.89161 0.0267,0.58109 0.0546,1.16217 0.0934,1.7426 0.0308,0.44587 0.0614,0.89218 0.11813,1.33566 0.0391,0.25689 0.0877,0.51644 0.19453,0.75503 0.0654,0.11958 0.14731,0.2347 0.29896,0.19393 -1.362967,0.81344 -0.53375,0.3469 -0.39833,0.2321 0.11079,-0.0939 0.20625,-0.20546 0.30127,-0.3146 0.27438,-0.34145 0.50865,-0.71006 0.7068,-1.10112 0.28335,-0.54258 0.55738,-1.09092 0.77623,-1.66335 0.23727,-0.60846 0.46805,-1.22032 0.65772,-1.84556 0.18767,-0.66471 0.32511,-1.34177 0.50043,-2.00979 0.17658,-0.67861 0.35878,-1.35624 0.57619,-2.02312 0.2126,-0.63178 0.43378,-1.26254 0.71547,-1.86746 0.29102,-0.56987 0.62005,-1.11939 0.980937,-1.64796 0.35932,-0.51198 0.73453,-1.0124 1.10915,-1.51324 0.35162,-0.46409 0.69591,-0.93371 1.00489,-1.42774 0.2809,-0.43399 0.56188,-0.86792 0.84951,-1.2975 0.25505,-0.37852 0.51122,-0.75902 0.70321,-1.17455 0.16622,-0.37101 0.30993,-0.75214 0.37325,-1.1559 0.052,-0.39898 0.0482,-0.80105 -0.0124,-1.19949 -0.055,-0.39269 -0.11258,-0.78529 -0.19056,-1.1742 -0.0657,-0.31905 -0.1288,-0.64262 -0.26009,-0.94248 -0.13792,-0.29695 -0.31516,-0.55811 -0.58823,-0.74931 -0.46603,-0.299 -0.99943,-0.43688 -1.50892,-0.64382 -0.45231,-0.19925 -0.88804,-0.43051 -1.30323,-0.69947 -0.35854,-0.23023 -0.706917,-0.47909 -1.088067,-0.67153 -0.34317,-0.16101 -0.69494,-0.29926 -1.05953,-0.40466 -0.32503,-0.0939 -0.65322,-0.17881 -0.98735,-0.23392 -0.27885,-0.0439 -0.55802,-0.0835 -0.83947,-0.10706 -0.16805,-0.0151 -0.3378,-0.0199 -0.50401,-0.0503 0,0 0.62012,-0.4294 0.62012,-0.4294 z"
       inkscape:connector-curvature="0" />
    <path
       style="opacity:1;fill:#000000;fill-opacity:1;stroke:#000000;stroke-width:1;stroke-miterlimit:4;stroke-dasharray:none;stroke-dashoffset:0.57106102;stroke-opacity:1"
       id="path925"
       d="m 127.2684,170.92088 c -0.19965,0.0243 -0.40021,0.0404 -0.60068,0.0561 -0.28877,0.0336 -0.57804,0.0608 -0.86394,0.11431 -0.39439,0.0786 -0.78584,0.16957 -1.17269,0.27925 -0.43064,0.11994 -0.85392,0.2642 -1.27169,0.42279 -0.27456,0.1093 -0.54224,0.23608 -0.8019,0.37714 -0.0661,0.0359 -0.26173,0.1482 -0.19627,0.11117 0.14568,-0.0824 0.29133,-0.16492 0.43701,-0.24738 -0.38084,0.22955 -0.723,0.51328 -1.0477,0.81528 -0.3057,0.29028 -0.5507,0.63287 -0.77554,0.98721 -0.19344,0.30393 -0.32544,0.63613 -0.41643,0.98315 -0.0746,0.30044 -0.0674,0.60362 -0.0116,0.90552 0.0614,0.31472 0.17444,0.61567 0.28977,0.91377 0.10885,0.30042 0.23508,0.59351 0.36555,0.88499 0.14912,0.31783 0.31832,0.62566 0.50265,0.92429 0.21281,0.34447 0.45014,0.66718 0.73364,0.95628 0.38113,0.35579 0.86852,0.55167 1.34345,0.74734 0.51162,0.216 1.05121,0.34199 1.5947,0.44563 0.55869,0.10987 1.12588,0.16184 1.69052,0.22978 0.53941,0.0616 1.06643,0.19059 1.58353,0.35248 0.48009,0.14662 0.90853,0.4026 1.31559,0.68991 0.39622,0.2879 0.74832,0.6282 1.08434,0.98286 0.33401,0.3389 0.59672,0.72495 0.80815,1.14892 0.18574,0.40627 0.31488,0.83332 0.41098,1.26857 0.0811,0.4256 0.0707,0.85502 0.004,1.2808 -0.0979,0.46622 -0.2408,0.9215 -0.36243,1.3819 -0.13425,0.50858 -0.24336,1.02318 -0.34695,1.53871 -0.11154,0.52135 -0.1851,1.04893 -0.24148,1.5787 -0.0494,0.4927 -0.0905,0.98618 -0.13073,1.47969 -0.0558,0.46872 -0.056,0.93228 0.0365,1.39504 0.10533,0.48461 0.34504,0.86303 0.6559,1.23918 0.32962,0.38239 0.70136,0.72328 1.09826,1.03398 0.46426,0.3518 0.97695,0.63036 1.49397,0.89531 0.56015,0.2978 1.08696,0.51607 1.70744,0.65136 0.61251,0.10945 1.22869,0.0391 1.83586,-0.0642 0.37841,-0.0764 0.76023,-0.15828 1.11728,-0.30957 0.0876,-0.0371 0.33362,-0.18034 0.25715,-0.12377 -0.11403,0.0843 -0.24744,0.13873 -0.37113,0.20809 0.6291,-0.40823 1.06373,-1.02444 1.47844,-1.63478 0.47694,-0.74469 0.88537,-1.53049 1.2778,-2.32211 0.39608,-0.81867 0.74671,-1.65837 1.07987,-2.50428 0.30263,-0.77183 0.56359,-1.55895 0.81627,-2.34824 0.23662,-0.74364 0.44963,-1.49439 0.65434,-2.24734 0.19513,-0.71885 0.36976,-1.44297 0.53941,-2.16817 0.14398,-0.69309 0.32176,-1.37651 0.53774,-2.05045 0.22836,-0.65363 0.45947,-1.30618 0.67677,-1.9636 0.2041,-0.61115 0.31769,-1.24618 0.3429,-1.88901 0.0132,-0.61501 -0.23389,-1.16702 -0.50297,-1.70448 -0.26572,-0.51557 -0.59047,-0.99588 -0.95819,-1.44335 -0.3978,-0.45392 -0.86143,-0.84484 -1.33448,-1.21742 -0.5257,-0.40574 -1.11109,-0.72199 -1.69815,-1.02798 -0.61801,-0.31784 -1.25931,-0.58579 -1.89878,-0.85644 -0.64394,-0.26861 -1.28841,-0.53577 -1.93894,-0.78811 -0.64919,-0.252 -1.31112,-0.46875 -1.97509,-0.67789 -0.68242,-0.22274 -1.39552,-0.31013 -2.10751,-0.3709 -0.74224,-0.0504 -1.4859,-0.0511 -2.22928,-0.039 -0.83632,0.0204 -1.67071,0.0818 -2.50348,0.15858 -0.92232,0.096 -1.83547,0.25867 -2.73977,0.46141 -0.66249,0.15526 -1.31307,0.35518 -1.96188,0.55885 0,0 0.562,-0.43495 0.562,-0.43495 v 0 c 0.65074,-0.20278 1.30315,-0.40216 1.96765,-0.55575 0.90742,-0.20104 1.82354,-0.36283 2.74879,-0.45672 0.83494,-0.0759 1.67137,-0.1376 2.50983,-0.15654 0.74547,-0.012 1.49135,-0.0108 2.23542,0.0438 0.71593,0.0645 1.43248,0.15592 2.11804,0.38286 0.66484,0.21049 1.32768,0.4285 1.97768,0.68181 0.65066,0.25339 1.29561,0.52085 1.93987,0.79006 0.64133,0.2709 1.28339,0.54158 1.90262,0.86096 0.59052,0.30906 1.17935,0.62845 1.70794,1.03783 0.47649,0.37659 0.94377,0.77141 1.34429,1.22986 0.37058,0.45214 0.69771,0.93734 0.96544,1.45798 0.27403,0.54764 0.52785,1.11062 0.51964,1.73687 -0.0206,0.64922 -0.13311,1.29101 -0.33655,1.90886 -0.2168,0.65757 -0.44667,1.31053 -0.67738,1.96332 -0.21794,0.67209 -0.39894,1.35339 -0.54155,2.04569 -0.17016,0.72613 -0.34462,1.45134 -0.53983,2.17122 -0.20482,0.7541 -0.41778,1.50605 -0.6544,2.25089 -0.25304,0.79125 -0.51427,1.58038 -0.81761,2.35406 -0.33348,0.84744 -0.68419,1.68873 -1.07815,2.51011 -0.39095,0.79358 -0.79915,1.58045 -1.27095,2.32959 -0.41043,0.61407 -0.83905,1.2358 -1.45651,1.66067 -0.29406,0.16973 -0.58454,0.34581 -0.88217,0.50919 -0.42527,0.23345 -0.91718,0.31769 -1.38541,0.41659 -0.61344,0.0983 -1.23553,0.16113 -1.85177,0.0411 -0.61764,-0.14183 -1.1594,-0.36869 -1.71818,-0.66648 -0.5208,-0.26805 -1.03693,-0.55009 -1.50495,-0.90485 -0.40018,-0.31486 -0.77491,-0.6601 -1.10712,-1.04707 -0.31784,-0.38563 -0.56449,-0.77417 -0.67498,-1.26965 -0.0984,-0.47329 -0.10316,-0.93362 -0.0454,-1.41383 0.0404,-0.49425 0.082,-0.98845 0.13128,-1.48192 0.0558,-0.53189 0.12814,-1.06175 0.23953,-1.58525 0.10268,-0.51646 0.21048,-1.03212 0.34335,-1.54182 0.11975,-0.45854 0.25953,-0.91197 0.36311,-1.37448 0.0708,-0.41675 0.0842,-0.83794 0.009,-1.25604 -0.0924,-0.43008 -0.21955,-0.85143 -0.40177,-1.25284 -0.20743,-0.41797 -0.46556,-0.79802 -0.79565,-1.13089 -0.3333,-0.35073 -0.68263,-0.68716 -1.07625,-0.97063 -0.40304,-0.28152 -0.8279,-0.52946 -1.30233,-0.6713 -0.51408,-0.1584 -1.0378,-0.28372 -1.57345,-0.34326 -0.56615,-0.0673 -1.13456,-0.12148 -1.69431,-0.23359 -0.54655,-0.10758 -1.08887,-0.23728 -1.60266,-0.45797 -0.48366,-0.20078 -0.97809,-0.4041 -1.36462,-0.76902 -0.28654,-0.29365 -0.52758,-0.62047 -0.7434,-0.96943 -0.18653,-0.30108 -0.3598,-0.61039 -0.51014,-0.93129 -0.13134,-0.2925 -0.25802,-0.58679 -0.36732,-0.88843 -0.117,-0.30214 -0.2323,-0.60682 -0.29649,-0.92541 -0.061,-0.31088 -0.0752,-0.62336 -0.003,-0.93472 0.0879,-0.35414 0.21622,-0.69439 0.41008,-1.00552 0.22299,-0.35949 0.46617,-0.70772 0.76949,-1.00516 0.32271,-0.30642 0.6627,-0.59527 1.04232,-0.82986 0.59434,-0.34707 1.18052,-0.71714 1.82788,-0.96016 0.41963,-0.15591 0.84399,-0.29926 1.27582,-0.41793 0.38994,-0.1077 0.78401,-0.19907 1.18107,-0.27673 0.28856,-0.0493 0.57976,-0.0794 0.87075,-0.11049 0.20179,-0.0169 0.40364,-0.0346 0.60422,-0.0627 0,0 -0.60274,0.44948 -0.60274,0.44948 z"
       inkscape:connector-curvature="0" />
    <path
       style="opacity:1;fill:#000000;fill-opacity:1;stroke:#000000;stroke-width:1;stroke-miterlimit:4;stroke-dasharray:none;stroke-dashoffset:0.57106102;stroke-opacity:1"
       id="path927"
       d="m 125.78092,165.45461 c -0.2235,0.15353 0.0122,-0.009 0.58684,-0.3347 0.0542,-0.0307 -0.0302,0.0176 -0.0747,0.056 -0.0324,0.028 -0.0591,0.0584 -0.0884,0.0897 -0.11716,0.14213 -0.19013,0.31217 -0.25805,0.48155 -0.0624,0.19579 -0.0555,0.3876 0.0481,0.56508 0.14708,0.20592 0.35296,0.35303 0.5638,0.487 0.25784,0.14149 0.53264,0.24866 0.81516,0.32876 0.25339,0.0629 0.51276,0.094 0.77359,0.0871 0.24648,-0.006 0.47201,-0.095 0.69228,-0.19687 0.0389,-0.0206 0.0783,-0.0402 0.11676,-0.0617 0.51194,-0.28558 -0.78243,0.46313 -0.26675,0.14862 0.0429,-0.0262 0.086,-0.0521 0.12864,-0.0787 0.0432,-0.0268 0.0859,-0.0543 0.1289,-0.0814 0.28668,-0.17234 0.53031,-0.39713 0.76047,-0.6372 0.26265,-0.28372 0.47797,-0.60549 0.6808,-0.93332 0.21068,-0.36521 0.38629,-0.74859 0.59549,-1.11466 0.22286,-0.38202 0.55661,-0.67123 0.89922,-0.94203 0.5303,-0.38867 1.10387,-0.71681 1.72344,-0.93655 0.31851,-0.10246 0.64495,-0.19803 0.98174,-0.1642 0.29876,0.0423 0.50868,0.24496 0.70323,0.45842 0.23678,0.29125 0.40558,0.62651 0.5542,0.96886 0.15679,0.35659 0.3116,0.7141 0.44283,1.08099 0.13065,0.38049 0.21212,0.77397 0.27543,1.17041 0.053,0.33934 0.11023,0.68122 0.2531,0.99576 0.0536,0.0983 0.11928,0.19701 0.23069,0.12069 -1.17123,0.63613 -0.65185,0.45265 -0.50945,0.23774 0.0609,-0.0919 0.10118,-0.19545 0.14332,-0.29659 0.11401,-0.28478 0.18503,-0.5838 0.26424,-0.87941 0.10319,-0.37234 0.19108,-0.74853 0.27255,-1.12613 0.0729,-0.38487 0.17134,-0.76407 0.2775,-1.14091 0.0713,-0.22414 0.1266,-0.46999 0.28299,-0.65285 0.39725,-0.2641 0.62267,-0.57907 0.92747,-0.26211 0.10573,0.1278 0.1677,0.2823 0.22194,0.43711 0.0728,0.24579 0.13247,0.49547 0.1956,0.74396 0.0829,0.33175 0.1887,0.65668 0.29821,0.98037 0.12547,0.37435 0.2925,0.72949 0.50708,1.06039 0.33229,0.46361 0.81372,0.77342 1.29773,1.05766 0.54898,0.31949 1.13469,0.56465 1.73381,0.77169 0.49173,0.17242 0.97142,0.27402 1.49217,0.2297 0.44498,-0.0673 0.84315,-0.28429 1.27598,-0.39366 0.4231,-0.0691 0.73015,0.006 1.08191,0.24231 0.35015,0.30098 0.64669,0.66009 0.93998,1.01534 0.30787,0.3697 0.56973,0.77234 0.81706,1.18388 0.16704,0.29065 0.36084,0.56107 0.62217,0.77266 0.19103,0.12568 0.26937,0.3005 0.26929,0.52298 -0.0375,0.2857 -0.2055,0.52808 -0.34038,0.77582 -0.16574,0.31633 -0.15772,0.4506 0.0355,0.74305 0.22598,0.27923 0.47339,0.54013 0.707,0.81301 0.23484,0.30018 0.53059,0.53965 0.83028,0.77123 0.36436,0.26628 0.75973,0.48337 1.16475,0.68019 0.43056,0.19792 0.88564,0.32395 1.35038,0.40843 0.45903,0.0718 0.92282,0.0991 1.38626,0.12247 0.48506,0.0311 0.9711,0.0243 1.4568,0.021 0.53176,-0.01 1.06333,0.0151 1.59337,0.0558 0.52194,0.039 1.0292,0.16932 1.53395,0.30006 0.48577,0.13081 0.96496,0.28329 1.44513,0.43283 0.49625,0.15331 0.98766,0.31874 1.49791,0.41897 0.62883,0.069 1.2532,0.14168 1.87068,0.28299 0.69729,0.1833 1.37607,0.42874 2.05349,0.67373 0.65325,0.24969 1.34175,0.3446 2.03589,0.37575 0.75247,0.0302 1.49606,-0.0866 2.22599,-0.25737 0.84399,-0.21317 1.64404,-0.56112 2.41877,-0.95228 0.13361,-0.075 0.26757,-0.14936 0.40084,-0.225 0.0703,-0.0399 -0.27839,0.16386 -0.21198,0.1178 0.12832,-0.089 0.26664,-0.16265 0.39811,-0.24687 0.42294,-0.27091 0.83222,-0.56237 1.24331,-0.85068 0.86013,-0.60477 1.69828,-1.23948 2.53193,-1.87995 0.753,-0.57306 1.50497,-1.14753 2.25367,-1.72621 0.60142,-0.45908 1.17334,-0.95353 1.7322,-1.46298 0.52594,-0.47496 1.02251,-0.98022 1.50902,-1.49504 0.46726,-0.49121 0.89887,-1.01396 1.31244,-1.55064 0.43167,-0.54629 0.77417,-1.1519 1.09217,-1.76893 0.34658,-0.68103 0.64889,-1.38316 0.94118,-2.0888 0.32319,-0.7853 0.56777,-1.59912 0.81201,-2.41143 0.30178,-0.9857 0.61423,-1.9681 0.91768,-2.9533 0.26474,-0.81137 0.50284,-1.63633 0.85169,-2.41727 0.0692,-0.15481 0.14716,-0.30552 0.22074,-0.45828 0.52544,-0.99292 1.28918,-1.82006 2.06735,-2.61803 0.84288,-0.826 1.70508,-1.63139 2.53481,-2.47079 0.78407,-0.78789 1.51197,-1.62774 2.17239,-2.52138 0.54129,-0.77102 0.928,-1.63404 1.26749,-2.50877 0.15793,-0.47087 0.3049,-0.98713 0.14758,-1.47941 -0.0251,-0.0789 -0.0645,-0.15265 -0.0968,-0.22897 -0.32505,-0.57213 -0.81296,-0.79104 -1.40743,-1.00278 -0.94596,-0.27315 -1.9394,-0.24282 -2.91372,-0.22848 -1.19727,0.029 -2.39165,0.10963 -3.5814,0.24487 -1.32919,0.16072 -2.63658,0.45472 -3.94002,0.75355 -1.40928,0.32562 -2.81292,0.67411 -4.20933,1.05101 -1.34636,0.3661 -2.66732,0.81351 -3.97984,1.28469 -1.29649,0.48419 -2.57625,1.01162 -3.86472,1.51656 -1.09619,0.42412 -2.21178,0.7952 -3.34547,1.10495 -0.90635,0.24614 -1.8347,0.39261 -2.76656,0.49837 -0.52163,0.0487 -1.04706,0.0957 -1.57125,0.0591 -0.3301,-0.023 -0.39185,-0.0439 -0.71478,-0.10396 -0.66611,-0.16202 -1.26973,-0.48735 -1.85391,-0.83569 -0.52644,-0.35016 -1.10072,-0.60472 -1.69759,-0.80596 -0.59288,-0.1754 -1.20406,-0.26572 -1.81975,-0.30432 -0.69458,-0.0409 -1.38181,0.0491 -2.06153,0.18225 -0.77494,0.16623 -1.53056,0.40679 -2.26753,0.69628 -0.78748,0.32132 -1.55377,0.69127 -2.32862,1.04135 -0.77394,0.33074 -1.53692,0.68306 -2.27267,1.092 0.0828,-0.0443 0.31882,-0.19506 0.24837,-0.13297 -0.10698,0.0943 -0.24093,0.15262 -0.35989,0.23126 -0.11795,0.078 -0.23413,0.15861 -0.35076,0.23853 -0.34136,0.23392 -0.67942,0.46851 -1.02957,0.68921 -0.99288,0.64285 -1.63581,0.84142 -2.76696,0.94041 -0.761,0.0381 -1.52337,0.0136 -2.28497,0.0127 -0.80931,-0.0232 -1.5503,0.10203 -2.32354,0.32697 -0.72602,0.2378 -1.42322,0.55206 -2.09717,0.90991 0.10123,-0.056 0.31345,-0.28339 0.30364,-0.16812 -0.0106,0.12462 -0.20765,0.13965 -0.30761,0.21483 -0.42103,0.31669 -0.78142,0.69336 -1.13165,1.08441 -0.50067,0.56147 -0.90239,1.19784 -1.29659,1.83552 -0.19955,0.30548 -0.38722,0.63199 -0.66339,0.87719 -0.13459,0.11949 -0.20021,0.1503 -0.35187,0.24259 -0.57761,0.40014 -1.18599,0.61462 -1.85153,0.78557 -0.51472,0.1282 -1.03285,0.242 -1.56016,0.30201 -0.56084,0.0445 -1.1212,0.075 -1.66939,0.20743 -0.22101,0.0758 -0.28626,0.0904 -0.49589,0.19302 -0.0777,0.038 -0.30313,0.16651 -0.2278,0.12405 0.67871,-0.38261 0.44296,-0.26333 0.21627,-0.0855 -0.0645,0.0506 -0.12515,0.10598 -0.1877,0.15898 -0.3801,0.34319 -0.65809,0.77304 -0.91934,1.20855 -0.25451,0.43719 -0.46668,0.89662 -0.72547,1.33132 -0.35946,0.59251 -0.95617,0.90606 -1.58318,1.179 -0.0671,0.0292 -0.13417,0.0585 -0.20124,0.0877 0,0 0.57763,-0.45729 0.57763,-0.45729 v 0 c 0.0671,-0.0296 0.1342,-0.0592 0.2013,-0.0887 0.20267,-0.0944 0.61288,-0.29341 -0.25456,0.17817 -0.0602,0.0327 0.11581,-0.0738 0.1692,-0.11677 0.1074,-0.0864 0.20572,-0.19536 0.29004,-0.30366 0.0454,-0.0583 0.0857,-0.1205 0.12853,-0.18075 0.26483,-0.43188 0.47628,-0.89192 0.72742,-1.33163 0.25977,-0.44029 0.53467,-0.87615 0.90919,-1.22982 0.5647,-0.49903 1.23854,-0.88609 1.9581,-1.11046 0.55102,-0.12182 1.11234,-0.15062 1.67331,-0.20057 0.5258,-0.067 1.04341,-0.18121 1.55689,-0.31205 0.28717,-0.0767 0.57189,-0.15757 0.84777,-0.26946 0.0617,-0.025 0.23723,-0.11844 0.18341,-0.0792 -0.14226,0.1038 -0.30088,0.18311 -0.45132,0.27466 0.14824,-0.0827 0.22701,-0.11824 0.36017,-0.2267 0.28708,-0.23377 0.47893,-0.56008 0.67988,-0.86462 0.39677,-0.63999 0.79573,-1.28223 1.29582,-1.84874 0.70218,-0.79701 1.38822,-1.39192 2.36434,-1.86423 0.67697,-0.35301 1.3756,-0.66609 2.10455,-0.89675 0.77788,-0.21808 1.5248,-0.33492 2.33606,-0.31118 0.76044,7.9e-4 1.52191,0.0263 2.28148,-0.0185 0.494,-0.0484 0.98311,-0.11352 1.45269,-0.28399 0.11557,-0.0419 0.23278,-0.20243 0.34018,-0.14258 0.0961,0.0535 -0.18571,0.11794 -0.27856,0.17691 0.9161,-0.56701 1.75869,-1.248 2.72354,-1.73813 0.73809,-0.40513 1.50276,-0.75452 2.276,-1.08731 0.77531,-0.35111 1.54276,-0.72085 2.33236,-1.0394 0.7408,-0.2859 1.49947,-0.52468 2.27753,-0.68751 0.68511,-0.13015 1.37787,-0.21549 2.07693,-0.17041 0.61986,0.0439 1.23579,0.13703 1.83144,0.31946 0.59905,0.2069 1.17425,0.46852 1.70432,0.81966 0.5783,0.34314 1.17644,0.66354 1.83732,0.81555 0.32104,0.0564 0.37938,0.0759 0.70731,0.0961 0.52107,0.0322 1.04301,-0.0156 1.56128,-0.0647 0.92733,-0.107 1.85094,-0.25477 2.75259,-0.50153 1.12874,-0.31085 2.24017,-0.68042 3.3319,-1.10384 1.2877,-0.50435 2.56677,-1.03117 3.86326,-1.51284 1.31347,-0.47032 2.63578,-0.91588 3.98327,-1.28022 1.397,-0.37514 2.80128,-0.72149 4.21032,-1.04849 1.30696,-0.29995 2.61829,-0.59306 3.95136,-0.75223 1.19203,-0.13399 2.38872,-0.21283 3.58813,-0.24127 0.98477,-0.0147 1.98937,-0.0445 2.94391,0.23868 0.61468,0.22233 1.11209,0.45713 1.44703,1.04899 0.0342,0.0802 0.0755,0.15768 0.10245,0.24054 0.16504,0.50666 0.0257,1.03729 -0.1392,1.52365 -0.34242,0.88121 -0.73163,1.75107 -1.27167,2.53128 -0.65759,0.89849 -1.38522,1.74158 -2.17032,2.53163 -0.82915,0.84064 -1.69085,1.64708 -2.53635,2.47106 -0.77642,0.79131 -1.53858,1.61144 -2.0696,2.59411 -0.074,0.15141 -0.15245,0.3007 -0.22193,0.45423 -0.35229,0.77844 -0.59169,1.6022 -0.85704,2.41236 -0.3025,0.98398 -0.61373,1.96525 -0.9127,2.95032 -0.24189,0.81304 -0.48197,1.62833 -0.80222,2.4149 -0.2917,0.70691 -0.59378,1.41018 -0.9376,2.09362 -0.31539,0.62011 -0.65342,1.23058 -1.08411,1.77977 -0.41262,0.53932 -0.8436,1.06459 -1.3108,1.55795 -0.48641,0.51643 -0.98195,1.02423 -1.50823,1.50054 -0.55951,0.51189 -1.13104,1.01015 -1.73442,1.47031 -0.75126,0.57992 -1.50643,1.1548 -2.26161,1.72958 -0.83399,0.64048 -1.67116,1.27695 -2.53089,1.88279 -0.98283,0.69162 -1.97782,1.36455 -3.05084,1.91283 -0.77986,0.3878 -1.58408,0.73376 -2.43279,0.94152 -0.73591,0.16638 -1.48465,0.27965 -2.24184,0.24433 -0.69876,-0.0373 -1.39001,-0.14016 -2.04655,-0.39458 -0.67598,-0.24349 -1.35345,-0.48789 -2.05063,-0.66469 -0.61928,-0.13675 -1.24563,-0.20144 -1.87415,-0.27858 -0.51141,-0.1054 -1.00562,-0.26997 -1.50402,-0.42396 -0.47908,-0.14941 -0.95763,-0.30055 -1.44259,-0.43017 -0.50186,-0.12911 -1.00682,-0.25446 -1.5258,-0.28982 -0.52924,-0.0383 -1.05973,-0.0616 -1.59049,-0.0505 -0.48717,0.004 -0.97462,0.008 -1.46111,-0.0231 -0.4654,-0.0243 -0.93125,-0.054 -1.39154,-0.1308 -0.46882,-0.0906 -0.92827,-0.22132 -1.36205,-0.42444 -0.40839,-0.20069 -0.8069,-0.4221 -1.17452,-0.69179 -0.30337,-0.23515 -0.6028,-0.47828 -0.84068,-0.78259 -0.2354,-0.27533 -0.48411,-0.53914 -0.713,-0.81989 -0.20452,-0.30617 -0.24453,-0.47399 -0.0723,-0.81439 0.12902,-0.24068 0.29292,-0.47205 0.351,-0.74256 0.0135,-0.20495 -0.0615,-0.34869 -0.23434,-0.46493 -0.26157,-0.22277 -0.45778,-0.50096 -0.62704,-0.79894 -0.24421,-0.40914 -0.50495,-0.80806 -0.81081,-1.17464 -0.28922,-0.34933 -0.58074,-0.70474 -0.93152,-0.99435 -0.34436,-0.21684 -0.64307,-0.27362 -1.04566,-0.1922 -0.42982,0.12065 -0.83378,0.33086 -1.28265,0.38099 -0.51863,0.0272 -1.01719,-0.0808 -1.50479,-0.25714 -0.60071,-0.21294 -1.18782,-0.46313 -1.73913,-0.78529 -0.4934,-0.29158 -0.98383,-0.60854 -1.324,-1.08111 -0.21929,-0.33528 -0.38995,-0.69529 -0.51795,-1.07541 -0.11097,-0.32486 -0.21939,-0.6506 -0.30485,-0.98333 -0.0629,-0.24605 -0.12338,-0.49304 -0.19556,-0.73647 -0.0507,-0.14378 -0.10718,-0.28917 -0.2082,-0.40604 -0.0411,-0.0387 -0.0879,-0.0842 -0.15026,-0.0733 -0.0132,0.002 -0.0491,0.0204 -0.0377,0.0134 0.19688,-0.12067 0.39664,-0.23662 0.59497,-0.35492 -0.19219,0.13739 -0.23193,0.41147 -0.30821,0.61944 -0.10898,0.3752 -0.21043,0.75304 -0.28194,1.13744 -0.0801,0.37833 -0.16661,0.75531 -0.26866,1.1284 -0.079,0.29695 -0.14748,0.59774 -0.25636,0.88574 -0.2088,0.53621 -0.23166,0.47865 -0.90432,0.83226 -0.14538,0.0109 -0.2255,-0.0937 -0.28675,-0.21526 -0.14031,-0.32281 -0.2,-0.67096 -0.25456,-1.01695 -0.0622,-0.39207 -0.14314,-0.78077 -0.27043,-1.15761 -0.12985,-0.36564 -0.28432,-0.72158 -0.44024,-1.07675 -0.14531,-0.33481 -0.30985,-0.66329 -0.54477,-0.94566 -0.18712,-0.20099 -0.38701,-0.38511 -0.67392,-0.41045 -0.32991,-0.0129 -0.64826,0.0802 -0.9584,0.18548 -0.14505,0.0538 -0.23062,0.0823 -0.37119,0.14712 -0.0607,0.028 -0.23569,0.12582 -0.17941,0.0898 0.94194,-0.60364 0.29001,-0.15095 0.0929,-0.0283 -0.34258,0.2629 -0.67963,0.54314 -0.90874,0.91535 -0.21399,0.36391 -0.3897,0.74718 -0.59441,1.11614 -0.20103,0.33133 -0.41447,0.65649 -0.67286,0.94668 -0.22791,0.24377 -0.46503,0.47764 -0.75168,0.65319 -0.44797,0.28945 -0.90773,0.56348 -1.38319,0.805 -0.22699,0.098 -0.46043,0.17446 -0.71101,0.1726 -0.2652,-0.002 -0.52896,-0.0351 -0.7851,-0.1058 -0.28628,-0.0872 -0.56658,-0.19723 -0.82677,-0.34638 -0.21963,-0.14192 -0.43249,-0.29869 -0.58468,-0.51534 -0.11536,-0.19611 -0.13605,-0.40322 -0.079,-0.6247 0.0655,-0.17474 0.13655,-0.34918 0.24495,-0.50245 0.20759,-0.27767 0.54888,-0.43388 0.85794,-0.57093 0,0 -0.59134,0.46674 -0.59134,0.46674 z"
       inkscape:connector-curvature="0" />
    <path
       style="opacity:1;fill:#000000;fill-opacity:1;stroke:#000000;stroke-width:1;stroke-miterlimit:4;stroke-dasharray:none;stroke-dashoffset:0.57106102;stroke-opacity:1"
       id="path937"
       d="m 187.37218,187.58627 c -0.10493,-0.0727 -0.2314,-0.10728 -0.35221,-0.14393 -0.22659,-0.0668 -0.45945,-0.10752 -0.69212,-0.14621 -0.35624,-0.0634 -0.71713,-0.08 -1.07818,-0.0755 -0.45106,-0.002 -0.89606,0.0527 -1.32974,0.17491 -0.27546,0.09 -0.54317,0.2039 -0.80005,0.33801 -0.0639,0.0334 -0.25186,0.14036 -0.18971,0.1038 0.14751,-0.0868 0.29724,-0.16967 0.44588,-0.25451 -0.36206,0.21432 -0.68911,0.47384 -0.96544,0.79066 -0.27191,0.34462 -0.42997,0.75562 -0.57139,1.1664 -0.14013,0.41788 -0.23601,0.84832 -0.31578,1.28119 -0.08,0.45473 -0.1424,0.91226 -0.20193,1.37002 -0.0514,0.46976 -0.08,0.94165 -0.10912,1.41319 -0.0291,0.50156 -0.0596,1.00312 -0.075,1.50532 -0.0222,0.50861 0.0257,0.92684 0.22203,1.39718 0.20447,0.44612 0.53788,0.78898 0.91636,1.09019 0.36963,0.2717 0.79674,0.43568 1.23439,0.55971 0.40672,0.12256 0.82635,0.14543 1.24722,0.11726 0.39161,-0.0352 0.77097,-0.14433 1.14273,-0.26738 0.39611,-0.15925 0.80092,-0.26383 1.22383,-0.31721 0.45445,-0.0541 0.90713,0.0138 1.35539,0.0836 0.52988,0.0961 1.06785,0.116 1.60496,0.10578 0.52774,-0.0177 1.04161,-0.12715 1.53903,-0.29885 0.17113,-0.0719 0.28895,-0.11664 0.4527,-0.20454 0.0734,-0.0394 0.28966,-0.16423 0.21511,-0.12712 -0.1418,0.0706 -0.2698,0.16933 -0.41707,0.22765 -0.0773,0.0306 0.13703,-0.0942 0.20408,-0.1433 0.0669,-0.049 0.13176,-0.10065 0.19767,-0.15098 0.39314,-0.30407 0.74218,-0.65666 1.05796,-1.03922 0.30014,-0.37328 0.4245,-0.81021 0.46402,-1.27883 0.006,-0.44749 -0.10564,-0.87961 -0.2518,-1.29855 -0.16293,-0.43708 -0.41759,-0.82638 -0.6922,-1.19982 -0.32428,-0.42995 -0.72451,-0.79039 -1.12964,-1.14146 -0.44858,-0.40177 -0.91628,-0.78063 -1.39782,-1.14196 -0.52605,-0.41186 -1.12064,-0.7126 -1.73355,-0.97049 -0.35888,-0.14377 -0.72678,-0.26283 -1.09384,-0.38343 0,0 0.59693,-0.40532 0.59693,-0.40532 v 0 c 0.3689,0.12169 0.73869,0.2417 1.09929,0.38688 0.61767,0.26205 1.21721,0.5661 1.7472,0.9828 0.48249,0.36305 0.95178,0.74282 1.40216,1.14524 0.40933,0.35463 0.81359,0.71923 1.14149,1.15334 0.27916,0.37911 0.53753,0.77469 0.70435,1.21801 0.15102,0.42771 0.26511,0.86845 0.26598,1.32556 -0.0334,0.4796 -0.1483,0.93195 -0.44733,1.32021 -0.31176,0.38872 -0.65929,0.7458 -1.0514,1.05476 -0.5833,0.456 -1.22449,0.84857 -1.91381,1.12095 -0.50266,0.16356 -1.02031,0.26773 -1.55064,0.27932 -0.54089,0.006 -1.08199,-0.0185 -1.61568,-0.11317 -0.44458,-0.0669 -0.89355,-0.12758 -1.34311,-0.0665 -0.42052,0.0603 -0.82153,0.17753 -1.21819,0.3295 -0.37579,0.11882 -0.75814,0.22549 -1.15337,0.25177 -0.42635,0.0204 -0.85035,-0.0117 -1.26066,-0.13849 -0.44352,-0.13204 -0.87609,-0.30375 -1.24865,-0.58495 -0.38531,-0.31143 -0.72472,-0.66547 -0.93544,-1.12132 -0.20314,-0.48033 -0.25783,-0.90488 -0.23521,-1.42575 0.0146,-0.50267 0.0438,-1.00474 0.0727,-1.50676 0.0287,-0.47293 0.0568,-0.94616 0.10652,-1.41745 0.059,-0.45865 0.1207,-0.91706 0.19912,-1.37286 0.0784,-0.43604 0.17233,-0.86976 0.31131,-1.2911 0.13984,-0.41682 0.29475,-0.83432 0.55864,-1.19098 0.26959,-0.3275 0.59389,-0.59366 0.95684,-0.81395 0.58614,-0.33918 1.16057,-0.70901 1.81616,-0.90053 0.43905,-0.11321 0.88804,-0.16241 1.3418,-0.16039 0.36537,-10e-4 0.73039,0.0182 1.09078,0.0824 0.2359,0.0398 0.47199,0.0821 0.70117,0.15219 0.13258,0.0421 0.27625,0.0814 0.38057,0.1781 0,0 -0.64635,0.38699 -0.64635,0.38699 z"
       inkscape:connector-curvature="0" />
    <path
       style="opacity:1;fill:#000000;fill-opacity:1;stroke:#000000;stroke-width:1;stroke-miterlimit:4;stroke-dasharray:none;stroke-dashoffset:0.57106102;stroke-opacity:1"
       id="path939"
       d="m 162.91201,190.48407 c -0.0839,-5.3e-4 -0.16777,-5.3e-4 -0.25167,-7.9e-4 -0.16552,0.001 -0.33004,0.0268 -0.4943,0.0456 -0.25024,0.0242 -0.49154,0.0834 -0.72903,0.16353 -0.27601,0.0882 -0.5389,0.21108 -0.79885,0.33788 -0.13719,0.0978 -0.63408,0.30885 0.0676,-0.0385 0.0432,-0.0214 -0.0802,0.0533 -0.11969,0.0809 -0.10753,0.075 -0.13177,0.0953 -0.23596,0.17498 -0.23532,0.18228 -0.44148,0.39669 -0.63653,0.62046 -0.20051,0.23354 -0.37103,0.48951 -0.52743,0.75395 -0.16777,0.29347 -0.30522,0.60234 -0.42796,0.91686 -0.11975,0.32275 -0.2014,0.65738 -0.25889,0.99628 -0.061,0.34093 -0.0686,0.68604 -0.0545,1.03099 0.0199,0.3778 0.0924,0.74886 0.17981,1.11595 0.0936,0.39323 0.24712,0.76674 0.41693,1.13214 0.18579,0.37944 0.42283,0.73009 0.67998,1.06418 0.25961,0.33783 0.5756,0.62361 0.90194,0.89482 0.32001,0.27113 0.67297,0.49569 1.03812,0.69997 0.34314,0.1971 0.70773,0.34699 1.08117,0.47498 0.38502,0.12324 0.77811,0.21768 1.17551,0.29065 0.40114,0.0713 0.80849,0.082 1.21457,0.0677 0.38579,-0.0207 0.76833,-0.0775 1.14811,-0.14619 0.36539,-0.0638 0.71726,-0.17681 1.05508,-0.32817 -0.0999,0.0671 0.43722,-0.2278 0.32602,-0.17461 -0.0972,0.0465 -0.18082,0.12437 -0.28469,0.15289 -0.0623,0.0171 0.10448,-0.0761 0.15441,-0.11712 0.12835,-0.1054 0.17722,-0.16011 0.29498,-0.27786 0.28604,-0.31089 0.53941,-0.65021 0.79037,-0.98954 0.24571,-0.33469 0.4672,-0.68596 0.67365,-1.04592 0.20362,-0.36964 0.39018,-0.74854 0.57364,-1.12853 0.1841,-0.38178 0.34716,-0.77305 0.50202,-1.16743 0.14473,-0.36926 0.25427,-0.74977 0.33248,-1.13822 0.0634,-0.3598 0.0573,-0.72482 0.0296,-1.08746 -0.0305,-0.3527 -0.11332,-0.69669 -0.21473,-1.03484 -0.10843,-0.34373 -0.27932,-0.66114 -0.46138,-0.97038 -0.18677,-0.33128 -0.44162,-0.60649 -0.72687,-0.85398 -0.33673,-0.27648 -0.71194,-0.50008 -1.09513,-0.70513 -0.41079,-0.21253 -0.839,-0.38823 -1.27029,-0.55408 -0.44347,-0.17144 -0.89652,-0.31427 -1.35811,-0.42754 -0.43913,-0.10141 -0.88747,-0.14885 -1.33585,-0.18505 -0.41897,-0.0286 -0.83895,-0.0163 -1.25823,-0.004 -0.40309,0.009 -0.80193,0.0663 -1.19732,0.14151 -0.38018,0.0781 -0.75274,0.18651 -1.12165,0.30603 -0.35242,0.11462 -0.68731,0.27253 -1.01904,0.43588 0.10258,-0.0647 -0.4282,0.23712 -0.32208,0.17619 0.0949,-0.0545 0.18733,-0.11368 0.28559,-0.16177 0.0547,-0.0268 -0.10337,0.0643 -0.15433,0.0975 -0.13369,0.0873 -0.16618,0.11267 -0.29559,0.20543 -0.29808,0.21223 -0.55139,0.47552 -0.79259,0.74855 -0.22262,0.25281 -0.41767,0.52775 -0.60724,0.80565 0,0 -0.47345,0.20669 -0.47345,0.20669 v 0 c 0.18857,-0.27934 0.38254,-0.55587 0.60344,-0.81098 0.23984,-0.27563 0.49038,-0.54334 0.78737,-0.75902 0.43344,-0.31592 0.8972,-0.58638 1.37398,-0.83182 0.33269,-0.16269 0.66993,-0.31698 1.02344,-0.42974 0.37004,-0.11755 0.74345,-0.2249 1.12472,-0.30018 0.39706,-0.0731 0.79758,-0.12678 1.20192,-0.13485 0.42008,-0.0116 0.84092,-0.022 1.2605,0.009 0.4499,0.0378 0.89956,0.0884 1.33974,0.19248 0.46239,0.11625 0.91649,0.26115 1.36134,0.43306 0.43294,0.16714 0.86272,0.34432 1.27468,0.5589 0.38574,0.20823 0.76399,0.43405 1.103,0.71374 0.289,0.25168 0.54747,0.53122 0.73686,0.86749 0.18412,0.31279 0.35743,0.63356 0.4681,0.98088 0.10287,0.34147 0.18748,0.68866 0.21963,1.04483 0.0292,0.36683 0.0373,0.73594 -0.0238,1.10048 -0.0766,0.39161 -0.18576,0.77511 -0.33044,1.14736 -0.15422,0.3956 -0.31684,0.78802 -0.50046,1.17102 -0.1829,0.381 -0.37004,0.76029 -0.5719,1.13165 -0.20486,0.36219 -0.42627,0.71486 -0.67124,1.0515 -0.25067,0.34089 -0.5052,0.68035 -0.78714,0.9962 -0.11287,0.11609 -0.16867,0.17893 -0.29146,0.28389 -0.32123,0.27452 -0.70734,0.46423 -1.08294,0.6527 -0.34124,0.14641 -0.69538,0.25636 -1.06225,0.31816 -0.38111,0.0665 -0.76478,0.12243 -1.15173,0.13952 -0.40847,0.0107 -0.81799,-0.003 -1.22092,-0.0769 -0.39881,-0.0757 -0.79373,-0.17093 -1.17989,-0.2969 -0.37541,-0.13028 -0.74157,-0.28336 -1.08638,-0.48275 -0.36628,-0.20764 -0.72032,-0.43538 -1.04203,-0.70857 -0.32864,-0.27426 -0.64688,-0.56316 -0.90829,-0.90432 -0.259,-0.33736 -0.4976,-0.6915 -0.68585,-1.07385 -0.1719,-0.36812 -0.32726,-0.74454 -0.42302,-1.14064 -0.089,-0.36974 -0.16311,-0.7435 -0.18571,-1.12404 -0.0164,-0.34796 -0.0109,-0.69624 0.0493,-1.0405 0.0554,-0.34202 0.13626,-0.67954 0.25418,-1.00582 0.12158,-0.31667 0.25779,-0.6276 0.42357,-0.92401 0.15471,-0.26712 0.32346,-0.52584 0.52279,-0.76233 0.19376,-0.22655 0.39831,-0.44418 0.63236,-0.63007 0.36668,-0.28632 0.7661,-0.52437 1.1803,-0.73616 0.26178,-0.12527 0.52626,-0.24629 0.80381,-0.33307 0.2404,-0.0777 0.48564,-0.13131 0.73744,-0.15656 0.16659,-0.0197 0.33346,-0.0455 0.50165,-0.0434 0.0846,-2e-4 0.16931,-5.3e-4 0.25395,-8e-4 0,0 -0.43079,0.31299 -0.43079,0.31299 z"
       inkscape:connector-curvature="0" />
    <path
       style="opacity:1;fill:#000000;fill-opacity:1;stroke:#000000;stroke-width:1;stroke-miterlimit:4;stroke-dasharray:none;stroke-dashoffset:0.57106102;stroke-opacity:1"
       id="path941"
       d="m 163.38093,187.09454 c 0.0119,-0.10237 0.0225,-0.20487 0.0307,-0.30767 0.0143,-0.18616 0.023,-0.37266 0.0315,-0.55915 0.0106,-0.23842 0.0183,-0.47693 0.0257,-0.71545 0.007,-0.22352 0.0114,-0.44711 0.0185,-0.67064 -0.009,-0.0593 0.018,-0.12293 0.007,-0.18158 0.54448,-0.26619 0.48747,-0.29999 0.49959,0.037 0.005,0.13575 -0.003,0.27165 -0.005,0.40737 -0.003,0.11119 -0.003,0.055 -0.004,0.16867 0,0 -0.47012,0.23815 -0.47012,0.23815 v 0 c 0.003,-0.11358 0,-0.0574 0.004,-0.16847 0.003,-0.13441 0.009,-0.26901 0.005,-0.40342 -0.0146,-0.36233 -0.0861,-0.1957 0.46315,-0.48815 -0.0282,-0.0281 -0.0212,0.14292 -0.0272,0.15278 -0.0109,0.22391 -0.0167,0.44799 -0.0225,0.67208 -0.007,0.23845 -0.014,0.47689 -0.0238,0.71525 -0.008,0.18651 -0.0154,0.37306 -0.0281,0.55931 -0.007,0.10071 -0.0122,0.20197 -0.0278,0.30178 0,0 -0.47525,0.24215 -0.47525,0.24215 z"
       inkscape:connector-curvature="0" />
    <path
       style="opacity:1;fill:#000000;fill-opacity:1;stroke:#000000;stroke-width:1;stroke-miterlimit:4;stroke-dasharray:none;stroke-dashoffset:0.57106102;stroke-opacity:1"
       id="path943"
       d="m 163.9224,202.062 c 0,0.10238 0,0.20476 -0.003,0.30715 -0.004,0.17729 0.007,0.35429 0.0164,0.53121 0.0119,0.22211 0.0222,0.44428 0.0307,0.66654 0.01,0.26947 0.0316,0.53833 0.0489,0.80738 0.022,0.31925 0.0323,0.63911 0.0507,0.95852 0.005,0.0523 0.009,0.10454 0.0135,0.15681 0,0 -0.46191,0.24039 -0.46191,0.24039 v 0 c -0.005,-0.0527 -0.009,-0.10548 -0.0138,-0.15822 -0.0188,-0.31911 -0.0285,-0.63874 -0.0517,-0.95762 -0.0177,-0.26914 -0.041,-0.53802 -0.0514,-0.80757 -0.009,-0.22171 -0.0196,-0.44337 -0.0321,-0.66492 -0.0101,-0.17741 -0.023,-0.35484 -0.0201,-0.53265 0,-0.10182 0,-0.20365 -0.003,-0.30548 0,0 0.47406,-0.24154 0.47406,-0.24154 z"
       inkscape:connector-curvature="0" />
    <path
       style="opacity:1;fill:#000000;fill-opacity:1;stroke:#000000;stroke-width:1;stroke-miterlimit:4;stroke-dasharray:none;stroke-dashoffset:0.57106102;stroke-opacity:1"
       id="path945"
       d="m 173.20986,194.64779 c 0.0757,2.7e-4 0.15139,5.3e-4 0.22712,8e-4 0.12948,-0.003 0.2581,0.002 0.38695,0.0143 0.11602,0.0117 0.23225,0.0207 0.34851,0.0293 0,0 -0.42767,0.30599 -0.42767,0.30599 v 0 c -0.11703,-0.008 -0.234,-0.0176 -0.35081,-0.0285 -0.12849,-0.0102 -0.25697,-0.0116 -0.38579,-0.009 -0.0764,2.6e-4 -0.15283,2.6e-4 -0.22926,7.9e-4 0,0 0.43095,-0.31309 0.43095,-0.31309 z"
       inkscape:connector-curvature="0" />
    <path
       style="opacity:1;fill:#000000;fill-opacity:1;stroke:#000000;stroke-width:1;stroke-miterlimit:4;stroke-dasharray:none;stroke-dashoffset:0.57106102;stroke-opacity:1"
       id="path947"
       d="m 155.97284,195.09473 c -0.081,0.003 -0.16116,-0.008 -0.24162,-0.0159 -0.15671,-0.015 -0.31396,-0.0238 -0.47114,-0.0322 -0.24019,-0.0121 -0.48054,-0.0201 -0.72091,-0.0277 -0.19463,-0.006 -0.38931,-0.0109 -0.58397,-0.0157 0,0 0.42236,-0.30532 0.42236,-0.30532 v 0 c 0.19515,0.005 0.39028,0.009 0.58539,0.0152 0.24151,0.007 0.48302,0.015 0.72435,0.0267 0.15859,0.008 0.31718,0.017 0.4753,0.0318 0.0805,0.007 0.16089,0.0134 0.24175,0.01 0,0 -0.43151,0.31352 -0.43151,0.31352 z"
       inkscape:connector-curvature="0" />
    <path
       style="opacity:1;fill:#000000;fill-opacity:1;stroke:#000000;stroke-width:1;stroke-miterlimit:4;stroke-dasharray:none;stroke-dashoffset:0.57106102;stroke-opacity:1"
       id="path949"
       d="m 164.64617,189.57718 c -0.0916,0.066 -0.17576,0.14076 -0.25741,0.21849 -0.15857,0.15344 -0.31536,0.30869 -0.46975,0.46636 -0.19203,0.19376 -0.35197,0.41378 -0.4995,0.64227 -0.15664,0.25462 -0.29798,0.51833 -0.4336,0.78462 -0.15568,0.28704 -0.25564,0.59529 -0.33285,0.91109 -0.0922,0.39718 -0.0906,0.80589 -0.0773,1.21082 0.0159,0.47036 0.0733,0.9379 0.131,1.40456 0.0583,0.48225 0.13327,0.96228 0.21235,1.44149 0.079,0.46747 0.17635,0.9315 0.27363,1.39542 0.0947,0.47863 0.20723,0.95335 0.32978,1.42552 0.13134,0.49345 0.28432,0.98071 0.41931,1.47314 0.0736,0.28712 0.0393,0.14478 0.10322,0.42694 0,0 -0.45435,0.24424 -0.45435,0.24424 v 0 c -0.062,-0.28125 -0.0286,-0.13926 -0.10027,-0.42589 -0.13269,-0.49336 -0.28485,-0.98109 -0.41842,-1.4742 -0.12414,-0.47248 -0.23677,-0.94786 -0.33218,-1.42704 -0.0977,-0.46458 -0.195,-0.92938 -0.27451,-1.3975 -0.0791,-0.4799 -0.15398,-0.96064 -0.21293,-1.4435 -0.0583,-0.46771 -0.11713,-0.93616 -0.13507,-1.40754 -0.0156,-0.40821 -0.0196,-0.82038 0.0682,-1.22183 0.0742,-0.31894 0.16918,-0.63145 0.3255,-0.92113 0.13467,-0.2677 0.27635,-0.53207 0.43071,-0.789 0.14573,-0.23121 0.30295,-0.45486 0.49406,-0.6515 0.1525,-0.15796 0.30871,-0.31229 0.46519,-0.46631 0.0801,-0.0782 0.16004,-0.15652 0.25088,-0.22248 0,0 0.49437,-0.19704 0.49437,-0.19704 z"
       inkscape:connector-curvature="0" />
    <path
       style="opacity:1;fill:#000000;fill-opacity:1;stroke:#000000;stroke-width:1;stroke-miterlimit:4;stroke-dasharray:none;stroke-dashoffset:0.57106102;stroke-opacity:1"
       id="path951"
       d="m 164.92504,189.02326 c -0.003,0.0769 0.0225,0.1514 0.0402,0.22543 0.0324,0.1397 0.0534,0.28163 0.073,0.42358 0.0236,0.19447 0.0559,0.38767 0.0934,0.5799 0.0477,0.2369 0.0873,0.4753 0.12385,0.71415 0.0411,0.27492 0.0746,0.5509 0.10438,0.82725 0.0341,0.32096 0.062,0.64251 0.0857,0.96438 0.0281,0.39871 0.0495,0.79785 0.0702,1.19699 0.0265,0.42221 0.038,0.84479 0.0421,1.26771 0.004,0.43108 0.006,0.86209 -0.003,1.29313 -0.003,0.44413 -0.0331,0.88682 -0.076,1.32861 -0.0426,0.4555 -0.12846,0.90455 -0.24601,1.34619 -0.1437,0.49755 -0.30618,0.98937 -0.46371,1.48263 -0.0856,0.25833 -0.16455,0.51876 -0.24316,0.77928 0,0 -0.4613,0.21832 -0.4613,0.21832 v 0 c 0.0781,-0.26063 0.15598,-0.52136 0.24178,-0.7796 0.15711,-0.49224 0.31893,-0.9831 0.4627,-1.47948 0.11856,-0.43875 0.20508,-0.8851 0.24853,-1.33798 0.0432,-0.44052 0.0758,-0.88186 0.0776,-1.32481 0.007,-0.43053 0.006,-0.86103 0.003,-1.2916 -0.004,-0.42223 -0.0143,-0.84416 -0.0413,-1.26565 -0.0209,-0.39837 -0.0428,-0.79673 -0.0723,-1.19458 -0.0249,-0.32093 -0.0527,-0.64164 -0.087,-0.96171 -0.0303,-0.27537 -0.0636,-0.55046 -0.10489,-0.82442 -0.0366,-0.23795 -0.0761,-0.47547 -0.12432,-0.71138 -0.0384,-0.19275 -0.0725,-0.38636 -0.0968,-0.58146 -0.0196,-0.14002 -0.0404,-0.28005 -0.0728,-0.41779 -0.019,-0.0775 -0.0455,-0.15516 -0.0488,-0.23518 0,0 0.47479,-0.24191 0.47479,-0.24191 z"
       inkscape:connector-curvature="0" />
    <path
       style="opacity:1;fill:#000000;fill-opacity:1;stroke:#000000;stroke-width:1;stroke-miterlimit:4;stroke-dasharray:none;stroke-dashoffset:0.57106102;stroke-opacity:1"
       id="path953"
       d="m 159.16673,194.63968 c 0.0766,-0.0102 0.15012,-0.0363 0.22309,-0.0611 0.22038,-0.0629 0.44943,-0.0865 0.67517,-0.12227 0.38274,-0.0581 0.76668,-0.10858 1.15038,-0.15995 0.44429,-0.0584 0.8895,-0.10904 1.33395,-0.16637 0.47665,-0.0593 0.953,-0.12102 1.42962,-0.18059 0.5279,-0.0664 1.055,-0.13523 1.58708,-0.15285 0.27318,-0.005 0.54557,0.0153 0.81767,0.0359 0,0 -0.41556,0.29727 -0.41556,0.29727 v 0 c -0.27096,-0.0195 -0.54218,-0.0391 -0.81412,-0.0315 -0.53131,0.0217 -1.05802,0.0909 -1.58533,0.1572 -0.47728,0.0606 -0.95435,0.12282 -1.43179,0.18235 -0.44469,0.0572 -0.89019,0.10769 -1.33459,0.16724 -0.38505,0.0521 -0.77025,0.10358 -1.15406,0.16421 -0.2269,0.036 -0.45725,0.0628 -0.67662,0.13396 -0.0754,0.024 -0.15126,0.0455 -0.22918,0.0597 0,0 0.42429,-0.3232 0.42429,-0.3232 z"
       inkscape:connector-curvature="0" />
    <path
       style="opacity:1;fill:#000000;fill-opacity:1;stroke:#000000;stroke-width:1;stroke-miterlimit:4;stroke-dasharray:none;stroke-dashoffset:0.57106102;stroke-opacity:1"
       id="path955"
       d="m 159.91515,195.2492 c 0.092,0.02 0.1822,0.0461 0.27115,0.0769 0.17608,0.0589 0.34742,0.13121 0.51845,0.20334 0.25712,0.10404 0.51882,0.19579 0.78309,0.27983 0.3203,0.0979 0.64582,0.17717 0.97205,0.25242 0.36301,0.0853 0.73046,0.14882 1.09829,0.20913 0.39968,0.0647 0.80078,0.12009 1.20224,0.17264 0.4223,0.0596 0.84648,0.0978 1.27217,0.12129 0.42902,0.0263 0.85669,-0.002 1.28251,-0.0532 0.4055,-0.0435 0.80145,-0.14201 1.19004,-0.26281 0.23905,-0.0836 0.47136,-0.186 0.69496,-0.30482 0.054,-0.0287 0.21328,-0.1199 0.16055,-0.0889 -0.0952,0.0559 -0.19193,0.10918 -0.2879,0.16376 0.30898,-0.18035 0.57685,-0.4177 0.8427,-0.65455 0.0431,-0.0398 0.0863,-0.0796 0.12938,-0.11933 0,0 0.48035,-0.19685 0.48035,-0.19685 v 0 c -0.043,0.0401 -0.086,0.0802 -0.12903,0.12027 -0.26631,0.23773 -0.53147,0.47992 -0.83934,0.6641 -0.47207,0.27385 -0.93734,0.56586 -1.461,0.7327 -0.3905,0.11772 -0.78801,0.2126 -1.19454,0.25457 -0.42765,0.0489 -0.8571,0.0737 -1.28747,0.0457 -0.42672,-0.0245 -0.85182,-0.0649 -1.27529,-0.12376 -0.4019,-0.0529 -0.80346,-0.10865 -1.20361,-0.17373 -0.3691,-0.0607 -0.73787,-0.12437 -1.10205,-0.21059 -0.3275,-0.076 -0.65431,-0.1561 -0.97581,-0.25495 -0.26596,-0.085 -0.52959,-0.17716 -0.78861,-0.28156 -0.17129,-0.0705 -0.34285,-0.14138 -0.51943,-0.19781 -0.0859,-0.0268 -0.17426,-0.0558 -0.26464,-0.0609 0,0 0.43079,-0.31299 0.43079,-0.31299 z"
       inkscape:connector-curvature="0" />
    <path
       style="opacity:1;fill:#000000;fill-opacity:1;stroke:#000000;stroke-width:1;stroke-miterlimit:4;stroke-dasharray:none;stroke-dashoffset:0.57106102;stroke-opacity:1"
       id="path957"
       d="m 166.52516,193.11091 c 0.16465,0.002 0.3293,0.002 0.49392,0.003 0.26321,-0.006 0.52412,0.01 0.77989,0.0733 0.25511,0.077 0.47276,0.23365 0.69313,0.37784 0.26993,0.18173 0.56269,0.32407 0.85841,0.45792 0.14547,0.063 0.29335,0.1202 0.44061,0.17878 0,0 -0.43344,0.29032 -0.43344,0.29032 v 0 c -0.14708,-0.0595 -0.29456,-0.11815 -0.43979,-0.18212 -0.29808,-0.13567 -0.59269,-0.28038 -0.86566,-0.46265 -0.21648,-0.14091 -0.43117,-0.29335 -0.68368,-0.36239 -0.25424,-0.0572 -0.51303,-0.0691 -0.77327,-0.0631 -0.16709,2.6e-4 -0.33417,7.9e-4 -0.50126,0.003 0,0 0.43114,-0.31325 0.43114,-0.31325 z"
       inkscape:connector-curvature="0" />
    <path
       style="opacity:1;fill:#000000;fill-opacity:1;stroke:#000000;stroke-width:1;stroke-miterlimit:4;stroke-dasharray:none;stroke-dashoffset:0.57106102;stroke-opacity:1"
       id="path959"
       d="m 67.905281,128.36197 c -0.002,0.23174 -0.003,0.4635 -0.004,0.69525 0.008,0.40895 0.0748,0.81339 0.12659,1.21829 0.0732,0.56862 0.12598,1.13948 0.17138,1.7109 0.0571,0.77752 0.100847,1.55594 0.142117,2.33443 0.0458,0.87257 0.0832,1.74554 0.11815,2.6186 0.0394,0.96649 0.0685,1.93333 0.0964,2.9002 0.0204,1.11966 0.0579,2.23821 0.1338,3.35552 0.0787,1.25043 0.23323,2.49377 0.38838,3.73643 0.15822,1.27656 0.34401,2.54948 0.51403,3.82451 0.17118,1.38559 0.36429,2.76817 0.57913,4.14764 0.23373,1.46846 0.49813,2.93179 0.7433,4.39838 0.23657,1.44484 0.50351,2.88441 0.74652,4.3282 0.26621,1.51976 0.50798,3.04361 0.76047,4.56568 0.26772,1.60985 0.51088,3.22363 0.71031,4.84337 0.19607,1.71177 0.29033,3.43254 0.33012,5.15434 0.0267,1.70584 -0.0664,3.40924 -0.16533,5.11132 -0.10753,1.59464 -0.25023,3.18617 -0.45811,4.77088 -0.23438,1.59631 -0.52788,3.1833 -0.82748,4.76844 -0.30552,1.60279 -0.58442,3.21042 -0.84768,4.82064 -0.27449,1.59835 -0.47251,3.20796 -0.63063,4.82156 -0.16782,1.76776 -0.24013,3.5425 -0.28562,5.31701 -0.0254,1.23562 -0.0165,0.62034 -0.0269,1.84583 0,0 -1.2763,0.64891 -1.2763,0.64891 v 0 c 0.0109,-1.22778 0.002,-0.6116 0.0271,-1.84853 0.0431,-1.77591 0.1086,-3.55235 0.27242,-5.32187 0.15442,-1.61646 0.35086,-3.22891 0.62586,-4.82971 0.26283,-1.61125 0.54115,-3.21991 0.84596,-4.82381 0.29935,-1.58264 0.59279,-3.16703 0.82946,-4.76047 0.20998,-1.5821 0.35424,-3.171 0.4658,-4.76303 0.10075,-1.69897 0.1981,-3.39908 0.17279,-5.10202 -0.0376,-1.71726 -0.12842,-3.43364 -0.32501,-5.1408 -0.1991,-1.61736 -0.44415,-3.22848 -0.71133,-4.83597 -0.25305,-1.52136 -0.49626,-3.04436 -0.76466,-4.56312 -0.24275,-1.44393 -0.51037,-2.88349 -0.74632,-4.32853 -0.24433,-1.46719 -0.50812,-2.93107 -0.74388,-4.39966 -0.21797,-1.37906 -0.41524,-2.76123 -0.58812,-4.14671 -0.169637,-1.27543 -0.355677,-2.54867 -0.514667,-3.82548 -0.15585,-1.24449 -0.31397,-2.48932 -0.3962,-3.74143 -0.0791,-1.11793 -0.12058,-2.23715 -0.14237,-3.35765 -0.0291,-0.96559 -0.0611,-1.93109 -0.10035,-2.89633 -0.0358,-0.87197 -0.0736,-1.74387 -0.12025,-2.61535 -0.0422,-0.7762 -0.0859,-1.55241 -0.14671,-2.32743 -0.0475,-0.56805 -0.10126,-1.13564 -0.17512,-1.70095 -0.0539,-0.40984 -0.12372,-0.81849 -0.14204,-1.232 -0.001,-0.23053 -0.002,-0.46107 -0.004,-0.69161 0,0 1.34218,-0.68387 1.34218,-0.68387 z"
       inkscape:connector-curvature="0" />
    <path
       style="opacity:1;fill:#000000;fill-opacity:1;stroke:#000000;stroke-width:1;stroke-miterlimit:4;stroke-dasharray:none;stroke-dashoffset:0.57106102;stroke-opacity:1"
       id="path961"
       d="m 70.566638,209.65205 c 0.22839,-0.0127 0.45638,-0.0495 0.68486,-0.0717 0.45904,-0.0584 0.91858,-0.10942 1.37995,-0.14867 0.80053,-0.0948 1.601647,-0.18412 2.403487,-0.26704 1.01504,-0.0925 2.02495,-0.22756 3.03327,-0.37469 1.208307,-0.19826 2.424767,-0.32878 3.647047,-0.3952 1.44035,-0.0726 2.883147,-0.0629 4.324597,-0.0375 1.49921,0.0104 2.993,0.14144 4.484437,0.28165 1.6177,0.18894 3.22699,0.44232 4.834027,0.70524 1.76295,0.28858 3.52528,0.58261 5.295517,0.82327 1.68592,0.2421 3.38062,0.39176 5.0821,0.45473 1.6768,0.0504 3.35121,-0.0706 5.01601,-0.25932 1.8144,-0.204 3.59101,-0.62943 5.36111,-1.06294 1.76133,-0.43422 3.4964,-0.96521 5.23231,-1.48973 1.66881,-0.50715 3.3237,-1.05821 4.98983,-1.5738 1.64986,-0.51654 3.32132,-0.95689 5.00436,-1.34999 1.62697,-0.38505 3.27726,-0.63632 4.9395,-0.80211 1.62796,-0.15812 3.26221,-0.23541 4.89673,-0.28228 1.56527,-0.0543 3.13145,-0.005 4.69368,0.0956 1.49545,0.0951 2.98378,0.28109 4.46365,0.51295 1.45492,0.2236 2.89399,0.53467 4.32988,0.8557 1.41761,0.29873 2.81578,0.67879 4.20865,1.07509 1.3939,0.39647 2.78508,0.80204 4.18311,1.18372 1.41476,0.3818 2.83856,0.73046 4.27411,1.02481 1.4438,0.2931 2.89869,0.52823 4.36713,0.65005 1.54027,0.0827 3.08327,0.0983 4.62532,0.12225 1.61602,0.044 3.23164,0.10097 4.84759,0.14763 1.80392,0.0469 3.60772,0.10282 5.41213,0.12534 1.82181,0.0471 3.64088,-0.0493 5.45774,-0.16978 1.79869,-0.12132 3.58873,-0.33215 5.37467,-0.5736 1.20928,-0.16381 2.41691,-0.33921 3.62259,-0.5276 0,0 -1.14421,0.85862 -1.14421,0.85862 v 0 c -1.2074,0.18701 -2.41631,0.36403 -3.62718,0.52728 -1.78683,0.23857 -3.57772,0.44632 -5.37725,0.56345 -1.82029,0.11903 -3.64284,0.21143 -5.46788,0.16311 -1.80504,-0.0266 -3.60953,-0.0813 -5.41417,-0.12646 -1.61785,-0.0448 -3.23549,-0.0965 -4.85331,-0.14125 -1.54508,-0.0246 -3.09136,-0.0384 -4.63433,-0.12822 -1.47135,-0.13035 -2.92923,-0.3682 -4.37619,-0.66451 -1.43756,-0.29786 -2.86395,-0.64702 -4.28082,-1.03136 -1.39803,-0.38299 -2.78971,-0.7882 -4.18391,-1.18485 -1.39139,-0.39376 -2.78831,-0.76955 -4.20365,-1.06856 -1.43359,-0.31978 -2.87089,-0.62664 -4.32345,-0.8486 -1.47725,-0.22761 -2.96254,-0.41039 -4.45489,-0.50301 -1.55885,-0.0965 -3.12129,-0.14328 -4.68292,-0.0869 -1.63189,0.0495 -3.26355,0.12736 -4.88868,0.28921 -1.65788,0.17208 -3.30369,0.42925 -4.92646,0.8155 -1.68095,0.39578 -3.34976,0.84032 -4.99777,1.35772 -1.66478,0.51765 -3.31975,1.06621 -4.98845,1.57135 -1.73611,0.52394 -3.47239,1.05104 -5.23461,1.48179 -1.77511,0.43222 -3.55782,0.85126 -5.37707,1.05198 -1.66973,0.18449 -3.34894,0.30018 -5.02998,0.24281 -1.70336,-0.0685 -3.39968,-0.22468 -5.087407,-0.46821 -1.77035,-0.2453 -3.53332,-0.53958 -5.297357,-0.82625 -1.60839,-0.25857 -3.21897,-0.50851 -4.838147,-0.69037 -1.48878,-0.1379 -2.97994,-0.26455 -4.47624,-0.27392 -1.442727,-0.0223 -2.886757,-0.0263 -4.328007,0.0533 -1.2207,0.074 -2.435297,0.21027 -3.642487,0.40775 -1.01307,0.1483 -2.02793,0.28327 -3.04765,0.37789 -0.804837,0.0847 -1.608617,0.17846 -2.412557,0.27121 -0.46481,0.0444 -0.92711,0.10584 -1.39082,0.15931 -0.23246,0.026 -0.46467,0.0665 -0.6992,0.0628 0,0 1.21766,-0.88468 1.21766,-0.88468 z"
       inkscape:connector-curvature="0" />
    <path
       style="opacity:1;fill:#000000;fill-opacity:1;stroke:#000000;stroke-width:1;stroke-miterlimit:4;stroke-dasharray:none;stroke-dashoffset:0.57106102;stroke-opacity:1"
       id="path963"
       d="m 67.931531,125.84977 c 0.30285,0.27839 0.694447,0.43371 1.061147,0.60807 0.69242,0.31927 1.42149,0.54508 2.15407,0.75065 0.97718,0.27168 1.97359,0.46269 2.971907,0.63689 1.17589,0.21357 2.35846,0.36875 3.55099,0.44432 1.244827,0.0812 2.479297,-0.0823 3.701067,-0.30175 1.32231,-0.26187 2.64325,-0.52889 3.970487,-0.76508 1.60286,-0.27836 3.21696,-0.48417 4.831707,-0.67897 1.7626,-0.2166 3.52929,-0.39062 5.301267,-0.50712 1.91205,-0.10451 3.82779,-0.10581 5.742007,-0.0906 2.14204,0.009 4.28209,0.11329 6.41856,0.26122 2.06228,0.15064 4.11,0.441 6.15192,0.75945 2.04533,0.35312 4.07352,0.79695 6.09955,1.24566 1.93498,0.43095 3.85585,0.92002 5.76784,1.4428 1.86036,0.55825 3.73459,1.06187 5.6253,1.50597 2.15046,0.54104 4.33314,0.88289 6.54061,1.06795 2.6597,0.18759 5.32802,0.0904 7.9902,0.0206 2.80432,-0.0959 5.60978,-0.1384 8.41497,-0.19747 2.68915,-0.10064 5.37411,-0.22702 8.06569,-0.18514 2.44361,0.0778 4.88395,0.23022 7.32655,0.33247 2.40993,0.10919 4.82264,0.10888 7.23445,0.1124 3.04536,0.002 6.09058,-0.0416 9.13567,-0.0766 3.04681,0.0366 6.06351,-0.33259 9.057,-0.86038 2.33947,-0.44748 4.65979,-0.98521 6.96008,-1.60171 1.59922,-0.42012 3.14304,-1.00911 4.62833,-1.73132 1.40009,-0.77306 -0.14907,0.11151 -0.23151,0.15382 -0.14362,0.0737 0.27543,-0.16856 0.41084,-0.25649 0.28739,-0.18663 0.54822,-0.38155 0.79537,-0.61764 0.23545,-0.25128 0.11573,-0.43725 -0.0603,-0.67352 -0.0403,-0.0334 -0.11813,-0.14588 -0.18645,-0.13557 -0.0183,0.003 -0.0572,0.0468 -0.0408,0.0381 1.21854,-0.64821 1.60639,-0.98921 1.18073,-0.6235 -0.17238,0.34135 -0.12224,0.74924 -0.10295,1.11881 0,0 -1.32382,0.68419 -1.32382,0.68419 v 0 c -0.0251,-0.39671 -0.0687,-0.81061 0.0513,-1.19617 0.23669,-0.66953 1.25971,-1.25529 1.71426,-0.65053 0.19711,0.27489 0.37634,0.55112 0.14327,0.86808 -0.352,0.37207 -0.7739,0.66063 -1.21512,0.91974 -1.56935,0.92162 -1.24315,0.74229 -2.27098,1.27657 -1.48563,0.7045 -3.02641,1.28001 -4.62036,1.69084 -2.29412,0.60607 -4.60812,1.13398 -6.94063,1.57148 -2.99453,0.51597 -6.01147,0.87067 -9.05677,0.83257 -3.05276,0.0358 -6.1055,0.0834 -9.15847,0.0912 -2.41493,0.004 -4.83063,0.001 -7.24352,-0.11317 -2.44028,-0.10434 -4.87852,-0.25378 -7.31986,-0.33259 -2.68827,-0.0397 -5.37009,0.0874 -8.05603,0.18432 -2.80401,0.0583 -5.6083,0.099 -8.41143,0.19581 -2.67083,0.0703 -5.34805,0.17092 -8.01632,-0.0209 -2.21477,-0.19021 -4.40478,-0.53555 -6.56291,-1.07747 -1.8937,-0.44366 -3.77094,-0.94657 -5.63377,-1.50647 -1.9087,-0.52226 -3.82656,-1.00964 -5.75802,-1.44109 -2.02455,-0.44864 -4.05178,-0.89032 -6.09686,-1.23653 -2.03806,-0.31688 -4.0819,-0.60542 -6.14042,-0.75265 -2.13606,-0.14606 -4.27566,-0.24827 -6.41724,-0.25133 -1.915387,-0.0107 -3.832257,-0.006 -5.745074,0.10587 -1.77048,0.12059 -3.53604,0.2947 -5.297137,0.51375 -1.61703,0.19834 -3.23327,0.40876 -4.83774,0.69365 -1.328927,0.24007 -2.651267,0.51241 -3.976927,0.76941 -1.22994,0.21291 -2.472317,0.3638 -3.723297,0.27461 -1.19622,-0.0818 -2.38242,-0.24312 -3.562607,-0.45521 -1.00459,-0.17502 -2.00726,-0.36721 -2.99005,-0.6425 -0.74095,-0.20936 -1.47767,-0.44044 -2.177997,-0.76418 -0.38587,-0.18047 -0.79262,-0.34845 -1.10695,-0.64459 0,0 1.2852,-0.78305 1.2852,-0.78305 z"
       inkscape:connector-curvature="0" />
    <path
       style="opacity:1;fill:#000000;fill-opacity:1;stroke:#000000;stroke-width:1;stroke-miterlimit:4;stroke-dasharray:none;stroke-dashoffset:0.57106102;stroke-opacity:1"
       id="path969"
       d="m 209.45725,125.90806 c -0.003,0.23561 -0.003,0.47123 -0.003,0.70684 -0.003,0.4628 -0.004,0.92561 -0.005,1.38842 0,0.62393 -0.003,1.24788 -0.003,1.87181 0.0429,0.77338 -0.068,1.534 -0.19052,2.29454 -0.15071,0.90478 -0.27509,1.81343 -0.42048,2.71904 -0.18058,1.1726 -0.3389,2.34862 -0.4926,3.52501 -0.17822,1.36215 -0.31681,2.72898 -0.47699,4.09325 -0.16714,1.35972 -0.32756,2.72023 -0.47694,4.08201 -0.1533,1.44725 -0.28202,2.89679 -0.43347,4.34422 -0.16168,1.52318 -0.31176,3.04754 -0.45344,4.5727 -0.13817,1.60327 -0.27472,3.20661 -0.41799,4.80944 -0.14417,1.60234 -0.27641,3.2057 -0.40301,4.80952 -0.12362,1.56263 -0.23207,3.12639 -0.33541,4.69047 -0.1,1.52164 -0.18992,3.04391 -0.27599,4.56639 -0.0849,1.49556 -0.15822,2.99174 -0.22855,4.48804 -0.0654,1.47447 -0.13877,2.9487 -0.18036,4.42407 -0.0297,1.46766 0.0754,2.93313 0.16002,4.39733 0.0905,1.58514 0.16676,3.17103 0.2387,4.7571 0.0818,1.61098 0.13354,3.22288 0.16764,4.83549 0.035,1.51639 0.0199,3.03338 0.0106,4.54999 0.007,1.52786 -0.0747,3.05394 -0.14444,4.57965 -0.0724,1.48318 -0.19153,2.96318 -0.31425,4.44283 0,0 -1.29521,0.64649 -1.29521,0.64649 v 0 c 0.12285,-1.47861 0.24336,-2.95747 0.31943,-4.43941 0.0696,-1.52382 0.15187,-3.04803 0.14597,-4.57396 0.008,-1.51584 0.0254,-3.03205 -0.007,-4.5477 -0.0326,-1.612 -0.0797,-3.2234 -0.16325,-4.83369 -0.0731,-1.58445 -0.14997,-3.16876 -0.24445,-4.7521 -0.0861,-1.46792 -0.19103,-2.93714 -0.16528,-4.40857 0.0394,-1.47634 0.11361,-2.95143 0.17941,-4.42678 0.0708,-1.49676 0.14356,-2.99346 0.22839,-4.4895 0.0867,-1.52328 0.17695,-3.04636 0.2777,-4.56878 0.10369,-1.56476 0.21096,-3.12931 0.3355,-4.69257 0.12692,-1.60465 0.26005,-3.2088 0.4046,-4.81197 0.14308,-1.60215 0.27876,-3.20483 0.41346,-4.80769 0.14055,-1.52568 0.29197,-3.05033 0.45249,-4.57404 0.14946,-1.4467 0.27691,-2.89538 0.4273,-4.34199 0.14777,-1.36234 0.30869,-2.72317 0.47644,-4.08319 0.16174,-1.36408 0.29919,-2.73102 0.47403,-4.09359 0.15039,-1.17531 0.30342,-2.35048 0.47773,-3.52251 0.14327,-0.90465 0.26699,-1.81197 0.41373,-2.71606 0.12181,-0.75265 0.24331,-1.50454 0.19537,-2.27048 0,-0.6231 -0.003,-1.24619 -0.003,-1.86928 0,-0.46126 -0.003,-0.92252 -0.005,-1.38377 0,-0.23442 -0.003,-0.46884 -0.003,-0.70326 0,0 1.34197,-0.68376 1.34197,-0.68376 z"
       inkscape:connector-curvature="0" />
  </g>
</svg>
