<?xml version="1.0" encoding="UTF-8" standalone="no"?>
<!-- Created with Inkscape (http://www.inkscape.org/) -->

<svg
   width="100"
   height="100.00094"
   id="svg2826"
   version="1.1"
   inkscape:version="1.1.2 (0a00cf5339, 2022-02-04)"
   sodipodi:docname="apps.svg"
   inkscape:export-filename="/home/mp15688/git/perellonieto.github.io.backup/images/apps.png"
   inkscape:export-xdpi="90"
   inkscape:export-ydpi="90"
   xmlns:inkscape="http://www.inkscape.org/namespaces/inkscape"
   xmlns:sodipodi="http://sodipodi.sourceforge.net/DTD/sodipodi-0.dtd"
   xmlns="http://www.w3.org/2000/svg"
   xmlns:svg="http://www.w3.org/2000/svg"
   xmlns:rdf="http://www.w3.org/1999/02/22-rdf-syntax-ns#"
   xmlns:cc="http://creativecommons.org/ns#"
   xmlns:dc="http://purl.org/dc/elements/1.1/">
  <defs
     id="defs2828">
    <inkscape:perspective
       sodipodi:type="inkscape:persp3d"
       inkscape:vp_x="0 : 526.18109 : 1"
       inkscape:vp_y="0 : 1000 : 0"
       inkscape:vp_z="744.09448 : 526.18109 : 1"
       inkscape:persp3d-origin="372.04724 : 350.78739 : 1"
       id="perspective2833" />
  </defs>
  <sodipodi:namedview
     id="base"
     pagecolor="#ffffff"
     bordercolor="#666666"
     borderopacity="1.0"
     inkscape:pageopacity="0.0"
     inkscape:pageshadow="2"
     inkscape:zoom="5.6"
     inkscape:cx="62.5"
     inkscape:cy="29.553571"
     inkscape:document-units="px"
     showgrid="false"
     inkscape:window-width="1850"
     inkscape:window-height="1016"
     inkscape:window-x="1750"
     inkscape:window-y="27"
     inkscape:window-maximized="1"
     inkscape:current-layer="layer1"
     inkscape:pagecheckerboard="0" />
  <metadata
     id="metadata2831">
    <rdf:RDF>
      <cc:Work
         rdf:about="">
        <dc:format>image/svg+xml</dc:format>
        <dc:type
           rdf:resource="http://purl.org/dc/dcmitype/StillImage" />
        <dc:title />
      </cc:Work>
    </rdf:RDF>
  </metadata>
  <g
     inkscape:groupmode="layer"
     id="layer1"
     inkscape:label="Capa"
     transform="translate(-268.25817,-575.08175)">
    <path
       style="fill:#000000;stroke:#000000;stroke-width:1.51181"
       d="m 280.00534,649.57169 c 14.7177,2.62118 29.21411,6.50104 43.94016,9.43057 1.86322,0.37066 2.57452,2.73189 4.90108,2.203"
       id="path1101" />
    <path
       style="fill:#000000;stroke:#000000;stroke-width:1.51181"
       d="m 305.22598,585.54048 c -0.54842,4.28972 -3.11128,6.68515 -5.48344,10.05178 -2.53138,3.5926 -6.39725,9.80646 -8.25418,13.9704 -2.01307,4.51407 -2.22714,8.34768 -4.0254,12.16582 -0.87592,1.8598 -2.01307,3.27747 -2.54612,5.28268 -0.86928,3.26998 -2.42479,6.59026 -3.0597,9.82822 -0.43007,2.19334 -0.39472,9.13963 -1.88398,10.74616 -0.48612,0.5244 -0.33783,-1.40337 -0.33783,-2.11843"
       id="path1103" />
    <path
       style="fill:#000000;stroke:#000000;stroke-width:1.51181"
       d="m 305.22598,585.54048 c 6.24231,-2.11911 3.19402,-1.76999 10.38347,-1.05273 11.3078,1.12812 21.98539,3.7816 32.42018,8.05957 1.37481,0.56363 10.95404,1.62351 8.71316,2.04023"
       id="path1105" />
    <path
       style="fill:#000000;stroke:#000000;stroke-width:1.51181"
       d="m 356.74279,594.58755 c -8.92343,16.10739 -19.88397,31.23742 -22.83146,49.80488 -0.13529,0.85224 -2.04105,12.97281 -2.06818,12.99443 -0.44646,0.35564 -3.15987,2.15648 -3.24986,2.53449 -0.10741,0.45119 -0.0154,1.54126 -0.38709,1.91434 -0.21143,0.21219 0.35546,-0.72289 0.64038,-0.63043"
       id="path1107" />
    <path
       style="fill:#000000;stroke:#000000;stroke-width:1.51181"
       d="m 322.40354,591.58774 c 2.28054,0.53948 8.53815,-0.23689 9.89083,1.60219"
       id="path1109" />
    <path
       style="fill:#000000;stroke:#000000;stroke-width:1.51181"
       d="m 304.8265,647.3396 c -7.79263,0.14447 0.83941,6.54592 0.83941,1.7007 0,-1.51079 -0.40121,-1.49219 -2.12821,-2.31395"
       id="path1111" />
    <circle
       style="fill:none;stroke:#000000;stroke-width:1.912;stroke-miterlimit:4;stroke-dasharray:none"
       id="path2083"
       cx="322.45193"
       cy="611.63257"
       r="7.5773635" />
    <ellipse
       style="fill:none;stroke:#000000;stroke-width:1.203;stroke-miterlimit:4;stroke-dasharray:none"
       id="path2083-3"
       cx="322.45193"
       cy="611.63257"
       rx="12.491631"
       ry="12.599672" />
    <ellipse
       style="fill:none;stroke:#000000;stroke-width:0.589;stroke-miterlimit:4;stroke-dasharray:none"
       id="path2083-3-6"
       cx="322.45193"
       cy="611.63257"
       rx="16.474066"
       ry="16.672859" />
    <path
       style="fill:#000000;stroke:#ffffff;stroke-width:1.51181"
       d="m 324.65459,650.47598 c -3.24771,-1.43455 -18.96782,-13.65386 -17.43596,-5.98556 1.29705,6.49285 9.0283,13.55413 14.07737,15.68018 3.03392,1.27752 3.80132,4.10535 6.17798,5.64885 5.03378,3.26914 13.72977,5.6311 19.67403,3.64279 2.10264,-0.70331 5.69829,-3.23822 7.59953,-4.53157 5.63241,-9.64795 3.5512,-26.47084 -3.12688,-32.08783 -0.98024,-0.63944 -9.62179,-0.29738 -10.20068,-1.1543 -0.35345,-0.52322 -9.53182,4.58081 -11.13911,3.35803 -0.46069,-0.35048 -1.20872,-8.6526 -2.29037,-13.3178 -0.49615,-2.13993 -1.54058,-13.92647 -6.64799,-12.7564 -5.18656,1.18821 -0.61481,27.03224 -0.61481,27.03224"
       id="path1234"
       sodipodi:nodetypes="cssssccssssc" />
  </g>
</svg>
