<?xml version="1.0" encoding="UTF-8" standalone="no"?>
<!-- Created with Inkscape (http://www.inkscape.org/) -->

<svg
   xmlns:dc="http://purl.org/dc/elements/1.1/"
   xmlns:cc="http://creativecommons.org/ns#"
   xmlns:rdf="http://www.w3.org/1999/02/22-rdf-syntax-ns#"
   xmlns:svg="http://www.w3.org/2000/svg"
   xmlns="http://www.w3.org/2000/svg"
   xmlns:sodipodi="http://sodipodi.sourceforge.net/DTD/sodipodi-0.dtd"
   xmlns:inkscape="http://www.inkscape.org/namespaces/inkscape"
   width="100"
   height="100.00094"
   id="svg2826"
   version="1.1"
   inkscape:version="0.47 r22583"
   sodipodi:docname="pictures.svg"
   inkscape:export-filename="/home/maikel/Documentos/perellonieto.com/images/pictures.png"
   inkscape:export-xdpi="90"
   inkscape:export-ydpi="90">
  <defs
     id="defs2828">
    <inkscape:perspective
       sodipodi:type="inkscape:persp3d"
       inkscape:vp_x="0 : 526.18109 : 1"
       inkscape:vp_y="0 : 1000 : 0"
       inkscape:vp_z="744.09448 : 526.18109 : 1"
       inkscape:persp3d-origin="372.04724 : 350.78739 : 1"
       id="perspective2833" />
  </defs>
  <sodipodi:namedview
     id="base"
     pagecolor="#ffffff"
     bordercolor="#666666"
     borderopacity="1.0"
     inkscape:pageopacity="0.0"
     inkscape:pageshadow="2"
     inkscape:zoom="2.8"
     inkscape:cx="7.3719432"
     inkscape:cy="51.908939"
     inkscape:document-units="px"
     showgrid="false"
     inkscape:window-width="1366"
     inkscape:window-height="692"
     inkscape:window-x="1440"
     inkscape:window-y="158"
     inkscape:window-maximized="1"
     inkscape:current-layer="layer1" />
  <metadata
     id="metadata2831">
    <rdf:RDF>
      <cc:Work
         rdf:about="">
        <dc:format>image/svg+xml</dc:format>
        <dc:type
           rdf:resource="http://purl.org/dc/dcmitype/StillImage" />
        <dc:title></dc:title>
      </cc:Work>
    </rdf:RDF>
  </metadata>
  <g
     inkscape:groupmode="layer"
     id="layer1"
     inkscape:label="Capa"
     transform="translate(-268.25817,-575.08175)">
    <path
       style="fill:#000000"
       id="path3285"
       d="m 273.59309,645.45322 c 0.90661,2.3465 1.75161,4.7162 2.61647,7.07849 0.98656,2.59858 1.88682,5.22496 2.71583,7.87745 0.5149,1.57233 0.99302,3.15409 1.47283,4.73687 0.25312,0.99475 0.57659,1.96925 0.83428,2.96184 0.15922,1.20004 0.42131,2.38187 0.62034,3.57546 0.14655,0.844 0.12926,0.87539 0.79788,0.50007 1.37721,-0.92094 3.70761,-2.09805 -2.88123,1.62365 -0.24342,0.13749 0.47461,-0.29562 0.70969,-0.44691 0.82733,-0.53244 0.82864,-0.54483 1.66627,-1.12675 1.68149,-1.08756 3.19694,-2.39937 4.80256,-3.58796 0.42462,-0.27213 1.03292,-0.66991 1.47294,-0.92064 1.65115,-0.94088 3.30798,-1.87178 4.96579,-2.80088 5.00453,-2.80474 -14.16749,8.16558 2.34344,-1.3191 1.26495,-0.51509 2.43264,-1.23687 3.71327,-1.71293 0.9626,-0.55174 1.96983,-1.01634 2.94231,-1.5489 1.03148,-0.4844 2.0118,-1.06767 3.0823,-1.46464 0.14593,-0.0791 0.29186,-0.15818 0.43778,-0.23728 0,0 -3.87983,3.09998 -3.87983,3.09998 l 0,0 c -0.1515,0.0676 -0.30299,0.13513 -0.45448,0.20269 -1.03803,0.45196 -2.03039,1.0002 -3.04474,1.50206 -0.98876,0.51077 -1.96804,1.04459 -2.97893,1.50932 -1.23257,0.529 -2.41763,1.16437 -3.63293,1.73132 11.94137,-6.93112 -10.63979,6.16002 1.08123,-0.72883 0.49767,-0.29249 -1.99349,1.19455 -1.48647,0.88851 -1.66312,1.12241 -3.1235,2.53327 -4.83266,3.59911 -2.51001,1.81712 -5.15825,3.52601 -7.98454,4.78933 -0.84217,0.0817 -1.16088,-0.42499 -1.2163,-1.23302 -0.18073,-1.18037 -0.45127,-2.34373 -0.61077,-3.52712 -0.25611,-0.98921 -0.57271,-1.9598 -0.80546,-2.95614 -0.4725,-1.58965 -0.87876,-3.20015 -1.38507,-4.78092 -0.80517,-2.6542 -1.64977,-5.29451 -2.65361,-7.88202 -0.87163,-2.3547 -1.69537,-4.73611 -2.79545,-6.99687 0,0 4.36726,-2.40524 4.36726,-2.40524 z" />
    <path
       style="fill:#000000"
       id="path3287"
       d="m 275.13497,645.14818 c 1.63823,-0.89885 3.39765,-1.56751 5.10925,-2.31603 2.25472,-0.98713 4.54153,-1.89669 6.80984,-2.85039 1.66419,-0.53887 3.23156,-1.32327 4.86113,-1.9455 1.46284,-0.67927 2.92196,-1.35495 4.47822,-1.79428 1.47167,-0.43495 2.86908,-1.07486 4.32205,-1.56065 -0.30581,0.2144 1.39513,-0.7253 1.05491,-0.5281 -8.32759,4.8268 -0.694,0.31467 2.13131,-1.15118 1.52245,-0.74675 1.5933,-0.94787 2.38591,0.75046 0.78732,2.2901 1.24401,4.66229 1.56872,7.05595 0.30532,2.4525 0.39429,4.92354 0.46098,7.39176 0.0403,1.33441 0.33153,2.62316 0.65131,3.91068 0.13081,0.97873 0.63429,1.8099 1.0583,2.67698 0.35849,0.70039 0.21209,0.34425 0.4455,1.06583 0,0 -4.35839,2.37582 -4.35839,2.37582 l 0,0 c -0.15682,-0.6489 -0.0367,-0.31472 -0.39416,-0.98977 -0.45582,-0.89451 -0.99173,-1.7509 -1.11295,-2.77419 -0.31516,-1.33311 -0.62054,-2.66006 -0.63925,-4.04057 -0.0103,-2.46302 -0.0722,-4.9296 -0.36098,-7.37818 -0.32005,-2.33426 -0.78379,-4.63949 -1.61475,-6.85252 -0.0166,-0.032 -0.29775,-0.66974 -0.46797,-0.75903 -0.20507,-0.10758 -1.24617,0.61895 -1.48567,0.66237 -0.35014,0.17577 -1.3843,0.73344 -1.04668,0.53469 1.22622,-0.72185 4.9339,-2.83735 3.6942,-2.1389 -1.93021,1.08748 -3.77792,2.42453 -5.86627,3.22178 -1.43591,0.51425 -2.84672,1.10174 -4.31286,1.52965 -1.53133,0.49885 -2.97817,1.19095 -4.45449,1.82818 -1.59676,0.66252 -3.18727,1.33743 -4.81678,1.91888 -2.2755,0.92627 -4.54323,1.86915 -6.79553,2.85121 -1.75715,0.76706 -3.5171,1.5266 -5.24213,2.36386 0,0 3.93723,-3.05881 3.93723,-3.05881 z" />
    <path
       style="fill:#000000"
       id="path3289"
       d="m 276.67165,645.43004 c 1.79649,0.61466 3.49677,1.4782 5.24491,2.21781 1.58689,0.68598 3.18892,1.3639 4.84113,1.87873 1.21658,0.3546 2.30703,0.97786 3.42343,1.55697 1.1759,0.81791 1.87325,0.77992 3.17443,0.38659 1.51626,-0.83234 4.24716,-1.92035 -2.78934,1.56991 -0.20188,0.10014 0.3316,-0.30529 0.49352,-0.46201 0.53742,-0.52018 0.51803,-0.51833 1.03424,-1.0886 1.19775,-1.32851 2.15666,-2.84614 3.16063,-4.32073 0.72264,-1.31253 1.63635,-2.49435 2.50486,-3.70913 0.74246,-1.02546 1.45412,-2.07584 2.04176,-3.19873 0.18087,-0.44264 0.36848,-0.88228 0.56119,-1.31986 0,0 4.52166,-2.07466 4.52166,-2.07466 l 0,0 c -0.19362,0.44962 -0.43568,0.8759 -0.56863,1.34989 -0.54644,1.16664 -1.28286,2.23193 -2.03148,3.27592 -0.84844,1.23817 -1.84511,2.37414 -2.53932,3.71501 -0.99416,1.48661 -1.96883,2.99876 -3.12094,4.3685 -1.88257,2.2614 -4.39972,3.96289 -7.20452,4.91138 -1.34999,0.30147 -2.20873,0.0603 -3.36811,-0.69692 -1.09299,-0.57669 -2.19651,-1.1205 -3.38094,-1.48905 -1.62847,-0.57132 -3.21462,-1.26066 -4.79054,-1.9619 -1.73941,-0.74787 -3.45794,-1.61656 -5.30892,-2.05153 0,0 4.10098,-2.85759 4.10098,-2.85759 z" />
    <path
       style="fill:#000000"
       id="path3303"
       d="m 308.51953,612.50219 c 1.47973,-0.002 2.81448,0.66771 4.03227,1.44417 1.28808,0.89715 2.41772,1.98922 3.63541,2.97532 0.9327,0.64309 1.9377,1.17428 2.94462,1.69275 0.95297,0.55015 1.82304,1.22465 2.73276,1.84019 0,0 -4.14174,2.64387 -4.14174,2.64387 l 0,0 c -0.8874,-0.61846 -1.75168,-1.27911 -2.72036,-1.76941 -1.04291,-0.51647 -2.06576,-1.08368 -2.99491,-1.78838 -1.18985,-0.98291 -2.29054,-2.0778 -3.58145,-2.93255 -1.20616,-0.72063 -2.50582,-1.26867 -3.94289,-1.17342 0,0 4.03629,-2.93254 4.03629,-2.93254 z" />
    <path
       style="fill:#000000"
       id="path3305"
       d="m 320.22023,623.80231 c 0.8429,-0.7486 1.72492,-1.43935 2.6692,-2.05543 1.58427,-0.89803 3.17053,-1.79257 4.75281,-2.69411 0.151,-0.086 0.29794,-0.17901 0.4469,-0.26851 -1.25081,0.72087 -5.02057,2.85254 -3.75244,2.16261 1.60161,-0.87136 3.15711,-1.82538 4.75309,-2.70702 0.34985,-0.19326 0.74255,-0.29598 1.11406,-0.44336 1.42791,-0.67108 2.86527,-1.33544 4.34157,-1.8947 1.51185,-0.62504 2.96237,-1.39749 4.52665,-1.88811 1.236,-0.45944 2.49942,-0.84984 3.72484,-1.3357 0.99876,-0.46941 2.06407,-0.74248 3.09888,-1.1093 0.94011,-0.22398 1.79274,-0.66526 2.73376,-0.88486 0.9723,-0.40981 2.0092,-0.64011 2.98173,-1.04115 0.6173,-0.2343 0.33521,-0.10938 0.8511,-0.36362 0,0 -3.90678,3.09501 -3.90678,3.09501 l 0,0 c -0.52021,0.20397 -0.23785,0.0956 -0.84789,0.32296 -1.00948,0.33649 -2.00987,0.69662 -3.02479,1.01618 -0.908,0.27951 -1.78399,0.65536 -2.70463,0.89825 -1.0462,0.32462 -2.06147,0.71534 -3.07977,1.1185 -1.23637,0.43812 -2.46988,0.8835 -3.71204,1.30517 -1.52932,0.55608 -2.9841,1.28937 -4.49409,1.89373 -1.47332,0.60549 -2.92309,1.26602 -4.37218,1.92648 -0.19474,0.0821 -0.39114,0.1603 -0.58423,0.24617 -0.17105,0.0761 -0.66853,0.33578 -0.50796,0.23955 1.23489,-0.74007 4.98705,-2.87937 3.73297,-2.17229 -1.58678,0.89467 -3.15131,1.82829 -4.73119,2.73511 -0.14949,0.0858 -0.60488,0.33056 -0.45665,0.2426 1.24004,-0.73579 2.48834,-1.45759 3.73252,-2.18638 -0.95369,0.55205 -1.87841,1.19405 -2.63991,1.99477 0,0 -4.64553,1.84745 -4.64553,1.84745 z" />
    <path
       style="fill:#000000"
       id="path3307"
       d="m 318.60583,619.24711 c 0.23348,-1.50918 0.50822,-3.01226 0.72486,-4.52431 0.17809,-1.46468 0.45955,-2.91191 0.62118,-4.37914 0.1236,-1.32595 0.13773,-2.65839 0.15417,-3.98894 -0.27178,-1.38104 -0.56403,-2.76201 -0.85994,-4.13979 -0.31473,-1.17891 -0.60939,-2.37775 -1.00735,-3.53234 -0.35525,-1.07812 -0.89515,-2.07984 -1.42666,-3.07855 -0.49507,-1.14279 -1.21752,-2.15145 -2.04788,-3.07197 -0.65817,-0.785 -1.60193,-1.11497 -2.53612,-1.44872 -0.96986,-0.23238 -1.83889,-0.6518 -2.67471,0.0654 9.71029,-5.55347 4.48605,-2.95096 3.6019,-1.95073 -0.48688,0.55079 -0.84228,1.24296 -1.2122,1.87286 -0.66926,1.1369 -0.87924,2.41782 -1.00708,3.70867 -0.0857,1.50638 -0.31065,2.99947 -0.44134,4.5023 -0.0931,1.12214 -0.11406,2.24818 -0.12443,3.37355 -0.006,1.11228 -0.01,2.22453 -0.007,3.33683 -0.11318,1.22733 0.0786,2.35489 0.42471,3.5234 0.25929,0.60323 0.10442,0.33047 0.45074,0.826 0,0 -4.28663,2.51334 -4.28663,2.51334 l 0,0 c -0.38949,-0.6015 -0.21821,-0.28025 -0.50711,-0.96729 -0.36182,-1.23338 -0.62255,-2.34485 -0.49405,-3.64663 1.1e-4,-1.11228 -0.01,-2.2245 -0.005,-3.33677 0.0106,-1.14145 0.0324,-2.28369 0.13196,-3.42151 0.13742,-1.50223 0.37721,-2.9957 0.44566,-4.5023 0.0967,-1.34471 0.27792,-2.68062 0.89554,-3.90019 1.91259,-3.24089 1.07802,-2.3402 6.00777,-5.06113 0.97002,-0.32473 1.97413,-0.0127 2.918,0.29175 0.99872,0.38745 1.96986,0.79933 2.66372,1.65826 0.82659,0.96958 1.57461,2.00198 2.08421,3.17761 0.56233,1.01177 1.12063,2.03865 1.49276,3.138 0.39603,1.17699 0.67282,2.40268 1.00035,3.59958 0.31394,1.40938 0.58026,2.82953 0.91605,4.23411 -0.002,1.34519 -0.0158,2.69166 -0.13646,4.03249 -0.13977,1.47826 -0.44114,2.92947 -0.61949,4.40152 -0.2209,1.50165 -0.52686,2.9904 -0.65929,4.50373 0,0 -4.48138,2.19092 -4.48138,2.19092 z" />
    <path
       style="fill:#000000"
       id="path3309"
       d="m 316.55122,585.54918 c 1.7831,-0.6976 3.6142,-1.25915 5.45072,-1.79905 2.00597,-0.5993 4.05727,-0.98517 6.10072,-1.42092 1.63734,-0.3846 3.27902,-0.74006 4.91695,-1.12349 1.57646,-0.46639 3.18279,-0.83091 4.75482,-1.31071 1.30109,-0.42095 2.59357,-0.83595 3.94447,-1.06367 1.11339,-0.30593 2.24556,-0.53733 3.37779,-0.75982 1.22703,-0.20264 2.42508,-0.53191 3.58877,-0.96295 1.07883,-0.22107 2.14756,-0.47738 3.22665,-0.70053 1.08969,-0.14219 2.14235,-0.43298 3.23169,-0.58394 0.78117,-0.0996 2.07229,-0.65309 2.83565,-0.56601 0.20414,0.0233 0.38878,0.13309 0.58317,0.19964 1.03588,0.57146 1.77489,1.4518 2.50799,2.35257 0.73053,0.89538 1.05585,1.9584 1.22955,3.07935 0.0962,1.29749 0.26338,2.58811 0.37867,3.88418 0.12655,1.49986 0.17248,3.00523 0.20356,4.50965 0.0193,1.21521 0.0159,2.43075 0.009,3.64606 -0.005,1.50294 -0.0174,3.00576 -0.0118,4.50872 0.0114,1.27523 0.0115,2.55043 0.011,3.82568 -0.003,1.25046 -0.002,2.5009 0.002,3.75137 -0.006,1.01713 -0.002,2.0343 8.9e-4,3.05144 0,0 -4.41282,2.24844 -4.41282,2.24844 l 0,0 c 0.003,-1.01744 0.007,-2.03491 8.9e-4,-3.05234 0.004,-1.25129 0.006,-2.50255 0.002,-3.75383 -4.4e-4,-1.27912 -2.9e-4,-2.55821 0.0116,-3.83731 0.006,-1.49988 -0.005,-2.99964 -0.007,-4.49952 -0.005,-1.21312 -0.001,-2.42626 -0.006,-3.63939 -0.01,-1.49746 -0.0339,-2.99603 -0.16013,-4.48905 -0.12069,-1.28305 -0.34116,-2.55196 -0.4129,-3.83809 -0.13476,-1.03938 -0.40067,-2.02456 -1.08547,-2.84983 -0.67279,-0.81095 -1.34228,-1.65104 -2.33933,-2.07719 -1.1214,-0.11688 -2.19977,0.35192 -3.30029,0.5152 -1.07816,0.18203 -2.13954,0.44939 -3.22123,0.61342 -1.06661,0.24005 -2.14845,0.42733 -3.19176,0.75504 -1.17342,0.40229 -2.39259,0.65651 -3.60876,0.89302 -1.13202,0.25054 -2.2667,0.48651 -3.39407,0.75728 -1.32531,0.26512 -2.59824,0.70177 -3.89209,1.08589 -1.58593,0.43575 -3.17352,0.8653 -4.76407,1.28421 -1.63547,0.37598 -3.27203,0.74758 -4.91144,1.10436 -2.03245,0.40634 -4.05687,0.83569 -6.04504,1.43124 -1.86923,0.56559 -3.72611,1.16934 -5.54216,1.88969 0,0 3.93723,-3.05881 3.93723,-3.05881 z" />
    <path
       style="fill:#000000"
       id="path3313"
       d="m 314.04899,601.70183 c 0.85618,0.7317 1.86473,1.25547 2.81095,1.86143 0.89352,0.57376 1.8185,0.99905 2.85746,1.21752 0.49009,0.0611 0.96482,0.10903 1.4444,0.22746 0,0 -4.08511,2.83726 -4.08511,2.83726 l 0,0 c -0.48057,-0.0876 -0.96544,-0.13738 -1.44293,-0.24247 -1.05926,-0.28495 -2.02052,-0.76357 -2.94217,-1.35785 -0.96574,-0.60855 -1.95233,-1.18786 -2.86779,-1.87095 0,0 4.22519,-2.6724 4.22519,-2.6724 z" />
    <path
       style="fill:#000000"
       id="path3327"
       d="m 336.64583,616.73398 c -0.0666,2.16717 -0.0693,4.33581 -0.0787,6.50382 0.079,2.69612 -0.12715,5.38279 -0.28582,8.07145 -0.11814,2.07886 -0.161,4.16111 -0.17348,6.243 -0.006,1.64101 -0.009,3.28206 1.7e-4,4.92307 0.0129,1.29951 0.0147,2.59903 0.009,3.89857 -0.002,1.40161 -0.003,2.80322 -0.001,4.20483 0.004,1.18765 0.01,2.3753 0.0123,3.56296 0.005,1.11916 -6.9e-4,2.23831 -0.009,3.35745 -0.008,1.34548 -0.003,2.69094 0.002,4.03642 0.0124,1.23598 -0.005,2.4718 -0.005,3.70777 -0.0128,0.99091 0.0457,1.98309 -0.0327,2.97161 0,0 -4.45248,2.20048 -4.45248,2.20048 l 0,0 c 0.1653,-0.96647 0.0494,-1.95462 0.0882,-2.93171 4.7e-4,-1.23431 -0.0173,-2.46847 -0.005,-3.70278 0.006,-1.34631 0.0103,-2.6926 0.002,-4.03892 -0.008,-1.1162 -0.0132,-2.23242 -0.009,-3.34866 0.003,-1.19185 0.008,-2.3837 0.0124,-3.57555 0.002,-1.40099 6.6e-4,-2.80197 -0.002,-4.20296 -0.007,-1.30157 -0.006,-2.60314 0.004,-3.9047 0.007,-1.64646 -0.001,-3.29294 0.019,-4.93933 0.0338,-2.09814 0.0831,-4.19615 0.2148,-6.29091 0.16756,-2.68362 0.41841,-5.36501 0.32265,-8.05727 -0.009,-2.14127 -0.0113,-4.28322 -0.0787,-6.42362 0,0 4.44534,-2.26502 4.44534,-2.26502 z" />
    <path
       style="fill:#000000"
       id="path3329"
       d="m 341.73763,614.67732 c 0.1703,1.93885 0.27489,3.87957 0.48385,5.81498 0.2483,2.0944 0.34702,4.20096 0.403,6.30788 0.0377,1.9298 0.0386,3.86006 0.0489,5.79013 0.007,1.31493 0.0222,2.62985 0.0157,3.94479 -0.004,1.16979 0.007,2.33956 -1.7e-4,3.50933 0.001,1.20393 -7.3e-4,2.40784 -0.002,3.61177 -0.009,1.37821 -0.008,2.75644 -0.002,4.13467 0.01,1.16436 0.006,2.3287 0.004,3.49306 0.001,1.22279 -0.003,2.44552 -1.6e-4,3.66831 0.007,1.23565 -0.004,2.47128 -0.005,3.70693 0.002,1.18472 0.007,2.36943 0.0103,3.55415 -0.006,1.26998 -0.007,2.53999 -0.0124,3.80998 -5.8e-4,0.86949 0.004,1.73898 0.007,2.60846 0,0 -4.40844,2.24621 -4.40844,2.24621 l 0,0 c 0.003,-0.87195 0.008,-1.74391 0.007,-2.61588 -0.005,-1.26578 -0.006,-2.53156 -0.0124,-3.79733 0.003,-1.1882 0.008,-2.37641 0.0103,-3.56462 -9.3e-4,-1.23383 -0.0126,-2.46763 -0.005,-3.70147 0.003,-1.22273 -0.001,-2.44542 -1.6e-4,-3.66815 -0.002,-1.16569 -0.006,-2.33137 0.004,-3.49706 0.006,-1.37747 0.006,-2.75494 -0.002,-4.1324 -0.001,-1.20325 -0.003,-2.40649 -0.002,-3.60974 -0.007,-1.1701 0.004,-2.3402 0.001,-3.51031 -0.005,-1.32156 0.0149,-2.64304 0.0236,-3.96456 0.0113,-1.93054 0.0159,-3.8613 -0.019,-5.79165 -0.0482,-2.096 -0.13239,-4.19254 -0.37453,-6.27662 -0.21048,-1.91048 -0.30526,-3.83086 -0.57945,-5.73314 0,0 4.40658,-2.33772 4.40658,-2.33772 z" />
    <path
       style="fill:#000000"
       id="path3331"
       d="m 331.76269,670.15281 c 0.0173,-0.97838 0.0155,-1.95699 0.0153,-2.93548 -0.006,-0.49889 0.005,-0.99817 -0.005,-1.49703 -0.005,-0.22677 -0.008,-0.45543 -0.0585,-0.67704 -0.0817,-0.0514 -0.33856,-0.20365 0.26004,-0.12486 0.048,0.006 -0.0207,0.0948 -0.0264,0.14297 -0.0102,0.086 -0.0159,0.1724 -0.0211,0.2588 -0.0169,0.28469 -0.0209,0.55066 -0.0283,0.83721 0.0173,0.90485 0.0932,1.81049 0.25091,2.70199 0.0552,0.19256 0.13524,0.62801 0.31803,0.75728 0.0192,0.0136 0.0448,0.0144 0.0673,0.0216 0.19735,-0.0985 -0.16594,0.0836 -0.1895,0.0848 -0.0376,0.002 0.0335,-0.0677 0.0455,-0.10338 0.0404,-0.11926 0.0533,-0.2469 0.0693,-0.37102 0.0216,-0.19276 -0.0239,-0.16991 0.30681,-0.22628 0.03,-0.005 -0.0439,0.0423 -0.0659,0.0634 0,0 -0.32476,0.13331 -0.32476,0.13331 l 0,0 c 0.13183,-0.12037 0.50649,-0.43721 0.39733,-0.12503 -0.0475,0.34936 -0.0535,0.68691 -0.53132,0.73982 -0.27957,-0.1357 -0.31235,-0.55656 -0.38916,-0.81726 -0.14661,-0.89627 -0.21742,-1.80483 -0.24481,-2.71215 0.004,-0.27571 0.005,-0.5563 0.015,-0.83226 0.003,-0.086 0.007,-0.17209 0.013,-0.25795 0.004,-0.0499 -0.0174,-0.11293 0.0171,-0.14923 0.29061,-0.30595 0.25881,-0.3193 0.36809,-0.18637 0.0422,0.22781 0.042,0.46121 0.0437,0.69252 0.004,0.50075 -0.0111,1.00167 -0.005,1.50245 -2.7e-4,0.9733 -0.002,1.94672 0.0153,2.9199 0,0 -0.31239,0.15918 -0.31239,0.15918 z" />
    <path
       style="fill:#000000"
       id="path3337"
       d="m 327.59207,669.2176 c -0.18188,-0.74963 -0.49286,-1.4641 -0.77689,-2.17968 0,0 1.20572,-0.67331 1.20572,-0.67331 l 0,0 c 0.29051,0.72082 0.6014,1.43965 0.81793,2.18642 0,0 -1.24676,0.66657 -1.24676,0.66657 z" />
    <path
       style="fill:#000000"
       id="path3339"
       d="m 328.6635,672.78903 c -0.18467,-1.44993 -0.59459,-2.8603 -0.92899,-4.28072 -0.30225,-1.27634 -0.70118,-2.52546 -1.09406,-3.77577 0,0 1.19787,-0.65654 1.19787,-0.65654 l 0,0 c 0.38603,1.25567 0.78796,2.50722 1.09566,3.78531 0.3426,1.4158 0.74992,2.82092 0.97627,4.26115 0,0 -1.24675,0.66657 -1.24675,0.66657 z" />
    <path
       style="fill:#000000"
       id="path3341"
       d="m 330.84249,669.91958 c 0.0149,-1.56241 0.0674,-3.12343 -0.0581,-4.68173 -0.20994,-1.50203 -0.53213,-2.98459 -0.76481,-4.48287 0,0 1.21843,-0.64406 1.21843,-0.64406 l 0,0 c 0.222,1.50502 0.5268,2.99558 0.75161,4.50018 0.13324,1.5529 0.0857,3.1089 0.11278,4.66652 0,0 -1.25992,0.64196 -1.25992,0.64196 z" />
    <path
       style="fill:#000000"
       id="path3345"
       d="m 331.55808,671.30477 c 0.0165,-1.49087 0.001,-2.98108 0.0655,-4.47085 0.0349,-1.11127 0.1569,-2.21693 0.27268,-3.32183 0.0704,-0.67144 0.12242,-1.31628 0.33142,-1.95892 0,0 1.27305,-0.59203 1.27305,-0.59203 l 0,0 c -0.26951,0.62967 -0.31428,1.26956 -0.38987,1.94813 -0.12271,1.10146 -0.24636,2.2045 -0.27553,3.31343 -0.0569,1.48004 -0.0354,2.96052 -0.0199,4.44143 0,0 -1.25733,0.64064 -1.25733,0.64064 z" />
    <path
       style="fill:#000000"
       id="path3347"
       d="m 334.49111,671.28418 c 0.76154,-2.02541 1.32762,-4.09403 1.77987,-6.20823 0.63151,-3.39807 1.08875,-6.82092 1.48656,-10.25282 0.0291,-0.2204 0.0583,-0.4408 0.0874,-0.6612 0,0 1.24145,-0.6088 1.24145,-0.6088 l 0,0 c -0.0394,0.22411 -0.0789,0.44822 -0.11835,0.67233 -0.472,3.43058 -0.89909,6.86713 -1.51152,10.27691 -0.205,1.00242 -0.3891,1.99881 -0.66171,2.98565 -0.29794,1.07853 -0.72846,2.11805 -1.02726,3.1967 0,0 -1.27644,0.59946 -1.27644,0.59946 z" />
    <path
       style="fill:#000000"
       id="path3349"
       d="m 338.73856,671.29429 c 0.1777,-1.45006 0.32409,-2.90575 0.45906,-4.36099 0.11958,-0.91223 0.17352,-1.83288 0.36291,-2.73506 0.0116,-0.0551 0.145,-0.65487 0.23669,-0.7087 0.42509,-0.24954 0.89176,-0.42031 1.33764,-0.63047 0,0 -1.18572,0.78332 -1.18572,0.78332 l 0,0 c 0.37976,-0.2417 0.742,-0.51342 1.13927,-0.7251 0.0697,-0.0371 -0.10775,0.11945 -0.13888,0.19206 -0.067,0.15639 -0.1123,0.32181 -0.15231,0.48719 -0.21682,0.89614 -0.2576,1.81735 -0.37825,2.72824 -0.12726,1.45101 -0.27858,2.8998 -0.41289,4.34983 0,0 -1.26752,0.61968 -1.26752,0.61968 z" />
    <path
       style="fill:#000000"
       id="path3351"
       d="m 341.19964,671.7053 c 0.055,-1.66805 0.40832,-3.31728 0.70119,-4.95694 0.37928,-1.57572 0.61259,-3.18252 0.95884,-4.76455 0.18185,-0.57343 -0.003,-0.12575 1.35516,-0.52297 0,0 -1.24633,0.6629 -1.24633,0.6629 l 0,0 c 1.26231,-0.90075 1.45609,-1.31748 1.1583,-0.74786 -0.42201,1.57197 -0.60593,3.20352 -1.01164,4.78044 -0.28708,1.62068 -0.63467,3.25723 -0.6556,4.90701 0,0 -1.25992,0.64197 -1.25992,0.64197 z" />
    <path
       style="fill:#000000"
       id="path3353"
       d="m 343.73627,671.33559 c 0.2082,-1.35228 0.27282,-2.72292 0.40052,-4.08503 0.0863,-1.22451 0.19968,-2.44455 0.4026,-3.65564 0,0 1.25507,-0.61104 1.25507,-0.61104 l 0,0 c -0.2409,1.20715 -0.34288,2.4314 -0.43475,3.65756 -0.12122,1.35914 -0.18983,2.72266 -0.35135,4.07731 0,0 -1.27209,0.61684 -1.27209,0.61684 z" />
    <path
       style="fill:#000000"
       id="path3355"
       d="m 341.91522,671.66192 c 0.3326,-1.63719 0.85918,-3.23227 1.37931,-4.81816 0.42168,-0.93353 0.55988,-2.13181 1.3681,-2.84019 0,0 1.31195,-0.52 1.31195,-0.52 l 0,0 c -0.91856,0.55688 -1.01622,1.90035 -1.4515,2.78259 -0.5153,1.5643 -1.01928,3.13994 -1.35053,4.75511 0,0 -1.25733,0.64065 -1.25733,0.64065 z" />
    <path
       style="fill:#000000"
       id="path3357"
       d="m 345.20795,670.88649 c 0.46554,-1.8478 0.762,-3.73129 1.0018,-5.61986 0.11886,-0.99577 0.18754,-1.99622 0.2635,-2.99581 0.0105,-0.13882 0.0373,-0.27717 0.0333,-0.41633 -8.8e-4,-0.0307 -0.0747,-0.0648 -0.0475,-0.079 0.36304,-0.18974 0.75245,-0.32406 1.12868,-0.48609 -0.076,0.11783 -0.15195,0.23567 -0.22792,0.3535 0,0 -1.27839,0.56961 -1.27839,0.56961 l 0,0 c 0.0655,-0.1289 0.13107,-0.25781 0.19661,-0.38672 0.47189,-0.25035 0.91979,-0.55241 1.41567,-0.75105 0.12653,-0.0507 0.0598,0.14259 0.0119,0.58141 -0.10974,1.00373 -0.16757,2.01239 -0.29011,3.01488 -0.23211,1.88337 -0.52269,3.7588 -0.93626,5.61164 0,0 -1.27131,0.60381 -1.27131,0.60381 z" />
    <path
       style="fill:#000000"
       id="path3359"
       d="m 335.05485,670.2071 c -0.40461,-1.71913 -1.0076,-3.38599 -1.66201,-5.02405 -0.62705,-1.46154 -1.31254,-2.91514 -2.12171,-4.2863 -0.6837,-0.1676 0.70721,-1.43031 1.17019,-0.4668 0,0 -1.2234,0.69888 -1.2234,0.69888 l 0,0 c -0.0543,-0.0998 -0.24442,-0.22016 -0.16303,-0.29949 1.05866,-1.03175 0.92342,-1.0557 1.42794,-0.63106 0.76827,1.40367 1.47351,2.84911 2.09165,4.3249 0.65663,1.63874 1.26629,3.30195 1.71613,5.01032 0,0 -1.23576,0.6736 -1.23576,0.6736 z" />
    <path
       style="fill:#000000"
       id="path3361"
       d="m 328.73627,669.90702 c 0.44157,-1.42641 0.82126,-2.86925 1.20711,-4.31173 0.52819,-1.7454 0.94036,-3.52159 1.3466,-5.29815 0.22343,-0.7671 -0.0136,-0.28913 1.43794,-0.703 0,0 -1.23358,0.68291 -1.23358,0.68291 l 0,0 c 1.2498,-0.96675 1.32689,-1.35797 1.04608,-0.58026 -0.44822,1.77262 -0.82922,3.56382 -1.36913,5.31252 -0.37789,1.43012 -0.74059,2.86326 -1.16293,4.28087 0,0 -1.27209,0.61684 -1.27209,0.61684 z" />
    <path
       style="fill:#000000"
       id="path3363"
       d="m 329.66485,672.85929 c -1.35174,-1.97606 -2.15979,-4.22104 -2.99001,-6.44659 -0.95816,-2.21167 -1.49901,-4.58423 -2.48607,-6.78164 -0.20832,-0.28641 -0.12878,-0.33413 -0.25306,-0.1157 0,0 1.11661,-0.87663 1.11661,-0.87663 l 0,0 c 0.27862,0.056 0.14032,-0.0149 0.34556,0.31309 0.91775,2.23272 1.48216,4.59733 2.42668,6.82223 0.82951,2.21008 1.64054,4.44516 3.05632,6.36359 0,0 -1.21603,0.72165 -1.21603,0.72165 z" />
    <path
       style="fill:#000000"
       id="path3365"
       d="m 328.62653,670.96746 c -0.56458,-1.70608 -0.82422,-3.48823 -1.03642,-5.26624 -0.13299,-1.2537 -0.19191,-2.51309 -0.27569,-3.77049 0,0 1.23145,-0.63544 1.23145,-0.63544 l 0,0 c 0.0459,1.26136 0.10875,2.52264 0.24028,3.77847 0.21126,1.76295 0.4674,3.53626 1.07563,5.2134 0,0 -1.23525,0.6803 -1.23525,0.6803 z" />
    <path
       style="fill:#000000"
       id="path3367"
       d="m 324.80998,669.50858 c 0.34695,-1.55573 0.61758,-3.12821 0.90405,-4.69618 0.0478,-0.28534 0.0956,-0.57067 0.14335,-0.85601 0,0 1.23039,-0.60112 1.23039,-0.60112 l 0,0 c -0.0491,0.28664 -0.0982,0.57328 -0.14735,0.85992 -0.28496,1.55837 -0.55284,3.12064 -0.86291,4.6737 0,0 -1.26753,0.61969 -1.26753,0.61969 z" />
    <path
       style="fill:#000000"
       id="path3369"
       d="m 340.12821,672.77672 c 0.16909,-1.5225 0.38714,-3.03706 0.52742,-4.56305 0.0731,-0.8444 0.1125,-1.69099 0.14982,-2.53752 0,0 1.23005,-0.6194 1.23005,-0.6194 l 0,0 c -0.0433,0.85029 -0.089,1.70051 -0.1597,2.54908 -0.13596,1.51334 -0.34231,3.01703 -0.48767,4.52893 0,0 -1.25992,0.64196 -1.25992,0.64196 z" />
    <path
       style="fill:#000000"
       id="path3371"
       d="m 346.35569,669.838 c 0.92586,-1.35145 1.58491,-2.86664 2.13456,-4.40392 0,0 1.24457,-0.58121 1.24457,-0.58121 l 0,0 c -0.54911,1.53522 -1.20047,3.04957 -2.08955,4.42089 0,0 -1.28958,0.56424 -1.28958,0.56424 z" />
    <path
       style="fill:#000000"
       id="path3373"
       d="m 328.07227,610.19652 c 0.0217,-0.97995 0.0177,-1.96027 0.0143,-2.94039 -0.004,-0.81756 -0.006,-1.63513 -0.007,-2.45271 -9.1e-4,-0.71707 -9e-4,-1.43414 -9.2e-4,-2.15121 10e-6,-0.71285 4e-5,-1.4257 6e-5,-2.13854 1e-5,-0.71416 1e-5,-1.42831 1e-5,-2.14246 10e-6,-0.7143 0,-1.4286 0,-2.1429 0,-0.71429 0,-1.42857 0,-2.14286 0,-0.71429 0,-1.42857 0,-2.14286 0.0162,-0.7051 -0.0359,-1.41324 0.0318,-2.11589 0.1137,-0.50854 0.50604,-0.86026 0.94595,-1.11264 2.66286,-1.52769 1.95593,-1.19763 3.43503,-1.846 0.93126,-0.38537 1.87014,-0.74739 2.81821,-1.08905 0.72144,-0.28566 1.48108,-0.44694 2.21717,-0.6826 0.74424,-0.25058 1.48111,-0.52204 2.23386,-0.75123 0.8824,-0.31125 1.78499,-0.57505 2.68913,-0.82098 0.91078,-0.14494 1.07876,0.32289 1.31182,1.07763 0.26129,0.89047 0.30892,1.82235 0.35553,2.74359 0.0572,0.8168 -0.007,1.63915 0.0739,2.45364 0.10727,0.70962 0.25616,1.41612 0.24277,2.1363 -0.0475,0.26381 -0.13483,0.55983 -0.38724,0.70632 -1.898,1.10159 -1.89786,1.43391 -3.30296,1.55841 -0.70485,0.0381 -1.41125,0.0246 -2.11676,0.0193 -0.73126,-0.007 -1.46256,-0.007 -2.19383,-0.0112 -0.77822,-0.0141 -1.5421,-0.035 -2.30536,0.12404 -0.6901,0.1296 -1.37873,0.17321 -2.06195,0.33821 -0.63626,0.19707 -1.22413,0.50528 -1.84821,0.72994 -0.68032,0.12875 -0.8924,-0.451 -1.00489,-1.00465 -0.1686,-0.75987 0.0101,-1.43932 0.23574,-2.15989 0.78063,-2.44017 0.43772,-1.7326 3.378,-3.35515 0.63615,0.42971 0.97727,1.22731 1.36439,1.87895 0.0476,0.0706 0.21882,0.38953 0.36535,0.41488 0.0473,0.008 0.16021,-0.10513 0.11774,-0.0828 -0.77681,0.40867 -1.53407,0.85507 -2.32178,1.2423 -0.063,0.031 0.0978,-0.10314 0.1307,-0.16516 0.0421,-0.0794 0.0609,-0.16911 0.0914,-0.25366 0.12346,-0.75351 0.26335,-1.50575 0.36631,-2.26312 0.16323,-1.57342 -0.0953,-1.10881 2.63857,-2.09097 0.0325,-0.0117 0.11768,0.3062 0.2395,0.73012 0.37167,1.05011 0.44953,2.17823 0.81543,3.22713 0.044,0.0526 0.0653,0.14131 0.13188,0.1578 0.0423,0.0105 0.11505,-0.12558 0.076,-0.1063 -0.78462,0.38731 -1.51339,0.8922 -2.32592,1.21694 -0.11195,0.0447 0.0979,-0.22158 0.12771,-0.3384 0.0847,-0.33212 0.11579,-0.7809 0.14954,-1.1137 0.12423,-0.97268 0.009,-1.96222 0.1012,-2.93445 0.0588,-1.0818 -0.0122,-0.52177 2.67875,-1.26576 0.19258,-0.0532 0.57245,1.78957 0.60279,1.95527 0.131,0.526 0.18131,1.07431 0.35381,1.59032 0.0198,0.0593 0.0502,0.22194 0.0825,0.16845 0.45043,-0.74432 -1.63022,0.62072 -2.39897,1.02805 0.21667,-1.06366 0.31696,-2.14638 0.37755,-3.22882 0.0513,-1.18594 -0.52524,-0.36959 2.56178,-1.39954 0.0782,-0.0261 0.0222,0.16344 0.0341,0.24503 0.12834,0.87332 -0.0173,-0.15652 0.11676,0.80288 0.0152,0.0479 0.16201,2.06726 0.37902,1.3195 -0.76638,0.41995 -1.49966,0.90697 -2.29914,1.25985 -0.0963,0.0425 0.0799,-0.19502 0.11305,-0.29494 0.0436,-0.13129 0.0809,-0.26466 0.11716,-0.39817 0.13998,-0.51484 0.26654,-1.03435 0.39674,-1.55175 0.36085,-1.73814 0.57037,-1.78066 2.86275,-2.77645 0.13942,-0.0606 0.37616,0.71269 0.37885,0.72018 0.23588,1.07393 0.24906,2.17701 0.52901,3.24253 0.54995,0.8711 0.18161,0.21512 -2.42457,1.29499 -0.0648,0.0269 0.0616,-0.12782 0.075,-0.19669 0.0251,-0.12863 0.03,-0.26045 0.0395,-0.39115 0.0224,-0.30738 0.0276,-0.64051 0.0357,-0.94806 0.0117,-0.32849 0.008,-0.65708 -0.007,-0.9853 0,0 2.52487,-1.28414 2.52487,-1.28414 l 0,0 c -0.0193,0.33557 -0.0299,0.67157 -0.0283,1.00777 -0.008,0.45212 -0.0246,0.90421 -0.0315,1.35629 -0.002,0.10235 0.0874,0.25209 10e-4,0.30707 -2.53968,1.61719 -2.22456,2.22325 -2.65769,1.17215 -0.22358,-1.06488 -0.27699,-2.15224 -0.51098,-3.21406 -0.42096,-1.12073 -0.58667,-0.18461 2.14293,-1.71025 0.0783,-0.0437 -0.11976,0.13696 -0.15679,0.21864 -0.0653,0.14404 -0.10569,0.29844 -0.14682,0.45114 -0.0474,0.17601 -0.079,0.35591 -0.11853,0.53387 -0.15969,0.6482 -0.3283,1.29489 -0.4825,1.94397 -0.0277,0.11674 0.0265,0.28019 -0.0686,0.35338 -0.79408,0.6112 -1.68001,1.09272 -2.52001,1.63908 -0.68943,-0.22317 -0.4997,-1.1892 -0.61843,-1.7629 -0.0483,-0.31987 -0.0663,-0.47182 -0.13101,-0.78106 -0.0187,-0.0893 -0.13954,-0.21541 -0.0637,-0.26609 4.19299,-2.80214 2.63509,-2.15471 2.45933,-1.15805 -0.1085,1.08042 -0.16697,2.16666 -0.345,3.23941 -0.80973,0.58632 -1.57645,1.23717 -2.4292,1.75894 -0.12598,0.0771 -0.2496,-0.37669 -0.25194,-0.38549 -0.14122,-0.53203 -0.20455,-1.08272 -0.33892,-1.61636 -0.0834,-0.44775 -0.11088,-0.67941 -0.24786,-1.10609 -0.0447,-0.1393 -0.0964,-0.27685 -0.15897,-0.40912 -0.0435,-0.0921 -0.2394,-0.20028 -0.158,-0.26146 2.07644,-1.56075 3.25755,-1.07331 2.27124,-1.45263 -0.27216,0.9288 0.0272,1.98263 -0.15884,2.93205 -0.008,0.11675 -0.10026,1.50712 -0.168,1.55833 -1.15808,0.87547 -2.18676,2.39686 -2.93064,1.21347 -0.31804,-1.06675 -0.42359,-2.18602 -0.8132,-3.23403 -0.0422,-0.13185 -0.0783,-0.2658 -0.12653,-0.39556 -0.0299,-0.0805 -0.17757,-0.18444 -0.10757,-0.23427 3.08531,-2.19628 2.44896,-2.09375 2.32094,-0.5904 -0.0973,0.76656 -0.24995,1.52264 -0.33129,2.29048 -0.004,0.0179 -0.10328,0.5341 -0.14423,0.56084 -1.58892,1.03773 -2.3576,2.30436 -3.20552,0.89584 -0.20266,-0.34228 -0.80226,-1.55773 -1.19627,-1.56285 0.7542,-0.452 1.5069,-0.90651 2.26259,-1.35602 0.0704,-0.0419 -0.15248,0.0715 -0.2065,0.13301 -0.39522,0.45014 -0.41847,1.13672 -0.64985,1.66265 -0.22376,0.77272 -0.44445,1.19419 -0.27989,2.03095 0.0827,0.47141 0.19187,0.80186 0.73313,0.59346 0.61445,-0.25485 1.22465,-0.52159 1.8694,-0.69437 0.6854,-0.1455 1.38581,-0.17971 2.07086,-0.33003 0.77129,-0.12153 1.5496,-0.0688 2.32792,-0.077 0.73305,-0.001 1.46608,0.004 2.1991,0.009 0.69974,0.004 1.40222,0.0195 2.09928,-0.0525 0.19836,-0.0328 0.75778,-0.24111 0.5883,-0.13297 -0.70879,0.4522 -1.44589,0.85842 -2.16884,1.28764 0.16484,-0.0733 0.2841,-0.0992 0.39623,-0.25164 0.0485,-0.0659 0.0692,-0.14837 0.10386,-0.22255 0.0735,-0.7035 -0.11833,-1.40267 -0.21315,-2.09715 -0.10393,-0.82041 -0.0181,-1.65174 -0.0699,-2.47677 -0.0375,-0.89687 -0.0808,-1.8046 -0.33629,-2.67102 -0.22311,-0.68387 -0.26697,-0.90624 -1.06833,-0.72277 -0.89951,0.25815 -1.80244,0.50951 -2.68286,0.82725 -0.75097,0.24243 -1.48918,0.52099 -2.24294,0.75338 -0.74209,0.20601 -1.47686,0.42622 -2.20078,0.69117 -0.93657,0.34666 -1.8724,0.69322 -2.78919,1.09044 -1.225,0.55262 -0.64414,0.31626 1.34268,-0.89169 0.13369,-0.0813 -0.27552,0.14939 -0.40513,0.23702 -0.24756,0.16737 -0.49867,0.36577 -0.618,0.64505 -0.12304,0.68499 -0.0204,1.39132 -0.0537,2.08438 0,0.71429 0,1.42857 0,2.14286 0,0.71429 0,1.42857 0,2.14286 0,0.7143 0,1.4286 0,2.1429 0,0.71415 0,1.42829 2e-5,2.14244 10e-6,0.71283 5e-5,1.42565 5e-5,2.13848 -2e-5,0.71739 -10e-6,1.43477 -9.1e-4,2.15215 -0.001,0.82009 -0.004,1.64017 -0.007,2.46025 -0.003,0.97524 -0.007,1.9507 0.0143,2.92577 0,0 -2.51467,1.28128 -2.51467,1.28128 z" />
  </g>
</svg>
