<?xml version="1.0" encoding="UTF-8" standalone="no"?>
<!-- Created with Inkscape (http://www.inkscape.org/) -->

<svg
   xmlns:dc="http://purl.org/dc/elements/1.1/"
   xmlns:cc="http://creativecommons.org/ns#"
   xmlns:rdf="http://www.w3.org/1999/02/22-rdf-syntax-ns#"
   xmlns:svg="http://www.w3.org/2000/svg"
   xmlns="http://www.w3.org/2000/svg"
   xmlns:sodipodi="http://sodipodi.sourceforge.net/DTD/sodipodi-0.dtd"
   xmlns:inkscape="http://www.inkscape.org/namespaces/inkscape"
   width="24.980686mm"
   height="15.115195mm"
   viewBox="0 0 24.980685 15.115196"
   version="1.1"
   id="svg8"
   inkscape:version="0.92.5 (2060ec1f9f, 2020-04-08)"
   sodipodi:docname="map.svg"
   inkscape:export-filename="/home/mp15688/git/perellonieto.github.io/images/map.png"
   inkscape:export-xdpi="17.764978"
   inkscape:export-ydpi="17.764978">
  <defs
     id="defs2" />
  <sodipodi:namedview
     id="base"
     pagecolor="#ffffff"
     bordercolor="#666666"
     borderopacity="1.0"
     inkscape:pageopacity="0.0"
     inkscape:pageshadow="2"
     inkscape:zoom="2.8"
     inkscape:cx="101.00192"
     inkscape:cy="-17.232592"
     inkscape:document-units="mm"
     inkscape:current-layer="layer1"
     showgrid="false"
     fit-margin-top="0"
     fit-margin-left="0"
     fit-margin-right="0"
     fit-margin-bottom="0"
     inkscape:window-width="836"
     inkscape:window-height="1007"
     inkscape:window-x="840"
     inkscape:window-y="20"
     inkscape:window-maximized="0" />
  <metadata
     id="metadata5">
    <rdf:RDF>
      <cc:Work
         rdf:about="">
        <dc:format>image/svg+xml</dc:format>
        <dc:type
           rdf:resource="http://purl.org/dc/dcmitype/StillImage" />
        <dc:title></dc:title>
      </cc:Work>
    </rdf:RDF>
  </metadata>
  <g
     inkscape:label="Layer 1"
     inkscape:groupmode="layer"
     id="layer1"
     transform="translate(-65.825984,-125.13099)">
    <g
       id="g854"
       transform="matrix(0.79780454,0,0,0.79780454,13.309715,25.300917)">
      <path
         inkscape:connector-curvature="0"
         d="m 73.942388,126.86838 c -0.02649,0.003 -0.05169,0.0124 -0.0771,0.0202 -0.04666,0.0124 -0.09247,0.0272 -0.137318,0.045 -0.05539,0.0217 -0.109328,0.047 -0.161679,0.0752 0.216678,-0.12698 0.103325,-0.0614 0.05902,-0.0278 -0.02566,0.0195 -0.05013,0.0407 -0.07468,0.0615 -0.04902,0.0419 -0.09387,0.0883 -0.135522,0.13738 -0.04225,0.0506 -0.07769,0.10621 -0.107759,0.16479 -0.02965,0.0604 -0.05053,0.12444 -0.06976,0.18876 -0.02201,0.075 -0.03914,0.15133 -0.05233,0.22837 -0.01442,0.0884 -0.02053,0.17777 -0.01897,0.26722 0.0013,0.0893 0.01462,0.17764 0.03526,0.26436 0.02075,0.0796 0.0636,0.14924 0.110794,0.2155 0.0506,0.0669 0.106208,0.12971 0.158629,0.19515 0.06208,0.0767 0.115682,0.1592 0.159137,0.24772 0.04638,0.10279 0.08303,0.20959 0.116657,0.3171 0.03519,0.11634 0.06687,0.23375 0.09418,0.35219 0.02698,0.11351 0.03444,0.22957 0.037,0.34577 -2.17e-4,0.12324 -0.0044,0.24645 -0.0076,0.36964 -0.0068,0.11983 0.0043,0.23918 0.02418,0.35721 0.01723,0.0971 0.04496,0.19124 0.09319,0.2774 0.03482,0.0598 0.0822,0.10968 0.134879,0.15384 0.03797,0.0295 0.07746,0.047 0.125063,0.035 0.07359,-0.0394 -0.06597,0.0392 -0.100142,0.0566 -0.0077,0.004 0.01377,-0.0105 0.02018,-0.0162 0.02297,-0.0207 0.04183,-0.0451 0.06077,-0.0694 0.04354,-0.0576 0.07746,-0.12121 0.108202,-0.18625 0.03556,-0.0763 0.06233,-0.15617 0.09054,-0.23535 0.0321,-0.087 0.06548,-0.17363 0.104105,-0.258 0.04048,-0.085 0.0876,-0.16645 0.138301,-0.24567 0.0537,-0.0796 0.110709,-0.15698 0.168361,-0.23377 0.05876,-0.0778 0.114547,-0.1579 0.168695,-0.23898 0.05533,-0.083 0.102909,-0.1708 0.147655,-0.25989 0.04494,-0.0919 0.08869,-0.18421 0.129252,-0.27809 0.03958,-0.0971 0.08106,-0.19335 0.12703,-0.28759 0.04944,-0.094 0.09964,-0.18749 0.144987,-0.28353 0.04722,-0.10264 0.08938,-0.2076 0.115527,-0.31763 0.02094,-0.0997 0.0022,-0.19726 -0.02374,-0.29375 -0.02668,-0.0947 -0.06764,-0.18397 -0.11247,-0.27117 -0.04864,-0.0904 -0.105285,-0.17607 -0.16506,-0.25943 -0.06124,-0.0846 -0.132856,-0.16045 -0.207846,-0.23277 -0.07377,-0.0724 -0.159356,-0.13023 -0.24739,-0.1836 -0.08668,-0.0497 -0.17847,-0.0894 -0.270827,-0.12712 -0.09821,-0.0398 -0.198902,-0.073 -0.300861,-0.10167 -0.104805,-0.0263 -0.211732,-0.043 -0.318924,-0.056 -0.0179,-0.001 -0.03578,-0.003 -0.05368,-0.004 0,0 0.129819,-0.0927 0.129819,-0.0927 v 0 c 0.01801,0.001 0.03603,0.003 0.05404,0.005 0.107686,0.0136 0.215156,0.0305 0.320282,0.058 0.102324,0.0294 0.203545,0.0627 0.302139,0.10298 0.09293,0.0382 0.185335,0.0785 0.272247,0.12921 0.08867,0.0544 0.174719,0.11343 0.249163,0.18665 0.07549,0.0732 0.147553,0.14991 0.209269,0.23529 0.06019,0.084 0.117426,0.17021 0.166462,0.26131 0.04543,0.0881 0.08686,0.17847 0.114231,0.27408 0.0268,0.0987 0.04666,0.19872 0.02673,0.30101 -0.02506,0.11111 -0.06693,0.21701 -0.113967,0.3206 -0.04471,0.0964 -0.09466,0.1901 -0.144798,0.28377 -0.04628,0.0939 -0.08811,0.18976 -0.127239,0.28682 -0.04031,0.0942 -0.08392,0.18678 -0.128811,0.27887 -0.0444,0.0897 -0.09167,0.17797 -0.146714,0.26164 -0.05379,0.0815 -0.109777,0.16163 -0.168257,0.23983 -0.05789,0.0763 -0.11433,0.1538 -0.168754,0.23265 -0.05089,0.0786 -0.09831,0.15928 -0.139113,0.24361 -0.03929,0.0837 -0.07244,0.16995 -0.104565,0.2566 -0.02839,0.0794 -0.05447,0.15971 -0.0895,0.23652 -0.03023,0.0659 -0.06338,0.13047 -0.106278,0.18917 -0.0661,0.0891 -0.144007,0.15977 -0.258863,0.19046 -0.05089,0.005 -0.09313,-0.0152 -0.132296,-0.0472 -0.05351,-0.046 -0.101607,-0.0978 -0.13691,-0.15937 -0.04854,-0.088 -0.07737,-0.18373 -0.09487,-0.28267 -0.02016,-0.119 -0.03169,-0.23941 -0.02498,-0.36025 0.0031,-0.12291 0.007,-0.24581 0.0075,-0.36877 -0.0025,-0.1152 -0.0089,-0.23034 -0.03528,-0.343 -0.02703,-0.11808 -0.0586,-0.23509 -0.09372,-0.35103 -0.03354,-0.10666 -0.0698,-0.21271 -0.116047,-0.31464 -0.04314,-0.0874 -0.09621,-0.16881 -0.157719,-0.24448 -0.05286,-0.0656 -0.109309,-0.12814 -0.159721,-0.19564 -0.04802,-0.0681 -0.09182,-0.13962 -0.11352,-0.22099 -0.02111,-0.0877 -0.03493,-0.17713 -0.0366,-0.26753 -0.0023,-0.0903 0.0034,-0.1805 0.01744,-0.26979 0.01247,-0.0775 0.02913,-0.15429 0.05081,-0.22981 0.01892,-0.0651 0.03945,-0.12983 0.06839,-0.19127 0.02911,-0.0598 0.06436,-0.11635 0.106248,-0.16818 0.04097,-0.0502 0.08569,-0.0972 0.134473,-0.1399 0.08994,-0.0777 0.180365,-0.1454 0.291103,-0.19551 0.05303,-0.0275 0.107318,-0.0527 0.163171,-0.074 0.04554,-0.017 0.09186,-0.0314 0.138642,-0.0446 0.02581,-0.008 0.05178,-0.0149 0.07825,-0.0202 0,0 -0.129833,0.0995 -0.129833,0.0995 z"
         id="path911"
         style="opacity:1;fill:#000000;fill-opacity:1;stroke:#000000;stroke-width:0.21723457;stroke-miterlimit:4;stroke-dasharray:none;stroke-dashoffset:0.57106102;stroke-opacity:1" />
      <path
         inkscape:connector-curvature="0"
         d="m 72.319938,127.59091 c -0.01688,0.0143 -0.03236,0.0302 -0.04848,0.0453 -0.03748,0.0352 -0.07749,0.0677 -0.117554,0.0999 -0.05916,0.0478 -0.118949,0.0947 -0.174865,0.14634 -0.06666,0.064 -0.127049,0.13395 -0.183163,0.20726 -0.06047,0.0799 -0.110292,0.16691 -0.162569,0.25215 -0.05548,0.0922 -0.121598,0.17704 -0.19138,0.25866 -0.07425,0.087 -0.15904,0.16396 -0.240398,0.2441 -0.08025,0.0806 -0.155621,0.16577 -0.227514,0.25382 -0.07036,0.08 -0.121701,0.16984 -0.158655,0.26915 -0.02761,0.0818 -0.04128,0.1672 -0.0461,0.25316 -0.0036,0.0735 0.0147,0.14404 0.04037,0.21212 0.03274,0.0746 0.08636,0.13736 0.144707,0.1932 0.04863,0.0468 0.106793,0.075 0.173127,0.0845 0.05185,0.005 0.100572,-0.009 0.147555,-0.029 0.07843,-0.0434 -0.06308,0.0372 -0.09521,0.0547 -0.0075,0.004 0.01418,-0.009 0.02118,-0.0143 0.02246,-0.0157 0.04468,-0.0317 0.06712,-0.0474 0.05123,-0.0339 0.09971,-0.0716 0.147432,-0.11016 0.05393,-0.0443 0.102706,-0.0943 0.150524,-0.14501 0.05521,-0.0584 0.100252,-0.12501 0.148621,-0.18888 0.05431,-0.0682 0.104362,-0.13924 0.150362,-0.21326 0.04954,-0.0815 0.09096,-0.16751 0.132373,-0.25331 0.04416,-0.0926 0.08576,-0.18625 0.124549,-0.28119 0.04009,-0.1 0.07412,-0.20222 0.109749,-0.30382 0.03656,-0.0986 0.06291,-0.2002 0.07994,-0.30386 0.01506,-0.0911 0.01911,-0.18316 0.01916,-0.27529 0,0 0.142766,-0.0728 0.142766,-0.0728 v 0 c 2.17e-4,0.0929 -0.0033,0.18584 -0.01832,0.27774 -0.01662,0.10459 -0.04245,0.20716 -0.07918,0.30662 -0.0356,0.10176 -0.06961,0.20413 -0.109204,0.30444 -0.03853,0.0952 -0.07988,0.18916 -0.123881,0.28198 -0.04128,0.0862 -0.08254,0.17252 -0.131422,0.2547 -0.04551,0.0745 -0.09462,0.14641 -0.149324,0.21456 -0.04893,0.0637 -0.09326,0.13102 -0.147796,0.19025 -0.04734,0.0513 -0.09589,0.1016 -0.149184,0.14679 -0.04718,0.0392 -0.09555,0.0772 -0.146744,0.11115 -0.08654,0.0613 -0.17241,0.12459 -0.270846,0.16663 -0.04915,0.0187 -0.0999,0.0294 -0.152698,0.0216 -0.06799,-0.0135 -0.127698,-0.0442 -0.177513,-0.0932 -0.05938,-0.0581 -0.114576,-0.12257 -0.148492,-0.19916 -0.0267,-0.0699 -0.04644,-0.14246 -0.04349,-0.21805 0.0044,-0.0874 0.01794,-0.17431 0.04484,-0.25785 0.03625,-0.10102 0.08571,-0.19319 0.157191,-0.27429 0.07153,-0.0887 0.14683,-0.17423 0.226807,-0.2554 0.0809,-0.0803 0.166219,-0.15643 0.2408,-0.24291 0.07014,-0.0806 0.136319,-0.1648 0.192018,-0.25614 0.05265,-0.0853 0.101825,-0.17294 0.161755,-0.25349 0.05557,-0.0741 0.115478,-0.14462 0.181615,-0.20955 0.05504,-0.0524 0.114457,-0.0994 0.173557,-0.14716 0.03969,-0.0316 0.0791,-0.0638 0.116709,-0.0979 0.01564,-0.0155 0.0316,-0.0307 0.04753,-0.0458 0,0 0.151596,-0.0616 0.151596,-0.0616 z"
         id="path913"
         style="opacity:1;fill:#000000;fill-opacity:1;stroke:#000000;stroke-width:0.21723457;stroke-miterlimit:4;stroke-dasharray:none;stroke-dashoffset:0.57106102;stroke-opacity:1" />
      <path
         inkscape:connector-curvature="0"
         d="m 70.434223,130.6112 c 0.02184,0.003 0.04165,0.0124 0.06167,0.021 0.03178,0.0133 0.06479,0.0234 0.09779,0.0332 0.05431,0.0157 0.109993,0.0257 0.165685,0.035 0.07284,0.0137 0.146512,0.0189 0.220475,0.0204 0.09435,0.002 0.188718,-0.001 0.282872,-0.007 0.08927,-0.0103 0.177655,-0.0223 0.26766,-0.0198 0.07453,0.003 0.146843,0.0211 0.217577,0.0436 0.0644,0.0213 0.123818,0.0538 0.179551,0.092 0.05668,0.0399 0.103871,0.0906 0.148136,0.14348 0.04729,0.0582 0.08569,0.12248 0.121434,0.18812 0.03868,0.0654 0.05277,0.13873 0.06057,0.21317 0.0059,0.0839 0.0063,0.16756 0.02155,0.25043 0.02308,0.0913 0.0609,0.17801 0.100206,0.26327 0.03905,0.0832 0.08677,0.16108 0.149288,0.22859 0.04269,0.0416 0.09523,0.0673 0.152584,0.0813 0.04971,0.0137 0.09433,0.005 0.138294,-0.0197 -0.245091,0.15635 -0.03806,0.005 0.01556,-0.0352 0.101829,-0.0742 0.210911,-0.13924 0.324008,-0.19473 0.07089,-0.0334 0.144801,-0.0599 0.218307,-0.0869 0.07955,-0.0299 0.160945,-0.0538 0.245229,-0.0649 0.09071,-0.005 0.169982,0.0425 0.245968,0.086 0.1001,0.0592 0.199741,0.11907 0.298179,0.18095 0.08151,0.0523 0.161307,0.10741 0.231683,0.17419 0.04952,0.0497 0.08351,0.11059 0.111793,0.17408 0.02199,0.0564 0.02186,0.11564 0.01084,0.17428 -0.01377,0.059 -0.04451,0.11025 -0.08186,0.15706 -0.05465,0.0618 -0.118687,0.11428 -0.181337,0.16763 -0.07071,0.0606 -0.145817,0.11565 -0.220093,0.17167 -0.07876,0.0578 -0.157041,0.11628 -0.23472,0.17555 -0.130667,0.10244 -0.277734,0.18027 -0.4213,0.26251 0.0269,-0.0334 -0.158377,0.10806 -0.127061,0.071 0.01658,-0.0197 0.08557,-0.056 0.06691,-0.0383 -0.01964,0.0186 -0.0467,0.0273 -0.06993,0.0412 -0.06151,0.0367 -0.08381,0.0508 -0.144968,0.0885 -0.145185,0.0886 -0.288946,0.17956 -0.429931,0.27469 -0.125612,0.087 -0.253878,0.16997 -0.378404,0.25847 -0.10304,0.0734 -0.196023,0.15901 -0.281522,0.25193 -0.06217,0.0696 -0.108269,0.15192 -0.179792,0.21269 -0.08031,0.0514 -0.01627,0.0111 -0.191957,0.11066 -0.0081,0.005 -0.03225,0.0184 -0.02418,0.0138 0.03893,-0.0221 0.07719,-0.0452 0.116731,-0.0662 0.0136,-0.007 -0.02408,0.0192 -0.03536,0.0297 -0.02107,0.0228 -0.04468,0.0496 -0.04312,0.0824 0.01675,0.0297 0.04729,0.0475 0.06876,0.0737 0.03215,0.0692 0.07495,0.13122 0.120928,0.19192 0.065,0.0784 0.126908,0.15899 0.174424,0.24931 0.03102,0.0638 0.04478,0.1324 0.04608,0.20283 3.2e-5,0.0506 -0.01827,0.092 -0.05488,0.12605 -0.08059,0.0582 -0.160339,0.12112 -0.259601,0.10469 -0.05095,-0.0105 -0.09634,-0.0357 -0.140332,-0.0624 -0.05261,-0.034 -0.09945,-0.0761 -0.145341,-0.11845 -0.05237,-0.0481 -0.09588,-0.10425 -0.137138,-0.16183 -0.04596,-0.0671 -0.08714,-0.13722 -0.130897,-0.20573 -0.05261,-0.0789 -0.109679,-0.15478 -0.164031,-0.23253 -0.058,-0.08 -0.1146,-0.16108 -0.171318,-0.24203 -0.06395,-0.0916 -0.120517,-0.18799 -0.179218,-0.28294 -0.07057,-0.11168 -0.147767,-0.21884 -0.228628,-0.32324 -0.09338,-0.11689 -0.195766,-0.22607 -0.296601,-0.33644 -0.09964,-0.11055 -0.195247,-0.22464 -0.290871,-0.33866 -0.09373,-0.1066 -0.180598,-0.21877 -0.266143,-0.33194 -0.08387,-0.11719 -0.178879,-0.22512 -0.277502,-0.32989 -0.103727,-0.10913 -0.211108,-0.21465 -0.314555,-0.32405 -0.09674,-0.10188 -0.186196,-0.21009 -0.266903,-0.32503 -0.0683,-0.10267 -0.123299,-0.21322 -0.175812,-0.32454 -0.0514,-0.10848 -0.09496,-0.22025 -0.132281,-0.33428 -0.03484,-0.10304 -0.04115,-0.20855 -0.02044,-0.31473 0.03225,-0.11072 0.109439,-0.1984 0.183889,-0.28339 0.07863,-0.0868 0.173492,-0.15522 0.272286,-0.21691 0.14556,-0.0941 0.30146,-0.16682 0.461734,-0.23105 0.110448,-0.047 0.224531,-0.0774 0.343815,-0.0889 0.116665,-0.004 0.231165,0.0211 0.343291,0.0504 0.107044,0.0274 0.207296,0.0734 0.306987,0.11992 0.07042,0.0346 0.144585,0.0592 0.220625,0.0777 0,0 -0.131978,0.091 -0.131978,0.091 v 0 c -0.07642,-0.0198 -0.150933,-0.0454 -0.221793,-0.0806 -0.09883,-0.0463 -0.19868,-0.091 -0.30496,-0.11773 -0.111087,-0.0283 -0.22457,-0.0527 -0.339967,-0.0458 -0.118212,0.0134 -0.231238,0.0456 -0.340804,0.0922 -0.07525,0.0306 -0.149905,0.0621 -0.222433,0.0988 -0.01734,0.009 -0.06757,0.0381 -0.05158,0.0271 0.02727,-0.0188 0.05703,-0.0336 0.08554,-0.0505 -0.09923,0.0602 -0.194475,0.12748 -0.274205,0.2126 -0.07384,0.0829 -0.151025,0.16825 -0.186549,0.27554 -0.02307,0.10339 -0.01742,0.20669 0.01594,0.30772 0.03673,0.11353 0.08014,0.22466 0.131198,0.33259 0.05207,0.11052 0.106519,0.22034 0.174025,0.32243 0.08007,0.11443 0.168869,0.22213 0.265106,0.32342 0.103402,0.10946 0.210722,0.21503 0.314519,0.3241 0.09908,0.10516 0.1945,0.2135 0.278718,0.33115 0.08542,0.11293 0.172091,0.2249 0.265515,0.3314 0.09539,0.1139 0.190843,0.22782 0.290312,0.33821 0.101124,0.1107 0.203787,0.22024 0.297702,0.33726 0.08137,0.10473 0.15902,0.21227 0.230165,0.32427 0.05877,0.0946 0.115603,0.1905 0.179622,0.28165 0.05673,0.081 0.113312,0.16201 0.171332,0.24205 0.05456,0.0779 0.111918,0.15377 0.164721,0.23287 0.04383,0.0681 0.08511,0.13791 0.131088,0.20464 0.04073,0.0566 0.0838,0.1118 0.135669,0.15885 0.04541,0.0414 0.09155,0.0828 0.143894,0.11543 0.0429,0.0252 0.08731,0.049 0.13718,0.0564 0.02047,0.002 0.03815,0.002 0.05812,-0.004 0.0066,-0.002 0.02527,-0.0108 0.01944,-0.007 -0.07858,0.0497 -0.167757,0.0953 -0.101175,0.061 0.03863,-0.0281 0.06003,-0.0645 0.06145,-0.11329 8.67e-4,-0.0681 -0.01215,-0.13475 -0.04125,-0.19671 -0.04642,-0.0899 -0.107746,-0.1698 -0.17246,-0.2473 -0.04613,-0.0602 -0.08998,-0.12137 -0.123002,-0.1898 -0.024,-0.0279 -0.05768,-0.0475 -0.07372,-0.0817 -0.0067,-0.0374 0.01347,-0.0686 0.03746,-0.0962 0.05826,-0.0604 0.105027,-0.0748 0.194471,-0.12703 0.008,-0.005 0.03223,-0.018 0.02432,-0.0133 -0.03698,0.0222 -0.07459,0.0434 -0.111529,0.0656 -0.0091,0.005 0.01861,-0.0101 0.02792,-0.0152 0.07586,-0.0566 0.121191,-0.1404 0.182595,-0.21109 0.08511,-0.0943 0.178095,-0.18105 0.281283,-0.25547 0.124547,-0.0891 0.253326,-0.17202 0.379233,-0.2592 0.140805,-0.0956 0.284673,-0.18668 0.429933,-0.27538 0.178708,-0.11082 0.360288,-0.21691 0.544383,-0.31855 -0.02584,0.0151 -0.05191,0.0299 -0.07754,0.0454 -0.01746,0.0106 0.03553,-0.0201 0.05305,-0.0306 0.06029,-0.0361 0.117998,-0.0763 0.174105,-0.1186 0.07771,-0.0591 0.15546,-0.11819 0.234509,-0.17554 0.07407,-0.056 0.149357,-0.11066 0.220284,-0.17072 0.06204,-0.053 0.125736,-0.10462 0.181317,-0.16463 0.03802,-0.044 0.06929,-0.093 0.0848,-0.14975 0.01271,-0.0552 0.01397,-0.11165 -0.006,-0.1655 -0.02706,-0.0617 -0.05975,-0.12091 -0.107888,-0.169 -0.06941,-0.0661 -0.148295,-0.12049 -0.228739,-0.17229 -0.09821,-0.0619 -0.197671,-0.12184 -0.298113,-0.18007 -0.07477,-0.0415 -0.152147,-0.0863 -0.240805,-0.0768 -0.08342,0.0131 -0.164097,0.0376 -0.243005,0.0675 -0.07341,0.0273 -0.147261,0.054 -0.217623,0.0886 -0.06574,0.0337 -0.05336,0.0281 0.07347,-0.0454 0.01073,-0.006 -0.02137,0.0126 -0.03193,0.0192 -0.03083,0.0191 -0.06091,0.0394 -0.09011,0.0608 -0.09444,0.071 -0.181414,0.14739 -0.291752,0.19607 -0.04754,0.0212 -0.09487,0.0252 -0.145348,0.0102 -0.05907,-0.0172 -0.113024,-0.0453 -0.15651,-0.0898 -0.06249,-0.0695 -0.11119,-0.14872 -0.151189,-0.23319 -0.03982,-0.0864 -0.07809,-0.17433 -0.102214,-0.26664 -0.01618,-0.0831 -0.01747,-0.16694 -0.02302,-0.25123 -0.007,-0.0725 -0.01925,-0.14403 -0.0573,-0.20767 -0.03513,-0.0648 -0.07318,-0.12808 -0.119989,-0.18522 -0.04355,-0.0516 -0.09002,-0.10104 -0.145945,-0.1396 -0.055,-0.0368 -0.113496,-0.068 -0.176824,-0.0881 -0.06981,-0.0215 -0.141146,-0.0384 -0.214552,-0.0401 -0.08946,-6.6e-4 -0.177463,0.0119 -0.266356,0.0205 -0.09457,0.005 -0.189297,0.009 -0.284031,0.007 -0.0747,-0.002 -0.149105,-0.008 -0.222663,-0.0216 -0.0563,-0.01 -0.112584,-0.0201 -0.167466,-0.0362 -0.03359,-0.0101 -0.06721,-0.0203 -0.09942,-0.0342 -0.01994,-0.008 -0.04016,-0.015 -0.06133,-0.0194 0,0 0.135296,-0.0921 0.135296,-0.0921 z"
         id="path917"
         style="opacity:1;fill:#000000;fill-opacity:1;stroke:#000000;stroke-width:0.21723457;stroke-miterlimit:4;stroke-dasharray:none;stroke-dashoffset:0.57106102;stroke-opacity:1" />
      <path
         inkscape:connector-curvature="0"
         d="m 72.525843,135.76205 c 0.03541,0.005 0.07118,0.007 0.106719,0.0103 0.06122,0.005 0.121801,0.0146 0.182429,0.0244 0.0728,0.0129 0.144378,0.0318 0.215208,0.0528 0.07972,0.0234 0.156439,0.0544 0.231332,0.0902 0.08274,0.043 0.158644,0.0976 0.237042,0.14789 0.08949,0.0579 0.183418,0.10761 0.280952,0.15037 0.111849,0.0446 0.228146,0.0756 0.330027,0.14141 0.06161,0.0436 0.102169,0.10261 0.133597,0.16983 0.02929,0.0662 0.04335,0.13774 0.05782,0.2083 0.01692,0.0849 0.02938,0.17057 0.04134,0.25627 0.01351,0.0877 0.01501,0.17618 0.0049,0.26417 -0.0126,0.0892 -0.04366,0.17344 -0.07943,0.25553 -0.0409,0.0915 -0.09652,0.17499 -0.152121,0.25794 -0.06264,0.0933 -0.123926,0.18746 -0.18501,0.28177 -0.06746,0.10762 -0.142104,0.21029 -0.218627,0.31157 -0.08146,0.10863 -0.162847,0.21734 -0.241206,0.32825 -0.07883,0.11406 -0.150196,0.23307 -0.214124,0.35606 -0.06237,0.13036 -0.11025,0.26698 -0.156652,0.40363 -0.04782,0.14446 -0.08748,0.29143 -0.125902,0.43861 -0.03822,0.14508 -0.06836,0.29211 -0.108324,0.43671 -0.04056,0.13635 -0.09056,0.26965 -0.141967,0.40221 -0.04742,0.12457 -0.106178,0.24423 -0.167197,0.36257 -0.04279,0.085 -0.09228,0.16594 -0.150482,0.24116 -0.07815,0.10034 -0.131419,0.1142 -0.255712,0.18065 -0.03854,0.001 -0.06048,-0.0301 -0.07702,-0.0606 -0.02422,-0.0536 -0.03489,-0.11195 -0.04363,-0.16969 -0.01201,-0.097 -0.01844,-0.19458 -0.02488,-0.29207 -0.008,-0.12636 -0.01379,-0.25284 -0.01955,-0.37931 -0.0059,-0.13734 -0.0037,-0.27483 8.66e-4,-0.41216 0.0057,-0.13944 0.01219,-0.27885 0.01816,-0.41828 0.0063,-0.14663 0.01143,-0.29331 0.01634,-0.43999 0.0059,-0.16472 0.0101,-0.32945 0.01143,-0.49427 0.0029,-0.16264 0.0023,-0.32486 -0.01312,-0.48685 -0.01823,-0.14346 -0.03802,-0.28683 -0.06576,-0.42879 -0.03055,-0.14077 -0.06866,-0.27972 -0.106665,-0.41861 -0.03672,-0.13712 -0.08573,-0.27016 -0.144128,-0.3994 -0.06187,-0.12452 -0.125658,-0.24802 -0.183078,-0.37469 -0.03221,-0.0796 -0.07042,-0.1581 -0.08959,-0.24231 -0.01151,-0.0505 -0.01008,-0.0622 -0.01286,-0.11281 -0.0017,-0.10435 0.03777,-0.19732 0.0889,-0.28578 0.04904,-0.0826 0.11319,-0.15388 0.181169,-0.2211 0.09956,-0.0897 0.212408,-0.17469 0.341584,-0.21553 0.01777,-0.005 0.0361,-0.009 0.05416,-0.0139 0.137807,-0.0249 0.27857,-0.0179 0.417833,-0.0151 0,0 -0.127293,0.0921 -0.127293,0.0921 v 0 c -0.139024,-0.002 -0.279924,-0.008 -0.416914,0.02 -0.01773,0.005 -0.03581,0.009 -0.05321,0.0155 -0.0095,0.003 -0.210892,0.0946 0.04502,-0.034 0.01451,-0.007 -0.02692,0.0182 -0.03987,0.0279 -0.02532,0.0191 -0.04944,0.0409 -0.07331,0.0617 -0.06828,0.066 -0.133158,0.13587 -0.182987,0.21729 -0.05148,0.0857 -0.09303,0.17542 -0.09331,0.27766 0.0017,0.0492 4.5e-5,0.0608 0.01065,0.10989 0.01807,0.0837 0.05629,0.16148 0.08786,0.24051 0.05724,0.12676 0.121089,0.25024 0.182864,0.37481 0.05886,0.12995 0.108389,0.26367 0.145245,0.40163 0.03813,0.13924 0.07636,0.27853 0.10727,0.4196 0.02818,0.14243 0.04781,0.28637 0.06609,0.43037 0.01558,0.16259 0.01623,0.32538 0.01319,0.48863 -0.0011,0.1648 -0.0051,0.32953 -0.01051,0.49424 -0.0047,0.14667 -0.0098,0.29332 -0.01586,0.43993 -0.0058,0.13938 -0.01241,0.27873 -0.01816,0.41812 -0.0047,0.13692 -0.0069,0.27399 -0.0011,0.41093 0.0058,0.12623 0.01186,0.25245 0.02029,0.37855 0.0067,0.0969 0.01334,0.19381 0.02566,0.29015 0.0085,0.0558 0.01905,0.11219 0.04226,0.16402 0.01421,0.026 0.032,0.051 0.06495,0.0421 -0.296084,0.17671 -0.115949,0.0754 -0.08653,0.0504 0.02407,-0.0204 0.0448,-0.0446 0.06544,-0.0683 0.05961,-0.0742 0.110496,-0.15425 0.153541,-0.23921 0.06155,-0.11786 0.121083,-0.23698 0.168624,-0.36133 0.05155,-0.13218 0.101677,-0.2651 0.14288,-0.40092 0.04077,-0.1444 0.07063,-0.29148 0.108711,-0.4366 0.03836,-0.14742 0.07794,-0.29462 0.125168,-0.43949 0.04618,-0.13724 0.09423,-0.27427 0.155425,-0.40568 0.06322,-0.12379 0.134696,-0.24317 0.213093,-0.35799 0.07806,-0.11122 0.159566,-0.21993 0.240946,-0.32873 0.07638,-0.10081 0.151176,-0.20283 0.218297,-0.31015 0.06102,-0.0943 0.122059,-0.18855 0.184543,-0.28186 0.0554,-0.0822 0.111054,-0.16489 0.152761,-0.25516 0.03611,-0.0806 0.06733,-0.16339 0.08108,-0.2511 0.01129,-0.0867 0.01047,-0.17401 -0.0027,-0.26057 -0.01194,-0.0853 -0.02446,-0.17059 -0.04139,-0.25508 -0.01427,-0.0693 -0.02798,-0.13959 -0.0565,-0.20474 -0.02996,-0.0645 -0.06846,-0.12123 -0.127784,-0.16277 -0.101238,-0.065 -0.217111,-0.0949 -0.32779,-0.13986 -0.09826,-0.0433 -0.192913,-0.0935 -0.283106,-0.15195 -0.07789,-0.05 -0.153567,-0.10407 -0.236366,-0.14588 -0.07455,-0.035 -0.150965,-0.065 -0.230167,-0.0879 -0.07061,-0.0204 -0.141901,-0.0388 -0.214486,-0.0508 -0.06058,-0.01 -0.121222,-0.0181 -0.182362,-0.0232 -0.0365,-0.003 -0.07338,-0.004 -0.109488,-0.0109 0,0 0.134711,-0.0933 0.134711,-0.0933 z"
         id="path923"
         style="opacity:1;fill:#000000;fill-opacity:1;stroke:#000000;stroke-width:0.21723457;stroke-miterlimit:4;stroke-dasharray:none;stroke-dashoffset:0.57106102;stroke-opacity:1" />
      <path
         inkscape:connector-curvature="0"
         d="m 79.173498,135.07779 c -0.04337,0.005 -0.08694,0.009 -0.130488,0.0122 -0.06273,0.007 -0.125571,0.0132 -0.187678,0.0249 -0.08568,0.0171 -0.170712,0.0368 -0.254749,0.0606 -0.09355,0.0261 -0.1855,0.0574 -0.276255,0.0919 -0.05964,0.0237 -0.117793,0.0513 -0.1742,0.0819 -0.01436,0.008 -0.05686,0.0322 -0.04264,0.0242 0.03165,-0.0179 0.06329,-0.0359 0.09493,-0.0538 -0.08273,0.0498 -0.15706,0.1115 -0.227596,0.17711 -0.06641,0.0631 -0.119631,0.13748 -0.168474,0.21446 -0.04202,0.066 -0.0707,0.13818 -0.09046,0.21356 -0.0162,0.0653 -0.01464,0.13113 -0.0025,0.19672 0.01334,0.0684 0.0379,0.13375 0.06295,0.1985 0.02365,0.0653 0.05107,0.12893 0.07941,0.19225 0.03239,0.0691 0.06915,0.13592 0.109192,0.20079 0.04623,0.0748 0.09779,0.14493 0.159372,0.20774 0.08279,0.0773 0.188673,0.11984 0.291844,0.16234 0.111142,0.0469 0.228359,0.0743 0.346424,0.0968 0.121367,0.0238 0.24458,0.0352 0.36724,0.0499 0.117178,0.0134 0.231665,0.0414 0.343997,0.0766 0.104292,0.0318 0.197364,0.0875 0.285791,0.14988 0.08607,0.0626 0.162561,0.13646 0.235556,0.2135 0.07256,0.0736 0.129629,0.15749 0.175559,0.24959 0.04035,0.0883 0.0684,0.18103 0.08928,0.27558 0.01762,0.0924 0.01536,0.18574 8.66e-4,0.27823 -0.02127,0.10128 -0.05231,0.20019 -0.07873,0.3002 -0.02916,0.11048 -0.05287,0.22227 -0.07537,0.33426 -0.02423,0.11326 -0.04021,0.22786 -0.05246,0.34295 -0.01073,0.10703 -0.01966,0.21423 -0.0284,0.32144 -0.01212,0.10182 -0.01217,0.20252 0.0079,0.30305 0.02288,0.10527 0.07496,0.18748 0.142485,0.2692 0.0716,0.0831 0.152359,0.15711 0.238579,0.22461 0.100853,0.0764 0.212228,0.13693 0.324542,0.19449 0.121684,0.0647 0.236126,0.11211 0.370915,0.1415 0.133059,0.0238 0.266914,0.008 0.398813,-0.0139 0.0822,-0.0166 0.165148,-0.0344 0.242711,-0.0673 0.01903,-0.008 0.07247,-0.0392 0.05586,-0.0269 -0.02477,0.0183 -0.05375,0.0301 -0.08062,0.0452 0.136662,-0.0887 0.231079,-0.22254 0.321168,-0.35513 0.103608,-0.16177 0.192333,-0.33247 0.277583,-0.50444 0.08604,-0.17785 0.162211,-0.36026 0.234584,-0.54402 0.06574,-0.16767 0.122432,-0.33866 0.177323,-0.51012 0.0514,-0.16154 0.09767,-0.32463 0.142145,-0.4882 0.04239,-0.15616 0.08032,-0.31346 0.117178,-0.471 0.03128,-0.15056 0.0699,-0.29903 0.116816,-0.44542 0.04961,-0.142 0.09981,-0.28376 0.147018,-0.42657 0.04434,-0.13276 0.06901,-0.27071 0.07449,-0.41036 0.0029,-0.1336 -0.05081,-0.25351 -0.109263,-0.37027 -0.05772,-0.112 -0.12827,-0.21634 -0.208152,-0.31354 -0.08642,-0.0986 -0.187132,-0.18353 -0.289895,-0.26447 -0.1142,-0.0881 -0.241367,-0.15684 -0.368897,-0.22331 -0.134253,-0.0691 -0.273565,-0.12726 -0.412481,-0.18605 -0.139885,-0.0584 -0.279887,-0.11639 -0.421204,-0.17121 -0.141027,-0.0548 -0.284821,-0.10183 -0.429058,-0.14726 -0.148246,-0.0484 -0.303155,-0.0674 -0.457824,-0.0806 -0.16124,-0.0109 -0.322789,-0.0111 -0.484277,-0.008 -0.181677,0.005 -0.362935,0.0178 -0.543842,0.0344 -0.20036,0.0209 -0.398727,0.0562 -0.595173,0.10023 -0.143915,0.0337 -0.285244,0.0772 -0.426188,0.1214 0,0 0.122086,-0.0945 0.122086,-0.0945 v 0 c 0.141363,-0.044 0.283089,-0.0874 0.427441,-0.12072 0.197124,-0.0437 0.396137,-0.0788 0.597133,-0.0992 0.181378,-0.0165 0.363079,-0.0299 0.545221,-0.034 0.161942,-0.003 0.323973,-0.003 0.485611,0.01 0.155525,0.014 0.311184,0.0338 0.460112,0.0832 0.144426,0.0457 0.288417,0.0931 0.42962,0.14811 0.141346,0.055 0.281451,0.11315 0.421407,0.17163 0.139318,0.0588 0.278796,0.11765 0.413315,0.18704 0.128281,0.0671 0.256195,0.13652 0.371023,0.22545 0.10351,0.0818 0.20502,0.16757 0.292026,0.26716 0.0805,0.0982 0.151567,0.20363 0.209727,0.31673 0.05953,0.11896 0.114668,0.24126 0.112884,0.37731 -0.0045,0.14103 -0.02891,0.28044 -0.07311,0.41467 -0.0471,0.14284 -0.09703,0.28469 -0.14715,0.4265 -0.04734,0.146 -0.08666,0.294 -0.117644,0.44439 -0.03696,0.15775 -0.07486,0.31528 -0.117269,0.47166 -0.04449,0.16383 -0.09076,0.32717 -0.142159,0.48898 -0.05497,0.17189 -0.111717,0.34331 -0.177613,0.51138 -0.07244,0.18409 -0.14863,0.36685 -0.234212,0.54529 -0.08493,0.17238 -0.173603,0.34332 -0.276094,0.50606 -0.08916,0.1334 -0.182271,0.26846 -0.316404,0.36075 -0.06388,0.0369 -0.126983,0.0751 -0.191638,0.11062 -0.09238,0.0507 -0.199243,0.069 -0.300959,0.0905 -0.13326,0.0213 -0.2684,0.035 -0.402268,0.009 -0.134173,-0.0308 -0.251862,-0.0801 -0.373249,-0.14479 -0.113135,-0.0582 -0.225256,-0.1195 -0.326926,-0.19656 -0.08693,-0.0684 -0.168338,-0.1434 -0.240505,-0.22746 -0.06905,-0.0838 -0.122627,-0.16818 -0.14663,-0.27582 -0.02137,-0.10281 -0.02241,-0.20281 -0.0099,-0.30713 0.0088,-0.10737 0.01781,-0.21472 0.02852,-0.32192 0.01212,-0.11554 0.02783,-0.23065 0.05203,-0.34437 0.02231,-0.11219 0.04572,-0.22422 0.07459,-0.33494 0.02602,-0.0996 0.05638,-0.19811 0.07888,-0.29859 0.01538,-0.0905 0.01829,-0.18203 0.0019,-0.27285 -0.02007,-0.0934 -0.0477,-0.18496 -0.08728,-0.27216 -0.04506,-0.0908 -0.101136,-0.17336 -0.172843,-0.24567 -0.0724,-0.0762 -0.148291,-0.14927 -0.233799,-0.21085 -0.08755,-0.0612 -0.179848,-0.11502 -0.282911,-0.14583 -0.111676,-0.0344 -0.225446,-0.0616 -0.341807,-0.0746 -0.122988,-0.0146 -0.246466,-0.0264 -0.368064,-0.0508 -0.118729,-0.0234 -0.23654,-0.0516 -0.348152,-0.0995 -0.105068,-0.0436 -0.212475,-0.0878 -0.296443,-0.16705 -0.06225,-0.0638 -0.114609,-0.13479 -0.161493,-0.2106 -0.04052,-0.0654 -0.07816,-0.13259 -0.110819,-0.2023 -0.02853,-0.0636 -0.05605,-0.12747 -0.0798,-0.19301 -0.02542,-0.0656 -0.05046,-0.13182 -0.06441,-0.20103 -0.01325,-0.0675 -0.01634,-0.13541 -6.52e-4,-0.20305 0.01909,-0.0769 0.04697,-0.15085 0.08908,-0.21843 0.04844,-0.0781 0.101268,-0.15374 0.16716,-0.21836 0.0701,-0.0666 0.143961,-0.12931 0.226428,-0.18027 0.129111,-0.0754 0.256449,-0.15579 0.397078,-0.20858 0.09116,-0.0338 0.183344,-0.065 0.277152,-0.0908 0.08471,-0.0234 0.170314,-0.0432 0.25657,-0.0601 0.06269,-0.0107 0.125944,-0.0173 0.189157,-0.024 0.04384,-0.004 0.08768,-0.008 0.131257,-0.0136 0,0 -0.130936,0.0976 -0.130936,0.0976 z"
         id="path925"
         style="opacity:1;fill:#000000;fill-opacity:1;stroke:#000000;stroke-width:0.21723457;stroke-miterlimit:4;stroke-dasharray:none;stroke-dashoffset:0.57106102;stroke-opacity:1" />
      <path
         inkscape:connector-curvature="0"
         d="m 78.850366,133.89032 c -0.04855,0.0334 0.0027,-0.002 0.127482,-0.0727 0.01177,-0.007 -0.0065,0.004 -0.01623,0.0122 -0.007,0.006 -0.01284,0.0127 -0.0192,0.0194 -0.02545,0.0309 -0.0413,0.0678 -0.05606,0.10462 -0.01356,0.0425 -0.01206,0.0842 0.01045,0.12275 0.03195,0.0447 0.07668,0.0767 0.122476,0.10579 0.05601,0.0307 0.115708,0.054 0.177081,0.0714 0.05504,0.0137 0.11139,0.0205 0.168051,0.0189 0.05355,-0.001 0.102537,-0.0207 0.150387,-0.0428 0.0084,-0.005 0.01701,-0.009 0.02536,-0.0134 0.111211,-0.062 -0.169971,0.10061 -0.05795,0.0323 0.0093,-0.006 0.01868,-0.0113 0.02794,-0.0171 0.0094,-0.006 0.01866,-0.0118 0.028,-0.0177 0.06227,-0.0374 0.115202,-0.0863 0.165201,-0.13842 0.05706,-0.0616 0.103831,-0.13154 0.147893,-0.20275 0.04576,-0.0793 0.08392,-0.16262 0.129361,-0.24215 0.04842,-0.083 0.120915,-0.14581 0.195341,-0.20464 0.1152,-0.0844 0.239799,-0.15571 0.374391,-0.20345 0.06919,-0.0223 0.140106,-0.043 0.213268,-0.0356 0.0649,0.009 0.110503,0.0532 0.152766,0.0996 0.05143,0.0633 0.08811,0.1361 0.120392,0.21047 0.03406,0.0775 0.06769,0.15513 0.0962,0.23483 0.02838,0.0827 0.04608,0.16813 0.05984,0.25425 0.01151,0.0737 0.02394,0.14799 0.05499,0.21632 0.01164,0.0214 0.02591,0.0428 0.05011,0.0263 -0.254432,0.13819 -0.141604,0.0983 -0.11067,0.0516 0.01323,-0.02 0.02198,-0.0424 0.03113,-0.0644 0.02476,-0.0619 0.04019,-0.12682 0.0574,-0.19104 0.02242,-0.0809 0.04151,-0.1626 0.05921,-0.24463 0.01584,-0.0836 0.03722,-0.16599 0.06028,-0.24785 0.01549,-0.0487 0.0275,-0.10209 0.06147,-0.14182 0.0863,-0.0574 0.135265,-0.12579 0.201479,-0.057 0.02296,0.0278 0.03643,0.0614 0.04822,0.095 0.01582,0.0534 0.02877,0.10764 0.04249,0.16162 0.01801,0.0721 0.04099,0.14265 0.06479,0.21297 0.02726,0.0813 0.06354,0.15847 0.110156,0.23035 0.07219,0.10071 0.176768,0.16801 0.281911,0.22976 0.119258,0.0694 0.246494,0.12266 0.376644,0.16764 0.106821,0.0374 0.211026,0.0595 0.324151,0.0499 0.09667,-0.0147 0.183161,-0.0618 0.277186,-0.0855 0.09191,-0.015 0.158615,0.001 0.235029,0.0526 0.07606,0.0654 0.140483,0.1434 0.204196,0.22057 0.06688,0.0803 0.123765,0.16778 0.177494,0.25718 0.03629,0.0632 0.07839,0.12188 0.135157,0.16784 0.0415,0.0273 0.05852,0.0653 0.0585,0.11362 -0.0081,0.0621 -0.04465,0.11471 -0.07394,0.16853 -0.036,0.0687 -0.03427,0.0979 0.0077,0.16142 0.04909,0.0606 0.102837,0.11733 0.153585,0.17661 0.05101,0.0652 0.115263,0.11723 0.180366,0.16754 0.07915,0.0578 0.165039,0.10501 0.253024,0.14776 0.09353,0.043 0.192391,0.0704 0.293349,0.0887 0.09972,0.0156 0.200468,0.0215 0.301143,0.0266 0.105372,0.007 0.210957,0.005 0.316468,0.005 0.115516,-0.002 0.230992,0.003 0.346135,0.0121 0.113383,0.008 0.223578,0.0368 0.333227,0.0652 0.105525,0.0285 0.209623,0.0616 0.313932,0.094 0.107803,0.0333 0.214554,0.0693 0.325398,0.091 0.136603,0.015 0.272238,0.0308 0.406376,0.0615 0.151476,0.0398 0.29893,0.0931 0.446089,0.14636 0.141908,0.0542 0.291474,0.0749 0.442266,0.0816 0.163462,0.007 0.324996,-0.0188 0.483562,-0.0559 0.183342,-0.0463 0.357143,-0.12189 0.525442,-0.20687 0.02905,-0.0163 0.0581,-0.0325 0.08708,-0.0489 0.01526,-0.009 -0.0605,0.0356 -0.04604,0.0256 0.02785,-0.0193 0.0579,-0.0353 0.08648,-0.0536 0.09187,-0.0588 0.180784,-0.12216 0.270087,-0.1848 0.186853,-0.13137 0.368923,-0.26926 0.550027,-0.40839 0.163575,-0.12448 0.32693,-0.24928 0.489572,-0.37499 0.13065,-0.0997 0.25489,-0.20714 0.376292,-0.31781 0.114253,-0.10317 0.222124,-0.21294 0.327809,-0.32477 0.101509,-0.10671 0.195268,-0.22027 0.285111,-0.33686 0.09377,-0.11867 0.168179,-0.25022 0.237254,-0.38427 0.07529,-0.14794 0.140963,-0.30047 0.204462,-0.45376 0.07021,-0.17059 0.123335,-0.34738 0.176394,-0.52384 0.06556,-0.21413 0.133434,-0.42754 0.199352,-0.64156 0.0575,-0.17626 0.109236,-0.35547 0.185014,-0.52512 0.01506,-0.0336 0.03198,-0.0664 0.04797,-0.0995 0.11414,-0.2157 0.280053,-0.39538 0.449098,-0.56873 0.183103,-0.17944 0.370402,-0.35439 0.550647,-0.53674 0.17033,-0.17116 0.328456,-0.3536 0.471917,-0.54773 0.117591,-0.16749 0.201597,-0.35497 0.275343,-0.54499 0.03431,-0.10229 0.06622,-0.21444 0.03205,-0.32138 -0.0053,-0.0171 -0.01399,-0.0332 -0.02105,-0.0498 -0.07061,-0.12428 -0.1766,-0.17184 -0.305744,-0.21784 -0.205494,-0.0594 -0.421303,-0.0528 -0.63296,-0.0496 -0.260087,0.006 -0.519547,0.0239 -0.778001,0.0532 -0.288748,0.0349 -0.572759,0.0988 -0.855911,0.1637 -0.306143,0.0707 -0.611061,0.14644 -0.914413,0.22831 -0.292472,0.0795 -0.579434,0.17673 -0.864558,0.27908 -0.281639,0.10518 -0.559648,0.21976 -0.839548,0.32945 -0.238134,0.0921 -0.480478,0.17274 -0.726754,0.24003 -0.196891,0.0535 -0.39856,0.0853 -0.600993,0.10827 -0.113316,0.0106 -0.227458,0.0208 -0.34133,0.0128 -0.07171,-0.005 -0.08512,-0.01 -0.155274,-0.0226 -0.144703,-0.0352 -0.27583,-0.10587 -0.402734,-0.18154 -0.114361,-0.0761 -0.239114,-0.13137 -0.368775,-0.17508 -0.128794,-0.0381 -0.261564,-0.0577 -0.395312,-0.0661 -0.150888,-0.009 -0.300178,0.0107 -0.447836,0.0396 -0.168344,0.0361 -0.332491,0.0884 -0.492586,0.15126 -0.171068,0.0698 -0.337533,0.15017 -0.505857,0.22622 -0.168127,0.0718 -0.333872,0.14839 -0.493702,0.23722 0.01799,-0.01 0.06926,-0.0424 0.05395,-0.0288 -0.02324,0.0204 -0.05234,0.0332 -0.07818,0.0502 -0.02562,0.0169 -0.05086,0.0344 -0.0762,0.0518 -0.07415,0.0508 -0.147593,0.10177 -0.223657,0.14971 -0.215689,0.13965 -0.355355,0.18279 -0.60108,0.20429 -0.165315,0.008 -0.330928,0.003 -0.496374,0.003 -0.175811,-0.005 -0.336779,0.0222 -0.504753,0.071 -0.157717,0.0516 -0.309173,0.11993 -0.455578,0.19766 0.02199,-0.0122 0.06809,-0.0616 0.06596,-0.0365 -0.0023,0.027 -0.04511,0.0303 -0.06682,0.0466 -0.09146,0.0688 -0.169751,0.15062 -0.245834,0.23558 -0.108763,0.12197 -0.19603,0.26021 -0.281664,0.39873 -0.04335,0.0664 -0.08412,0.1373 -0.144111,0.19056 -0.02924,0.026 -0.04349,0.0326 -0.07644,0.0527 -0.125477,0.0869 -0.257638,0.13352 -0.402217,0.17065 -0.111815,0.0279 -0.224371,0.0526 -0.33892,0.0656 -0.121834,0.01 -0.243563,0.0163 -0.36265,0.045 -0.04801,0.0165 -0.06219,0.0197 -0.107724,0.0419 -0.01688,0.008 -0.06585,0.0362 -0.04949,0.027 0.147439,-0.0831 0.09623,-0.0572 0.04698,-0.0186 -0.01401,0.011 -0.02719,0.0231 -0.04077,0.0345 -0.08257,0.0745 -0.14296,0.16793 -0.199712,0.26253 -0.05529,0.095 -0.101379,0.19478 -0.157598,0.28921 -0.07809,0.12872 -0.207712,0.19683 -0.343921,0.25612 -0.01458,0.007 -0.02915,0.0127 -0.04372,0.0191 0,0 0.125481,-0.0993 0.125481,-0.0993 v 0 c 0.01458,-0.007 0.02916,-0.0129 0.04373,-0.0192 0.04403,-0.0205 0.133139,-0.0638 -0.0553,0.0387 -0.01308,0.007 0.02516,-0.0161 0.03676,-0.0254 0.02333,-0.0188 0.04469,-0.0424 0.06301,-0.066 0.0099,-0.0127 0.01862,-0.0262 0.02792,-0.0392 0.05753,-0.0938 0.103464,-0.19375 0.158021,-0.28927 0.05643,-0.0957 0.116148,-0.19033 0.197507,-0.26716 0.122672,-0.10841 0.269054,-0.19249 0.425367,-0.24123 0.119701,-0.0265 0.241639,-0.0327 0.363501,-0.0436 0.114222,-0.0146 0.226665,-0.0394 0.33821,-0.0678 0.06238,-0.0166 0.124235,-0.0342 0.184166,-0.0586 0.0134,-0.005 0.05153,-0.0257 0.03984,-0.0172 -0.03091,0.0225 -0.06536,0.0398 -0.09804,0.0596 0.0322,-0.018 0.04932,-0.0256 0.07824,-0.0492 0.06237,-0.0508 0.10404,-0.12167 0.147694,-0.18782 0.08619,-0.13903 0.17286,-0.27854 0.281497,-0.40161 0.152537,-0.17314 0.301569,-0.30237 0.513616,-0.40498 0.147061,-0.0767 0.298828,-0.1447 0.457181,-0.1948 0.168983,-0.0474 0.331239,-0.0728 0.507473,-0.0676 0.165194,1.7e-4 0.330612,0.006 0.495616,-0.004 0.107314,-0.0105 0.213566,-0.0247 0.315575,-0.0617 0.0251,-0.009 0.05057,-0.044 0.0739,-0.031 0.02087,0.0116 -0.04034,0.0257 -0.06051,0.0384 0.199009,-0.12317 0.382049,-0.27111 0.591647,-0.37758 0.160339,-0.088 0.326452,-0.16391 0.494426,-0.2362 0.168425,-0.0763 0.335141,-0.15659 0.50667,-0.22579 0.160927,-0.0621 0.325736,-0.11398 0.494758,-0.14935 0.148829,-0.0282 0.299321,-0.0468 0.451181,-0.037 0.134655,0.01 0.268456,0.0298 0.397852,0.0694 0.130134,0.045 0.255087,0.10178 0.370237,0.17806 0.125627,0.0745 0.255564,0.14414 0.39913,0.17716 0.06974,0.0123 0.08241,0.0165 0.153652,0.0209 0.113194,0.007 0.226578,-0.003 0.339164,-0.0141 0.201448,-0.0233 0.402088,-0.0554 0.597958,-0.10895 0.245204,-0.0675 0.486642,-0.14781 0.723803,-0.23979 0.279734,-0.10957 0.557596,-0.22401 0.839235,-0.32865 0.28533,-0.10216 0.572586,-0.19896 0.865305,-0.2781 0.303478,-0.0815 0.608536,-0.15674 0.914626,-0.22777 0.283918,-0.0652 0.568782,-0.12883 0.858369,-0.16341 0.258954,-0.0291 0.518914,-0.0462 0.779466,-0.0524 0.21393,-0.003 0.432163,-0.01 0.639523,0.0518 0.133528,0.0483 0.241585,0.0993 0.314345,0.22788 0.0075,0.0175 0.01639,0.0343 0.02225,0.0522 0.03584,0.11007 0.0053,0.22534 -0.03025,0.33099 -0.07439,0.19143 -0.158938,0.3804 -0.276256,0.54988 -0.142848,0.19518 -0.300913,0.37833 -0.471464,0.54996 -0.180124,0.18262 -0.367311,0.35781 -0.550986,0.5368 -0.168665,0.1719 -0.334232,0.35006 -0.449585,0.56353 -0.01606,0.0329 -0.03311,0.0654 -0.04824,0.0987 -0.07652,0.1691 -0.12853,0.34805 -0.186174,0.52404 -0.06569,0.21376 -0.133327,0.42693 -0.198272,0.64091 -0.05257,0.17662 -0.1047,0.35373 -0.174268,0.5246 -0.06336,0.15357 -0.128991,0.30634 -0.203683,0.45481 -0.06851,0.13471 -0.141942,0.26733 -0.235502,0.38662 -0.08964,0.11717 -0.183263,0.23128 -0.284751,0.33845 -0.105665,0.11219 -0.213316,0.22249 -0.327643,0.32597 -0.121542,0.1112 -0.245702,0.21944 -0.376778,0.3194 -0.163195,0.12598 -0.327243,0.25086 -0.491298,0.37573 -0.18117,0.13913 -0.363034,0.27739 -0.549794,0.409 -0.213503,0.15024 -0.429651,0.29643 -0.662748,0.41553 -0.169411,0.0842 -0.34412,0.1594 -0.528489,0.20453 -0.159865,0.0361 -0.322517,0.0608 -0.487005,0.0531 -0.151795,-0.008 -0.301958,-0.0305 -0.444582,-0.0857 -0.146846,-0.0529 -0.294016,-0.10598 -0.445467,-0.14439 -0.134529,-0.0297 -0.270594,-0.0438 -0.40713,-0.0605 -0.111096,-0.0229 -0.218456,-0.0586 -0.326726,-0.0921 -0.104072,-0.0324 -0.20803,-0.0653 -0.31338,-0.0934 -0.109021,-0.028 -0.218716,-0.0553 -0.331457,-0.063 -0.114968,-0.008 -0.230209,-0.0134 -0.345508,-0.011 -0.105831,6.7e-4 -0.211722,0.002 -0.317404,-0.005 -0.101101,-0.005 -0.2023,-0.0117 -0.302291,-0.0284 -0.101844,-0.0197 -0.201652,-0.0481 -0.295884,-0.0922 -0.08872,-0.0436 -0.175287,-0.0917 -0.255147,-0.15027 -0.0659,-0.0511 -0.130948,-0.1039 -0.182625,-0.17001 -0.05113,-0.0598 -0.105165,-0.11712 -0.154887,-0.17811 -0.04443,-0.0665 -0.05312,-0.10297 -0.0157,-0.17691 0.02803,-0.0523 0.06363,-0.10255 0.07625,-0.16131 0.0029,-0.0445 -0.01336,-0.0757 -0.05091,-0.101 -0.05682,-0.0484 -0.09945,-0.10883 -0.136215,-0.17356 -0.05305,-0.0889 -0.109693,-0.17554 -0.176136,-0.25517 -0.06283,-0.0759 -0.126157,-0.15309 -0.202358,-0.21601 -0.07481,-0.0471 -0.139697,-0.0594 -0.227154,-0.0418 -0.09337,0.0262 -0.181125,0.0719 -0.278635,0.0828 -0.112665,0.006 -0.220969,-0.0176 -0.326893,-0.0559 -0.130495,-0.0462 -0.258035,-0.10061 -0.377799,-0.17059 -0.107183,-0.0634 -0.213722,-0.1322 -0.287619,-0.23486 -0.04764,-0.0728 -0.08471,-0.15103 -0.112516,-0.23361 -0.02411,-0.0706 -0.04766,-0.14133 -0.06623,-0.21361 -0.01366,-0.0534 -0.0268,-0.10711 -0.04248,-0.15999 -0.01101,-0.0312 -0.02329,-0.0628 -0.04523,-0.0882 -0.0089,-0.008 -0.01909,-0.0183 -0.03264,-0.0159 -0.0029,4.3e-4 -0.01067,0.005 -0.0082,0.003 0.04277,-0.0262 0.08616,-0.0514 0.129248,-0.0771 -0.04175,0.0299 -0.05038,0.0894 -0.06695,0.13457 -0.02367,0.0815 -0.04571,0.16358 -0.06125,0.24709 -0.0174,0.0822 -0.03619,0.16408 -0.05836,0.24513 -0.01716,0.0645 -0.03204,0.12985 -0.05569,0.19241 -0.04536,0.11648 -0.05033,0.10398 -0.19645,0.18079 -0.03158,0.003 -0.04899,-0.0203 -0.06229,-0.0468 -0.03048,-0.0701 -0.04345,-0.14575 -0.0553,-0.22091 -0.01351,-0.0852 -0.03109,-0.16961 -0.05875,-0.25147 -0.02821,-0.0794 -0.06176,-0.15675 -0.09564,-0.23391 -0.03157,-0.0727 -0.06731,-0.14409 -0.118343,-0.20543 -0.04065,-0.0436 -0.08407,-0.0837 -0.146399,-0.0892 -0.07167,-0.003 -0.140824,0.0175 -0.208197,0.0403 -0.03151,0.0117 -0.0501,0.0178 -0.08064,0.032 -0.01319,0.006 -0.0512,0.0273 -0.03898,0.0195 0.204622,-0.13113 0.063,-0.0328 0.02018,-0.006 -0.07442,0.0571 -0.147639,0.11799 -0.19741,0.19885 -0.04648,0.079 -0.08466,0.16231 -0.129126,0.24246 -0.04367,0.072 -0.09004,0.14261 -0.146169,0.20565 -0.04951,0.053 -0.10102,0.10376 -0.16329,0.1419 -0.09731,0.0629 -0.197191,0.12241 -0.300477,0.17487 -0.04931,0.0213 -0.100021,0.0379 -0.154456,0.0375 -0.05761,-4.3e-4 -0.114908,-0.008 -0.170551,-0.023 -0.06219,-0.0189 -0.12308,-0.0428 -0.179603,-0.0752 -0.04771,-0.0309 -0.09395,-0.0649 -0.127012,-0.11195 -0.02506,-0.0426 -0.02956,-0.0876 -0.01716,-0.1357 0.01423,-0.038 0.02966,-0.0759 0.05321,-0.10915 0.0451,-0.0603 0.119236,-0.0943 0.186374,-0.12403 0,0 -0.128459,0.10139 -0.128459,0.10139 z"
         id="path927"
         style="opacity:1;fill:#000000;fill-opacity:1;stroke:#000000;stroke-width:0.21723457;stroke-miterlimit:4;stroke-dasharray:none;stroke-dashoffset:0.57106102;stroke-opacity:1" />
      <path
         inkscape:connector-curvature="0"
         d="m 92.230119,138.69808 c -0.02278,-0.0158 -0.05023,-0.0233 -0.07652,-0.0312 -0.04923,-0.0145 -0.0998,-0.0234 -0.15035,-0.0318 -0.07738,-0.0138 -0.155786,-0.0174 -0.234216,-0.0164 -0.09798,-4.3e-4 -0.194655,0.0115 -0.288868,0.038 -0.05983,0.0195 -0.117991,0.0443 -0.173795,0.0734 -0.01386,0.007 -0.0547,0.0305 -0.04124,0.0226 0.03205,-0.0189 0.06456,-0.0368 0.09686,-0.0553 -0.07865,0.0466 -0.149697,0.10293 -0.209725,0.17176 -0.05909,0.0749 -0.0934,0.16414 -0.124127,0.25338 -0.03045,0.0908 -0.0513,0.18429 -0.0686,0.27832 -0.01739,0.0988 -0.03091,0.19817 -0.04384,0.29762 -0.01119,0.10204 -0.01739,0.20455 -0.02372,0.30699 -0.006,0.10895 -0.01292,0.21791 -0.01632,0.32701 -0.0047,0.11049 0.0053,0.20134 0.04823,0.30351 0.04444,0.0969 0.116845,0.17139 0.199066,0.23683 0.0803,0.059 0.173082,0.0946 0.268154,0.12158 0.08835,0.0266 0.179512,0.0316 0.27094,0.0255 0.08507,-0.008 0.167479,-0.0314 0.248241,-0.0581 0.08604,-0.0346 0.173981,-0.0573 0.265856,-0.0689 0.09872,-0.0117 0.19706,0.003 0.294437,0.0181 0.115106,0.0208 0.231971,0.0252 0.34865,0.023 0.114646,-0.004 0.226275,-0.0276 0.334332,-0.065 0.03718,-0.0156 0.06276,-0.0253 0.09834,-0.0444 0.01592,-0.009 0.06289,-0.0357 0.0467,-0.0276 -0.03078,0.0153 -0.05863,0.0368 -0.0906,0.0494 -0.01679,0.007 0.02978,-0.0205 0.04431,-0.0311 0.01452,-0.0107 0.02865,-0.0219 0.04297,-0.0328 0.08541,-0.0661 0.16123,-0.14265 0.229826,-0.22575 0.06522,-0.0811 0.09221,-0.17601 0.100802,-0.27781 0.0013,-0.0972 -0.02292,-0.19109 -0.0547,-0.2821 -0.03538,-0.0949 -0.09072,-0.17951 -0.15037,-0.26063 -0.07045,-0.0934 -0.157392,-0.17171 -0.245396,-0.24797 -0.09745,-0.0873 -0.199052,-0.16958 -0.303658,-0.24808 -0.114274,-0.0895 -0.243438,-0.1548 -0.376585,-0.21081 -0.07796,-0.0312 -0.157879,-0.0571 -0.237621,-0.0833 0,0 0.129676,-0.0881 0.129676,-0.0881 v 0 c 0.08014,0.0265 0.160471,0.0525 0.238801,0.084 0.13418,0.0569 0.264423,0.12298 0.379556,0.2135 0.104813,0.0789 0.206754,0.16137 0.304598,0.24878 0.08892,0.077 0.17674,0.15625 0.247967,0.25055 0.06063,0.0823 0.116772,0.16829 0.153009,0.2646 0.03278,0.0929 0.05756,0.18865 0.05776,0.28795 -0.0073,0.10419 -0.03225,0.20245 -0.09718,0.2868 -0.06772,0.0844 -0.143221,0.16201 -0.2284,0.22913 -0.126712,0.0991 -0.266003,0.18434 -0.415746,0.24351 -0.109197,0.0355 -0.221645,0.0582 -0.336851,0.0607 -0.117498,0.001 -0.235049,-0.004 -0.350981,-0.0246 -0.09658,-0.0145 -0.194109,-0.0277 -0.291773,-0.0145 -0.09135,0.0131 -0.178466,0.0386 -0.26463,0.0716 -0.08164,0.0258 -0.164695,0.049 -0.250553,0.0547 -0.09262,0.005 -0.184728,-0.003 -0.273857,-0.0301 -0.09635,-0.0286 -0.190318,-0.066 -0.271253,-0.12708 -0.0837,-0.0677 -0.157432,-0.14456 -0.20321,-0.24359 -0.04411,-0.10434 -0.05603,-0.19657 -0.0511,-0.30972 0.0033,-0.10919 0.0095,-0.21826 0.01579,-0.32732 0.006,-0.10273 0.01233,-0.20553 0.02312,-0.30792 0.01279,-0.0996 0.02625,-0.19921 0.04324,-0.29823 0.01706,-0.0947 0.03744,-0.18894 0.06763,-0.28047 0.03038,-0.0906 0.06403,-0.18124 0.121356,-0.25872 0.05856,-0.0712 0.12901,-0.12897 0.207859,-0.17682 0.127325,-0.0737 0.252112,-0.15402 0.394527,-0.19563 0.09538,-0.0246 0.192916,-0.0353 0.291487,-0.0348 0.07937,-2.1e-4 0.158664,0.004 0.236954,0.0179 0.05123,0.009 0.102534,0.0179 0.152322,0.0331 0.02878,0.009 0.06003,0.0177 0.08267,0.0387 0,0 -0.14041,0.0841 -0.14041,0.0841 z"
         id="path937"
         style="opacity:1;fill:#000000;fill-opacity:1;stroke:#000000;stroke-width:0.21723457;stroke-miterlimit:4;stroke-dasharray:none;stroke-dashoffset:0.57106102;stroke-opacity:1" />
      <path
         inkscape:connector-curvature="0"
         d="m 86.916522,139.32759 c -0.01823,-1.2e-4 -0.03644,-1.2e-4 -0.05467,-1.8e-4 -0.03596,2.2e-4 -0.0717,0.006 -0.107379,0.01 -0.05436,0.005 -0.10678,0.0181 -0.158371,0.0355 -0.05996,0.0192 -0.117067,0.0458 -0.173537,0.0734 -0.0298,0.0213 -0.137745,0.0671 0.01468,-0.008 0.0094,-0.005 -0.01742,0.0116 -0.026,0.0176 -0.02336,0.0163 -0.02862,0.0207 -0.05126,0.038 -0.05112,0.0396 -0.09591,0.0862 -0.138276,0.13479 -0.04356,0.0508 -0.0806,0.10634 -0.114577,0.16378 -0.03644,0.0638 -0.0663,0.13085 -0.09297,0.19917 -0.02602,0.0701 -0.04375,0.14281 -0.05624,0.21643 -0.01325,0.0741 -0.0149,0.14903 -0.01184,0.22397 0.0043,0.0821 0.02007,0.16268 0.03906,0.24242 0.02033,0.0854 0.05368,0.16657 0.09057,0.24594 0.04036,0.0824 0.09185,0.1586 0.147715,0.23118 0.0564,0.0734 0.12504,0.13547 0.195932,0.19438 0.06952,0.0589 0.146192,0.10769 0.225515,0.15206 0.07454,0.0428 0.153744,0.0754 0.234868,0.10319 0.08364,0.0268 0.169033,0.0473 0.255362,0.0631 0.08714,0.0155 0.175632,0.0178 0.263847,0.0147 0.08381,-0.005 0.166907,-0.0169 0.249408,-0.0318 0.07938,-0.0139 0.155814,-0.0384 0.2292,-0.0713 -0.0217,0.0146 0.09498,-0.0495 0.07082,-0.0379 -0.02111,0.0101 -0.03928,0.027 -0.06185,0.0332 -0.01353,0.004 0.0227,-0.0165 0.03355,-0.0255 0.02788,-0.0229 0.0385,-0.0348 0.06408,-0.0604 0.06214,-0.0675 0.117178,-0.14124 0.171695,-0.21496 0.05338,-0.0727 0.101492,-0.14901 0.14634,-0.22721 0.04423,-0.0803 0.08476,-0.16261 0.124615,-0.24515 0.03999,-0.0829 0.07542,-0.16793 0.109056,-0.25361 0.03144,-0.0802 0.05524,-0.16287 0.07222,-0.24726 0.01379,-0.0782 0.01246,-0.15746 0.0067,-0.23623 -0.0067,-0.0766 -0.02462,-0.15135 -0.04664,-0.22481 -0.02355,-0.0747 -0.06068,-0.14362 -0.100228,-0.21079 -0.04057,-0.072 -0.09593,-0.13176 -0.157901,-0.18552 -0.07315,-0.06 -0.154658,-0.10863 -0.2379,-0.15318 -0.08924,-0.0462 -0.18226,-0.0843 -0.275951,-0.12036 -0.09634,-0.0372 -0.194755,-0.0683 -0.295029,-0.0929 -0.09539,-0.0221 -0.192789,-0.0323 -0.290192,-0.0402 -0.09101,-0.006 -0.182249,-0.003 -0.273331,-6.6e-4 -0.08756,0.002 -0.174207,0.0144 -0.260099,0.0307 -0.08259,0.017 -0.163521,0.0405 -0.243662,0.0665 -0.07656,0.0249 -0.149307,0.0592 -0.221371,0.0947 0.02229,-0.0141 -0.09302,0.0515 -0.06997,0.0383 0.02061,-0.0119 0.04069,-0.0247 0.06204,-0.0352 0.01189,-0.006 -0.02245,0.014 -0.03352,0.0212 -0.02904,0.019 -0.0361,0.0245 -0.06421,0.0446 -0.06475,0.0461 -0.119781,0.1033 -0.172178,0.16261 -0.04836,0.0549 -0.09073,0.11465 -0.131914,0.17502 0,0 -0.10285,0.0449 -0.10285,0.0449 v 0 c 0.04097,-0.0607 0.0831,-0.12075 0.131089,-0.17617 0.0521,-0.0599 0.106527,-0.11803 0.171043,-0.16488 0.09416,-0.0686 0.194903,-0.12739 0.298477,-0.18071 0.07227,-0.0353 0.145532,-0.0688 0.222326,-0.0934 0.08039,-0.0255 0.161503,-0.0488 0.244328,-0.0652 0.08626,-0.0159 0.173262,-0.0275 0.261099,-0.0293 0.09126,-0.003 0.182677,-0.005 0.273824,0.002 0.09773,0.008 0.195415,0.0192 0.291038,0.0418 0.100447,0.0252 0.199093,0.0567 0.29573,0.0941 0.09405,0.0363 0.187413,0.0748 0.276904,0.12142 0.0838,0.0452 0.165965,0.0943 0.23961,0.15504 0.06278,0.0547 0.11893,0.1154 0.160072,0.18846 0.03999,0.0679 0.07765,0.13763 0.101689,0.21307 0.02232,0.0742 0.04071,0.14961 0.0477,0.22698 0.0067,0.0797 0.0081,0.15987 -0.0053,0.23906 -0.01666,0.0851 -0.04037,0.16838 -0.07178,0.24924 -0.03351,0.0859 -0.06883,0.17119 -0.108721,0.25439 -0.03973,0.0828 -0.08039,0.16516 -0.124236,0.24584 -0.04451,0.0787 -0.0926,0.15529 -0.145816,0.22842 -0.05445,0.074 -0.109747,0.14779 -0.170995,0.21641 -0.02452,0.0252 -0.03664,0.0388 -0.06331,0.0617 -0.06978,0.0596 -0.153659,0.10084 -0.235252,0.14179 -0.07413,0.0318 -0.15106,0.0557 -0.230757,0.0691 -0.08279,0.0145 -0.166137,0.0266 -0.250196,0.0303 -0.08873,0.002 -0.177696,-6.5e-4 -0.265226,-0.0167 -0.08664,-0.0165 -0.172425,-0.0371 -0.256313,-0.0645 -0.08155,-0.0283 -0.161095,-0.0616 -0.235999,-0.10487 -0.07957,-0.0451 -0.156478,-0.0946 -0.226365,-0.15393 -0.07139,-0.0596 -0.140525,-0.12233 -0.197312,-0.19644 -0.05626,-0.0733 -0.108096,-0.15022 -0.14899,-0.23328 -0.03734,-0.08 -0.07109,-0.16174 -0.09189,-0.24779 -0.01933,-0.0803 -0.03543,-0.16151 -0.04034,-0.24417 -0.0035,-0.0756 -0.0024,-0.15125 0.01071,-0.22604 0.01203,-0.0743 0.0296,-0.14762 0.05522,-0.2185 0.02641,-0.0688 0.056,-0.13634 0.09201,-0.20072 0.0336,-0.058 0.07027,-0.11424 0.113568,-0.16561 0.04209,-0.0492 0.08653,-0.0965 0.137371,-0.13687 0.07966,-0.0622 0.166423,-0.11392 0.256401,-0.15992 0.05687,-0.0273 0.114322,-0.0535 0.174616,-0.0724 0.05222,-0.0169 0.105498,-0.0285 0.160197,-0.034 0.03619,-0.004 0.07244,-0.01 0.108976,-0.009 0.01838,-5e-5 0.03678,-1.2e-4 0.05516,-1.8e-4 0,0 -0.09358,0.068 -0.09358,0.068 z"
         id="path939"
         style="opacity:1;fill:#000000;fill-opacity:1;stroke:#000000;stroke-width:0.21723457;stroke-miterlimit:4;stroke-dasharray:none;stroke-dashoffset:0.57106102;stroke-opacity:1" />
      <path
         inkscape:connector-curvature="0"
         d="m 87.018388,138.59127 c 0.0026,-0.0223 0.0049,-0.0445 0.0067,-0.0668 0.0031,-0.0404 0.005,-0.081 0.0068,-0.12147 0.0023,-0.0518 0.004,-0.10361 0.0056,-0.15542 0.0015,-0.0486 0.0025,-0.0971 0.004,-0.14569 -0.0019,-0.0129 0.0039,-0.0267 0.0015,-0.0394 0.11828,-0.0578 0.105896,-0.0652 0.108528,0.008 0.0011,0.0295 -6.52e-4,0.059 -0.0011,0.0885 -6.52e-4,0.0241 -6.52e-4,0.0119 -8.66e-4,0.0366 0,0 -0.102127,0.0518 -0.102127,0.0518 v 0 c 6.52e-4,-0.0246 0,-0.0125 8.67e-4,-0.0366 6.52e-4,-0.0292 0.0019,-0.0584 0.0011,-0.0876 -0.0032,-0.0787 -0.0187,-0.0425 0.100612,-0.10604 -0.0061,-0.006 -0.0046,0.031 -0.0059,0.0332 -0.0024,0.0486 -0.0036,0.0973 -0.0049,0.146 -0.0015,0.0518 -0.0031,0.1036 -0.0052,0.15538 -0.0017,0.0405 -0.0033,0.081 -0.0061,0.12149 -0.0015,0.0219 -0.0027,0.0439 -0.0061,0.0656 0,0 -0.103241,0.0526 -0.103241,0.0526 z"
         id="path941"
         style="opacity:1;fill:#000000;fill-opacity:1;stroke:#000000;stroke-width:0.21723457;stroke-miterlimit:4;stroke-dasharray:none;stroke-dashoffset:0.57106102;stroke-opacity:1" />
      <path
         inkscape:connector-curvature="0"
         d="m 87.136014,141.84271 c 0,0.0223 0,0.0445 -6.52e-4,0.0667 -8.66e-4,0.0385 0.0015,0.077 0.0035,0.1154 0.0026,0.0482 0.0048,0.0965 0.0067,0.14479 0.0022,0.0586 0.0069,0.11695 0.01062,0.17539 0.0048,0.0693 0.007,0.13884 0.01101,0.20822 0.0011,0.0113 0.0019,0.0227 0.0029,0.0341 0,0 -0.100342,0.0522 -0.100342,0.0522 v 0 c -0.0011,-0.0115 -0.0019,-0.0229 -0.003,-0.0344 -0.0041,-0.0693 -0.0062,-0.13875 -0.01123,-0.20802 -0.0039,-0.0585 -0.0089,-0.11688 -0.01117,-0.17544 -0.0019,-0.0482 -0.0043,-0.0963 -0.007,-0.14444 -0.0022,-0.0386 -0.005,-0.0771 -0.0044,-0.11571 0,-0.0221 0,-0.0442 -6.52e-4,-0.0664 0,0 0.102983,-0.0525 0.102983,-0.0525 z"
         id="path943"
         style="opacity:1;fill:#000000;fill-opacity:1;stroke:#000000;stroke-width:0.21723457;stroke-miterlimit:4;stroke-dasharray:none;stroke-dashoffset:0.57106102;stroke-opacity:1" />
      <path
         inkscape:connector-curvature="0"
         d="m 89.153573,140.23209 c 0.01646,6e-5 0.03291,1.2e-4 0.0493,1.8e-4 0.02811,-6.6e-4 0.0561,4.3e-4 0.08406,0.003 0.02518,0.003 0.05043,0.005 0.07571,0.007 0,0 -0.09291,0.0665 -0.09291,0.0665 v 0 c -0.02545,-0.002 -0.05083,-0.004 -0.07621,-0.006 -0.02792,-0.002 -0.05583,-0.003 -0.08381,-0.002 -0.01659,5e-5 -0.03318,5e-5 -0.04977,1.6e-4 0,0 0.09362,-0.068 0.09362,-0.068 z"
         id="path945"
         style="opacity:1;fill:#000000;fill-opacity:1;stroke:#000000;stroke-width:0.21723457;stroke-miterlimit:4;stroke-dasharray:none;stroke-dashoffset:0.57106102;stroke-opacity:1" />
      <path
         inkscape:connector-curvature="0"
         d="m 85.409095,140.32918 c -0.0176,6.5e-4 -0.03501,-0.002 -0.05249,-0.003 -0.03404,-0.003 -0.0682,-0.005 -0.102347,-0.007 -0.05218,-0.003 -0.10439,-0.005 -0.156607,-0.006 -0.04228,-10e-4 -0.08457,-0.003 -0.126858,-0.003 0,0 0.09175,-0.0663 0.09175,-0.0663 v 0 c 0.04239,0.001 0.08478,0.002 0.127167,0.003 0.05247,0.001 0.104929,0.003 0.157354,0.006 0.03445,0.002 0.0689,0.004 0.103251,0.007 0.01749,10e-4 0.03495,0.003 0.05251,0.002 0,0 -0.09374,0.0681 -0.09374,0.0681 z"
         id="path947"
         style="opacity:1;fill:#000000;fill-opacity:1;stroke:#000000;stroke-width:0.21723457;stroke-miterlimit:4;stroke-dasharray:none;stroke-dashoffset:0.57106102;stroke-opacity:1" />
      <path
         inkscape:connector-curvature="0"
         d="m 87.293242,139.13058 c -0.0199,0.0143 -0.03818,0.0306 -0.05592,0.0474 -0.03445,0.0333 -0.06851,0.067 -0.102046,0.10131 -0.04171,0.0421 -0.07646,0.0899 -0.108509,0.13952 -0.03402,0.0553 -0.06473,0.1126 -0.09419,0.17044 -0.03382,0.0624 -0.05553,0.12932 -0.07231,0.19792 -0.02003,0.0863 -0.01968,0.17507 -0.01679,0.26304 0.0035,0.10217 0.01592,0.20374 0.02846,0.30512 0.01267,0.10476 0.02895,0.20904 0.04613,0.31314 0.01716,0.10155 0.03831,0.20235 0.05944,0.30313 0.02057,0.10398 0.04502,0.2071 0.07164,0.30967 0.02853,0.10719 0.06177,0.21305 0.09109,0.32002 0.01599,0.0624 0.0085,0.0314 0.02243,0.0928 0,0 -0.0987,0.053 -0.0987,0.053 v 0 c -0.01347,-0.0611 -0.0062,-0.0302 -0.02178,-0.0925 -0.02883,-0.10717 -0.06188,-0.21313 -0.09089,-0.32025 -0.02697,-0.10263 -0.05143,-0.20591 -0.07216,-0.31 -0.02123,-0.10092 -0.04236,-0.20189 -0.05964,-0.30359 -0.01718,-0.10425 -0.03345,-0.20868 -0.04626,-0.31358 -0.01266,-0.1016 -0.02544,-0.20336 -0.02934,-0.30576 -0.0034,-0.0887 -0.0043,-0.17822 0.01482,-0.26542 0.01612,-0.0693 0.03675,-0.13717 0.07071,-0.20011 0.02926,-0.0582 0.06003,-0.11558 0.09356,-0.17139 0.03166,-0.0502 0.06581,-0.0988 0.107327,-0.14153 0.03313,-0.0343 0.06706,-0.0678 0.101055,-0.1013 0.0174,-0.017 0.03477,-0.034 0.0545,-0.0484 0,0 0.107393,-0.0428 0.107393,-0.0428 z"
         id="path949"
         style="opacity:1;fill:#000000;fill-opacity:1;stroke:#000000;stroke-width:0.21723457;stroke-miterlimit:4;stroke-dasharray:none;stroke-dashoffset:0.57106102;stroke-opacity:1" />
      <path
         inkscape:connector-curvature="0"
         d="m 87.353822,139.01025 c -6.52e-4,0.0167 0.0049,0.0329 0.0087,0.049 0.007,0.0303 0.0116,0.0612 0.01586,0.092 0.0051,0.0422 0.01215,0.0842 0.02029,0.12598 0.01036,0.0514 0.01896,0.10325 0.0269,0.15514 0.0089,0.0597 0.0162,0.11967 0.02267,0.17971 0.0074,0.0697 0.01347,0.13957 0.01862,0.20949 0.0061,0.0866 0.01075,0.17332 0.01525,0.26003 0.0057,0.0917 0.0083,0.18352 0.0091,0.27539 8.66e-4,0.0936 0.0013,0.18728 -6.53e-4,0.28091 -6.51e-4,0.0965 -0.0072,0.19265 -0.01651,0.28862 -0.0093,0.099 -0.02791,0.1965 -0.05344,0.29244 -0.03121,0.10808 -0.06651,0.21493 -0.100733,0.32208 -0.01859,0.0561 -0.03574,0.11269 -0.05282,0.16929 0,0 -0.10021,0.0474 -0.10021,0.0474 v 0 c 0.01697,-0.0566 0.03389,-0.11326 0.05253,-0.16936 0.03413,-0.10693 0.06928,-0.21356 0.100514,-0.32139 0.02576,-0.0953 0.04455,-0.19228 0.05399,-0.29065 0.0094,-0.0957 0.01647,-0.19157 0.01686,-0.2878 0.0015,-0.0935 0.0013,-0.18705 6.52e-4,-0.28058 -8.66e-4,-0.0917 -0.0031,-0.18338 -0.009,-0.27494 -0.0045,-0.0865 -0.0093,-0.17308 -0.0157,-0.25951 -0.0054,-0.0697 -0.01145,-0.13938 -0.0189,-0.20891 -0.0066,-0.0598 -0.01382,-0.11959 -0.02278,-0.17909 -0.0079,-0.0517 -0.01653,-0.1033 -0.02701,-0.15454 -0.0083,-0.0418 -0.01575,-0.0839 -0.02103,-0.12632 -0.0043,-0.0304 -0.0088,-0.0608 -0.01582,-0.0907 -0.0041,-0.0169 -0.0099,-0.0337 -0.0106,-0.0511 0,0 0.103141,-0.0526 0.103141,-0.0526 z"
         id="path951"
         style="opacity:1;fill:#000000;fill-opacity:1;stroke:#000000;stroke-width:0.21723457;stroke-miterlimit:4;stroke-dasharray:none;stroke-dashoffset:0.57106102;stroke-opacity:1" />
      <path
         inkscape:connector-curvature="0"
         d="m 86.102918,140.23033 c 0.01664,-0.002 0.03261,-0.008 0.04846,-0.0133 0.04788,-0.0137 0.09763,-0.0188 0.146671,-0.0266 0.08314,-0.0126 0.166549,-0.0236 0.249902,-0.0348 0.09651,-0.0127 0.19323,-0.0237 0.28978,-0.0361 0.103545,-0.0129 0.207025,-0.0263 0.310563,-0.0392 0.114678,-0.0145 0.229182,-0.0294 0.344768,-0.0332 0.05934,-0.001 0.118517,0.003 0.177626,0.008 0,0 -0.09027,0.0646 -0.09027,0.0646 v 0 c -0.05886,-0.004 -0.117779,-0.009 -0.176854,-0.007 -0.115419,0.005 -0.229839,0.0197 -0.344389,0.0342 -0.103682,0.0132 -0.207318,0.0267 -0.311034,0.0396 -0.0966,0.0125 -0.19338,0.0234 -0.289919,0.0363 -0.08365,0.0113 -0.167325,0.0225 -0.250702,0.0356 -0.04929,0.008 -0.09933,0.0137 -0.146985,0.0291 -0.01638,0.005 -0.03286,0.01 -0.04979,0.013 0,0 0.09217,-0.0702 0.09217,-0.0702 z"
         id="path953"
         style="opacity:1;fill:#000000;fill-opacity:1;stroke:#000000;stroke-width:0.21723457;stroke-miterlimit:4;stroke-dasharray:none;stroke-dashoffset:0.57106102;stroke-opacity:1" />
      <path
         inkscape:connector-curvature="0"
         d="m 86.265501,140.36274 c 0.01999,0.005 0.03958,0.01 0.0589,0.0167 0.03825,0.0128 0.07547,0.0285 0.112626,0.0442 0.05586,0.0226 0.112705,0.0425 0.170114,0.0608 0.06958,0.0213 0.140294,0.0385 0.211163,0.0548 0.07886,0.0185 0.158681,0.0323 0.238586,0.0454 0.08682,0.0141 0.173957,0.0261 0.261168,0.0375 0.09174,0.0129 0.183885,0.0212 0.276359,0.0263 0.0932,0.006 0.186103,-4.4e-4 0.278606,-0.0115 0.08809,-0.009 0.174103,-0.0308 0.258518,-0.0571 0.05193,-0.0182 0.102395,-0.0404 0.150969,-0.0662 0.01173,-0.006 0.04633,-0.026 0.03488,-0.0193 -0.02068,0.0121 -0.04169,0.0237 -0.06254,0.0356 0.06712,-0.0392 0.125312,-0.0907 0.183063,-0.14219 0.0094,-0.009 0.01875,-0.0173 0.02811,-0.0259 0,0 0.104348,-0.0428 0.104348,-0.0428 v 0 c -0.0093,0.009 -0.01868,0.0174 -0.02803,0.0261 -0.05785,0.0516 -0.115454,0.10426 -0.182334,0.14427 -0.10255,0.0595 -0.203623,0.12292 -0.31738,0.15917 -0.08483,0.0256 -0.171183,0.0462 -0.259495,0.0553 -0.0929,0.0106 -0.186192,0.016 -0.279683,0.01 -0.0927,-0.005 -0.185045,-0.0141 -0.277037,-0.0268 -0.08731,-0.0115 -0.174539,-0.0236 -0.261466,-0.0378 -0.08018,-0.0132 -0.160291,-0.027 -0.239403,-0.0458 -0.07115,-0.0165 -0.142139,-0.0339 -0.21198,-0.0554 -0.05778,-0.0185 -0.115045,-0.0385 -0.171313,-0.0612 -0.03721,-0.0153 -0.07448,-0.0307 -0.112838,-0.043 -0.01866,-0.006 -0.03786,-0.0121 -0.05749,-0.0133 0,0 0.09358,-0.068 0.09358,-0.068 z"
         id="path955"
         style="opacity:1;fill:#000000;fill-opacity:1;stroke:#000000;stroke-width:0.21723457;stroke-miterlimit:4;stroke-dasharray:none;stroke-dashoffset:0.57106102;stroke-opacity:1" />
      <path
         inkscape:connector-curvature="0"
         d="m 87.701423,139.89823 c 0.03577,4.3e-4 0.07154,4.3e-4 0.107297,6.5e-4 0.05718,-0.001 0.113857,0.002 0.169419,0.0159 0.05542,0.0167 0.1027,0.0508 0.150572,0.0821 0.05864,0.0394 0.122236,0.0704 0.186476,0.0995 0.0316,0.0137 0.06373,0.0261 0.09572,0.0388 0,0 -0.09416,0.0631 -0.09416,0.0631 v 0 c -0.03195,-0.0129 -0.06399,-0.0256 -0.09554,-0.0396 -0.06475,-0.0294 -0.128753,-0.0609 -0.188051,-0.1005 -0.04703,-0.0306 -0.09367,-0.0637 -0.148519,-0.0787 -0.05523,-0.0125 -0.111448,-0.015 -0.167981,-0.0137 -0.0363,6e-5 -0.07259,1.7e-4 -0.108891,6.5e-4 0,0 0.09366,-0.068 0.09366,-0.068 z"
         id="path957"
         style="opacity:1;fill:#000000;fill-opacity:1;stroke:#000000;stroke-width:0.21723457;stroke-miterlimit:4;stroke-dasharray:none;stroke-dashoffset:0.57106102;stroke-opacity:1" />
      <path
         inkscape:connector-curvature="0"
         d="m 66.277777,125.83252 c -4.35e-4,0.0504 -6.52e-4,0.10069 -8.66e-4,0.15103 0.0017,0.0888 0.01625,0.1767 0.0275,0.26466 0.0159,0.12352 0.02737,0.24753 0.03723,0.37167 0.01241,0.16889 0.02191,0.338 0.03087,0.50711 0.0099,0.18955 0.01807,0.37919 0.02566,0.56885 0.0086,0.20996 0.01488,0.41999 0.02094,0.63003 0.0045,0.24322 0.01258,0.48621 0.02907,0.72893 0.0171,0.27164 0.05067,0.54173 0.08437,0.81169 0.03437,0.2773 0.07473,0.55383 0.111665,0.83081 0.03719,0.301 0.07914,0.60134 0.125808,0.90101 0.05077,0.319 0.108211,0.63688 0.16147,0.95548 0.05139,0.31387 0.10938,0.6266 0.16217,0.94023 0.05783,0.33015 0.110351,0.66118 0.165201,0.99183 0.05816,0.34971 0.11098,0.70028 0.154303,1.05214 0.04259,0.37186 0.06307,0.74567 0.07171,1.1197 0.0058,0.37057 -0.01442,0.74061 -0.03592,1.11036 -0.02336,0.34641 -0.05436,0.69215 -0.09952,1.0364 -0.05091,0.34678 -0.114674,0.69152 -0.179757,1.03587 -0.06637,0.34818 -0.126957,0.69742 -0.184145,1.04721 -0.05963,0.34722 -0.102646,0.69688 -0.136995,1.04741 -0.03646,0.38402 -0.05217,0.76955 -0.06205,1.15504 -0.0055,0.26842 -0.0036,0.13476 -0.0059,0.40098 0,0 -0.277256,0.14097 -0.277256,0.14097 v 0 c 0.0024,-0.26672 4.35e-4,-0.13287 0.0059,-0.40157 0.0094,-0.38579 0.02359,-0.7717 0.05917,-1.1561 0.03355,-0.35115 0.07622,-0.70143 0.135959,-1.04918 0.0571,-0.35002 0.117557,-0.69947 0.183772,-1.0479 0.06503,-0.3438 0.128774,-0.68798 0.180187,-1.03413 0.04562,-0.34369 0.07695,-0.68885 0.101188,-1.0347 0.02189,-0.36907 0.04303,-0.7384 0.03754,-1.10833 -0.0082,-0.37305 -0.0279,-0.7459 -0.0706,-1.11676 -0.04325,-0.35135 -0.09649,-0.70134 -0.154526,-1.05054 -0.05497,-0.33049 -0.107805,-0.66134 -0.166111,-0.99127 -0.05273,-0.31367 -0.110869,-0.62639 -0.162126,-0.9403 -0.05308,-0.31873 -0.110381,-0.63673 -0.161597,-0.95576 -0.04735,-0.29958 -0.0902,-0.59984 -0.12776,-0.90081 -0.03685,-0.27707 -0.07726,-0.55366 -0.111803,-0.83103 -0.03386,-0.27034 -0.06821,-0.54076 -0.08607,-0.81277 -0.01718,-0.24285 -0.0262,-0.48598 -0.03093,-0.72939 -0.0063,-0.20977 -0.01327,-0.41951 -0.0218,-0.62918 -0.0078,-0.18943 -0.01599,-0.37883 -0.02612,-0.56815 -0.0092,-0.16862 -0.01866,-0.33724 -0.03187,-0.5056 -0.01032,-0.1234 -0.022,-0.2467 -0.03804,-0.36951 -0.01171,-0.089 -0.02688,-0.1778 -0.03085,-0.26763 -2.18e-4,-0.0501 -4.35e-4,-0.10016 -8.66e-4,-0.15024 0,0 0.291567,-0.14856 0.291567,-0.14856 z"
         id="path959"
         style="opacity:1;fill:#000000;fill-opacity:1;stroke:#000000;stroke-width:0.21723457;stroke-miterlimit:4;stroke-dasharray:none;stroke-dashoffset:0.57106102;stroke-opacity:1" />
      <path
         inkscape:connector-curvature="0"
         d="m 66.855916,143.49154 c 0.04961,-0.003 0.09914,-0.0107 0.148775,-0.0156 0.09972,-0.0127 0.199547,-0.0238 0.299773,-0.0323 0.173902,-0.0206 0.347932,-0.04 0.52212,-0.058 0.220502,-0.0201 0.439889,-0.0494 0.658931,-0.0814 0.262486,-0.043 0.526743,-0.0714 0.792265,-0.0859 0.312894,-0.0158 0.626319,-0.0137 0.939452,-0.008 0.32568,0.002 0.650183,0.0307 0.974174,0.0612 0.351421,0.041 0.701015,0.0961 1.050119,0.1532 0.382973,0.0627 0.765812,0.12657 1.150369,0.17885 0.36624,0.0526 0.734387,0.0851 1.104008,0.0988 0.364259,0.0109 0.727998,-0.0153 1.08965,-0.0564 0.394151,-0.0443 0.780092,-0.13674 1.164618,-0.23091 0.382622,-0.0943 0.75954,-0.20968 1.136639,-0.32362 0.362523,-0.11017 0.722023,-0.22988 1.083964,-0.34189 0.358406,-0.1122 0.721505,-0.20786 1.08712,-0.29326 0.353434,-0.0836 0.711934,-0.13823 1.07303,-0.17424 0.353649,-0.0344 0.708664,-0.0512 1.063739,-0.0613 0.340031,-0.0118 0.680259,-10e-4 1.019629,0.0208 0.324864,0.0206 0.648181,0.061 0.969659,0.11143 0.316059,0.0486 0.628675,0.11615 0.9406,0.18589 0.307954,0.0649 0.611685,0.14746 0.914264,0.23355 0.302803,0.0861 0.605016,0.17422 0.908717,0.25714 0.307334,0.0829 0.616633,0.15868 0.928484,0.22262 0.313643,0.0637 0.629696,0.11476 0.94869,0.14122 0.334598,0.018 0.669796,0.0213 1.004781,0.0266 0.351055,0.01 0.702023,0.0219 1.053065,0.032 0.391875,0.0102 0.783723,0.0223 1.175698,0.0273 0.39576,0.0103 0.790926,-0.0107 1.185613,-0.0369 0.390736,-0.0263 0.779593,-0.0722 1.167564,-0.1246 0.262698,-0.0356 0.525036,-0.0737 0.786948,-0.11462 0,0 -0.24856,0.18652 -0.24856,0.18652 v 0 c -0.262285,0.0406 -0.524904,0.0791 -0.787948,0.11454 -0.388158,0.0518 -0.777201,0.097 -1.168124,0.12241 -0.395433,0.0259 -0.791352,0.0459 -1.187811,0.0354 -0.392121,-0.006 -0.784117,-0.0177 -1.176145,-0.0274 -0.351454,-0.01 -0.702862,-0.021 -1.05431,-0.0307 -0.335645,-0.005 -0.671549,-0.008 -1.006735,-0.0279 -0.319628,-0.0283 -0.63633,-0.08 -0.950659,-0.14436 -0.312288,-0.0647 -0.62215,-0.14055 -0.929943,-0.22405 -0.3037,-0.0832 -0.606021,-0.17122 -0.908889,-0.25738 -0.302258,-0.0855 -0.605718,-0.16718 -0.913179,-0.23214 -0.311425,-0.0695 -0.623656,-0.13612 -0.939202,-0.18434 -0.32091,-0.0494 -0.643567,-0.0891 -0.967757,-0.10927 -0.338636,-0.021 -0.678051,-0.0311 -1.017292,-0.0188 -0.354503,0.0107 -0.708955,0.0276 -1.06199,0.0628 -0.360149,0.0374 -0.717675,0.0932 -1.070197,0.17715 -0.36516,0.086 -0.727684,0.18255 -1.085689,0.29494 -0.361648,0.11246 -0.721164,0.23162 -1.083664,0.34136 -0.377143,0.11382 -0.754323,0.22832 -1.137138,0.32189 -0.385615,0.0939 -0.772881,0.18493 -1.168085,0.22853 -0.362723,0.0401 -0.727506,0.0652 -1.092686,0.0528 -0.370028,-0.0148 -0.738528,-0.0488 -1.105161,-0.10171 -0.384581,-0.0533 -0.767558,-0.11721 -1.150768,-0.17949 -0.349398,-0.0562 -0.699272,-0.11046 -1.051013,-0.14997 -0.323415,-0.03 -0.647346,-0.0575 -0.972394,-0.0595 -0.31341,-0.005 -0.627104,-0.006 -0.940193,0.0116 -0.265178,0.0161 -0.529031,0.0457 -0.791274,0.0886 -0.220074,0.0322 -0.440537,0.0616 -0.662055,0.0821 -0.174839,0.0184 -0.349447,0.0388 -0.524091,0.0589 -0.100973,0.01 -0.2014,0.023 -0.302134,0.0346 -0.0505,0.005 -0.100942,0.0145 -0.15189,0.0137 0,0 0.264518,-0.19218 0.264518,-0.19218 z"
         id="path961"
         style="opacity:1;fill:#000000;fill-opacity:1;stroke:#000000;stroke-width:0.21723457;stroke-miterlimit:4;stroke-dasharray:none;stroke-dashoffset:0.57106102;stroke-opacity:1" />
      <path
         inkscape:connector-curvature="0"
         d="m 66.283479,125.28679 c 0.06579,0.0605 0.150858,0.0942 0.230518,0.13208 0.150417,0.0694 0.308797,0.11841 0.467938,0.16307 0.212277,0.059 0.428733,0.10052 0.645601,0.13836 0.255444,0.0464 0.51234,0.0801 0.771398,0.0965 0.27042,0.0176 0.538589,-0.0179 0.804,-0.0656 0.287252,-0.0569 0.574205,-0.11489 0.862527,-0.1662 0.348197,-0.0605 0.698835,-0.10518 1.049614,-0.14749 0.382897,-0.047 0.766683,-0.0849 1.151618,-0.11017 0.415364,-0.0227 0.831528,-0.023 1.247362,-0.0196 0.465326,0.002 0.930219,0.0246 1.394333,0.0568 0.447999,0.0327 0.892835,0.0958 1.33641,0.16497 0.444317,0.0767 0.884909,0.17313 1.325034,0.2706 0.420344,0.0936 0.837623,0.19987 1.252974,0.31343 0.404134,0.12127 0.811282,0.23068 1.222009,0.32715 0.467154,0.11753 0.941308,0.19179 1.420847,0.232 0.577779,0.0408 1.15743,0.0197 1.735747,0.005 0.609195,-0.0208 1.218638,-0.03 1.828023,-0.0429 0.584176,-0.0219 1.167442,-0.0493 1.752146,-0.0402 0.530837,0.0169 1.060964,0.05 1.59158,0.0722 0.52352,0.0237 1.047644,0.0237 1.571574,0.0244 0.661556,4.4e-4 1.323085,-0.009 1.98458,-0.0166 0.661875,0.008 1.317208,-0.0723 1.967497,-0.18691 0.508214,-0.0972 1.012264,-0.21401 1.51197,-0.34794 0.347404,-0.0913 0.682775,-0.21921 1.005435,-0.37611 0.304145,-0.16793 -0.03238,0.0242 -0.0503,0.0335 -0.03118,0.016 0.05983,-0.0367 0.08925,-0.0557 0.06243,-0.0406 0.11909,-0.0829 0.172783,-0.13417 0.05117,-0.0546 0.02512,-0.095 -0.01313,-0.14632 -0.0087,-0.007 -0.02565,-0.0317 -0.04051,-0.0294 -0.004,6.4e-4 -0.01239,0.0102 -0.0089,0.008 0.26471,-0.14082 0.348963,-0.21489 0.256496,-0.13545 -0.03744,0.0742 -0.02658,0.16276 -0.02239,0.24305 0,0 -0.287582,0.14863 -0.287582,0.14863 v 0 c -0.0053,-0.0862 -0.01492,-0.1761 0.01113,-0.25986 0.05143,-0.14544 0.273651,-0.27269 0.372395,-0.14131 0.04284,0.0597 0.08175,0.11972 0.03111,0.18858 -0.07646,0.0808 -0.168119,0.1435 -0.263964,0.19979 -0.340921,0.20021 -0.27006,0.16125 -0.493337,0.27732 -0.322733,0.15304 -0.657445,0.27806 -1.003702,0.36731 -0.49836,0.13166 -1.001045,0.24634 -1.507746,0.34138 -0.650516,0.11208 -1.305902,0.18914 -1.967444,0.18086 -0.663161,0.008 -1.326322,0.0181 -1.989536,0.0198 -0.524604,6.6e-4 -1.04938,2.2e-4 -1.573542,-0.0246 -0.530113,-0.0226 -1.059783,-0.0551 -1.590127,-0.0723 -0.583985,-0.009 -1.166569,0.019 -1.750048,0.04 -0.609128,0.0127 -1.218317,0.0215 -1.827253,0.0426 -0.580197,0.0153 -1.161781,0.0371 -1.741422,-0.005 -0.481125,-0.0413 -0.956871,-0.11634 -1.425691,-0.23406 -0.411377,-0.0964 -0.819178,-0.20563 -1.22385,-0.32726 -0.414635,-0.11346 -0.83126,-0.21933 -1.250841,-0.31305 -0.439802,-0.0975 -0.880186,-0.19341 -1.324448,-0.26862 -0.442737,-0.0688 -0.88673,-0.13152 -1.333912,-0.1635 -0.464026,-0.0317 -0.928821,-0.054 -1.394046,-0.0546 -0.416088,-0.002 -0.832499,-0.001 -1.248029,0.023 -0.384609,0.0262 -0.76815,0.064 -1.150721,0.1116 -0.351275,0.0431 -0.702378,0.0888 -1.050924,0.15069 -0.28869,0.0522 -0.575947,0.11131 -0.863926,0.16714 -0.267186,0.0462 -0.537073,0.079 -0.808829,0.0596 -0.259861,-0.0178 -0.517544,-0.0528 -0.773922,-0.0989 -0.218232,-0.038 -0.436046,-0.0798 -0.649542,-0.13957 -0.16096,-0.0455 -0.321001,-0.0957 -0.473136,-0.16601 -0.08383,-0.0392 -0.172185,-0.0757 -0.240468,-0.14003 0,0 0.27919,-0.1701 0.27919,-0.1701 z"
         id="path963"
         style="opacity:1;fill:#000000;fill-opacity:1;stroke:#000000;stroke-width:0.21723457;stroke-miterlimit:4;stroke-dasharray:none;stroke-dashoffset:0.57106102;stroke-opacity:1" />
      <path
         inkscape:connector-curvature="0"
         d="m 97.02776,125.29944 c -6.53e-4,0.0512 -6.53e-4,0.10237 -6.53e-4,0.15356 -6.53e-4,0.10053 -6.66e-4,0.20107 -0.0013,0.30161 0,0.13553 -6.53e-4,0.27108 -6.53e-4,0.40662 0.0093,0.16801 -0.01479,0.33324 -0.04137,0.49845 -0.03271,0.19655 -0.05976,0.39394 -0.09134,0.59067 -0.03924,0.25473 -0.07363,0.51021 -0.107011,0.76576 -0.03871,0.2959 -0.06882,0.59282 -0.103621,0.88919 -0.03631,0.29538 -0.07115,0.59093 -0.103606,0.88675 -0.03331,0.3144 -0.06129,0.62929 -0.09417,0.94372 -0.03511,0.33089 -0.06772,0.66203 -0.0985,0.99335 -0.02998,0.34829 -0.05969,0.69658 -0.0908,1.04477 -0.03131,0.34809 -0.06003,0.6964 -0.08754,1.0448 -0.02685,0.33946 -0.05043,0.67916 -0.07287,1.01893 -0.02172,0.33056 -0.04124,0.66124 -0.05996,0.99198 -0.01846,0.32488 -0.03438,0.64991 -0.04963,0.97496 -0.01419,0.3203 -0.03011,0.64056 -0.03917,0.96106 -0.0067,0.31883 0.01639,0.63717 0.03478,0.95525 0.01965,0.34435 0.03624,0.68886 0.05183,1.0334 0.01779,0.34997 0.02898,0.70013 0.03644,1.05044 0.0076,0.32942 0.004,0.65896 0.002,0.98842 0.0013,0.3319 -0.01626,0.66342 -0.03138,0.99486 -0.01572,0.3222 -0.04164,0.6437 -0.06826,0.96513 0,0 -0.281366,0.14044 -0.281366,0.14044 v 0 c 0.02672,-0.3212 0.0529,-0.64246 0.06939,-0.96439 0.01512,-0.33103 0.03298,-0.66214 0.03171,-0.99362 0.002,-0.3293 0.0053,-0.65867 -0.0013,-0.98792 -0.0071,-0.35018 -0.01732,-0.70023 -0.03544,-1.05005 -0.01586,-0.34419 -0.03258,-0.68836 -0.0531,-1.03232 -0.01872,-0.31888 -0.04151,-0.63805 -0.03591,-0.95769 0.0086,-0.32071 0.02465,-0.64115 0.03898,-0.96165 0.01539,-0.32515 0.03118,-0.65028 0.04963,-0.97527 0.01886,-0.33092 0.03844,-0.66178 0.06029,-0.9925 0.02252,-0.33992 0.04584,-0.67979 0.07289,-1.01939 0.02758,-0.34858 0.0565,-0.69706 0.08789,-1.04532 0.03105,-0.34805 0.06056,-0.6962 0.08982,-1.0444 0.03051,-0.33143 0.06343,-0.66264 0.0983,-0.99364 0.03244,-0.31427 0.06016,-0.62898 0.09283,-0.94323 0.03211,-0.29595 0.06706,-0.59157 0.1035,-0.88701 0.03511,-0.29633 0.06503,-0.59327 0.102974,-0.88927 0.03265,-0.25532 0.06589,-0.51061 0.10378,-0.76521 0.03111,-0.19653 0.05803,-0.39363 0.08988,-0.59003 0.02645,-0.1635 0.05283,-0.32683 0.04244,-0.49322 0,-0.13536 -6.46e-4,-0.27072 -6.46e-4,-0.40607 0,-0.1002 -6.53e-4,-0.20041 -0.0013,-0.3006 0,-0.0509 -6.53e-4,-0.10185 -6.53e-4,-0.15278 0,0 0.29152,-0.14854 0.29152,-0.14854 z"
         id="path969"
         style="opacity:1;fill:#000000;fill-opacity:1;stroke:#000000;stroke-width:0.21723457;stroke-miterlimit:4;stroke-dasharray:none;stroke-dashoffset:0.57106102;stroke-opacity:1" />
    </g>
  </g>
</svg>
