<?xml version="1.0" encoding="UTF-8" standalone="no"?>
<!-- Created with Inkscape (http://www.inkscape.org/) -->

<svg
   xmlns:dc="http://purl.org/dc/elements/1.1/"
   xmlns:cc="http://creativecommons.org/ns#"
   xmlns:rdf="http://www.w3.org/1999/02/22-rdf-syntax-ns#"
   xmlns:svg="http://www.w3.org/2000/svg"
   xmlns="http://www.w3.org/2000/svg"
   xmlns:sodipodi="http://sodipodi.sourceforge.net/DTD/sodipodi-0.dtd"
   xmlns:inkscape="http://www.inkscape.org/namespaces/inkscape"
   width="100"
   height="100.00094"
   id="svg2826"
   version="1.1"
   inkscape:version="0.47 r22583"
   sodipodi:docname="cv.svg"
   inkscape:export-filename="/home/maikel/Documentos/perellonieto.com/images/cv.png"
   inkscape:export-xdpi="90"
   inkscape:export-ydpi="90">
  <defs
     id="defs2828">
    <inkscape:perspective
       sodipodi:type="inkscape:persp3d"
       inkscape:vp_x="0 : 526.18109 : 1"
       inkscape:vp_y="0 : 1000 : 0"
       inkscape:vp_z="744.09448 : 526.18109 : 1"
       inkscape:persp3d-origin="372.04724 : 350.78739 : 1"
       id="perspective2833" />
  </defs>
  <sodipodi:namedview
     id="base"
     pagecolor="#ffffff"
     bordercolor="#666666"
     borderopacity="1.0"
     inkscape:pageopacity="0.0"
     inkscape:pageshadow="2"
     inkscape:zoom="1.979899"
     inkscape:cx="-49.013436"
     inkscape:cy="85.347527"
     inkscape:document-units="px"
     showgrid="false"
     inkscape:window-width="1366"
     inkscape:window-height="692"
     inkscape:window-x="1440"
     inkscape:window-y="158"
     inkscape:window-maximized="1"
     inkscape:current-layer="layer1" />
  <metadata
     id="metadata2831">
    <rdf:RDF>
      <cc:Work
         rdf:about="">
        <dc:format>image/svg+xml</dc:format>
        <dc:type
           rdf:resource="http://purl.org/dc/dcmitype/StillImage" />
        <dc:title></dc:title>
      </cc:Work>
    </rdf:RDF>
  </metadata>
  <g
     inkscape:groupmode="layer"
     id="layer1"
     inkscape:label="Capa"
     transform="translate(-268.25817,-575.08175)">
    <path
       style="fill:#000000"
       id="path3196"
       d="m 285.26431,593.09675 c -0.12933,0.89636 -0.23381,1.79442 -0.30073,2.69774 -0.0723,1.15364 -0.0715,2.31005 -0.0782,3.46544 -4.1e-4,1.34713 -0.009,2.69424 -0.0109,4.04137 -0.007,1.7129 -0.008,3.42582 -0.01,5.13874 7e-5,1.51208 0.014,3.0241 0.0203,4.53615 0.0653,1.06888 -0.078,2.12616 -0.19032,3.18558 -0.11979,1.15745 -0.13712,2.32195 -0.15323,3.48444 -0.0124,1.187 -0.005,2.37408 0.005,3.56107 -0.0136,1.01086 -0.0435,2.00152 0.18061,2.99103 0.17451,0.86632 0.43812,1.70816 0.72084,2.54375 0,0 -2.97014,1.63902 -2.97014,1.63902 l 0,0 c -0.27711,-0.84827 -0.54881,-1.69903 -0.73405,-2.57336 -0.0678,-0.29092 -0.18772,-0.76233 -0.21479,-1.05788 -0.0606,-0.66153 0.0385,-1.33699 -0.004,-1.99975 0.008,-1.19215 0.0123,-2.3843 0.0173,-3.57645 0.009,-1.1675 0.0115,-2.33719 0.11394,-3.50109 0.11333,-1.05308 0.28381,-2.10101 0.22838,-3.16431 0.006,-1.51895 0.0202,-3.03785 0.0202,-4.55682 -0.002,-1.7091 -0.004,-3.41819 -0.0122,-5.12726 -0.004,-1.34376 -0.0155,-2.68754 -0.0117,-4.0313 9.7e-4,-1.1586 0.005,-2.31775 0.0506,-3.47557 0.053,-0.88852 0.14849,-1.77377 0.26836,-2.6557 0,0 3.065,-1.56484 3.065,-1.56484 z" />
    <path
       style="fill:#000000"
       id="path3200"
       d="m 283.26654,628.39387 c 1.20492,0.73038 2.45548,1.38965 3.71921,2.0128 1.45295,0.64996 2.93075,1.22229 4.43281,1.74356 1.11561,0.48766 2.30169,0.71732 3.50455,0.84444 1.03366,0.0859 2.07173,0.0835 3.1081,0.0798 0.86755,-0.0677 1.71523,0.0556 2.57182,0.16737 0.8985,0.10748 1.77567,0.32443 2.67638,0.42785 0.86931,0.0858 1.74369,0.0891 2.6163,0.097 0.61283,0.002 1.22567,0.003 1.83843,-0.008 0,0 -2.76247,2.01173 -2.76247,2.01173 l 0,0 c -0.606,-0.009 -1.21205,-0.007 -1.81809,-0.0106 -0.88491,-0.005 -1.77233,-0.006 -2.65148,-0.12096 -0.8958,-0.12243 -1.77372,-0.34222 -2.67367,-0.43082 -0.84745,-0.10699 -1.69039,-0.17214 -2.54597,-0.13332 -1.03973,-0.008 -2.08165,-0.0137 -3.1169,-0.12199 -1.21417,-0.1593 -2.40427,-0.42992 -3.5352,-0.91386 -1.49762,-0.53644 -2.95929,-1.15491 -4.41207,-1.80425 -1.30221,-0.63355 -2.59389,-1.29407 -3.85898,-1.99843 0,0 2.90723,-1.8425 2.90723,-1.8425 z" />
    <path
       style="fill:#000000"
       id="path3202"
       d="m 305.94308,635.25383 c 0.67638,-0.55412 1.06517,-1.32342 1.51901,-2.04878 0.38067,-0.6183 0.76733,-1.23854 1.09652,-1.8865 0.21999,-0.61412 0.53202,-1.18786 0.78357,-1.78797 0.22735,-0.70615 0.32854,-1.44873 0.4636,-2.17771 0.13398,-0.72494 0.17464,-1.46129 0.19739,-2.19669 0.0195,-0.83024 0.0169,-1.66073 0.0223,-2.49112 -0.0372,-1.25214 0.1168,-2.49594 0.21552,-3.7417 0.0852,-1.15175 0.11128,-2.30644 0.12942,-3.46082 0.0176,-1.22962 0.0111,-2.45935 0.0118,-3.68904 0.008,-1.30941 5.1e-4,-2.61882 -0.002,-3.92823 -0.005,-1.03486 -0.0121,-2.06976 -0.0103,-3.10465 0.002,-0.93015 -9.7e-4,-1.86029 -0.005,-2.79045 -0.003,-0.74036 -0.005,-1.48074 -0.005,-2.22112 -6e-5,-0.11647 -1.1e-4,-0.23293 -1.8e-4,-0.3494 0,0 3.04365,-1.55394 3.04365,-1.55394 l 0,0 c -6e-5,0.11653 -1.2e-4,0.23306 -1.8e-4,0.34959 -6.3e-4,0.74213 -0.002,1.48426 -0.005,2.22638 -0.004,0.93186 -0.007,1.86369 -0.005,2.79555 0.002,1.03829 -0.005,2.07659 -0.01,3.11487 -0.002,1.30943 -0.009,2.61884 0.002,3.92825 0.002,1.22951 1.7e-4,2.45902 -9.7e-4,3.68853 -0.01,1.16416 -0.0424,2.32822 -0.13714,3.48899 -0.0907,1.23343 -0.25258,2.4648 -0.19849,3.70376 0.007,0.82985 0.0128,1.65987 0.002,2.4897 -0.0192,0.75157 -0.0532,1.50452 -0.18154,2.24677 -0.13294,0.74599 -0.25351,1.49435 -0.42398,2.23103 -0.22323,0.62202 -0.57713,1.18356 -0.77892,1.81353 -0.3006,0.67626 -0.71677,1.29429 -1.08293,1.93535 -0.49811,0.69475 -0.80203,1.52662 -1.46599,2.09855 0,0 -3.1738,1.31727 -3.1738,1.31727 z" />
    <path
       style="fill:#000000"
       id="path3206"
       d="m 314.52811,599.14946 c 0.84671,-0.44168 1.7419,-0.75894 2.62691,-1.10979 1.34815,-0.40811 4.50388,-2.32827 -0.70578,0.61952 0.56865,-0.38032 1.01722,-0.85876 1.30329,-1.48019 0.15969,-0.41097 0.19948,-0.84886 0.23515,-1.28399 0,0 3.05528,-1.5332 3.05528,-1.5332 l 0,0 c -0.0266,0.46389 -0.0564,0.93041 -0.18708,1.37927 -0.23645,0.68135 -0.63213,1.25039 -1.23806,1.65766 -1.70892,1.02546 -3.25736,2.12629 -5.13616,2.7416 -0.90391,0.3384 -1.77641,0.73823 -2.66264,1.11805 0,0 2.70909,-2.10893 2.70909,-2.10893 z" />
    <path
       style="fill:#000000"
       id="path3208"
       d="m 307.47932,586.85926 c -0.21552,0.88152 0.0783,1.7591 0.46144,2.54757 0.60168,0.87953 1.47435,1.53278 2.26927,2.22874 0.80729,0.70936 1.6534,1.32812 2.58784,1.85396 0.66586,0.37374 1.40251,0.49693 2.15189,0.55413 0.74224,0.0349 1.48579,0.028 2.22863,0.0249 0.37123,-0.026 0.75719,0.0554 1.11899,-0.0666 0.0902,-0.0304 0.33513,-0.18048 0.25224,-0.13371 -2.82649,1.59495 -3.48771,2.26041 -2.56767,1.37272 0.39815,-0.66579 0.11512,-1.34772 -0.21207,-1.97626 -0.39811,-0.67586 -0.993,-1.18869 -1.57677,-1.69744 -0.59348,-0.54185 -1.27997,-0.96699 -1.91213,-1.45919 -0.5309,-0.38667 -1.15876,-0.6283 -1.78619,-0.81015 -0.64529,-0.2311 -1.29474,-0.41905 -1.90442,-0.73806 -0.40708,-0.17968 -0.81655,-0.35448 -1.23078,-0.51779 0,0 2.83821,-1.9046 2.83821,-1.9046 l 0,0 c 0.41919,0.17231 0.84165,0.33896 1.24934,0.53735 0.60581,0.28342 1.23935,0.4815 1.87206,0.69512 0.65356,0.2194 1.30501,0.47767 1.8468,0.91542 0.64011,0.49217 1.32196,0.93251 1.9221,1.47582 0.61706,0.53464 1.21319,1.10125 1.63527,1.80967 0.38852,0.72825 0.67815,1.47875 0.40638,2.30115 -0.88296,1.75862 -2.96809,2.24874 -4.70646,2.20372 -0.752,0.002 -1.50579,0.0178 -2.25584,-0.0474 -0.78018,-0.0914 -1.53599,-0.27416 -2.21795,-0.68325 -0.94019,-0.54563 -1.77634,-1.21295 -2.59652,-1.92572 -0.83983,-0.71375 -1.75835,-1.39592 -2.36024,-2.33398 -0.40989,-0.83511 -0.74084,-1.77985 -0.60802,-2.72257 0,0 3.0946,-1.50361 3.0946,-1.50361 z" />
    <path
       style="fill:#000000"
       id="path3210"
       d="m 313.97305,629.31534 c 1.21192,-0.91054 2.39411,-1.86058 3.56256,-2.82628 1.19843,-0.94598 2.32992,-1.97746 3.37685,-3.08914 0.6617,-0.68792 1.25915,-1.43149 1.9135,-2.12606 0,0 3.14474,-1.31916 3.14474,-1.31916 l 0,0 c -0.65039,0.71509 -1.30131,1.42982 -1.95538,2.1426 -1.03227,1.14772 -2.1917,2.18275 -3.3962,3.14519 -1.13625,0.95277 -2.29134,1.88404 -3.46281,2.79281 0,0 -3.18326,1.28004 -3.18326,1.28004 z" />
    <path
       style="fill:#000000"
       id="path3212"
       d="m 328.30197,598.72795 c -0.37431,0.92633 -0.72879,1.85759 -1.06289,2.79914 -0.34289,0.91202 -0.50973,1.86755 -0.59226,2.83424 -0.0121,0.93967 -0.0925,1.86823 -0.20545,2.80027 -0.1411,1.20622 -0.16693,2.42119 -0.18821,3.63416 -0.10699,1.11506 0.14455,2.14987 0.51979,3.18793 0.41533,1.08799 0.82662,2.18122 1.3569,3.21902 0.42084,0.88723 0.82489,1.80004 1.39974,2.59997 0.29126,0.40898 0.14007,0.2208 0.44888,0.5683 0,0 -2.92593,1.766 -2.92593,1.766 l 0,0 c -0.31645,-0.38242 -0.16434,-0.18165 -0.45469,-0.60356 -0.56493,-0.82682 -0.98443,-1.74598 -1.40611,-2.65203 -0.52883,-1.05233 -0.94579,-2.15795 -1.37053,-3.25562 -0.40696,-1.07078 -0.69551,-2.14373 -0.57338,-3.302 0.0195,-1.2193 0.0447,-2.44028 0.15697,-3.65519 0.0992,-0.92867 0.21339,-1.84957 0.20304,-2.78601 0.0733,-0.99534 0.22412,-1.9788 0.56436,-2.9225 0.34453,-0.92639 0.67913,-1.85606 1.01005,-2.78638 0,0 3.11972,-1.44574 3.11972,-1.44574 z" />
    <path
       style="fill:#000000"
       id="path3214"
       d="m 331.25975,621.97607 c 1.43299,0.18292 2.84026,0.52269 4.24254,0.86276 1.0903,0.29776 2.19893,0.51584 3.29748,0.77768 1.10583,0.33369 2.17948,0.76394 3.28378,1.10273 0.86462,0.34216 1.75819,0.60025 2.63247,0.9124 0.13213,0.0436 0.26424,0.0873 0.39636,0.1309 0,0 -2.81746,1.91455 -2.81746,1.91455 l 0,0 c -0.13193,-0.0452 -0.26386,-0.0905 -0.39579,-0.13565 -0.87438,-0.29685 -1.74993,-0.58908 -2.61472,-0.91399 -1.08898,-0.36279 -2.15946,-0.78673 -3.27131,-1.07692 -1.09626,-0.24278 -2.18265,-0.5161 -3.26775,-0.80462 -1.4135,-0.3535 -2.83869,-0.6824 -4.29531,-0.79456 0,0 2.80971,-1.97528 2.80971,-1.97528 z" />
    <path
       style="fill:#000000"
       id="path3216"
       d="m 347.38432,598.75368 c -0.73558,1.01542 -1.38834,2.08249 -2.02746,3.16057 -0.82723,1.2683 -1.44895,2.64103 -2.01042,4.04236 -0.50925,1.17368 -0.88334,2.39823 -1.16176,3.64561 -0.25776,1.18891 -0.24055,2.40883 -0.33833,3.61491 -0.15853,1.30733 -0.24355,2.62001 -0.28427,3.93582 -0.1101,1.14224 0.0202,2.21122 0.46915,3.26103 0.36952,0.72321 0.90919,1.34903 1.45016,1.94893 0.63386,0.64855 1.29009,1.27463 1.89406,1.9515 0.45206,0.43762 0.92371,0.87845 1.48211,1.17535 0.59908,0.2233 1.25774,0.32107 1.87598,0.15063 1.03259,-0.47223 1.94458,-0.90238 -2.10548,1.23166 -0.1686,0.0888 0.31347,-0.21764 0.46074,-0.33868 0.17063,-0.14025 0.33658,-0.28696 0.49177,-0.4442 0.48884,-0.49533 0.56141,-0.6488 0.97434,-1.22861 0.99395,-1.52614 1.68978,-3.2115 2.30991,-4.91638 0.50826,-1.39739 1.00572,-2.8008 1.31372,-4.25761 0.21384,-1.16567 0.23905,-2.35355 0.24941,-3.53525 -0.003,-0.86805 -0.30428,-1.71705 -0.5269,-2.55264 -0.25005,-0.91621 -0.39864,-1.85298 -0.48199,-2.79776 6.7e-4,-0.72486 -0.062,-1.40316 -0.28563,-2.09167 -0.35201,-0.91249 -0.89461,-1.73122 -1.40781,-2.55766 -0.39835,-0.79265 -0.98705,-1.4645 -1.43355,-2.22507 -0.12929,-0.246 -0.3098,-0.39048 -0.54102,-0.52765 0,0 2.89067,-1.85017 2.89067,-1.85017 l 0,0 c 0.24774,0.18838 0.46656,0.38028 0.61129,0.66457 0.43219,0.76287 0.99492,1.4484 1.38965,2.23574 0.53666,0.84359 1.09926,1.68148 1.48036,2.6107 0.24929,0.73584 0.348,1.38566 0.31854,2.16788 0.0642,0.92747 0.18561,1.85092 0.44015,2.74757 0.23984,0.86049 0.56072,1.74324 0.57125,2.63725 -0.0241,1.2041 -0.0643,2.41209 -0.24279,3.60478 -0.308,1.48078 -0.80511,2.90427 -1.33332,4.31964 -0.62372,1.71923 -1.30155,3.42546 -2.2658,4.98732 -1.34131,2.07267 -3.07366,3.43419 -5.59857,4.17124 -0.69638,0.064 -1.39685,-0.0118 -2.02743,-0.33638 -0.56426,-0.35057 -1.07136,-0.79496 -1.52757,-1.27703 -0.59696,-0.68144 -1.24539,-1.3116 -1.88341,-1.9539 -0.56746,-0.62812 -1.13359,-1.28345 -1.51264,-2.04615 -0.44996,-1.10234 -0.61382,-2.22008 -0.49163,-3.41309 0.0417,-1.3173 0.0792,-2.63681 0.25939,-3.94432 0.11368,-1.21707 0.0779,-2.44978 0.31885,-3.65418 0.27426,-1.26545 0.62645,-2.51495 1.15091,-3.7017 0.56454,-1.41421 1.1682,-2.81268 1.9999,-4.0946 0.62597,-1.05703 1.22546,-2.12964 1.94596,-3.12608 0,0 3.13951,-1.39428 3.13951,-1.39428 z" />
    <path
       style="fill:#000000"
       id="path3218"
       d="m 332.99256,594.60239 c 1.08892,0.46708 2.20148,0.88227 3.34494,1.19315 1.09415,0.29844 2.17242,0.64126 3.24998,0.99294 0.95252,0.33996 1.8694,0.76849 2.82794,1.09088 0.67858,0.29055 1.36583,0.63507 2.11892,0.59529 0.60744,-0.19529 1.13277,-0.56348 1.69702,-0.85162 0.40435,-0.1629 0.23008,-0.0682 0.53278,-0.26454 0,0 -2.67387,2.16136 -2.67387,2.16136 l 0,0 c -0.31241,0.14404 -0.13848,0.0623 -0.52085,0.24717 -0.56844,0.3138 -1.13932,0.68832 -1.80705,0.71276 -0.76414,-0.0803 -1.45656,-0.38787 -2.15398,-0.69768 -0.94868,-0.34373 -1.87405,-0.74838 -2.82506,-1.08654 -1.06583,-0.3603 -2.1409,-0.68523 -3.2233,-0.99263 -1.17187,-0.34362 -2.32044,-0.76919 -3.45066,-1.23131 0,0 2.88319,-1.86923 2.88319,-1.86923 z" />
    <path
       style="fill:#000000"
       id="path3220"
       d="m 348.41869,605.05267 c -0.60753,1.12351 -1.0632,2.31377 -1.47324,3.52083 -0.33489,1.02452 -0.61094,2.05943 -0.76395,3.1268 -0.10019,0.78643 -0.1123,1.57981 -0.11754,2.37141 -0.0438,0.76093 -0.0214,1.46472 0.26625,2.17338 0.26873,0.50173 0.13208,0.24856 0.41004,0.75944 0,0 -2.94896,1.69654 -2.94896,1.69654 l 0,0 c -0.28355,-0.52022 -0.1397,-0.25846 -0.43166,-0.78523 -0.34086,-0.77101 -0.38464,-1.45534 -0.33854,-2.29313 0.005,-0.80829 0.0178,-1.61822 0.11657,-2.42159 0.1494,-1.09084 0.40812,-2.15087 0.75934,-3.19495 0.40559,-1.20408 0.85791,-2.38807 1.3986,-3.53767 0,0 3.12309,-1.41583 3.12309,-1.41583 z" />
    <path
       style="fill:#000000"
       id="path3222"
       d="m 328.38405,593.21958 c 0.85553,-0.38266 1.75761,-0.66317 2.60338,-1.06498 1.25101,-0.52194 4.3031,-2.32406 -0.74817,0.57139 7.0119,-4.06094 2.16905,-1.24611 0.72579,-0.44385 -0.10968,0.0609 0.20851,-0.13979 0.31256,-0.21 0.11019,-0.0743 0.49696,-0.3398 0.61458,-0.40834 1.08796,-0.63414 2.18192,-1.25788 3.27288,-1.88681 -3.63111,2.09588 -3.38193,1.9465 0.76399,-0.41935 0,0 -2.6512,2.13474 -2.6512,2.13474 l 0,0 c 3.62191,-2.11248 3.37184,-1.96218 -0.76345,0.42794 8.61245,-5.01398 -7.89312,4.71851 0.89493,-0.42013 -1.67279,0.97042 -3.3065,2.01252 -5.08878,2.77066 -0.87953,0.35888 -1.76678,0.69907 -2.6384,1.07768 0,0 2.70189,-2.12895 2.70189,-2.12895 z" />
    <path
       style="fill:#000000"
       id="path3224"
       d="m 332.93836,589.02163 c 0.007,-0.86106 0.0659,-1.72737 -0.0185,-2.5856 -0.12726,-0.72531 -0.6884,-1.15762 -1.24222,-1.57395 -0.50205,-0.50321 -1.14111,-0.80798 -1.75337,-1.14811 -0.57385,-0.31614 -1.11356,-0.63089 -1.75857,-0.77419 -0.57879,-0.13535 -1.17539,-0.25663 -1.74273,-0.44077 -0.65034,-0.19093 -1.29992,-0.38774 -1.93765,-0.6199 -0.56172,-0.33499 -1.16885,-0.56772 -1.76156,-0.83729 -0.55643,-0.1716 -1.11432,-0.27923 -1.64364,-0.53296 -0.63049,-0.23341 -1.25013,-0.49893 -1.90632,-0.65661 -0.57893,-0.23601 -1.18378,-0.39622 -1.73292,-0.69921 -0.5257,-0.25894 -1.07914,-0.42961 -1.59522,-0.71241 -0.55724,-0.22615 -1.1196,-0.45315 -1.69448,-0.63433 -0.60772,-0.16034 -1.2393,-0.17515 -1.86375,-0.19075 -0.37754,0.0579 -0.80848,-0.0976 -1.18119,-0.01 -0.0868,0.0205 -0.57071,0.32144 -0.64246,0.36487 0.86507,-0.49165 1.73015,-0.98328 2.59522,-1.47492 -0.75736,0.49452 -1.23509,1.27428 -1.82944,1.93345 -0.48015,0.5347 -1.03531,0.99125 -1.63486,1.38371 -1.77823,1.23354 -3.68316,2.08085 -5.6551,2.89054 -0.89424,0.43986 -1.8366,0.77041 -2.73922,1.19015 -0.98022,0.36373 -1.92022,0.82516 -2.87879,1.24071 -0.92757,0.46724 -1.8838,0.85718 -2.84469,1.24745 -0.98636,0.47174 -1.92462,1.03523 -2.91755,1.49454 -0.92394,0.46332 -0.007,-0.008 -0.88933,0.47725 -0.1363,0.0749 -0.54788,0.29426 -0.41336,0.21623 4.63223,-2.68686 2.93288,-1.70565 1.94012,-1.06704 -1.25585,0.79271 -2.56579,1.50087 -3.8507,2.24091 -0.10723,0.0617 -0.42837,0.24803 -0.321,0.18651 2.62374,-1.50322 3.44282,-2.00659 2.25166,-1.28041 -0.65253,0.37583 -1.22483,0.87132 -1.8202,1.32877 -0.58606,0.42234 -1.19387,0.81326 -1.7816,1.23343 -0.59923,0.45137 -1.19863,0.89705 -1.75705,1.39907 -0.20097,0.22764 -0.11631,0.10955 -0.25934,0.35033 0,0 -3.12164,1.43984 -3.12164,1.43984 l 0,0 c 0.10083,-0.33736 0.0288,-0.17502 0.22056,-0.48501 0.52752,-0.54703 1.14923,-0.97523 1.74482,-1.44214 0.5745,-0.44267 1.18775,-0.82512 1.78274,-1.23698 0.62117,-0.42941 1.16827,-0.96155 1.81005,-1.36052 1.72074,-0.98038 7.15898,-4.13823 1.30537,-0.76142 -0.20752,0.11971 0.80407,-0.50034 0.61767,-0.3675 1.64776,-1.12425 3.40592,-2.08976 5.18762,-2.98406 0.98148,-0.48284 1.92506,-1.04337 2.9301,-1.47735 0.96549,-0.38417 1.90169,-0.82653 2.84511,-1.26136 0.95457,-0.42445 1.90748,-0.85316 2.87709,-1.24241 0.91481,-0.39367 1.83622,-0.77059 2.74335,-1.1822 1.31602,-0.55639 5.20546,-2.40631 -0.18325,0.445 0.61186,-0.35525 1.18418,-0.78418 1.66462,-1.30681 0.65786,-0.61556 1.08267,-1.4393 1.80219,-1.99608 0.0754,-0.0445 2.74351,-2.02452 3.97778,-2.14212 0.39511,-0.0376 0.8006,0.0331 1.19645,0.0113 0.64921,0.0265 1.30497,0.0632 1.92712,0.26834 0.58068,0.20797 1.16609,0.41308 1.72298,0.67818 0.52499,0.25532 1.07912,0.43741 1.59395,0.71313 0.54297,0.26048 1.12157,0.43392 1.68637,0.64001 0.6614,0.18939 1.30057,0.45148 1.94227,0.69686 0.54073,0.21504 1.11215,0.31264 1.64832,0.53791 0.57733,0.27235 1.16663,0.51542 1.73056,0.81597 0.64322,0.20839 1.28365,0.42446 1.93639,0.60088 0.57798,0.1483 1.15372,0.30631 1.73689,0.43216 0.6477,0.1897 1.20814,0.53059 1.79894,0.84913 0.63079,0.34027 1.25695,0.68987 1.77699,1.19299 0.62704,0.47979 1.21812,1.00569 1.37875,1.81839 0.0918,0.8635 0.0165,1.73434 0.0646,2.60123 0,0 -3.06501,1.56484 -3.06501,1.56484 z" />
    <path
       style="fill:#000000"
       id="path3226"
       d="m 286.37373,593.70257 c 0.95231,0.0155 1.90484,0.0172 2.85727,0.0203 1.24085,0.0735 2.47401,0.27448 3.68194,0.56528 1.14267,0.24723 2.24752,0.63157 3.39024,0.87738 1.4121,0.20037 2.80143,0.49402 4.18411,0.83951 1.07435,0.23179 2.12768,0.53587 3.21533,0.70074 1.01464,0.0864 1.99068,0.38606 2.98457,0.58711 0.93199,0.1739 1.84334,0.41107 2.78799,0.51325 0.88135,0.13631 1.73929,0.0419 2.61091,-0.0895 0,0 -2.72906,2.04648 -2.72906,2.04648 l 0,0 c -0.88401,0.11892 -1.76267,0.13575 -2.64932,0.009 -0.94665,-0.11898 -1.86273,-0.36839 -2.7999,-0.54162 -0.98873,-0.21158 -1.96875,-0.47062 -2.97774,-0.57374 -1.08206,-0.1881 -2.13723,-0.48681 -3.20441,-0.74357 -1.38328,-0.35218 -2.78268,-0.5977 -4.19172,-0.82267 -1.14125,-0.26195 -2.25418,-0.63113 -3.40028,-0.87434 -1.19357,-0.26716 -2.40346,-0.48728 -3.62985,-0.50778 -0.97102,0.003 -1.94214,0.005 -2.91305,0.0203 0,0 2.78297,-2.02602 2.78297,-2.02602 z" />
    <path
       style="fill:#000000"
       id="path3228"
       d="m 288.88831,639.86268 c 1.22371,0.7167 2.45485,1.42705 3.65691,2.18067 1.35353,0.80353 2.77693,1.46631 4.21879,2.09003 1.545,0.58415 3.13497,0.99296 4.76584,1.23831 1.55431,0.21382 3.12023,0.34545 4.67402,0.55952 1.26439,0.13804 2.52198,0.32481 3.78259,0.49334 0,0 -2.74352,1.93931 -2.74352,1.93931 l 0,0 c -1.25708,-0.18568 -2.51491,-0.3579 -3.7785,-0.49297 -1.54999,-0.19723 -3.10315,-0.36911 -4.65094,-0.58501 -1.65384,-0.26557 -3.27702,-0.68297 -4.84065,-1.29167 -1.44485,-0.6415 -2.87177,-1.32357 -4.22824,-2.14039 -1.21403,-0.74248 -2.44122,-1.47895 -3.7199,-2.10319 0,0 2.8636,-1.88795 2.8636,-1.88795 z" />
    <path
       style="fill:#000000"
       id="path3230"
       d="m 288.33628,640.86355 c -0.43526,1.20212 -0.81078,2.42547 -1.27599,3.61631 -0.51505,1.3015 -1.07761,2.58315 -1.5756,3.89145 -0.38411,1.12252 -0.95199,2.16417 -1.48902,3.21722 -0.51406,1.00102 -0.95043,2.04076 -1.49161,3.02761 -0.47106,0.77547 -0.92745,1.56035 -1.40095,2.33432 -0.38351,0.5771 -0.64977,1.21941 -0.98757,1.82234 -0.45312,0.62756 -0.78939,1.32345 -1.15652,2.00157 -0.31996,0.51048 -0.49274,1.0895 -0.76658,1.62335 0.076,-0.0254 -0.11277,0.14175 -0.0631,0.18287 0.11929,0.0989 0.58684,0.0642 0.72453,0.073 0.74312,-0.0162 1.4669,0.0555 2.18506,0.24889 1.16138,0.45864 2.2523,1.08195 3.37532,1.63035 1.24808,0.65491 2.51714,1.25288 3.80835,1.81696 1.44949,0.52002 2.82847,1.20747 4.2324,1.83635 1.54421,0.65538 3.09023,1.30631 4.64613,1.9331 0.82704,0.47046 1.73126,0.74805 2.61725,1.07524 0.71732,0.24645 1.46138,0.44811 2.1413,0.78923 0.29965,0.11694 0.66995,0.37478 1.01139,0.27788 0.0645,-0.0183 0.23102,-0.13626 0.17239,-0.10372 -0.93523,0.51903 -1.86819,1.04217 -2.80227,1.56325 0.50091,-0.55053 0.38574,-1.51341 0.40584,-2.21255 0.01,-1.1444 0.009,-2.28886 0.0108,-3.4333 0.002,-1.33101 -9.7e-4,-2.66201 -0.01,-3.99299 -0.0573,-1.27628 0.18628,-2.52094 0.49196,-3.75123 0.21775,-1.00225 0.56527,-1.96738 0.92917,-2.92371 0.42436,-1.12401 1.09904,-2.11358 1.78089,-3.09174 0.66812,-1.05583 1.4314,-2.04185 2.18432,-3.03633 0.51972,-0.73098 1.02547,-1.48572 1.6543,-2.1284 0.29988,-0.2601 0.57141,-0.54764 0.83677,-0.8421 0,0 3.18723,-1.29106 3.18723,-1.29106 l 0,0 c -0.34188,0.21631 -0.53122,0.59826 -0.86311,0.83953 -0.699,0.56105 -1.18864,1.3577 -1.70624,2.07985 -0.7459,1.00467 -1.56468,1.95693 -2.21047,3.03464 -0.66595,0.95878 -1.35804,1.90786 -1.78381,3.006 -0.38121,0.94422 -0.72992,1.90718 -0.97217,2.89753 -0.31463,1.20304 -0.57738,2.41909 -0.52379,3.67261 -0.007,1.33213 -0.008,2.66428 8.2e-4,3.99641 0.008,1.14349 0.0249,2.28701 0.0118,3.43052 -0.01,0.81626 0.0398,1.68371 -0.23178,2.46255 -2.28409,1.33061 -2.58343,2.37575 -4.43144,1.4384 -0.68229,-0.30391 -1.39167,-0.53951 -2.09843,-0.77843 -0.8913,-0.31562 -1.77784,-0.62855 -2.60023,-1.10609 -1.53641,-0.66166 -3.07505,-1.31785 -4.61958,-1.96045 -1.4112,-0.62378 -2.80928,-1.27703 -4.25487,-1.81835 -1.29573,-0.5638 -2.5589,-1.18419 -3.81613,-1.82899 -1.11047,-0.54101 -2.19438,-1.16786 -3.37481,-1.5418 -0.72044,-0.15138 -1.44318,-0.17395 -2.1768,-0.19648 -0.49554,-0.063 -1.15232,-0.20619 -1.00718,-0.85716 0.35975,-0.49468 0.46224,-1.10623 0.78313,-1.62425 0.41384,-0.65084 0.66982,-1.39728 1.15969,-2.00306 0.36562,-0.59376 0.61218,-1.24703 0.98188,-1.83819 0.52224,-0.74475 0.92497,-1.57275 1.43369,-2.3282 0.58514,-0.95754 0.98634,-2.01614 1.50228,-3.01187 0.53006,-1.05069 1.12649,-2.07276 1.5138,-3.18921 0.50043,-1.31492 1.07293,-2.59984 1.59235,-3.90715 0.48666,-1.15784 0.85337,-2.36839 1.19485,-3.57678 0,0 3.11972,-1.44573 3.11972,-1.44573 z" />
    <path
       style="fill:#000000"
       id="path3232"
       d="m 284.98362,657.08009 c 0.99937,0.1588 1.98544,0.3683 2.94304,0.69874 1.0955,0.47473 2.20256,0.92954 3.28009,1.44384 0.91796,0.37038 1.82911,0.76485 2.77184,1.06843 0.73622,0.26646 1.47145,0.54538 2.22514,0.75917 0.56523,0.28767 1.16202,0.43962 1.78737,0.51359 0.62718,0.0497 1.25796,0.065 1.8869,0.0497 0,0 -2.78227,2.02326 -2.78227,2.02326 l 0,0 c -0.63378,-0.0236 -1.27076,-0.008 -1.90057,-0.0971 -0.63093,-0.10373 -1.22526,-0.3008 -1.80969,-0.56069 -0.74776,-0.23617 -1.48584,-0.50407 -2.22107,-0.77647 -0.94068,-0.33433 -1.86536,-0.7168 -2.78305,-1.10934 -1.0652,-0.50806 -2.14822,-0.98588 -3.24763,-1.41452 -0.95056,-0.30094 -1.93438,-0.52397 -2.93307,-0.57262 0,0 2.78297,-2.02602 2.78297,-2.02602 z" />
    <path
       style="fill:#000000"
       id="path3234"
       d="m 283.66709,657.91208 c 0.58401,-0.68042 1.02879,-1.45417 1.4283,-2.25291 0.38754,-0.75117 0.71732,-1.53304 0.99185,-2.3325 0.22327,-0.64083 0.54527,-1.23928 0.84999,-1.84336 0.31161,-0.70929 0.61693,-1.42107 0.85637,-2.15837 0.21903,-0.71451 0.42222,-1.40561 1.03318,-1.87236 2.37654,-1.38094 2.80025,-2.29479 4.84281,-1.42735 0.94115,0.3518 1.84145,0.81389 2.72756,1.28575 0.69315,0.33831 1.37923,0.68198 2.09087,0.97976 0.80665,0.29946 1.57174,0.67759 2.40271,0.91138 0.74384,0.16401 1.49889,0.20205 2.24537,0.35044 0.68327,0.18027 1.39793,0.30393 2.06521,0.54024 0.59619,0.32851 0.26775,0.9351 0.0387,1.39891 -0.40275,0.6791 -0.79619,1.3524 -1.10332,2.08181 -0.23945,0.82582 -0.49302,1.62859 -0.88313,2.39711 -0.32467,0.64783 -0.52792,1.34754 -0.76905,2.02951 -0.25816,0.77932 -0.46789,1.57437 -0.73065,2.35217 -0.49521,1.60407 -1.89033,3.04428 -3.89467,2.78182 -0.64424,-0.0679 -1.27495,-0.15207 -1.90562,-0.29855 -0.67963,-0.20231 -1.39289,-0.33069 -2.0608,-0.57022 -0.38778,-0.13624 -0.1942,-0.0741 -0.58056,-0.18719 0,0 2.82869,-1.93268 2.82869,-1.93268 l 0,0 c 0.39003,0.12629 0.1961,0.0612 0.5818,0.19521 0.67178,0.2038 1.35494,0.38042 2.03726,0.54408 0.61825,0.13097 1.24775,0.19803 1.87882,0.22804 1.2881,-0.18604 0.14416,-0.0493 -2.5438,1.6074 -0.0591,0.0364 0.14817,-0.0122 0.19935,-0.059 0.2318,-0.21183 0.18709,-0.62234 0.36293,-0.86771 0.32094,-0.75368 0.48395,-1.56995 0.742,-2.34669 0.23823,-0.69671 0.44687,-1.40321 0.74978,-2.07459 0.40151,-0.75869 0.71908,-1.52393 0.90043,-2.36867 0.28257,-0.74027 0.62763,-1.43928 1.07404,-2.0947 0.10706,-0.22514 0.21374,-0.47094 0.33772,-0.6863 0.0169,-0.0293 0.0603,-0.0403 0.0713,-0.0723 0.0225,-0.0654 -0.17653,-0.14081 -0.16056,-0.13114 -0.66948,-0.19809 -1.35185,-0.36716 -2.0351,-0.50869 -0.75089,-0.13827 -1.52055,-0.16267 -2.25525,-0.3861 -0.82918,-0.26461 -1.61347,-0.6373 -2.43118,-0.93346 -0.71794,-0.29391 -1.3931,-0.67597 -2.08744,-1.02058 -0.88235,-0.4642 -1.77875,-0.91425 -2.72315,-1.23874 -1.77225,-0.59511 -3.02938,0.71652 1.18364,-1.71044 -0.77551,0.32977 -0.90211,0.89183 -1.15234,1.64769 -0.2229,0.75362 -0.5253,1.4749 -0.82322,2.20066 -0.28473,0.6047 -0.61589,1.1858 -0.87465,1.80309 -0.25635,0.8205 -0.59778,1.61757 -0.98865,2.38222 -0.38099,0.80551 -0.79538,1.59824 -1.35852,2.2931 0,0 -3.15908,1.36412 -3.15908,1.36412 z" />
    <path
       style="fill:#000000"
       id="path3236"
       d="m 294.89453,651.66131 c -0.56159,0.41218 -0.92059,0.96079 -0.9434,1.66268 0.11782,0.4614 0.65138,0.66061 1.06643,0.80519 0.44851,0.0186 0.90383,-0.18354 1.26851,-0.43838 1.05617,-0.5688 1.24858,-0.67507 -2.47629,1.43268 -0.0931,0.0526 0.18049,-0.11508 0.26779,-0.17697 0.28068,-0.19898 0.5163,-0.41164 0.73646,-0.67479 0.26892,-0.421 -0.0213,-0.56146 -0.40376,-0.65496 -0.38198,0.0738 -1.13546,-0.33421 -1.44167,-0.27201 0,0 2.82457,-1.99973 2.82457,-1.99973 l 0,0 c 0.46746,0.19117 0.97198,0.21763 1.45694,0.34132 0.54454,0.22352 0.89731,0.59954 0.70567,1.2208 -0.93555,1.50896 -3.02132,1.99188 -4.34284,2.94334 -0.47577,0.2012 -0.92669,0.38966 -1.44256,0.19204 -0.54741,-0.23964 -1.1067,-0.53518 -1.26586,-1.15761 -0.0396,-0.77102 0.22388,-1.42005 0.79356,-1.94985 0,0 3.19644,-1.27375 3.19644,-1.27375 z" />
    <path
       style="fill:#000000"
       id="path3238"
       d="m 296.43634,653.63125 c 0.25435,0.82963 0.68898,1.58211 0.98319,2.39746 0.21067,0.6559 0.40332,1.34118 -0.0885,1.90258 -1.4353,1.57952 -3.00481,1.45997 -4.56226,2.35695 -0.35512,0.12861 -0.17894,0.0993 -0.5258,0.10301 0,0 2.75074,-2.06605 2.75074,-2.06605 l 0,0 c 0.27621,-0.0926 0.12854,-0.0344 0.43923,-0.184 1.24546,-0.61765 4.12679,-1.40904 -1.29419,1.05777 0.73323,-0.29945 0.46409,-0.89689 0.30313,-1.52054 -0.27876,-0.81617 -0.70315,-1.56208 -1.0066,-2.36797 0,0 3.001,-1.67921 3.001,-1.67921 z" />
    <path
       style="fill:#000000"
       id="path3240"
       d="m 293.51752,653.77371 c -0.43985,0.77387 -0.87386,1.55385 -1.23466,2.3683 -0.15916,0.46772 -0.54294,1.18261 0.0158,1.50338 0.19135,0.10338 0.10848,0.0477 0.25321,0.16007 0,0 -2.92564,1.84625 -2.92564,1.84625 l 0,0 c -0.11873,-0.0938 -0.0433,-0.0364 -0.23028,-0.16684 -0.65764,-0.57806 -0.46506,-1.16806 -0.20282,-1.91974 0.33944,-0.82679 0.79559,-1.59418 1.18493,-2.39713 0,0 3.13951,-1.39429 3.13951,-1.39429 z" />
    <path
       style="fill:#000000"
       id="path3244"
       d="m 305.56518,656.73602 c 1.44599,0.10433 2.84196,0.47792 4.24619,0.81233 1.2182,0.34537 2.47817,0.61474 3.5804,1.25955 0.58452,0.39874 0.88797,1.05033 1.32844,1.57874 0.47609,0.61829 1.03756,1.16329 1.59796,1.70406 0,0 -2.87648,1.77658 -2.87648,1.77658 l 0,0 c -0.58021,-0.54428 -1.15117,-1.1039 -1.65772,-1.71832 -0.40257,-0.50485 -0.69545,-1.11234 -1.24263,-1.48433 -1.07675,-0.60139 -2.28678,-0.89074 -3.46677,-1.21979 -1.40877,-0.3338 -2.8231,-0.6861 -4.28092,-0.69113 0,0 2.77153,-2.01769 2.77153,-2.01769 z" />
    <path
       style="fill:#000000"
       id="path3246"
       d="m 313.18506,662.4382 c 0.44566,-0.99743 1.02695,-1.92302 1.63748,-2.82539 0.88327,-1.29953 1.73001,-2.62046 2.67355,-3.8776 0.81773,-1.06429 1.69334,-2.07804 2.62913,-3.03906 0.62857,-0.61436 1.28295,-1.19422 2.01094,-1.68684 1.52565,-0.99579 3.05033,-1.92903 4.78224,-2.44873 0.51707,-0.30865 1.10833,-0.41947 1.67468,-0.60468 0.59017,-0.35833 1.29083,-0.39114 1.9215,-0.62278 0.25002,-0.0936 0.50473,-0.13567 0.74273,-0.25702 0,0 -2.7093,2.13105 -2.7093,2.13105 l 0,0 c -0.24868,0.0685 -0.49505,0.14454 -0.74059,0.22362 -0.65464,0.16621 -1.29839,0.34779 -1.91661,0.62669 -0.56618,0.18712 -1.13727,0.34859 -1.67657,0.60813 -1.27816,0.47174 -4.0338,1.79622 1.09829,-0.90153 -0.74034,0.48763 -1.43361,1.01986 -2.07364,1.63755 -0.95075,0.95237 -1.84101,1.95426 -2.67474,3.0118 -0.95594,1.23761 -1.79967,2.54716 -2.65902,3.8527 -0.60003,0.86726 -1.17285,1.75879 -1.60035,2.72636 0,0 -3.11972,1.44573 -3.11972,1.44573 z" />
    <path
       style="fill:#000000"
       id="path3248"
       d="m 295.16972,643.61132 c 0.70151,-0.64943 1.51493,-1.16003 2.29929,-1.70091 0.53527,-0.43636 1.1309,-0.78125 1.71799,-1.14053 0.70841,-0.45446 1.35464,-0.99488 2.01444,-1.51506 0.58411,-0.42103 1.11454,-0.90983 1.63383,-1.40718 0.49942,-0.45758 0.9751,-0.939 1.44895,-1.42314 1.16247,-1.04472 2.50132,-1.62287 3.90479,-2.43853 0,0 -2.66741,2.15501 -2.66741,2.15501 l 0,0 c 4.88247,-2.86573 2.92718,-1.81717 1.92061,-1.02098 -0.49651,0.4559 -0.91331,0.99087 -1.44497,1.40878 -0.48645,0.54491 -1.0664,1.0103 -1.63539,1.465 -0.67785,0.49444 -1.30536,1.0582 -1.98683,1.54868 -0.60197,0.33362 -1.20593,0.68736 -1.73749,1.12524 -0.78479,0.51062 -1.56682,1.03565 -2.29401,1.62633 0,0 -3.1738,1.31729 -3.1738,1.31729 z" />
    <path
       style="fill:#000000"
       id="path3250"
       d="m 311.14019,634.00334 c 1.31157,0.80074 2.36585,1.91815 3.45085,2.98858 1.2919,1.38133 2.55743,2.78514 3.99562,4.01682 0.88526,0.73632 1.69748,1.55892 2.62462,2.24362 0.70416,0.56273 1.47757,1.01555 2.31609,1.34361 0.76048,0.35623 1.58088,0.54812 2.3655,0.83943 0.72424,0.327 1.50088,0.51805 2.23642,0.80892 0.41115,0.1194 0.56928,0.23015 0.62507,0.64907 0,0 -3.2076,1.30048 -3.2076,1.30048 l 0,0 c 0.42549,0.38825 -0.0736,-0.0571 -0.25312,-0.0378 -0.74174,-0.26629 -1.48683,-0.52 -2.21904,-0.8134 -0.79569,-0.27375 -1.61299,-0.48997 -2.37575,-0.85289 -0.84564,-0.37038 -1.64044,-0.8362 -2.35727,-1.42165 -0.90656,-0.71375 -1.7324,-1.52383 -2.59157,-2.29264 -1.40321,-1.27432 -2.67522,-2.67652 -3.98634,-4.04369 -1.08352,-1.06072 -2.15526,-2.15697 -3.50729,-2.87828 0,0 2.88381,-1.85019 2.88381,-1.85019 z" />
    <path
       style="fill:#000000"
       id="path3252"
       d="m 308.37577,655.45106 c 0.74695,-0.7426 1.41236,-1.55917 2.17541,-2.28643 0.78183,-0.67094 1.4788,-1.42856 2.12054,-2.2331 0.45519,-0.57179 0.91659,-1.13842 1.37789,-1.70528 0.3542,-0.50685 0.77904,-0.96056 1.137,-1.46352 0.0312,-0.0826 0.0976,-0.1636 0.0248,-0.24868 -0.2436,-0.28503 -0.78685,-0.57382 -1.09355,-0.80172 -0.69747,-0.54791 -1.30632,-1.20424 -1.92316,-1.84037 -0.4637,-0.41129 -0.99435,-0.72504 -1.44063,-1.15774 -0.41879,-0.48232 -0.78822,-1.00332 -1.19264,-1.49788 -0.53816,-0.59751 -1.16079,-1.09703 -1.66049,-1.73225 -0.46169,-0.49204 -0.77736,-1.12071 -1.26805,-1.58214 -0.4564,-0.2571 -0.77091,0.049 -1.15391,0.26838 -1.20704,0.5293 -0.41916,0.19496 2.43058,-1.42406 0.0822,-0.0467 -0.16272,0.0965 -0.24289,0.14672 -0.24268,0.15201 -0.46269,0.32472 -0.68575,0.50388 -0.51281,0.45282 -0.99353,0.94324 -1.45988,1.44384 -0.38751,0.49886 -0.78919,0.98149 -1.21549,1.44699 -0.42857,0.5047 -0.87754,0.99258 -1.34349,1.46287 -0.35976,0.49573 -0.79186,0.91638 -1.24697,1.3221 -0.28685,0.32381 -0.3057,0.1249 -0.23455,0.10656 0.12301,-0.0317 0.25389,0.009 0.38072,0.0157 0.67594,0.023 1.35257,0.0178 2.02882,0.017 0.79579,-0.0637 1.5666,0.0474 2.34858,0.17216 0.72673,0.117 1.46263,0.14438 2.19709,0.16193 0.96436,-0.0396 1.91445,0.0809 2.86992,0.18894 0.38624,0.17958 1.57499,0.1663 1.86417,0.44294 0.0516,0.0493 0.073,0.12267 0.10948,0.184 0.24023,0.28246 0.47347,0.57205 0.67369,0.88813 0.42185,0.46387 0.62115,1.02448 0.74134,1.62839 0.0377,0.72777 -0.52622,1.09183 -1.05126,1.47249 -0.57687,0.37601 -1.13643,0.77706 -1.69895,1.17392 -0.52427,0.43675 -1.04351,0.87901 -1.57416,1.30825 -0.58278,0.38462 -0.87567,0.83924 -1.03144,1.51058 -0.0446,0.50429 0.0698,0.93263 0.55271,0.45231 1.0135,-0.60544 2.53733,-1.36687 -2.30586,1.32455 -0.0712,0.0396 0.13363,-0.0947 0.19184,-0.1518 0.15866,-0.15564 0.17336,-0.22269 0.2755,-0.41905 0.26119,-0.62227 0.46165,-1.27027 0.65157,-1.91766 0.1357,-0.75199 0.46447,-1.43866 0.78907,-2.12265 0.16951,-0.3435 0.34165,-0.68462 0.52606,-1.02029 0,0 3.12174,-1.38603 3.12174,-1.38603 l 0,0 c -0.20862,0.31841 -0.36636,0.65392 -0.54472,0.99015 -0.3104,0.67223 -0.69246,1.32713 -0.80876,2.06917 -0.17442,0.65888 -0.38878,1.30948 -0.62184,1.9489 -0.53968,1.6598 -2.51363,2.03843 -3.9674,2.83083 -0.68307,0.0945 -0.96555,-0.48355 -0.93159,-1.10542 0.11803,-0.70678 0.27838,-1.33106 0.93645,-1.71851 0.50791,-0.45827 1.0857,-0.83972 1.56241,-1.33524 0.5574,-0.40516 1.11907,-0.79725 1.68994,-1.18295 0.44221,-0.26906 1.06021,-0.59166 1.21903,-1.10829 -0.0999,-0.5694 -0.2844,-1.07409 -0.68259,-1.50768 -0.21493,-0.32226 -0.48021,-0.59934 -0.71712,-0.90434 -0.43347,-0.15281 -1.19052,-0.28435 -1.73168,-0.38083 -0.95487,-0.1081 -1.90691,-0.17527 -2.86878,-0.15406 -0.74583,-0.0227 -1.49145,-0.0635 -2.22761,-0.19464 -0.76816,-0.12116 -1.53325,-0.17029 -2.31173,-0.13123 -0.69079,0.004 -1.38323,0.021 -2.07275,-0.0298 -0.46453,-0.0681 -1.06524,-0.34615 -0.5251,-0.8348 0.48097,-0.35984 0.94426,-0.77156 1.26793,-1.28386 0.44283,-0.48761 0.93366,-0.93232 1.34852,-1.44566 0.39512,-0.49542 0.88341,-0.91241 1.21703,-1.45939 0.45651,-0.5134 0.93797,-1.00743 1.44397,-1.46985 1.15746,-1.21778 3.00586,-1.77537 4.33466,-2.6807 0.48735,-0.25279 0.96414,-0.28692 1.40469,0.0929 0.47396,0.49833 0.81211,1.1137 1.27455,1.62522 0.49972,0.63009 1.13056,1.12074 1.65814,1.72455 0.40145,0.47949 0.76875,0.98544 1.18291,1.45413 0.45856,0.4189 0.99394,0.74098 1.43377,1.18127 0.59944,0.6255 1.18925,1.27557 1.88576,1.79385 0.53366,0.38135 1.38396,0.72848 1.3334,1.48983 -0.30445,0.5571 -0.79638,0.96934 -1.12977,1.50949 -0.47135,0.56742 -0.92332,1.14712 -1.40466,1.70551 -0.62359,0.83256 -1.3224,1.61213 -2.10884,2.29384 -0.7884,0.67353 -1.42974,1.48734 -2.12986,2.24849 0,0 -3.1738,1.31729 -3.1738,1.31729 z" />
    <path
       style="fill:#000000"
       id="path3254"
       d="m 338.50289,638.27577 c 1.10897,-0.1818 2.15166,-0.61894 3.17106,-1.07581 1.1322,-0.44938 2.24059,-0.94905 3.30823,-1.53654 3.28209,-2.00131 -9.67947,5.77909 1.5124,-0.86116 0.81732,-0.48492 -1.64727,0.94824 -2.47703,1.41146 -0.24847,0.1387 0.47969,-0.30635 0.71855,-0.46108 1.53013,-1.03732 7.31414,-4.10622 1.49245,-0.88006 -2.3e-4,1.3e-4 0.76001,-0.5133 0.76868,-0.51916 0.54546,-0.33064 1.05427,-0.72105 1.59014,-1.06501 0,0 3.12885,-1.46414 3.12885,-1.46414 l 0,0 c -0.007,0.0669 0.0101,0.14017 -0.019,0.20078 -0.17367,0.36252 -1.22145,0.7967 -1.53515,1.08966 -1.3632,0.87804 -2.53454,1.5668 -4.06295,2.46024 -0.1296,0.0758 -0.52178,0.29719 -0.39222,0.22134 0.84601,-0.49533 1.69509,-0.98539 2.54165,-1.4798 0.11326,-0.0662 -0.22786,0.13001 -0.34179,0.19502 -1.30342,0.87645 -2.70058,1.6056 -4.04188,2.41902 -0.79212,0.48038 3.20545,-1.85891 2.40215,-1.39757 -4.29572,2.46702 -2.14091,1.28034 -3.91828,2.25473 -1.06958,0.56874 -2.18705,1.03457 -3.30519,1.49845 -1.06177,0.45523 -2.1624,0.91473 -3.32372,1.01565 0,0 2.78296,-2.02602 2.78296,-2.02602 z" />
    <path
       style="fill:#000000"
       id="path3256"
       d="m 338.13967,639.3539 c 0.33685,1.20348 0.73476,2.38867 1.19133,3.55164 0.63885,1.48619 1.42573,2.90522 2.16552,4.34362 0.61799,1.16827 1.22358,2.34298 1.78505,3.54 0.44224,0.95945 0.79923,1.94717 1.14769,2.94298 0.34089,0.91188 0.68285,1.82594 1.14988,2.68155 0.42526,0.63511 0.64603,1.40153 1.12235,1.99892 0.0681,0.0528 0.12384,0.12781 0.20436,0.15848 0.15502,0.059 1.3147,-0.37816 1.44786,-0.42251 1.63793,-0.52373 3.22176,-1.20632 4.76303,-1.96636 1.41822,-0.64486 2.7984,-1.36922 4.21009,-2.02757 0.77422,-0.36788 1.60593,-0.49992 2.45196,-0.54933 0.57699,-0.0335 1.1542,0.0269 1.72498,-0.0689 0,0 -2.74056,2.04381 -2.74056,2.04381 l 0,0 c -0.57678,0.0387 -1.15499,0.0141 -1.73187,0.0572 -0.81554,0.0767 -1.60687,0.25593 -2.34619,0.62364 -1.38746,0.65698 -2.76082,1.34329 -4.15412,1.98792 -1.57857,0.75092 -3.18777,1.44206 -4.85281,1.97885 -0.68125,0.21624 -1.35925,0.55471 -1.91804,-0.063 -0.46217,-0.6317 -0.70663,-1.39517 -1.12824,-2.05561 -0.47492,-0.8735 -0.81184,-1.80851 -1.16856,-2.73496 -0.34232,-0.98762 -0.69939,-1.96275 -1.11956,-2.92092 -0.54479,-1.20014 -1.14825,-2.3723 -1.75605,-3.54117 -0.73583,-1.4525 -1.5084,-2.88923 -2.17169,-4.37553 -0.46844,-1.15287 -0.8749,-2.32622 -1.27741,-3.50357 0,0 3.001,-1.67921 3.001,-1.67921 z" />
    <path
       style="fill:#000000"
       id="path3258"
       d="m 356.2956,629.54646 c 0.97047,0.97153 1.86563,2.02575 2.74926,3.07808 0.98296,1.1228 1.84689,2.34452 2.55783,3.6566 0.59778,1.01406 1.05753,2.09045 1.47801,3.18741 0.39623,0.99072 0.54166,2.05215 0.74772,3.09253 0.18068,0.93448 0.52968,1.8208 0.76908,2.73932 0.14733,0.79863 0.30806,1.59582 0.43373,2.39851 0.066,0.74389 0.16032,1.47752 0.29496,2.21192 0.0891,0.62514 0.30892,1.22338 0.52174,1.81518 0.22227,0.44569 0.37204,0.90687 0.46305,1.39506 0,0 -3.01826,1.60015 -3.01826,1.60015 l 0,0 c -0.0568,-0.47583 -0.21848,-0.90724 -0.43643,-1.3342 -0.22126,-0.60896 -0.45692,-1.22298 -0.54378,-1.86854 -0.13262,-0.73946 -0.25171,-1.47304 -0.29292,-2.22465 -0.11467,-0.79488 -0.29314,-1.57719 -0.41715,-2.37021 -0.22301,-0.93017 -0.56842,-1.82426 -0.76481,-2.76184 -0.19741,-1.02381 -0.33275,-2.06815 -0.70724,-3.04702 -0.41932,-1.08236 -0.86596,-2.14898 -1.44655,-3.15698 -0.6878,-1.29783 -1.52532,-2.51103 -2.50339,-3.60774 -0.88237,-1.04649 -1.77585,-2.10715 -2.8054,-3.01026 0,0 2.92055,-1.79332 2.92055,-1.79332 z" />
    <path
       style="fill:#000000"
       id="path3260"
       d="m 345.24023,653.71221 c 1.76325,-1.30292 3.80286,-2.05473 5.70608,-3.08425 -0.35061,0.26728 1.29997,-0.66876 0.98343,-0.48572 -5.73946,3.31888 -0.23047,-0.0877 1.74829,-0.91851 0.87713,-0.44134 1.79792,-0.75113 2.73025,-1.04744 0.8603,-0.29546 1.67084,-0.68709 2.46928,-1.11587 0.42241,-0.18338 0.20912,-0.10329 0.63942,-0.24145 0,0 -2.69423,2.10949 -2.69423,2.10949 l 0,0 c -0.40472,0.16702 -0.20305,0.0758 -0.60456,0.27485 -0.79776,0.42345 -1.63582,0.75979 -2.48941,1.05335 -0.92681,0.29819 -1.82741,0.65758 -2.7067,1.07771 -0.15049,0.0723 -0.30271,0.14117 -0.45147,0.21699 -0.1449,0.0738 -0.5691,0.31506 -0.4293,0.23192 0.82018,-0.48781 3.30078,-1.9168 2.47073,-1.44607 -1.43582,0.81425 -2.80145,1.72537 -4.2997,2.4105 -1.29986,0.66471 -5.401,2.72887 0.13179,-0.27403 0,0 -3.2039,1.23853 -3.2039,1.23853 z" />
    <path
       style="fill:#000000"
       id="path3262"
       d="m 345.74376,651.01131 c -0.29616,-0.98342 -0.61303,-1.95003 -1.0843,-2.86407 -0.4442,-0.83463 -0.82443,-1.70068 -1.14039,-2.59162 -0.2885,-0.87516 -0.6769,-1.7135 -0.94275,-2.59613 -0.23819,-0.59637 -0.43794,-1.20637 -0.69668,-1.7944 -0.70858,-1.78119 1.88969,-2.46507 3.41249,-2.90768 1.3362,-0.22585 2.64936,-0.58293 3.94578,-0.97405 1.15461,-0.2906 2.23758,-0.76528 3.28979,-1.31041 0.61514,-0.30351 1.29206,-0.39495 1.93979,-0.59987 0.75919,-0.22828 1.23659,0.53545 1.5836,1.09205 0.61002,1.0916 1.03262,2.27191 1.44106,3.45 0.36729,1.00928 0.6632,2.04635 1.0531,3.047 0.2742,0.74253 0.55447,1.48324 0.81142,2.23203 0.3179,0.55244 0.4476,1.08625 0.3665,1.71784 -0.11272,0.66475 -0.30058,1.22494 -0.82797,1.65912 -2.32559,1.53533 -2.88197,2.04252 -5.1191,2.14855 -1.14603,9.7e-4 -2.28285,0.0148 -3.42353,0.12728 -0.92562,0.14698 -1.89321,0.25995 -2.7886,0.55052 -0.38086,0.0738 -1.22667,0.46968 -1.57882,0.35 -0.10498,-0.0357 -0.18556,-0.12155 -0.27833,-0.18233 -0.55915,-0.66438 -0.53676,-1.61399 -0.58061,-2.44108 -0.0706,-1.03281 -0.0158,-2.04336 0.18238,-3.05751 0.24765,-1.27929 0.41021,-2.57531 0.698,-3.84669 0.45263,-1.76274 0.49668,-1.42414 3.37182,-2.48289 0.12599,-0.0464 0.0746,0.25966 0.0903,0.39324 0.0215,0.18279 0.0139,0.36784 0.0208,0.55175 0.0437,1.63947 0.10381,3.28897 0.31982,4.91612 0.0308,0.22995 0.20644,1.75627 0.76919,1.50643 0.0851,-0.0378 0.14202,-0.12077 0.21303,-0.18115 -0.8607,0.46584 -1.68225,1.01304 -2.58209,1.39752 -0.17701,0.0757 0.2591,-0.28742 0.36332,-0.4495 0.13699,-0.21302 0.25379,-0.43946 0.3571,-0.67076 0.36928,-0.82677 0.55384,-1.7017 0.73705,-2.58263 0.0681,-1.09498 0.53959,-2.36005 0.1714,-3.44849 0.99575,-0.42764 1.94386,-0.99075 2.98723,-1.28292 0.1573,-0.0441 -0.0809,0.31731 -0.11239,0.47788 -0.0421,0.21418 -0.0774,0.42974 -0.1084,0.64581 -0.11438,0.79672 -0.16903,1.60222 -0.25532,2.40229 -0.0648,1.09241 -0.78491,2.75901 -0.0963,3.74655 0.054,-5.2e-4 0.11076,0.0156 0.16194,-0.002 0.18663,-0.0627 0.66404,-0.42266 0.4909,-0.32885 -0.87791,0.47567 -1.72353,1.0106 -2.60943,1.47115 -0.11442,0.0595 0.19449,-0.17004 0.28451,-0.2625 0.096,-0.0985 0.18169,-0.20646 0.27253,-0.30968 0.62232,-0.66762 1.309,-1.27317 1.96629,-1.9082 1.02703,-1.23976 1.73611,-1.05578 3.60068,-2.37554 0.87054,-0.61616 -1.84562,1.06878 -2.76966,1.60101 -0.0978,0.0564 0.18634,-0.12954 0.26648,-0.20911 0.24134,-0.39301 0.16735,-0.95425 -0.22061,-1.22662 -0.99347,0.69771 0.0427,-0.0356 2.80895,-1.47988 0.0467,-0.0244 -0.0953,0.0526 -0.12585,0.0955 -0.20535,0.2883 -0.26525,0.70391 -0.34364,1.03729 -0.15977,0.86438 -0.2531,1.74147 -0.14122,2.61569 0.20771,0.55526 0.40107,1.10358 0.50341,1.68945 0.204,0.92003 0.62989,0.10073 -3.00933,1.79763 -0.026,0.0121 -0.40523,-0.9318 -0.44708,-1.03291 -0.46708,-1.27939 -0.76492,-2.61661 -0.97751,-3.96007 -0.22623,-1.13852 -0.0618,-2.33105 -0.36799,-3.45164 -0.26667,-0.59054 -0.86187,-0.61065 -1.43249,-0.64506 -0.68623,-0.0183 -1.37285,-3.3e-4 -2.05914,0.008 -0.66815,-0.0761 -1.24294,0.13706 -1.85043,0.37019 -1.15136,0.34404 -2.74642,1.43964 2.04068,-1.27723 0,0 -3.1917,1.23012 -3.1917,1.23012 l 0,0 c 1.45501,-0.83089 2.42159,-1.6034 3.8458,-2.06553 0.62414,-0.22564 1.25144,-0.31161 1.91662,-0.27275 0.6943,-0.009 1.39019,-0.0302 2.08346,0.0186 0.71231,0.0881 1.34457,0.282 1.64004,1.0053 0.30017,1.14302 0.13486,2.34562 0.34197,3.50734 0.19753,1.31501 0.48174,2.62449 0.96541,3.86633 0.0795,0.17148 0.26583,0.58157 0.36684,0.77231 0.0315,0.0596 0.15865,0.13344 0.10431,0.17321 -1.3512,0.98852 -2.78468,3.04025 -2.9937,1.56355 -0.0928,-0.59311 -0.29071,-1.14358 -0.50076,-1.70395 -0.12261,-0.91098 -0.0329,-1.81797 0.10031,-2.72513 0.2747,-1.44771 0.98599,-4.47945 3.64921,-2.94638 0.40527,0.45318 0.629,1.04657 0.44462,1.64452 -0.4953,1.23518 -2.48698,1.77232 -3.31732,2.16618 -0.95213,0.45163 1.80368,-1.09137 2.7171,-1.61716 0.21143,-0.1217 -0.98169,0.69065 -0.50812,0.52721 -0.64361,0.64415 -1.30984,1.25159 -1.972,1.87406 -1.09879,1.39119 -1.34887,1.19318 -3.74501,2.5808 -0.33402,0.19344 -0.66783,0.1607 -0.948,-0.0952 -0.66899,-1.22981 -0.0823,-2.68662 0.071,-3.98394 0.11061,-1.01456 0.16306,-2.03391 0.29643,-3.04616 0.0212,-0.16095 -0.0582,-0.38632 0.073,-0.48155 0.98026,-0.71122 2.08703,-1.22852 3.13055,-1.84278 0.24917,1.20126 -0.08,2.44782 -0.21019,3.6417 -0.17529,0.89759 -0.35595,1.78899 -0.67888,2.64819 -0.0335,0.089 -0.45753,1.11533 -0.61719,1.22726 -1.04495,0.73247 -2.18066,1.32549 -3.27098,1.98825 -0.11515,0.003 -0.23331,0.0354 -0.34543,0.009 -0.74921,-0.17646 -0.81105,-1.2996 -0.90582,-1.87795 -0.18158,-1.6337 -0.22985,-3.28295 -0.35481,-4.92162 -0.008,-0.0952 -0.0626,-0.65754 -0.0418,-0.67037 4.28194,-2.65903 3.08058,-2.44649 2.6229,-0.81467 -0.35788,1.25248 -0.49339,2.55671 -0.72259,3.83613 -0.0707,0.37083 -0.17613,0.73693 -0.20937,1.11298 -0.0543,0.61449 0.0452,1.24406 0.0164,1.8598 0.0269,0.6793 -0.0365,1.56546 0.42549,2.10905 0.55618,0.13062 1.15036,-0.27471 1.69581,-0.35802 0.9199,-0.21051 1.85265,-0.39593 2.79305,-0.47897 1.14968,-0.10096 2.30006,-0.0846 3.45221,-0.13734 0.4055,-0.0348 0.81349,-0.0649 1.20913,-0.16822 1.124,-0.29349 2.96821,-1.78013 -2.01122,1.30472 0.66124,-0.42636 0.7739,-0.62864 0.9334,-1.42243 0.14931,-0.58386 0.003,-1.04476 -0.28469,-1.56464 -0.24289,-0.74903 -0.51164,-1.48981 -0.77708,-2.23089 -0.39706,-1.00475 -0.67672,-2.05279 -1.03571,-3.07157 -0.40353,-1.15025 -0.80079,-2.313 -1.43164,-3.3629 -0.35317,-0.52796 -0.68623,-0.98112 -1.35952,-0.7097 -0.63581,0.18987 -1.30151,0.28752 -1.88359,0.63056 -1.04852,0.52423 -2.14982,0.9257 -3.28324,1.22552 -1.32478,0.37683 -2.66104,0.7069 -3.99744,1.03695 -1.2935,0.5361 -0.12298,0.0672 2.45195,-1.51706 0.0508,-0.0312 -0.11961,0.0234 -0.16991,0.0554 -0.20864,0.13256 -0.0728,0.41052 -0.0185,0.5788 0.27437,0.59948 0.48128,1.22355 0.71327,1.84015 0.24474,0.88281 0.62121,1.72094 0.91757,2.5866 0.31255,0.87565 0.69186,1.7258 1.11391,2.55386 0.48078,0.92903 0.77892,1.91401 1.14803,2.88931 0,0 -3.00497,1.6583 -3.00497,1.6583 z" />
  </g>
</svg>
