<?xml version="1.0" encoding="UTF-8" standalone="no"?>
<!-- Created with Inkscape (http://www.inkscape.org/) -->

<svg
   width="100"
   height="100"
   viewBox="0 0 26.458333 26.458333"
   version="1.1"
   id="svg1"
   sodipodi:docname="presentations.svg"
   inkscape:version="1.3.1 (9b9bdc1480, 2023-11-25, custom)"
   xmlns:inkscape="http://www.inkscape.org/namespaces/inkscape"
   xmlns:sodipodi="http://sodipodi.sourceforge.net/DTD/sodipodi-0.dtd"
   xmlns="http://www.w3.org/2000/svg"
   xmlns:svg="http://www.w3.org/2000/svg">
  <sodipodi:namedview
     id="namedview1"
     pagecolor="#ffffff"
     bordercolor="#000000"
     borderopacity="0.25"
     inkscape:showpageshadow="2"
     inkscape:pageopacity="0.0"
     inkscape:pagecheckerboard="0"
     inkscape:deskcolor="#d1d1d1"
     inkscape:document-units="mm"
     inkscape:clip-to-page="false"
     inkscape:zoom="4.1121711"
     inkscape:cx="25.290776"
     inkscape:cy="54.22926"
     inkscape:window-width="1452"
     inkscape:window-height="752"
     inkscape:window-x="2163"
     inkscape:window-y="101"
     inkscape:window-maximized="0"
     inkscape:current-layer="layer1" />
  <defs
     id="defs1" />
  <g
     inkscape:label="Layer 1"
     inkscape:groupmode="layer"
     id="layer1"
     transform="translate(-47.152802,-47.268771)">
    <path
       style="fill:#000000;stroke-width:38.516;stroke-dasharray:none"
       id="path2"
       d="m 64.693166,50.542873 c -0.399545,0.220298 -0.805841,0.433584 -1.115389,0.855198 -0.23094,0.385875 -0.226772,0.643337 -0.07749,1.073643 0.229673,0.631249 0.702739,0.901001 1.165186,1.160846 0.431121,0.265837 0.768488,0.55873 1.249531,0.611301 0.357023,-0.04403 0.641435,-0.272706 0.801616,-0.710958 0.09544,-0.416852 0.148158,-0.848966 0.184848,-1.282029 0.0092,-0.254981 -0.02047,-0.502424 -0.149899,-0.693258 -0.393097,-0.42241 -0.825614,-0.616663 -1.301147,-0.721264 -0.181337,-0.03785 -0.364492,-0.05263 -0.547324,-0.06888 0,0 0.488734,0.493258 0.488734,0.493258 v 0 c 0.18185,0.01764 0.363982,0.0347 0.543989,0.07634 0.152182,0.03919 0.298901,0.0878 0.448025,0.144522 0.0453,0.01726 0.172981,0.09167 0.13583,0.05217 -0.148298,-0.157612 -0.616795,-0.497373 -0.337364,-0.29302 0.150041,0.142929 0.17733,0.384453 0.178582,0.622571 -0.03252,0.424663 -0.08262,0.847316 -0.174473,1.256351 -0.148467,0.412261 -0.423566,0.61195 -0.758032,0.629797 -0.459328,-0.07556 -0.822267,-0.379356 -1.239374,-0.631659 -0.297415,-0.17332 -0.260102,-0.165674 0.217377,0.230581 0.03803,0.03157 -0.07732,-0.06133 -0.111495,-0.1003 -0.06411,-0.07313 -0.12358,-0.186335 -0.169517,-0.279731 -0.02427,-0.04931 -0.04587,-0.100964 -0.06884,-0.151446 -0.149397,-0.40056 -0.18766,-0.606771 0.03882,-0.98392 0.30632,-0.411823 0.709288,-0.618663 1.105465,-0.822963 z" />
    <path
       style="fill:#000000;stroke-width:38.516;stroke-dasharray:none"
       id="path3"
       d="m 63.442958,54.782925 c -0.187098,-0.07865 -0.371944,-0.167724 -0.550523,-0.277916 -0.06699,-0.04132 -0.261643,-0.182767 -0.198239,-0.131943 0.479428,0.38436 0.406525,0.32292 0.206437,0.08345 -0.246027,-0.398966 -0.529139,-0.734407 -0.8427,-1.028025 -0.472131,-0.503844 -0.983099,-0.917054 -1.500324,-1.326845 -0.184735,-0.09749 -0.0918,-0.05574 -0.278563,-0.12612 0,0 0.482775,0.510137 0.482775,0.510137 v 0 c 0.181176,0.07913 0.09133,0.03261 0.269311,0.140462 -0.128733,-0.103146 -0.255336,-0.211458 -0.386212,-0.309419 -0.0515,-0.03855 0.09914,0.08611 0.147846,0.130996 0.237537,0.218938 0.472519,0.441038 0.700977,0.677659 0.313604,0.290366 0.608949,0.605287 0.845283,1.016703 0.439398,0.57215 1.018977,0.904945 1.589873,1.152378 z" />
    <path
       style="fill:#000000;stroke-width:38.516;stroke-dasharray:none"
       id="path4"
       d="m 60.37244,53.223327 c -0.122106,-0.08605 -0.232565,-0.215578 -0.366325,-0.258178 -0.07409,-0.02358 0.118719,0.130351 0.176686,0.197785 0.279578,0.325249 0.53896,0.674901 0.829157,0.983265 0.340484,0.294174 0.666514,0.609421 0.972642,0.967172 0.214423,0.243483 0.434186,0.474993 0.670305,0.677679 0.182122,0.14454 0.359848,0.292997 0.526892,0.468349 0,0 0.568884,0.310435 0.568884,0.310435 v 0 C 63.580989,56.394484 63.410864,56.227598 63.221661,56.091326 62.983359,55.895914 62.766063,55.666098 62.550332,55.427385 62.24291,55.06428 61.918961,54.736814 61.57001,54.450853 61.004491,53.870166 60.558319,53.102132 59.895764,52.698512 Z" />
    <path
       style="fill:#000000;stroke-width:38.516;stroke-dasharray:none"
       id="path6"
       d="m 63.202644,54.691217 c 0.0023,0.327023 0.0336,0.651505 0.05528,0.976763 0.02867,0.478503 0.09388,0.949392 0.181551,1.413553 0.07485,0.375076 0.172548,0.74056 0.247748,1.115412 0.07791,0.459129 0.08378,0.93509 0.110101,1.403388 0.04233,0.626555 0.06708,1.255054 0.113261,1.881094 0.0013,0.111416 0.02217,0.228367 2.46e-4,0.338224 0,0 0.538866,0.400767 0.538866,0.400767 v 0 c 0.02435,-0.125363 2.45e-4,-0.252387 -0.008,-0.379339 -0.06489,-0.629198 -0.108067,-1.262335 -0.142509,-1.895926 -0.0048,-0.136686 -0.01077,-0.273316 -0.01442,-0.410083 -0.0085,-0.330708 0.01049,-0.66508 -0.05897,-0.986769 -0.07522,-0.377889 -0.177949,-0.744404 -0.257143,-1.120819 -0.09087,-0.4587 -0.157292,-0.925056 -0.184105,-1.399718 -0.01855,-0.317672 -0.04979,-0.63617 -0.03563,-0.955332 z" />
    <path
       style="fill:#000000;stroke-width:38.516;stroke-dasharray:none"
       id="path7"
       d="m 64.096311,54.919414 c 0.150707,-0.152262 0.345152,-0.08732 0.515224,-0.04574 0.360195,0.08323 0.72506,0.122383 1.083017,0.222753 0.373505,0.13498 0.753495,0.231846 1.12975,0.351622 0.318892,0.12316 0.649912,0.158143 0.977533,0.21278 0.110924,0.01252 0.220455,0.03965 0.329991,0.06553 0,0 -0.481748,-0.495277 -0.481748,-0.495277 v 0 c -0.10683,-0.02081 -0.213815,-0.04058 -0.321423,-0.05266 -0.326158,-0.04982 -0.652719,-0.09893 -0.970542,-0.216247 C 65.98,54.848701 65.60034,54.744142 65.225587,54.610811 c -0.361318,-0.0899 -0.728513,-0.128358 -1.089005,-0.226851 -0.190916,-0.04333 -0.38903,-0.0778 -0.556297,0.08615 z" />
    <path
       style="fill:#000000;stroke-width:38.516;stroke-dasharray:none"
       id="path8"
       d="m 67.175369,55.929791 c -0.153155,0.429976 -0.226532,0.903829 -0.312145,1.364911 -0.1558,0.793773 -0.20231,1.613403 -0.245858,2.429709 -0.01893,0.345658 -0.02958,0.692021 -0.04476,1.037974 -0.0037,0.08886 -0.01482,0.327021 -0.02735,0.424081 -0.0089,0.06824 -0.02344,0.134788 -0.03518,0.202184 -0.08955,0.367313 -0.161576,0.750223 -0.287533,1.098574 -0.0246,0.04282 -0.04507,0.09233 -0.08512,0.112803 -0.10269,0.05249 -0.263459,-0.0049 -0.365688,-0.03324 -0.305663,-0.115913 -0.6125,-0.226399 -0.920992,-0.327279 -0.04033,-0.01347 -0.08071,-0.02686 -0.121056,-0.04028 0,0 0.47403,0.494897 0.47403,0.494897 v 0 c 0.03886,0.01215 0.07769,0.02401 0.116555,0.03601 0.311265,0.10178 0.619952,0.216208 0.928902,0.330102 0.127552,0.0288 0.281746,0.07463 0.40264,-0.01766 0.04527,-0.03451 0.06737,-0.09351 0.09527,-0.149169 0.115079,-0.361632 0.178924,-0.752062 0.281483,-1.120482 0.01388,-0.07053 0.03227,-0.139663 0.04165,-0.211565 0.01089,-0.08496 0.01639,-0.362887 0.01768,-0.436536 0.006,-0.350017 0.006,-0.700354 0.02339,-1.04989 0.03919,-0.810231 0.1012,-1.620303 0.254978,-2.407077 0.08592,-0.449101 0.164359,-0.916985 0.338931,-1.319852 z" />
    <path
       style="fill:#000000;stroke-width:38.516;stroke-dasharray:none"
       id="path13"
       d="m 63.800323,62.076038 c -0.0013,0.352282 -0.02344,0.70345 -0.04165,1.054602 -0.02819,0.358797 -0.04972,0.718388 -0.07566,1.077471 -0.03866,0.452244 -0.05092,0.906598 -0.05961,1.361408 -0.01008,0.611674 -0.01335,1.223482 -0.01528,1.835283 0.0013,0.504325 -0.0084,1.008913 -0.07054,1.506699 -0.05064,0.353122 -0.110311,0.702773 -0.145265,1.059696 -0.01338,0.164216 -0.03384,0.32768 -0.02351,0.493577 0.0093,0.15215 0.03954,0.301785 0.06615,0.449467 0.01168,0.05299 0.02919,0.154067 0.03587,0.199868 0,0 0.541863,0.405747 0.541863,0.405747 v 0 c 0.01996,-0.08452 -0.0225,-0.170493 -0.03603,-0.251241 -0.02882,-0.142454 -0.06225,-0.287496 -0.07485,-0.434861 -0.01386,-0.162087 0.0048,-0.323042 0.01548,-0.484163 0.03453,-0.356994 0.09778,-0.70501 0.142479,-1.059519 0.05346,-0.505023 0.07006,-1.015046 0.06413,-1.525183 -1.64e-4,-0.611409 -7.6e-4,-1.222983 0.01287,-1.834167 0.01328,-0.449835 0.03719,-0.897976 0.07403,-1.345336 0.02565,-0.360743 0.04631,-0.721994 0.07168,-1.08279 0.01804,-0.349103 0.03866,-0.698119 0.06243,-1.046508 z" />
    <path
       style="fill:#000000;stroke-width:38.516;stroke-dasharray:none"
       id="path14"
       d="m 65.091809,63.891962 c -0.01546,0.50006 -0.05619,0.9964 -0.102196,1.492608 -0.08137,0.925462 -0.135757,1.853687 -0.159558,2.785131 0.0025,0.715366 0.01556,1.430408 0.01315,2.145887 -0.0072,0.355253 -0.0025,0.710625 0.0294,1.063437 0,0 0.535803,0.360398 0.535803,0.360398 v 0 c -0.04445,-0.352693 -0.04877,-0.711598 -0.05544,-1.068746 -0.0097,-0.714124 -0.0088,-1.428187 -0.01036,-2.142385 -0.008,-0.931902 0.02831,-1.86345 0.146838,-2.782868 0.05504,-0.486315 0.100045,-0.973555 0.144632,-1.461678 z" />
    <path
       style="fill:#000000;stroke-width:38.516;stroke-dasharray:none"
       id="path15"
       d="m 66.44154,64.056136 c -0.06811,0.230646 -0.120843,0.471436 -0.139909,0.719818 -0.0147,0.191741 -0.01606,0.473858 -0.01915,0.66212 -0.01606,0.742954 0.03148,1.483028 0.09433,2.219902 0.05986,0.664093 0.07724,1.333003 0.08459,2.001432 0.0045,0.443559 -0.01062,0.887507 0.02143,1.329483 0.01877,0.245594 0.05904,0.486294 0.09845,0.726745 0,0 0.526697,0.347224 0.526697,0.347224 v 0 c -0.0404,-0.234988 -0.08178,-0.47043 -0.09422,-0.712184 -0.0296,-0.444376 -0.03565,-0.889333 -0.03974,-1.335423 -0.01343,-0.670358 -0.02306,-1.342297 -0.0825,-2.008722 -0.06705,-0.733951 -0.131495,-1.469821 -0.101573,-2.211539 0.01371,-0.452405 0.02458,-0.91595 0.179209,-1.32755 z" />
    <path
       style="fill:#000000;stroke-width:38.516;stroke-dasharray:none"
       id="path16"
       d="m 67.551325,56.917087 c 0.08868,0.436696 0.13992,0.884329 0.185644,1.332465 0.04,0.439572 0.06577,0.881405 0.09014,1.323058 0.01274,0.225701 0.01776,0.451968 0.01822,0.678282 -0.0034,0.189801 10e-4,0.378548 0.01502,0.567345 0.01426,0.127712 0.01143,0.257856 0.0248,0.385504 0.18061,0.14674 0.351583,0.318442 0.541828,0.44024 0.02019,0.01289 0.03162,-0.04331 0.04939,-0.06173 0.0335,-0.03468 0.06809,-0.06761 0.104134,-0.09715 0.238493,-0.195688 0.495093,-0.348248 0.746945,-0.507617 0.378349,-0.225135 0.750485,-0.470798 1.13331,-0.681678 0,0 -0.498483,-0.454482 -0.498483,-0.454482 v 0 c -0.367378,0.235304 -0.7276,0.491577 -1.099316,0.714255 -0.191445,0.117374 -0.383861,0.231832 -0.574423,0.351875 -0.06955,0.0438 -0.138741,0.08876 -0.207258,0.135528 -0.04018,0.02741 -0.07796,0.0612 -0.118717,0.08698 -0.008,0.0051 -0.0334,-0.0021 -0.02611,0.0046 0.164612,0.149681 0.335439,0.286152 0.503157,0.429225 -0.04144,-0.112859 -0.0092,-0.255432 -0.03427,-0.375784 -0.01708,-0.187 -0.02627,-0.373163 -0.02113,-0.561863 -0.0025,-0.229425 -0.0018,-0.459283 -0.0208,-0.687646 -0.03464,-0.446724 -0.07154,-0.893135 -0.108971,-1.339432 -0.03991,-0.442784 -0.08413,-0.883826 -0.155304,-1.319678 z" />
    <path
       style="fill:#000000;stroke-width:38.516;stroke-dasharray:none"
       id="path17"
       d="m 67.821683,56.617788 c 0.01168,0.03737 0.02488,0.0741 0.03558,0.1121 0.03951,0.140253 0.05265,0.214224 0.08792,0.360282 0.05165,0.213867 0.111043,0.423619 0.163381,0.637204 0.0936,0.388655 0.150342,0.791163 0.183282,1.19724 0.02389,0.252111 0.03939,0.505316 0.04803,0.759201 0.0036,0.03785 -5.07e-4,0.33219 0.01371,0.344014 0.560552,0.463925 0.378909,0.540462 0.654542,0.367733 0.380268,-0.238683 0.778468,-0.417885 1.173095,-0.605959 0.05803,-0.02711 0.11605,-0.05422 0.17408,-0.08135 0,0 -0.484523,-0.448044 -0.484523,-0.448044 v 0 c -0.0561,0.02891 -0.112183,0.05781 -0.168275,0.08672 -0.396429,0.200585 -0.797747,0.382714 -1.193483,0.585839 -0.263284,0.08099 -0.11982,0.0097 0.400669,0.446332 0.0092,0.0078 -0.01713,-0.02102 -0.02027,-0.03538 -0.02007,-0.09108 0.0027,-0.19535 -0.0096,-0.28766 -0.0089,-0.256929 -0.02715,-0.512925 -0.05197,-0.767899 -0.03441,-0.413324 -0.102039,-0.820804 -0.18895,-1.219175 -0.08467,-0.369109 -0.189383,-0.729004 -0.261089,-1.103885 z" />
    <path
       style="fill:#000000;stroke-width:38.516;stroke-dasharray:none"
       id="path23"
       d="m 50.108765,51.236847 c 0.02415,0.794377 -0.0027,1.58803 -0.03545,2.381075 -0.07344,1.485315 -0.116356,2.972976 -0.146019,4.460998 4.06e-4,0.519254 -0.02658,1.038547 -0.02588,1.557776 3.54e-4,0.238433 -0.01416,0.393711 0.09537,0.595436 0.0487,0.08969 0.121322,0.14953 0.181985,0.224298 0.324907,0.190301 0.636598,0.430273 0.974722,0.570905 0.185098,0.07699 1.437999,0.240716 1.580666,0.258823 0.711204,0.09024 1.424179,0.151425 2.136446,0.223168 0.527504,0.06953 1.05871,0.08104 1.585611,0.158731 0.136284,0.02041 0.272145,0.03616 0.408073,0.06008 0.0778,0.0024 0.156814,0.03938 0.234888,0.03475 0.06578,-0.0038 0.134754,-0.0402 0.197453,-0.06526 0.01817,-0.0068 0.03636,-0.01347 0.05455,-0.0203 0,0 -0.504446,-0.473977 -0.504446,-0.473977 v 0 c -0.0181,0.007 -0.03618,0.01403 -0.05428,0.02091 -0.13969,0.05145 -0.273484,0.0423 -0.415688,0.0053 -0.135092,-0.02512 -0.27086,-0.03821 -0.40666,-0.05435 -0.510628,-0.05027 -1.023503,-0.05069 -1.534089,-0.104266 -0.702616,-0.05534 -1.405865,-0.103297 -2.106539,-0.196527 -0.284545,-0.03787 -0.569165,-0.07683 -0.852312,-0.130862 -0.254662,-0.0486 -0.503372,-0.181401 -0.760476,-0.176906 -0.04632,7.94e-4 0.0044,0.126727 0.0068,0.190105 -0.14337,-0.145527 -0.236786,-0.186317 -0.288983,-0.435004 -0.02195,-0.104551 -0.01575,-0.216657 -0.01867,-0.325376 -0.0141,-0.523419 0.0076,-1.048513 0.0039,-1.571946 0.01962,-1.487942 0.05524,-2.975806 0.142747,-4.459586 0.0436,-0.781693 0.08951,-1.56362 0.09083,-2.348066 z" />
    <path
       style="fill:#000000;stroke-width:38.516;stroke-dasharray:none"
       id="path24"
       d="m 51.451092,57.97079 c 0.340024,-0.222349 0.658619,-0.499088 1.000589,-0.715895 0.03672,-0.0068 0.07352,-0.02796 0.110153,-0.02036 0.0282,0.0059 0.100192,0.07444 0.07409,0.05866 -0.1514,-0.09154 -0.288071,-0.241909 -0.450381,-0.286181 -0.04725,-0.0129 0.04185,0.118911 0.06038,0.179808 0.04242,0.139418 0.07865,0.282225 0.118294,0.423188 0.208222,0.7145 0.363938,0.710633 0.909351,1.148912 0.03307,-0.0061 0.06817,-0.0017 0.09921,-0.01859 0.194293,-0.105195 0.461745,-0.663555 0.587477,-0.885367 0.373736,-0.618428 0.801187,-1.169626 1.217843,-1.732478 0.147705,-0.192942 0.281912,-0.403749 0.423018,-0.605315 0,0 -0.519235,-0.432738 -0.519235,-0.432738 v 0 c -0.13729,0.203924 -0.264547,0.420756 -0.410531,0.613784 -0.403025,0.583949 -0.819685,1.150212 -1.21436,1.744913 -0.09294,0.155146 -0.182449,0.314163 -0.276655,0.467875 -0.07197,0.117431 -0.176895,0.312435 -0.299268,0.341142 -0.02631,0.0061 -0.05279,-0.01062 -0.07919,-0.01594 0.145242,0.117811 0.288229,0.240986 0.435722,0.353424 0.02764,0.02108 -0.05229,-0.04934 -0.07549,-0.07879 -0.119516,-0.151636 -0.194201,-0.353976 -0.255784,-0.556739 -0.09788,-0.33897 -0.02296,-0.07243 -0.11597,-0.423566 -0.01704,-0.06426 -0.01429,-0.147615 -0.05209,-0.192254 -0.179091,-0.211592 -0.381222,-0.38462 -0.581689,-0.556532 -0.02586,-0.0222 -0.06,-0.02318 -0.09043,-0.01986 -0.03905,0.0042 -0.07561,0.0281 -0.113446,0.04214 -0.338093,0.234531 -0.659481,0.515438 -1.01335,0.705621 z" />
    <path
       style="fill:#000000;stroke-width:38.516;stroke-dasharray:none"
       id="path25"
       d="m 54.122113,55.14769 c 0.363339,-0.0554 0.722447,-0.161103 1.087639,-0.191261 0.11593,0.01707 0.252359,-0.04054 0.365368,0.02022 0.02773,0.0148 0.0992,0.08966 0.07233,0.072 -0.465512,-0.305997 -0.541802,-0.527439 -0.398407,-0.200633 0.01302,0.04932 0.02879,0.09743 0.03907,0.147974 0.02542,0.125134 0.0391,0.289359 0.05477,0.414089 0.03515,0.279355 0.0374,0.278681 0.08127,0.552482 0,0 0.533436,0.352058 0.533436,0.352058 v 0 c -0.04601,-0.272419 -0.0489,-0.26566 -0.07962,-0.544184 -0.01315,-0.118589 -0.02474,-0.301019 -0.04395,-0.422352 -0.0085,-0.0542 -0.02217,-0.106732 -0.03324,-0.160078 -0.140843,-0.419114 -0.02907,-0.150233 -0.626222,-0.661121 -0.130844,-0.111929 -0.309679,-0.03735 -0.452095,-0.04775 -0.366528,0.04454 -0.72712,0.159395 -1.095307,0.18438 z" />
    <path
       style="fill:#000000;stroke-width:6.28406;stroke-dasharray:none"
       id="path1"
       d="m 61.299261,66.170165 c -0.03221,0.0032 -0.06428,0.0092 -0.09663,0.0096 -0.249498,0.003 -0.502248,-0.02303 -0.751389,-0.03214 -0.467288,-0.0171 -0.360835,-0.01252 -0.855242,-0.01546 -0.9234,0.04109 -1.846251,0.0097 -2.768843,-0.03151 -0.710649,-0.0212 -1.421234,-0.05287 -2.130245,-0.108128 -0.586991,-0.03742 -1.163719,-0.146747 -1.735708,-0.28437 -0.08399,-0.02155 -0.168076,-0.04274 -0.251983,-0.06467 -0.252438,-0.06596 -0.502095,-0.123381 -0.760908,-0.156457 -0.193692,-0.02475 -0.313082,-0.02945 -0.505806,-0.04175 -0.420076,-0.0059 -0.837053,-0.07359 -1.246392,-0.168467 -0.353308,-0.106309 -0.695793,-0.252657 -1.02581,-0.421471 -0.366273,-0.216836 0.148801,0.08829 0.175761,0.102643 0.03501,0.01864 -0.06563,-0.0452 -0.09778,-0.06881 -0.07765,-0.05702 -0.150581,-0.12027 -0.224453,-0.182396 -0.178443,-0.142133 -0.160044,-0.267187 -0.174262,-0.492314 -0.03728,-0.518455 -0.04781,-1.037746 -0.03912,-1.557381 0.0173,-0.54653 0.05979,-1.091488 0.09278,-1.63707 0.04602,-0.524924 0.07007,-1.050851 0.07693,-1.577783 0.0041,-0.589986 0.0098,-1.179695 0.04104,-1.768874 0.0074,-0.09118 0.01425,-0.182424 0.02231,-0.273549 0.01468,-0.165893 0.04991,-0.500007 0.05754,-0.658101 0.02059,-0.426926 9.13e-4,-0.8545 -0.01342,-1.281191 -0.03599,-0.692279 -0.05163,-1.385396 -0.0784,-2.078039 -0.02765,-0.488768 -0.06706,-0.976606 -0.08774,-1.465792 -0.01751,-0.478055 -0.01963,-0.956525 -0.01722,-1.434862 -0.0057,-0.281555 0.05194,-0.556022 0.09372,-0.832071 0.03082,-0.113296 -0.0032,-0.353586 0.09518,-0.433885 0.01794,-0.01463 0.04079,-0.0211 0.06119,-0.03164 0.03225,-0.0076 0.06413,-0.01724 0.09677,-0.02278 0.105033,-0.01783 0.193931,-0.02015 0.301178,-0.02722 0.309694,-0.02042 0.618988,-0.03387 0.929137,-0.04513 1.304298,-0.03495 2.609136,-0.03919 3.913789,-0.04226 1.602641,0.03006 3.204663,0.08386 4.805316,0.172346 1.339275,0.088 2.68106,0.12444 4.020517,0.207313 0.145945,0.0095 0.291947,0.01797 0.437828,0.02846 0.32854,0.02361 0.451628,0.03308 0.773903,0.07563 0.326533,0.04311 0.650735,0.103529 0.97568,0.157674 0.368262,0.05504 0.73382,0.134864 1.104912,0.168433 0.212409,0.01922 0.484054,0.02781 0.694469,0.03666 0.705203,0.02428 1.410665,0.0236 2.115848,0.04812 0.451471,0.01 0.902112,0.03028 1.35225,0.06711 0.233575,0.02457 0.466709,0.02631 0.699774,-0.002 0.172089,-0.0275 0.344666,-0.04856 0.518506,-0.05824 0.206591,-0.003 0.412985,-0.01243 0.61946,-0.01678 0.07292,-0.0016 0.148379,-0.0035 0.217722,0.02459 0.01513,0.0061 0.05702,0.03226 0.0429,0.02393 -0.410551,-0.242387 -0.506099,-0.34283 -0.372207,-0.207987 0.0062,0.01358 0.01449,0.0263 0.01847,0.04075 0.01353,0.04937 0.01758,0.132915 0.01981,0.179043 0.0067,0.13844 0.0054,0.277387 0.006,0.415946 -0.01353,0.453146 -0.02917,0.906214 -0.04066,1.359425 -0.01872,0.47025 -0.04165,0.940224 -0.06555,1.410195 -0.03512,0.607276 -0.07278,1.214186 -0.08804,1.822422 -0.01242,0.66992 -0.06784,1.337653 -0.121075,2.005025 -0.07098,0.783769 -0.06546,1.57151 -0.06707,2.357885 -7.6e-4,0.399792 7.6e-4,0.799577 0.002,1.199366 5.07e-4,0.183304 0.0049,0.357267 -0.0094,0.539743 -0.0054,0.06897 -0.017,0.13727 -0.0255,0.205903 -0.07697,0.377205 -0.144503,0.755451 -0.187103,1.138744 -0.05638,0.483129 -0.08677,0.968695 -0.100119,1.455013 -0.0015,0.0877 -0.0028,0.175398 -0.0043,0.263095 -0.0048,0.293002 -0.001,0.180226 -0.01274,0.453446 -0.0045,0.105595 -0.01774,0.363636 -0.01429,0.45685 0.004,0.107228 0.01784,0.21381 0.02674,0.320715 0.05774,0.494654 0.187655,0.975125 0.275717,1.463836 -0.0061,0.01088 0.03061,0.115765 -0.0072,0.12399 -0.0131,0.0028 -0.02675,-7.94e-4 -0.04013,-7.94e-4 -0.212989,0.0029 0.08913,0.0024 -0.16164,0.0021 -0.387877,0.0052 -0.775628,0.02438 -1.163543,0.03359 -0.373803,-0.0013 -0.746745,0.02425 -1.120018,0.04092 -0.261475,0.01154 -0.52316,0.01554 -0.784843,0.01625 -0.10907,-1.37e-4 -0.05717,2.7e-5 -0.155701,-5.29e-4 0,0 0.403226,0.305859 0.403226,0.305859 v 0 c 0.09655,-0.0013 0.04564,-5.29e-4 0.152727,-0.0021 0.259851,-0.0041 0.519752,-0.0088 0.779327,-0.02277 0.37111,-0.01898 0.742065,-0.04167 1.113735,-0.04426 0.391986,-0.0097 0.784128,-0.0289 1.176229,-0.0229 0.07256,-0.0011 0.226951,0.02107 0.258726,-0.07683 0.01112,-0.03428 -0.0029,-0.09901 -0.0069,-0.128148 -0.105809,-0.488286 -0.246536,-0.969638 -0.299504,-1.469131 -0.0075,-0.104062 -0.0204,-0.207854 -0.0226,-0.312189 -0.0018,-0.08419 0.0072,-0.168255 0.01064,-0.252389 0.01262,-0.306855 0.01614,-0.613699 0.02128,-0.920763 0.01546,-0.484431 0.03935,-0.96897 0.100551,-1.449843 0.04471,-0.382913 0.118242,-0.759448 0.188583,-1.137752 0.0078,-0.07066 0.0188,-0.141001 0.02338,-0.211963 0.01264,-0.196013 0.0041,-0.348844 1.35e-4,-0.547274 -0.008,-0.402512 -0.01553,-0.805051 -0.01877,-1.207641 -2.54e-4,-0.362299 -0.0034,-0.662214 0.0082,-1.024795 0.01416,-0.440011 0.05585,-0.877975 0.08073,-1.317255 0.04432,-0.669178 0.09614,-1.33796 0.119656,-2.00844 0.01776,-0.606567 0.04352,-1.212985 0.09388,-1.81769 0.02736,-0.470128 0.04567,-0.940631 0.06741,-1.411077 0.0088,-0.452262 0.02311,-0.904299 0.04991,-1.355835 10e-4,-0.219224 0.01206,-0.442579 -0.01956,-0.659583 -0.138321,-0.273042 -0.480651,-0.361255 -0.750254,-0.351347 -0.207349,0.0084 -0.41464,0.01062 -0.622058,0.01663 -0.17339,0.0113 -0.345069,0.03643 -0.516919,0.06253 -0.230547,0.02349 -0.460897,0.01844 -0.691611,-0.0031 -0.444795,-0.03034 -0.890084,-0.0394 -1.335622,-0.05183 -0.703508,-0.02122 -1.407318,-0.01882 -2.110707,-0.04505 -0.297123,-0.01575 -0.413738,-0.01804 -0.702971,-0.0476 -0.3688,-0.03769 -0.733183,-0.110564 -1.099542,-0.166638 -0.323113,-0.05273 -0.64564,-0.110483 -0.970496,-0.15068 -0.31401,-0.03885 -0.449863,-0.04876 -0.769266,-0.06907 -0.144146,-0.0092 -0.28841,-0.01616 -0.432616,-0.02424 -1.327783,-0.06821 -2.657446,-0.09165 -3.98438,-0.17935 -1.603239,-0.08827 -3.207569,-0.155497 -4.813075,-0.175412 -1.318061,0.0014 -2.636222,-0.0055 -3.954195,0.01314 -0.354442,0.0076 -0.377577,0.0064 -0.707183,0.01917 -0.182383,0.0071 -0.377395,0.0038 -0.557775,0.04141 -0.03641,0.0076 -0.07132,0.02157 -0.106983,0.03235 -0.02431,0.0163 -0.05172,0.0284 -0.07292,0.04889 -0.114032,0.110159 -0.06731,0.318063 -0.102192,0.458662 -0.04245,0.280244 -0.09651,0.559608 -0.08593,0.845379 0.0039,0.4785 2.54e-4,0.957165 0.01379,1.435508 0.02179,0.491985 0.06833,0.981835 0.101951,1.473005 0.02678,0.694186 0.04109,1.388917 0.08653,2.082265 0.01764,0.424292 0.03589,0.847549 0.0097,1.272071 -0.01022,0.165383 -0.04921,0.482215 -0.06572,0.65394 -0.0088,0.09147 -0.01544,0.18316 -0.02317,0.274739 -0.03304,0.590472 -0.02998,1.181465 -0.03754,1.772708 -0.01506,0.525039 -0.0376,1.049708 -0.0814,1.573123 -0.03231,0.546533 -0.07201,1.092608 -0.09237,1.639863 -0.0075,0.518314 3.04e-4,1.036316 0.02623,1.554075 0.0033,0.12953 -0.01616,0.312027 0.05462,0.429677 0.02234,0.03713 0.06432,0.0709 0.09467,0.09873 0.106103,0.08819 0.208806,0.185639 0.325262,0.259103 0.176312,0.111225 0.35456,0.219075 0.532883,0.326742 0.04264,0.02573 0.08662,0.04896 0.129933,0.07344 0.330838,0.163652 0.672399,0.309327 1.026736,0.407129 0.410968,0.09058 0.827219,0.159369 1.248414,0.160573 0.195765,0.01263 0.303263,0.01625 0.500303,0.04308 0.342422,0.04661 0.675617,0.138123 1.010412,0.223562 0.284035,0.06618 0.568278,0.131715 0.856122,0.177764 0.216986,0.03472 0.350838,0.04604 0.569738,0.0678 0.103493,0.0103 0.207027,0.02012 0.31054,0.03019 0.707376,0.05431 1.416545,0.07339 2.12519,0.102182 0.920204,0.0353 1.840462,0.05103 2.76121,0.02401 0.491798,0.0086 0.40064,0.0026 0.867169,0.02679 0.25738,0.01337 0.519854,0.04743 0.777965,0.04293 0.03559,-5.29e-4 0.07078,-0.0079 0.106172,-0.01188 z" />
  </g>
</svg>
