<?xml version="1.0" encoding="UTF-8" standalone="no"?>
<!-- Created with Inkscape (http://www.inkscape.org/) -->

<svg
   xmlns:dc="http://purl.org/dc/elements/1.1/"
   xmlns:cc="http://creativecommons.org/ns#"
   xmlns:rdf="http://www.w3.org/1999/02/22-rdf-syntax-ns#"
   xmlns:svg="http://www.w3.org/2000/svg"
   xmlns="http://www.w3.org/2000/svg"
   xmlns:sodipodi="http://sodipodi.sourceforge.net/DTD/sodipodi-0.dtd"
   xmlns:inkscape="http://www.inkscape.org/namespaces/inkscape"
   width="21.441536mm"
   height="12.80258mm"
   viewBox="0 0 21.441535 12.80258"
   version="1.1"
   id="svg8"
   inkscape:version="0.92.5 (2060ec1f9f, 2020-04-08)"
   sodipodi:docname="quotations.svg"
   inkscape:export-filename="/home/mp15688/git/perellonieto.github.io/images/map.png"
   inkscape:export-xdpi="17.764978"
   inkscape:export-ydpi="17.764978">
  <defs
     id="defs2" />
  <sodipodi:namedview
     id="base"
     pagecolor="#ffffff"
     bordercolor="#666666"
     borderopacity="1.0"
     inkscape:pageopacity="0.0"
     inkscape:pageshadow="2"
     inkscape:zoom="3.959798"
     inkscape:cx="94.281314"
     inkscape:cy="32.586452"
     inkscape:document-units="mm"
     inkscape:current-layer="layer1"
     showgrid="false"
     fit-margin-top="0"
     fit-margin-left="0"
     fit-margin-right="0"
     fit-margin-bottom="0"
     inkscape:window-width="1676"
     inkscape:window-height="1007"
     inkscape:window-x="0"
     inkscape:window-y="20"
     inkscape:window-maximized="0" />
  <metadata
     id="metadata5">
    <rdf:RDF>
      <cc:Work
         rdf:about="">
        <dc:format>image/svg+xml</dc:format>
        <dc:type
           rdf:resource="http://purl.org/dc/dcmitype/StillImage" />
        <dc:title></dc:title>
      </cc:Work>
    </rdf:RDF>
  </metadata>
  <g
     inkscape:label="Layer 1"
     inkscape:groupmode="layer"
     id="layer1"
     transform="translate(-67.972965,-127.23328)">
    <g
       id="g1082">
      <path
         inkscape:connector-curvature="0"
         d="m 69.487038,127.57069 c -0.01618,-5.3e-4 -0.03237,-0.002 -0.04855,-0.003 -0.03786,-0.003 -0.07585,-0.002 -0.113757,-4e-4 -0.05552,-3e-5 -0.110943,0.003 -0.166388,0.005 -0.06386,0.003 -0.12753,0.009 -0.190775,0.0184 -0.06141,0.009 -0.121313,0.0246 -0.179781,0.0455 -0.009,0.004 -0.01822,0.007 -0.02711,0.0109 -0.01578,0.007 -0.03613,0.0182 -0.05117,0.0267 -0.0085,0.005 -0.03369,0.0196 -0.02525,0.0147 0.290362,-0.16681 0.381786,-0.22388 0.262431,-0.14987 -0.05077,0.0318 -0.0972,0.0696 -0.140923,0.11045 -0.04408,0.0428 -0.08185,0.0912 -0.117701,0.14091 -0.03766,0.0522 -0.07162,0.10687 -0.10273,0.1632 -0.03229,0.0595 -0.05978,0.12134 -0.08579,0.18375 -0.02675,0.0641 -0.04878,0.13011 -0.07128,0.19583 -0.02435,0.0668 -0.04648,0.1344 -0.06476,0.20317 -0.01784,0.0723 -0.03021,0.14571 -0.0394,0.21953 -0.0091,0.0748 -0.01095,0.15032 -0.01116,0.22562 2.84e-4,0.0753 0.0093,0.15015 0.0203,0.2245 0.01134,0.0744 0.031,0.14688 0.05423,0.21833 0.02278,0.0684 0.05402,0.13319 0.08916,0.19591 0.03272,0.0563 0.07375,0.10674 0.117927,0.15435 0.04053,0.0438 0.08692,0.0812 0.135848,0.11504 0.04593,0.0313 0.09654,0.0533 0.14958,0.0693 0.05159,0.0139 0.104636,0.0192 0.157898,0.0199 0.05151,0.002 0.102299,-0.006 0.152056,-0.0184 0.03149,-0.009 0.06229,-0.0219 0.09086,-0.0381 0.0073,-0.004 0.02902,-0.0176 0.02165,-0.0134 -0.09746,0.0557 -0.194642,0.11189 -0.291963,0.16783 0.04455,-0.0269 0.08342,-0.0616 0.119917,-0.0984 0.04037,-0.0428 0.07153,-0.0927 0.100198,-0.14374 0.03063,-0.0575 0.05754,-0.11714 0.07882,-0.17883 0.01837,-0.054 0.02364,-0.10998 0.02001,-0.16652 -0.0054,-0.0494 -0.0237,-0.0954 -0.04554,-0.13954 -0.02293,-0.0434 -0.05466,-0.0803 -0.09025,-0.11354 -0.03795,-0.0341 -0.08007,-0.0627 -0.123867,-0.0886 -0.04134,-0.0234 -0.0839,-0.0445 -0.129117,-0.0592 -0.04209,-0.015 -0.086,-0.0189 -0.130304,-0.0184 -0.04826,0.002 -0.09501,0.0134 -0.141,0.0272 -0.05046,0.0165 -0.09805,0.0397 -0.143898,0.0662 0.54261,-0.31701 0.293146,-0.18314 0.184191,-0.0884 -0.04035,0.0357 -0.07492,0.077 -0.107474,0.11985 -0.02903,0.0383 -0.0525,0.0803 -0.07575,0.12221 -0.0077,0.0149 -0.01556,0.0298 -0.02359,0.0446 0,0 -0.3392,0.15045 -0.3392,0.15045 v 0 c 0.0093,-0.0143 0.01831,-0.0287 0.02609,-0.0438 0.0229,-0.044 0.04905,-0.0866 0.07622,-0.1281 0.03168,-0.0446 0.06515,-0.088 0.104373,-0.1264 0.127564,-0.12167 0.283089,-0.19639 0.440528,-0.28028 0.0479,-0.0245 0.09739,-0.0461 0.14955,-0.0598 0.04859,-0.0121 0.0981,-0.0212 0.148428,-0.0192 0.04687,0.003 0.09291,0.0111 0.136886,0.0282 0.0459,0.0181 0.08998,0.0403 0.132186,0.0659 0.04532,0.0281 0.08891,0.0591 0.128238,0.0952 0.03801,0.0369 0.07187,0.0776 0.09697,0.12447 0.02396,0.0483 0.04379,0.0985 0.05147,0.1522 0.0057,0.0608 0.0024,0.12162 -0.01543,0.18038 -0.01971,0.0637 -0.04625,0.12482 -0.07591,0.18453 -0.02706,0.0532 -0.0569,0.10505 -0.0947,0.15149 -0.03445,0.04 -0.07286,0.0765 -0.116004,0.10717 -0.118137,0.0688 -0.294459,0.20183 -0.454964,0.2386 -0.05186,0.009 -0.104294,0.0139 -0.157033,0.0106 -0.05541,-0.004 -0.11068,-0.011 -0.16365,-0.0284 -0.0548,-0.0197 -0.107359,-0.0448 -0.154893,-0.0787 -0.05018,-0.0362 -0.09725,-0.0764 -0.139129,-0.12214 -0.0455,-0.0501 -0.08713,-0.10357 -0.121086,-0.16239 -0.03594,-0.0649 -0.06787,-0.13202 -0.09154,-0.20252 -0.02419,-0.0732 -0.04513,-0.14731 -0.05707,-0.22359 -0.01197,-0.0759 -0.02153,-0.15234 -0.0228,-0.22929 -5.85e-4,-0.0765 0.001,-0.15322 0.009,-0.22937 0.0082,-0.0752 0.0205,-0.14986 0.03699,-0.22372 0.017,-0.0698 0.03769,-0.13839 0.06277,-0.20571 0.0234,-0.0658 0.04384,-0.13273 0.07027,-0.19747 0.0255,-0.0635 0.05238,-0.12631 0.08383,-0.18703 0.03008,-0.0576 0.06246,-0.11384 0.10022,-0.16677 0.03496,-0.0514 0.0721,-0.10154 0.114858,-0.14688 0.04181,-0.0437 0.08773,-0.0832 0.137814,-0.11723 0.131323,-0.0891 0.0285,-0.0202 0.362545,-0.21244 0.034,-0.0196 0.07043,-0.0348 0.107675,-0.0468 0.05985,-0.0181 0.120979,-0.0314 0.183049,-0.0394 0.06421,-0.008 0.128591,-0.0142 0.193259,-0.0165 0.0563,-0.003 0.112611,-0.005 0.168975,-0.006 0.03957,-0.002 0.07917,-0.002 0.118727,-2e-5 0.01846,5.4e-4 0.03727,0.002 0.05538,0.005 0,0 -0.308735,0.21512 -0.308735,0.21512 z"
         id="path883"
         style="opacity:1;fill:#000000;fill-opacity:1;stroke:#000000;stroke-width:0.03458267;stroke-linecap:round;stroke-linejoin:round;stroke-miterlimit:4;stroke-dasharray:none;stroke-dashoffset:0.57106102;stroke-opacity:1" />
      <path
         inkscape:connector-curvature="0"
         d="m 71.523216,127.47326 c -0.01957,-5.3e-4 -0.03914,-0.002 -0.05872,-0.002 -0.03755,-8.4e-4 -0.07494,-0.005 -0.112524,-0.005 -0.05988,0.002 -0.119509,0.007 -0.178809,0.015 -0.07076,0.008 -0.13982,0.0247 -0.20875,0.0418 -0.06967,0.0186 -0.138106,0.0418 -0.204867,0.069 -0.01059,0.005 -0.02125,0.009 -0.03176,0.0142 -0.01949,0.009 -0.04189,0.0202 -0.06059,0.0308 -0.0097,0.006 -0.03837,0.023 -0.02867,0.0174 0.281013,-0.16038 0.374349,-0.22355 0.255009,-0.14392 -0.05613,0.0391 -0.103978,0.0882 -0.149104,0.13933 -0.04528,0.0521 -0.0849,0.10863 -0.122492,0.1664 -0.03828,0.0588 -0.07091,0.12101 -0.101397,0.18417 -0.03198,0.0678 -0.0596,0.13755 -0.08629,0.20756 -0.02729,0.0725 -0.04822,0.14703 -0.06725,0.22202 -0.02053,0.0769 -0.0325,0.15546 -0.04147,0.2344 -0.0085,0.085 -0.0109,0.17046 -0.0099,0.25584 0.0024,0.0889 0.01035,0.17747 0.02075,0.26576 0.01009,0.0908 0.03117,0.17953 0.0591,0.26637 0.03067,0.0869 0.07764,0.16629 0.128441,0.24264 0.04702,0.0718 0.106076,0.13376 0.168853,0.19173 0.05259,0.0498 0.111925,0.0908 0.174599,0.12672 0.05097,0.027 0.106038,0.0431 0.162482,0.0536 0.04976,0.009 0.09881,0.002 0.147187,-0.0104 0.03095,-0.008 0.0611,-0.02 0.08968,-0.0346 0.0071,-0.004 0.02774,-0.0154 0.02086,-0.0114 -0.09803,0.0563 -0.196225,0.11238 -0.294339,0.16858 0.04476,-0.0252 0.08136,-0.0618 0.117447,-0.0978 0.03663,-0.0371 0.06965,-0.0775 0.0949,-0.12321 0.02178,-0.0425 0.01833,-0.0879 0.01094,-0.1335 -0.01053,-0.0504 -0.0316,-0.0972 -0.05747,-0.14136 -0.031,-0.0487 -0.07272,-0.089 -0.115139,-0.12761 -0.04481,-0.0401 -0.09408,-0.0744 -0.144428,-0.10709 -0.05058,-0.0313 -0.104328,-0.0565 -0.159636,-0.0781 -0.04667,-0.0181 -0.09557,-0.0274 -0.14536,-0.0302 -0.04266,-0.002 -0.08485,0.007 -0.126836,0.0127 -0.04296,0.008 -0.08297,0.0244 -0.121717,0.0438 -0.119373,0.0699 0.01617,-0.01 0.279522,-0.16033 0.006,-0.004 -0.01205,0.007 -0.01792,0.0108 -0.01797,0.0114 -0.03432,0.0244 -0.05065,0.0381 -0.02124,0.0194 -0.01083,0.009 -0.03122,0.03 0,0 -0.339865,0.14222 -0.339865,0.14222 v 0 c 0.0195,-0.0224 0.0096,-0.0114 0.02976,-0.0329 0.118448,-0.11427 0.272755,-0.18525 0.41915,-0.25698 0.04104,-0.017 0.08345,-0.03 0.127689,-0.0354 0.04369,-0.007 0.08792,-0.0106 0.131976,-0.005 0.05141,0.007 0.101622,0.0198 0.149414,0.0404 0.05634,0.024 0.111408,0.0511 0.162953,0.0842 0.05159,0.0343 0.102006,0.0702 0.147809,0.11202 0.04464,0.0414 0.08826,0.0848 0.121376,0.13628 0.02861,0.0476 0.0515,0.0982 0.06455,0.15236 0.01035,0.0514 0.01746,0.1036 -3.38e-4,0.15446 -0.02229,0.0499 -0.05355,0.0939 -0.09104,0.13377 -0.03509,0.0381 -0.07177,0.0751 -0.112756,0.10677 -0.143791,0.0826 -0.285346,0.1951 -0.452146,0.23148 -0.05177,0.009 -0.103788,0.01 -0.155196,-0.003 -0.05846,-0.014 -0.11531,-0.0338 -0.1672,-0.0648 -0.0632,-0.0392 -0.123002,-0.083 -0.176365,-0.135 -0.06341,-0.0611 -0.123364,-0.12564 -0.171299,-0.19989 -0.05227,-0.0792 -0.100385,-0.16167 -0.133125,-0.2511 -0.02937,-0.0887 -0.05148,-0.17942 -0.06276,-0.27228 -0.01152,-0.0893 -0.01929,-0.17895 -0.02278,-0.26891 -0.0022,-0.0865 -5.85e-4,-0.17306 0.0066,-0.25932 0.0083,-0.0802 0.01829,-0.16031 0.03857,-0.23849 0.01872,-0.0761 0.03889,-0.15192 0.0655,-0.22576 0.02609,-0.0706 0.05316,-0.14105 0.08396,-0.20982 0.02991,-0.0643 0.06119,-0.12804 0.09909,-0.18812 0.037,-0.0592 0.07593,-0.11727 0.120459,-0.17113 0.04433,-0.0531 0.09076,-0.10449 0.145301,-0.14743 0.131236,-0.0983 0.0251,-0.0203 0.366376,-0.2185 0.03944,-0.0229 0.0816,-0.0408 0.123851,-0.0577 0.06794,-0.0251 0.13684,-0.0481 0.20738,-0.0649 0.06999,-0.0167 0.140469,-0.0313 0.212104,-0.0392 0.06151,-0.008 0.123241,-0.0136 0.185263,-0.0132 0.03833,8.5e-4 0.07663,0.004 0.114982,0.003 0.02062,-2.8e-4 0.04125,-5.4e-4 0.06187,-0.002 0,0 -0.30365,0.22061 -0.30365,0.22061 z"
         id="path885"
         style="opacity:1;fill:#000000;fill-opacity:1;stroke:#000000;stroke-width:0.03458267;stroke-linecap:round;stroke-linejoin:round;stroke-miterlimit:4;stroke-dasharray:none;stroke-dashoffset:0.57106102;stroke-opacity:1" />
      <g
         transform="translate(0.43431298,1.4365737)"
         id="g995">
        <path
           style="opacity:1;fill:#000000;fill-opacity:1;stroke:#000000;stroke-width:0.03914164;stroke-linecap:round;stroke-linejoin:round;stroke-miterlimit:4;stroke-dasharray:none;stroke-dashoffset:0.57106102;stroke-opacity:1"
           id="path887"
           d="m 85.584518,137.11601 c 0.0099,-0.0237 0.02779,-0.0441 0.04385,-0.064 0.02701,-0.0314 0.05262,-0.0639 0.0783,-0.0964 0.03649,-0.0476 0.07216,-0.0958 0.10777,-0.14404 0.044,-0.0601 0.08419,-0.12296 0.124529,-0.1856 0.04511,-0.0708 0.08822,-0.14285 0.129686,-0.21585 0.04617,-0.0811 0.08814,-0.16442 0.127025,-0.24921 0.0411,-0.0923 0.07961,-0.18563 0.115723,-0.27996 0.0379,-0.0992 0.06926,-0.20074 0.09909,-0.30262 0.02923,-0.10196 0.05633,-0.20453 0.0801,-0.30789 0.02154,-0.0945 0.03495,-0.19033 0.04215,-0.28688 0.0057,-0.0847 0.0012,-0.16946 -0.01169,-0.25325 -0.01152,-0.0734 -0.0378,-0.14252 -0.06916,-0.20944 -0.02973,-0.0622 -0.06882,-0.11903 -0.111178,-0.1732 -0.03992,-0.05 -0.08586,-0.0947 -0.135539,-0.13482 -0.04728,-0.039 -0.101543,-0.0665 -0.157665,-0.0901 -0.05675,-0.0226 -0.117361,-0.0321 -0.177469,-0.041 -0.05976,-0.007 -0.119168,-0.0103 -0.179072,-0.004 -0.05835,0.006 -0.114047,0.0239 -0.167843,0.0466 -0.02416,0.01 -0.02876,0.011 -0.05154,0.0239 -0.0083,0.005 -0.03275,0.0199 -0.02444,0.0152 0.579428,-0.33099 0.399702,-0.24186 0.282664,-0.15697 -0.04742,0.0353 -0.08824,0.078 -0.126692,0.12259 -0.03926,0.0463 -0.07245,0.0971 -0.102921,0.14946 -0.02743,0.0474 -0.04686,0.0985 -0.05884,0.15185 -0.0097,0.0506 -0.0083,0.1021 9.33e-4,0.15261 0.01069,0.0484 0.03274,0.0928 0.05545,0.13645 0.02488,0.0489 0.05641,0.0936 0.08999,0.1368 0.03602,0.0454 0.07874,0.0846 0.123204,0.12149 0.04581,0.0373 0.09567,0.069 0.147691,0.0969 0.04729,0.0253 0.09748,0.0442 0.14993,0.0552 0.04924,0.01 0.09915,0.0108 0.14907,0.008 0.04751,-0.003 0.09271,-0.0171 0.136126,-0.0358 0.125393,-0.0689 0.292386,-0.16525 -0.296242,0.17062 -0.007,0.004 0.01356,-0.008 0.02013,-0.013 0.01628,-0.0113 0.02341,-0.0176 0.03884,-0.0301 0.04153,-0.0334 0.07565,-0.0741 0.107637,-0.11637 0.0052,-0.007 0.01037,-0.0138 0.01555,-0.0207 0,0 0.382729,-0.16447 0.382729,-0.16447 v 0 c -0.0054,0.007 -0.01072,0.0137 -0.01606,0.0206 -0.03246,0.0431 -0.063,0.0881 -0.103455,0.12435 -0.138399,0.12472 -0.30461,0.21825 -0.477896,0.28648 -0.04677,0.0149 -0.09488,0.0248 -0.144235,0.0243 -0.05214,-5.1e-4 -0.104213,-0.004 -0.154877,-0.0177 -0.05419,-0.0154 -0.106261,-0.0369 -0.155252,-0.065 -0.05308,-0.0308 -0.104409,-0.0644 -0.151647,-0.10372 -0.04622,-0.0393 -0.09051,-0.0809 -0.128105,-0.12878 -0.03504,-0.0452 -0.06807,-0.0919 -0.09485,-0.14262 -0.02457,-0.047 -0.0484,-0.0949 -0.0612,-0.14665 -0.01207,-0.0551 -0.01456,-0.1113 -0.0075,-0.16736 0.0092,-0.0576 0.0265,-0.11291 0.05413,-0.1645 0.02957,-0.0544 0.06174,-0.10734 0.09986,-0.15626 0.03737,-0.0469 0.07686,-0.0923 0.122898,-0.131 0.151079,-0.12347 0.325242,-0.2199 0.506109,-0.29239 0.05661,-0.0193 0.114834,-0.0334 0.174813,-0.0365 0.06166,-0.002 0.123231,0.002 0.184215,0.0119 0.0626,0.0106 0.125173,0.0235 0.183426,0.0497 0.05853,0.0266 0.114388,0.0583 0.163702,0.1 0.0509,0.0432 0.09845,0.0902 0.139349,0.14312 0.04381,0.0569 0.08426,0.11644 0.115127,0.18152 0.03285,0.0705 0.06082,0.14313 0.07331,0.22031 0.01419,0.0868 0.01871,0.17472 0.014,0.26263 -0.0069,0.0987 -0.02003,0.19671 -0.04139,0.29345 -0.02366,0.10419 -0.05082,0.20755 -0.07988,0.31036 -0.02941,0.10256 -0.05992,0.20489 -0.09673,0.3051 -0.03553,0.0949 -0.07357,0.18876 -0.11372,0.28181 -0.03795,0.0856 -0.07823,0.1701 -0.124,0.25183 -0.04085,0.0732 -0.08227,0.14607 -0.126944,0.21706 -0.03961,0.063 -0.0793,0.12593 -0.121846,0.187 -0.03391,0.0484 -0.06973,0.0953 -0.103199,0.14391 -0.02501,0.0323 -0.0496,0.0648 -0.07522,0.0966 -0.01499,0.0172 -0.0281,0.0362 -0.04389,0.0523 0,0 -0.386821,0.17601 -0.386821,0.17601 z"
           inkscape:connector-curvature="0" />
        <path
           style="opacity:1;fill:#000000;fill-opacity:1;stroke:#000000;stroke-width:0.03914164;stroke-linecap:round;stroke-linejoin:round;stroke-miterlimit:4;stroke-dasharray:none;stroke-dashoffset:0.57106102;stroke-opacity:1"
           id="path889"
           d="m 87.213171,137.12219 c 0.0066,-0.0305 0.03154,-0.0511 0.05375,-0.071 0.04007,-0.034 0.08299,-0.0645 0.125267,-0.0956 0.05507,-0.0393 0.110276,-0.0784 0.164931,-0.11827 0.06834,-0.0486 0.135153,-0.0993 0.200591,-0.15174 0.06784,-0.0547 0.132574,-0.11291 0.192964,-0.1757 0.06377,-0.0687 0.117637,-0.14539 0.169945,-0.22287 0.05603,-0.0821 0.103397,-0.16955 0.149515,-0.25749 0.04914,-0.093 0.09139,-0.18927 0.132138,-0.28613 0.04156,-0.0982 0.07646,-0.19891 0.109881,-0.30007 0.0329,-0.0955 0.05722,-0.19341 0.07264,-0.29316 0.01265,-0.0867 0.01268,-0.17419 0.0072,-0.26136 -0.0054,-0.0796 -0.02439,-0.15691 -0.05031,-0.23209 -0.02445,-0.0714 -0.06206,-0.13643 -0.105246,-0.19792 -0.04194,-0.0596 -0.09292,-0.11144 -0.147022,-0.15995 -0.05088,-0.0454 -0.109295,-0.0798 -0.169955,-0.11015 -0.0541,-0.0264 -0.112176,-0.0411 -0.171482,-0.0495 -0.05118,-0.009 -0.10262,-0.006 -0.153566,0.002 -0.04936,0.008 -0.09445,0.0296 -0.139808,0.0495 -0.126751,0.0668 -0.298037,0.16692 0.290614,-0.16828 0.0075,-0.004 -0.01456,0.009 -0.02166,0.0139 -0.01677,0.0114 -0.02729,0.0197 -0.0434,0.032 -0.04431,0.0344 -0.0824,0.0755 -0.118194,0.11839 -0.03863,0.0466 -0.06961,0.0986 -0.09843,0.15175 -0.03002,0.0571 -0.0576,0.11568 -0.07631,0.17756 -0.01817,0.0661 -9.33e-4,0.12709 0.02803,0.18678 0.03536,0.0642 0.08304,0.12053 0.131536,0.17507 0.0468,0.0531 0.09955,0.0998 0.155667,0.14261 0.05021,0.0375 0.104475,0.0685 0.16063,0.096 0.05685,0.0251 0.115987,0.0444 0.176187,0.0596 0.05989,0.0125 0.120971,0.0112 0.181466,0.006 0.05896,-0.006 0.115327,-0.0238 0.169778,-0.0464 0.02601,-0.0118 0.05153,-0.0246 0.07615,-0.0391 0.0083,-0.005 0.03299,-0.0199 0.02463,-0.0151 -0.326225,0.18688 -0.437695,0.26083 -0.306445,0.17456 0.02402,-0.0159 0.04605,-0.0345 0.06795,-0.0532 0,0 0.384581,-0.15691 0.384581,-0.15691 v 0 c -0.02126,0.0201 -0.0425,0.0403 -0.06604,0.0579 -0.155714,0.11579 -0.329264,0.21179 -0.507986,0.28812 -0.05715,0.0192 -0.115909,0.0332 -0.176382,0.0364 -0.06364,0.002 -0.127678,6e-4 -0.189458,-0.0166 -0.06169,-0.0178 -0.122744,-0.0385 -0.180574,-0.0667 -0.05767,-0.0297 -0.113516,-0.063 -0.164515,-0.10326 -0.0569,-0.0454 -0.109914,-0.0953 -0.158088,-0.15001 -0.05062,-0.0576 -0.100546,-0.11666 -0.137675,-0.18408 -0.03377,-0.067 -0.05656,-0.13668 -0.04301,-0.21255 0.01526,-0.0652 0.04208,-0.12605 0.0721,-0.18578 0.02782,-0.0548 0.05684,-0.10932 0.09421,-0.15839 0.03432,-0.0454 0.07116,-0.089 0.114176,-0.12652 0.143746,-0.12392 0.314627,-0.21399 0.487564,-0.29123 0.04721,-0.0195 0.09582,-0.0355 0.146985,-0.0402 0.05353,-0.004 0.106981,-0.002 0.159778,0.009 0.06144,0.0128 0.121362,0.0316 0.176983,0.0612 0.06234,0.0337 0.122395,0.0714 0.174718,0.1197 0.05565,0.0512 0.107599,0.10615 0.151123,0.16822 0.04507,0.0648 0.08462,0.1331 0.110289,0.20816 0.02727,0.0784 0.04853,0.15903 0.05476,0.24217 0.0062,0.0901 0.0066,0.18047 -0.0052,0.27022 -0.01487,0.10216 -0.03844,0.20253 -0.07178,0.30035 -0.03325,0.10188 -0.06715,0.20369 -0.1082,0.30275 -0.04034,0.0977 -0.0823,0.19476 -0.13008,0.28906 -0.04601,0.0886 -0.09147,0.17766 -0.146676,0.26107 -0.05207,0.0784 -0.104324,0.15688 -0.166038,0.22821 -0.05851,0.0654 -0.122624,0.125 -0.190303,0.18089 -0.06452,0.0529 -0.130028,0.10451 -0.197973,0.15294 -0.05369,0.0392 -0.106874,0.0791 -0.161482,0.11712 -0.04172,0.0295 -0.08241,0.0605 -0.123296,0.0911 -0.01937,0.0156 -0.03859,0.0322 -0.05749,0.0477 0,0 -0.384585,0.18063 -0.384585,0.18063 z"
           inkscape:connector-curvature="0" />
      </g>
      <g
         transform="translate(-0.28348214)"
         id="g961">
        <path
           style="opacity:1;fill:#000000;fill-opacity:1;stroke:#000000;stroke-width:0;stroke-linecap:round;stroke-linejoin:round;stroke-miterlimit:4;stroke-dasharray:none;stroke-dashoffset:0.57106102;stroke-opacity:1"
           id="path907"
           d="m 74.884726,128.3628 c -9.79e-4,0.0265 -0.0016,0.053 -0.0021,0.0795 -7.94e-4,0.0528 -0.0018,0.1056 -0.0026,0.15841 -0.003,0.0908 -0.0074,0.18164 -0.01046,0.27248 -0.0038,0.11996 -0.0065,0.23993 -0.01159,0.35985 -0.0062,0.13048 -0.01214,0.26097 -0.01756,0.39149 -0.0052,0.13178 -0.0094,0.26359 -0.016,0.39531 -0.0041,0.127 -0.01796,0.25326 -0.03444,0.37916 -0.01539,0.12121 -0.04364,0.23966 -0.08148,0.35566 -0.04251,0.11908 -0.09953,0.23233 -0.155693,0.3454 -0.06497,0.12833 -0.136938,0.25282 -0.214273,0.37404 -0.05263,0.0788 -0.02641,0.0398 -0.07865,0.11697 0,0 -0.434286,0.18949 -0.434286,0.18949 v 0 c 0.05298,-0.0772 0.02634,-0.0384 0.07995,-0.11631 0.07809,-0.11891 0.150722,-0.24118 0.214569,-0.3684 0.05569,-0.11091 0.109689,-0.223 0.155886,-0.33823 0.03934,-0.1133 0.07038,-0.22872 0.08612,-0.34792 0.01795,-0.12477 0.03266,-0.25011 0.0375,-0.37616 0.0069,-0.13164 0.0118,-0.26334 0.0167,-0.39507 0.0051,-0.13032 0.01045,-0.26064 0.01624,-0.39094 0.005,-0.11907 0.007,-0.23817 0.0084,-0.35733 0.0015,-0.0893 0.003,-0.17858 0.0041,-0.26788 -7.68e-4,-0.0519 -0.0018,-0.10383 -0.0026,-0.15574 -4.23e-4,-0.0258 -0.0011,-0.0516 -0.0021,-0.0774 0,0 0.444286,-0.22637 0.444286,-0.22637 z"
           inkscape:connector-curvature="0" />
        <path
           style="opacity:1;fill:#000000;fill-opacity:1;stroke:#000000;stroke-width:0;stroke-linecap:round;stroke-linejoin:round;stroke-miterlimit:4;stroke-dasharray:none;stroke-dashoffset:0.57106102;stroke-opacity:1"
           id="path909"
           d="m 73.660571,128.98234 c 0.0275,0.001 0.05508,3.2e-4 0.0826,1.2e-4 0.0911,-4e-5 0.182185,-0.002 0.273268,-0.003 0.111295,-10e-4 0.222427,-0.008 0.333276,-0.0175 0.11884,-0.0111 0.237669,-0.0233 0.356059,-0.0385 0.124401,-0.0152 0.248031,-0.0355 0.371537,-0.0566 0.130999,-0.0241 0.261948,-0.0483 0.392604,-0.0742 0.133476,-0.0274 0.265716,-0.0606 0.397297,-0.0959 0.07176,-0.0208 0.143815,-0.0405 0.215967,-0.0598 0,0 -0.374162,0.28725 -0.374162,0.28725 v 0 c -0.07243,0.0198 -0.144684,0.0401 -0.216989,0.0603 -0.132947,0.0351 -0.266406,0.0686 -0.401404,0.095 -0.130756,0.0254 -0.261811,0.0491 -0.392847,0.073 -0.124553,0.0215 -0.249419,0.0413 -0.37494,0.0563 -0.119093,0.014 -0.238342,0.027 -0.357814,0.0374 -0.111951,0.009 -0.224051,0.0151 -0.336375,0.0161 -0.09382,0.002 -0.18773,0.004 -0.281342,0.0109 -0.02603,0.002 -0.05765,0.001 -0.07999,0.017 0,0 0.393253,-0.30786 0.393253,-0.30786 z"
           inkscape:connector-curvature="0" />
        <path
           style="opacity:1;fill:#000000;fill-opacity:1;stroke:#000000;stroke-width:0;stroke-linecap:round;stroke-linejoin:round;stroke-miterlimit:4;stroke-dasharray:none;stroke-dashoffset:0.57106102;stroke-opacity:1"
           id="path911"
           d="m 76.211128,131.00846 c -0.204801,0.13303 0.541792,-0.30724 0.363677,-0.20637 -0.03253,0.0195 -0.05545,0.0494 -0.0782,0.0789 -0.03115,0.039 -0.05313,0.0826 -0.06824,0.12996 -0.01599,0.0607 -0.01727,0.12375 -0.01422,0.18603 0.0028,0.0641 0.02033,0.12465 0.04874,0.18178 0.03132,0.0585 0.07715,0.10678 0.124257,0.15275 0.04921,0.0486 0.105648,0.0871 0.165826,0.12057 0.05761,0.0306 0.120224,0.0479 0.184445,0.0571 0.05627,0.006 0.113048,0.002 0.168707,-0.007 0.05248,-0.0103 0.10059,-0.0323 0.145078,-0.0615 -0.725841,0.42012 -0.420348,0.27216 -0.285331,0.13824 0.0391,-0.0399 0.06254,-0.0892 0.07979,-0.1416 0.01593,-0.0497 0.01988,-0.1012 0.01638,-0.15298 -0.0061,-0.0504 -0.02637,-0.0966 -0.0517,-0.14001 -0.02841,-0.0471 -0.06663,-0.0862 -0.10729,-0.12266 -0.04227,-0.037 -0.08995,-0.0664 -0.139188,-0.093 -0.0573,-0.029 -0.117965,-0.0504 -0.17868,-0.0709 0,0 0.403639,-0.27336 0.403639,-0.27336 v 0 c 0.0632,0.022 0.126395,0.045 0.185419,0.0769 0.05153,0.0297 0.101378,0.0625 0.145677,0.10239 0.04333,0.0405 0.08339,0.0845 0.114566,0.1353 0.02923,0.0494 0.05318,0.10156 0.06304,0.15858 0.0061,0.0569 0.0054,0.11413 -0.0092,0.1699 -0.01509,0.0579 -0.03405,0.11376 -0.0709,0.16196 -0.140652,0.16985 -0.365355,0.25318 -0.54772,0.3594 -0.04956,0.0237 -0.101442,0.0413 -0.156524,0.0464 -0.05889,0.005 -0.118179,0.006 -0.176402,-0.006 -0.06729,-0.0149 -0.132619,-0.037 -0.192552,-0.0717 -0.06245,-0.037 -0.120712,-0.0801 -0.172541,-0.13116 -0.05034,-0.0502 -0.09898,-0.10301 -0.132911,-0.16608 -0.03185,-0.0625 -0.05308,-0.1287 -0.05808,-0.19914 -0.005,-0.0664 -0.005,-0.13327 0.0053,-0.19928 0.01139,-0.0517 0.02743,-0.10145 0.05853,-0.14509 0.02149,-0.0321 0.04305,-0.0648 0.07022,-0.0924 0.135484,-0.12514 0.01354,-0.0142 0.449143,-0.26373 0.01395,-0.008 0.03093,-0.0114 0.04681,-0.011 0,0 -0.399617,0.29869 -0.399617,0.29869 z"
           inkscape:connector-curvature="0" />
      </g>
      <g
         transform="translate(-1.342487,-0.07828143)"
         id="g966">
        <path
           style="opacity:1;fill:#000000;fill-opacity:1;stroke:#000000;stroke-width:0;stroke-linecap:round;stroke-linejoin:round;stroke-miterlimit:4;stroke-dasharray:none;stroke-dashoffset:0.57106102;stroke-opacity:1"
           id="path913"
           d="m 81.502665,128.48553 c -0.01157,0.0147 -0.01148,0.0393 -0.01373,0.0573 -0.0059,0.0554 -0.01284,0.11069 -0.01833,0.16615 -0.0084,0.0942 -0.02199,0.18774 -0.03748,0.281 -0.02148,0.12084 -0.03942,0.24226 -0.05683,0.36375 -0.01806,0.13114 -0.03825,0.26196 -0.05599,0.39315 -0.01828,0.13501 -0.03861,0.26972 -0.05916,0.40441 -0.02057,0.13151 -0.04586,0.26221 -0.06975,0.39314 -0.02376,0.12479 -0.04827,0.24942 -0.07104,0.3744 -0.02266,0.12583 -0.04581,0.25155 -0.06704,0.37763 -0.02088,0.12501 -0.03959,0.25036 -0.05757,0.37582 -0.01004,0.0785 -0.02243,0.15669 -0.037,0.23451 0,0 -0.431029,0.20904 -0.431029,0.20904 v 0 c 0.01633,-0.0772 0.03095,-0.1548 0.04031,-0.23324 0.01811,-0.12592 0.03699,-0.25172 0.05787,-0.37721 0.02103,-0.12615 0.04332,-0.25207 0.06608,-0.37791 0.02278,-0.12522 0.04667,-0.25022 0.07207,-0.37493 0.02392,-0.13068 0.04946,-0.26108 0.0709,-0.3922 0.02073,-0.13449 0.04158,-0.26895 0.05999,-0.40378 0.01723,-0.13094 0.03576,-0.26167 0.05394,-0.39247 0.01651,-0.1213 0.03476,-0.24235 0.05353,-0.36332 0.01444,-0.091 0.02598,-0.18224 0.03215,-0.27416 0.0036,-0.0543 0.0086,-0.10847 0.01156,-0.16273 9.52e-4,-0.0229 0.0031,-0.0458 0.0032,-0.0687 0,0 0.453377,-0.20968 0.453377,-0.20968 z"
           inkscape:connector-curvature="0" />
        <path
           style="opacity:1;fill:#000000;fill-opacity:1;stroke:#000000;stroke-width:0;stroke-linecap:round;stroke-linejoin:round;stroke-miterlimit:4;stroke-dasharray:none;stroke-dashoffset:0.57106102;stroke-opacity:1"
           id="path915"
           d="m 80.785121,130.92154 c 0.01183,-0.0256 0.03381,-0.046 0.05346,-0.0659 0.03522,-0.0304 0.07312,-0.0574 0.112069,-0.0828 0.187814,-0.10754 0.368806,-0.24051 0.576216,-0.31068 0.07019,-0.0237 0.14274,-0.0382 0.215333,-0.0522 0.07627,-0.0138 0.153119,-0.0201 0.230448,-0.0151 0.07774,0.007 0.146071,0.0413 0.211496,0.0815 0.06665,0.044 0.122509,0.10115 0.175574,0.16027 0.05485,0.0614 0.102162,0.12849 0.141263,0.20083 0.03739,0.0722 0.05308,0.15193 0.06311,0.23185 0.008,0.0746 -0.0023,0.14773 -0.02634,0.21829 -0.02454,0.0671 -0.06776,0.12195 -0.118564,0.17089 -0.17938,0.14167 -0.38443,0.24968 -0.587739,0.35278 -0.06371,0.0348 -0.13259,0.0538 -0.203552,0.0664 -0.06698,0.0107 -0.134383,0.007 -0.201082,-0.003 -0.06248,-0.0101 -0.119164,-0.0369 -0.172407,-0.07 -0.05605,-0.0378 -0.106922,-0.0829 -0.157378,-0.12782 -0.03249,-0.0305 -0.06788,-0.0572 -0.10473,-0.0821 0,0 0.412494,-0.26234 0.412494,-0.26234 v 0 c 0.0367,0.0274 0.07195,0.0565 0.106002,0.0872 0.04902,0.0423 0.09846,0.0851 0.153979,0.1188 0.05057,0.0272 0.103307,0.0485 0.161124,0.0538 0.06368,0.006 0.127648,0.005 0.190322,-0.009 0.06848,-0.0167 0.133729,-0.0422 0.195109,-0.0772 0.161376,-0.0898 0.03337,-0.0188 -0.356752,0.2072 -0.0098,0.006 0.01963,-0.0111 0.02934,-0.0168 0.02846,-0.0168 0.05623,-0.0348 0.08291,-0.0543 0.05306,-0.0405 0.100108,-0.0882 0.128648,-0.14951 0.02866,-0.0626 0.04175,-0.12828 0.03749,-0.19746 -0.0068,-0.0744 -0.01905,-0.14876 -0.05314,-0.21613 -0.03658,-0.0693 -0.08318,-0.13209 -0.135452,-0.19039 -0.05062,-0.0552 -0.103872,-0.10856 -0.168531,-0.14738 -0.06154,-0.0347 -0.126159,-0.0604 -0.197957,-0.0614 -0.07497,-1.6e-4 -0.149419,0.008 -0.222845,0.0236 -0.07225,0.0154 -0.144122,0.033 -0.213076,0.06 -0.175929,0.0711 -0.463416,0.26144 0.266848,-0.16743 -0.03921,0.022 -0.07687,0.0466 -0.112026,0.0748 -0.02069,0.0139 -0.03734,0.0321 -0.05582,0.048 0,0 -0.455827,0.20288 -0.455827,0.20288 z"
           inkscape:connector-curvature="0" />
        <path
           style="opacity:1;fill:#000000;fill-opacity:1;stroke:#000000;stroke-width:0;stroke-linecap:round;stroke-linejoin:round;stroke-miterlimit:4;stroke-dasharray:none;stroke-dashoffset:0.57106102;stroke-opacity:1"
           id="path917"
           d="m 83.641117,130.68314 c 0.03424,0.006 0.06921,0.0104 0.103979,0.0142 0.06014,0.006 0.120323,0.0117 0.180724,0.0139 0.07581,0.005 0.151309,-0.003 0.225765,-0.0171 0.04804,-0.0125 0.09711,-0.0256 0.140614,-0.0503 0.01013,-0.006 0.03941,-0.0248 0.02928,-0.0191 -0.130351,0.0739 -0.259997,0.14912 -0.389995,0.22368 0.04867,-0.0323 0.06827,-0.0696 0.0761,-0.12608 0.0047,-0.0501 -0.0043,-0.0993 -0.02133,-0.14628 -0.01896,-0.0491 -0.05401,-0.0867 -0.09172,-0.12207 -0.04382,-0.04 -0.09345,-0.0725 -0.144761,-0.10187 -0.05407,-0.0312 -0.113633,-0.0501 -0.173426,-0.0668 -0.06464,-0.0178 -0.131223,-0.024 -0.197953,-0.0268 -0.06291,-0.002 -0.124151,0.01 -0.184001,0.0281 -0.0094,0.003 -0.019,0.006 -0.02826,0.01 -0.01571,0.006 -0.0401,0.0186 -0.05465,0.0272 -0.0089,0.005 -0.03514,0.0221 -0.02612,0.017 0.386176,-0.22002 0.513631,-0.31347 0.364064,-0.20545 -0.05943,0.0464 -0.10482,0.10652 -0.146517,0.16859 -0.05316,0.0782 -0.08613,0.1648 -0.108318,0.25602 -0.01652,0.0846 -0.0223,0.1719 -0.0041,0.25675 0.004,0.0185 0.0098,0.0366 0.01473,0.0549 0.04142,0.12463 0.116567,0.23264 0.195503,0.33602 0.08886,0.11177 0.188988,0.21362 0.293434,0.31071 0.108193,0.10199 0.237202,0.17524 0.369178,0.24142 0.124626,0.0621 0.257579,0.10326 0.392862,0.13434 0.07893,0.0186 0.159282,0.0273 0.23993,0.0336 0,0 -0.389735,0.27756 -0.389735,0.27756 v 0 c -0.08118,-0.009 -0.161976,-0.0209 -0.241255,-0.0411 -0.136614,-0.0351 -0.270581,-0.0803 -0.396152,-0.14546 -0.134573,-0.0701 -0.266158,-0.14708 -0.37711,-0.25198 -0.105871,-0.0993 -0.207582,-0.20326 -0.297976,-0.31709 -0.08301,-0.10771 -0.161664,-0.22031 -0.208323,-0.34922 -0.01495,-0.049 -0.02205,-0.0657 -0.02965,-0.11611 -0.01078,-0.0715 -0.0053,-0.14416 0.0054,-0.21524 0.01864,-0.0951 0.04574,-0.1871 0.09835,-0.26967 0.03823,-0.0657 0.08141,-0.12927 0.137018,-0.18173 0.150323,-0.13914 0.02251,-0.0241 0.468703,-0.28426 0.03631,-0.0212 0.0772,-0.0337 0.117518,-0.0444 0.0631,-0.0135 0.127218,-0.0202 0.191798,-0.0147 0.06909,0.006 0.137885,0.0147 0.204307,0.0355 0.06293,0.0191 0.12494,0.0417 0.181271,0.0763 0.05351,0.0325 0.10523,0.0682 0.151141,0.11103 0.04242,0.041 0.08147,0.0849 0.103907,0.14043 0.02069,0.0531 0.03237,0.10872 0.03134,0.16594 -0.0029,0.0623 -0.0134,0.12083 -0.06099,0.16572 -0.204714,0.12073 -0.387349,0.27629 -0.622619,0.31653 -0.07731,0.0103 -0.155072,0.015 -0.233067,0.0103 -0.06179,-0.003 -0.123465,-0.008 -0.185048,-0.0144 -0.03811,-0.004 -0.07641,-0.008 -0.114209,-0.0135 0,0 0.410375,-0.28511 0.410375,-0.28511 z"
           inkscape:connector-curvature="0" />
      </g>
      <g
         transform="translate(9.8150318,-4.9549669)"
         id="g952">
        <path
           style="opacity:1;fill:#000000;fill-opacity:1;stroke:#000000;stroke-width:0;stroke-linecap:round;stroke-linejoin:round;stroke-miterlimit:4;stroke-dasharray:none;stroke-dashoffset:0.57106102;stroke-opacity:1"
           id="path919"
           d="m 67.735728,137.99033 c -0.01896,-7.8e-4 -0.03808,0.006 -0.05601,0.0121 -0.03805,0.01 -0.07525,0.0231 -0.111664,0.0379 -0.0074,0.003 -0.0148,0.007 -0.02199,0.0101 -0.0075,0.004 -0.0148,0.008 -0.02206,0.0123 -0.0074,0.004 -0.02968,0.0179 -0.02215,0.0136 0.561466,-0.32132 0.391358,-0.23964 0.279023,-0.15402 -0.04448,0.0358 -0.08371,0.0773 -0.120685,0.12063 -0.0421,0.0514 -0.07516,0.1091 -0.103904,0.16877 -0.03155,0.0717 -0.04495,0.14881 -0.0502,0.22643 -0.0041,0.0786 0.0095,0.156 0.02632,0.2323 0.01539,0.0725 0.04464,0.13983 0.0811,0.20393 0.03682,0.0607 0.08617,0.11069 0.141409,0.15448 0.05193,0.0407 0.110317,0.0712 0.171715,0.0947 0.05477,0.0213 0.11189,0.0272 0.170075,0.0265 0.05626,-0.003 0.108027,-0.0248 0.157305,-0.0505 0.135255,-0.08 -0.02671,0.016 -0.295941,0.16964 -0.0083,0.005 0.01636,-0.01 0.02437,-0.0152 0.02415,-0.0157 0.04655,-0.0334 0.06887,-0.0516 0.04628,-0.0382 0.08385,-0.0846 0.117202,-0.13407 0.03273,-0.048 0.05772,-0.0994 0.07218,-0.15559 0.01121,-0.0525 0.0079,-0.10599 -0.0013,-0.15839 -0.01229,-0.053 -0.03815,-0.10089 -0.064,-0.14822 -0.02644,-0.0507 -0.06013,-0.0968 -0.0969,-0.14043 -0.03571,-0.0413 -0.07593,-0.0782 -0.121347,-0.10847 -0.0224,-0.0145 -0.046,-0.027 -0.0696,-0.0393 0,0 0.338045,-0.22102 0.338045,-0.22102 v 0 c 0.02465,0.0135 0.04931,0.0271 0.07236,0.0432 0.04665,0.0342 0.08905,0.0735 0.126261,0.11792 0.03809,0.0459 0.073,0.0943 0.101148,0.14707 0.02796,0.0509 0.05557,0.10241 0.07034,0.15899 0.01199,0.0571 0.0166,0.11543 0.0086,0.1735 -0.01214,0.0604 -0.03247,0.11696 -0.06697,0.16866 -0.03216,0.0522 -0.06711,0.10244 -0.112143,0.14462 -0.142231,0.12806 -0.316216,0.21517 -0.48701,0.29979 -0.05384,0.0223 -0.10949,0.0386 -0.168524,0.0357 -0.06119,-0.003 -0.120932,-0.015 -0.17758,-0.0392 -0.06311,-0.0277 -0.123051,-0.0619 -0.176751,-0.10552 -0.05767,-0.0483 -0.109677,-0.10252 -0.148531,-0.16747 -0.03838,-0.0675 -0.06961,-0.13835 -0.08618,-0.21464 -0.01817,-0.0795 -0.0327,-0.16026 -0.03077,-0.2422 0.0028,-0.0814 0.01488,-0.16204 0.04226,-0.23912 0.02617,-0.0623 0.0576,-0.12224 0.09748,-0.17707 0.03484,-0.0462 0.07402,-0.0888 0.1165,-0.12811 0.140787,-0.12223 0.309978,-0.2101 0.481009,-0.28293 0.03851,-0.0139 0.0774,-0.0266 0.117036,-0.037 0.02079,-0.005 0.04169,-0.007 0.0625,-0.0111 0,0 -0.330907,0.24822 -0.330907,0.24822 z"
           inkscape:connector-curvature="0" />
        <path
           style="opacity:1;fill:#000000;fill-opacity:1;stroke:#000000;stroke-width:0;stroke-linecap:round;stroke-linejoin:round;stroke-miterlimit:4;stroke-dasharray:none;stroke-dashoffset:0.57106102;stroke-opacity:1"
           id="path923"
           d="m 69.205251,137.80849 c 0.0055,0.0208 0.009,0.0421 0.01323,0.0632 0.0099,0.0451 0.02262,0.0896 0.0345,0.13425 0.01549,0.0616 0.02986,0.12339 0.04313,0.18544 0.01582,0.0733 0.02887,0.14725 0.04099,0.22129 0.01259,0.0779 0.02382,0.15592 0.03425,0.2341 0.01033,0.0798 0.02025,0.15956 0.02757,0.23965 0.006,0.0841 0.0043,0.16864 0.0038,0.25295 -0.0015,0.0876 -0.0052,0.17526 -0.01013,0.26277 -0.0033,0.0607 -0.0017,0.0307 -0.0048,0.0898 0,0 -0.355296,0.17827 -0.355296,0.17827 v 0 c 0.0042,-0.0593 0.0022,-0.0293 0.0059,-0.0899 0.004,-0.0868 0.007,-0.17372 0.01,-0.2606 1.62e-4,-0.083 0.0013,-0.16622 -0.0032,-0.24918 -0.0065,-0.0795 -0.01691,-0.15871 -0.02697,-0.23788 -0.0104,-0.0778 -0.02125,-0.15545 -0.03389,-0.23287 -0.01221,-0.0732 -0.02541,-0.14624 -0.04129,-0.21875 -0.01379,-0.061 -0.02921,-0.12165 -0.04506,-0.18219 -0.01238,-0.0448 -0.0261,-0.0891 -0.03905,-0.13376 -0.0046,-0.0184 -0.0098,-0.0367 -0.01485,-0.0549 0,0 0.361335,-0.20178 0.361335,-0.20178 z"
           inkscape:connector-curvature="0" />
        <path
           style="opacity:1;fill:#000000;fill-opacity:1;stroke:#000000;stroke-width:0;stroke-linecap:round;stroke-linejoin:round;stroke-miterlimit:4;stroke-dasharray:none;stroke-dashoffset:0.57106102;stroke-opacity:1"
           id="path925"
           d="m 69.033475,138.67287 c -9.93e-4,-0.0261 0.0051,-0.0501 0.01478,-0.074 0.01582,-0.0335 0.03548,-0.0647 0.05753,-0.0944 0.02745,-0.0381 0.06169,-0.07 0.09755,-0.1 0.04452,-0.0368 0.09215,-0.0694 0.140312,-0.10106 0.168363,-0.10669 0.33934,-0.21007 0.516749,-0.30105 0.06604,-0.0329 0.133334,-0.0632 0.200647,-0.0933 0.03982,-0.019 0.02023,-0.01 0.05875,-0.0276 0,0 -0.315357,0.25051 -0.315357,0.25051 v 0 c -0.03732,0.017 -0.01819,0.008 -0.0574,0.0261 -0.0671,0.03 -0.133808,0.0611 -0.198877,0.0953 -0.136476,0.0747 -0.04992,0.0276 0.280619,-0.16357 0.0097,-0.006 -0.01947,0.0112 -0.02907,0.0171 -0.0183,0.0112 -0.03614,0.0231 -0.05444,0.0343 -0.0087,0.005 -0.01746,0.0104 -0.02619,0.0157 -0.04744,0.0313 -0.09606,0.0611 -0.140137,0.0971 -0.03569,0.0271 -0.07066,0.0553 -0.09941,0.0899 -0.02159,0.0275 -0.04373,0.0547 -0.05863,0.0865 -0.01059,0.0168 -0.02187,0.0345 -0.01981,0.0553 0,0 -0.367628,0.18732 -0.367628,0.18732 z"
           inkscape:connector-curvature="0" />
      </g>
      <g
         transform="translate(0.20045215)"
         id="g991">
        <path
           style="opacity:1;fill:#000000;fill-opacity:1;stroke:#000000;stroke-width:0;stroke-linecap:round;stroke-linejoin:round;stroke-miterlimit:4;stroke-dasharray:none;stroke-dashoffset:0.57106102;stroke-opacity:1"
           id="path943"
           d="m 81.900796,136.67799 c -0.0017,0.0313 -0.0022,0.0628 -0.0026,0.0942 1.9e-5,0.0573 -0.0033,0.11455 -0.0061,0.17178 -0.0046,0.086 -0.0073,0.17199 -0.0096,0.25803 -0.0028,0.1011 -0.005,0.20222 -0.0072,0.30335 -0.0022,0.1144 -0.0072,0.22874 -0.01148,0.34308 -0.0043,0.12012 -0.0077,0.24029 -0.01121,0.36044 -0.0035,0.12022 -0.0065,0.24044 -0.0094,0.36067 -0.0025,0.11834 -0.0045,0.23667 -0.0095,0.35493 -0.0053,0.11544 -0.01073,0.23089 -0.01604,0.34635 -0.0042,0.0778 -0.002,0.0389 -0.0065,0.11653 0,0 -0.390849,0.19624 -0.390849,0.19624 v 0 c 0.0047,-0.0773 0.0024,-0.0387 0.0067,-0.11589 0.0049,-0.11551 0.01065,-0.23097 0.01625,-0.34644 0.0054,-0.1181 0.008,-0.23625 0.01047,-0.35445 0.0028,-0.12027 0.0057,-0.24054 0.0092,-0.3608 0.0034,-0.12023 0.0073,-0.24043 0.01111,-0.36064 0.0034,-0.11374 0.0081,-0.22746 0.0094,-0.34124 0.0014,-0.10083 0.0029,-0.20166 0.0049,-0.3025 0.0017,-0.0854 0.0034,-0.17085 0.0049,-0.25627 0.0014,-0.056 0.0038,-0.112 0.0023,-0.16799 -3.64e-4,-0.0305 -8.01e-4,-0.0611 -0.0026,-0.0915 0,0 0.407887,-0.20783 0.407887,-0.20783 z"
           inkscape:connector-curvature="0" />
        <path
           style="opacity:1;fill:#000000;fill-opacity:1;stroke:#000000;stroke-width:0;stroke-linecap:round;stroke-linejoin:round;stroke-miterlimit:4;stroke-dasharray:none;stroke-dashoffset:0.57106102;stroke-opacity:1"
           id="path945"
           d="m 82.039409,138.31018 c 0.03324,-0.002 0.06666,-0.003 0.09997,-0.004 0.06397,-0.003 0.127767,-0.004 0.191585,0.002 0.06405,0.006 0.126171,0.0227 0.184982,0.0485 0.05955,0.0287 0.106871,0.0737 0.147796,0.12473 0.03885,0.0504 0.06799,0.10653 0.09001,0.166 0.01924,0.059 0.02998,0.12023 0.03578,0.18188 0.0062,0.06 -0.0034,0.11873 -0.01881,0.17645 -0.01683,0.0599 -0.0503,0.11125 -0.08838,0.15953 -0.04099,0.0506 -0.09001,0.0933 -0.141883,0.13221 -0.149365,0.1011 -0.313146,0.18507 -0.468202,0.27261 -0.02867,0.0162 -0.06138,0.0253 -0.09271,0.0346 -0.06598,0.0169 -0.13406,0.0193 -0.201751,0.0163 -0.0634,-0.003 -0.12472,-0.0186 -0.184033,-0.0403 -0.05587,-0.0231 -0.105061,-0.0581 -0.152114,-0.0955 0,0 0.380131,-0.23921 0.380131,-0.23921 v 0 c 0.04383,0.0341 0.09052,0.0649 0.143473,0.083 0.05677,0.0178 0.115036,0.0297 0.174819,0.0298 0.06541,-6.1e-4 0.13087,-0.006 0.192858,-0.029 0.02842,-0.011 0.0306,-0.0112 0.05821,-0.0246 0.01,-0.005 0.03919,-0.0208 0.02962,-0.0152 -0.624,0.36566 -0.429632,0.25043 -0.296445,0.17134 0.05323,-0.0344 0.102753,-0.074 0.145597,-0.12096 0.03837,-0.0431 0.07456,-0.0876 0.09487,-0.14247 0.01756,-0.0524 0.03057,-0.10602 0.02671,-0.16181 -0.0037,-0.0581 -0.01284,-0.11566 -0.03,-0.17141 -0.01926,-0.0551 -0.04598,-0.10695 -0.08214,-0.15299 -0.03754,-0.045 -0.08058,-0.0837 -0.135991,-0.10553 -0.05667,-0.0207 -0.115401,-0.0343 -0.175863,-0.0375 -0.06371,-0.003 -0.127353,-2.1e-4 -0.190971,0.004 -0.03487,0.003 -0.06981,0.005 -0.104217,0.0109 0,0 0.367113,-0.27376 0.367113,-0.27376 z"
           inkscape:connector-curvature="0" />
        <path
           style="opacity:1;fill:#000000;fill-opacity:1;stroke:#000000;stroke-width:0;stroke-linecap:round;stroke-linejoin:round;stroke-miterlimit:4;stroke-dasharray:none;stroke-dashoffset:0.57106102;stroke-opacity:1"
           id="path947"
           d="m 83.902934,138.4244 c 0.02126,0.009 0.0435,0.0152 0.06587,0.0208 0.03566,0.0111 0.07158,0.0108 0.10821,0.006 0.04551,-0.007 0.08795,-0.0236 0.128858,-0.0441 0.131792,-0.0806 0.311569,-0.17837 -0.32173,0.18425 -0.0073,0.005 0.01442,-0.009 0.02143,-0.0138 0.01902,-0.0129 0.02333,-0.017 0.04137,-0.0315 0.03769,-0.0298 0.05665,-0.0682 0.06622,-0.11424 0.0066,-0.0408 0.0032,-0.0804 -0.01498,-0.11753 -0.02464,-0.0409 -0.06176,-0.0716 -0.09889,-0.10064 -0.04306,-0.0334 -0.09136,-0.059 -0.141385,-0.0802 -0.05623,-0.0241 -0.115647,-0.0286 -0.175838,-0.0317 -0.06516,-0.003 -0.130068,9.2e-4 -0.193658,0.0158 -0.01,0.004 -0.02006,0.006 -0.02996,0.01 -0.02039,0.007 -0.03884,0.0149 -0.05763,0.0258 -0.0093,0.006 -0.03626,0.0232 -0.02689,0.0179 0.343709,-0.19492 0.46786,-0.28319 0.3271,-0.1845 -0.05683,0.0423 -0.10346,0.0955 -0.147309,0.15061 -0.0519,0.0665 -0.09301,0.13987 -0.127073,0.21676 -0.03706,0.0878 -0.04942,0.18127 -0.0527,0.27563 -0.0015,0.0971 0.01818,0.19224 0.04077,0.28615 0.0242,0.0921 0.05342,0.18278 0.08984,0.27077 0.03628,0.0904 0.101104,0.16134 0.168434,0.22958 0.07046,0.0712 0.148903,0.13318 0.231475,0.18952 0.08329,0.0545 0.174263,0.0949 0.266893,0.13043 0.09873,0.0365 0.203441,0.041 0.307458,0.0421 0.102834,9.2e-4 0.204701,-0.0124 0.30596,-0.0287 0.01505,-0.003 0.03011,-0.006 0.04516,-0.007 0,0 -0.353615,0.26571 -0.353615,0.26571 v 0 c -0.0149,0.002 -0.02981,0.005 -0.04472,0.006 -0.102134,0.0141 -0.204902,0.0243 -0.308188,0.0209 -0.108159,-0.004 -0.216543,-0.0123 -0.317942,-0.0537 -0.09462,-0.0384 -0.187601,-0.0813 -0.272298,-0.13892 -0.08405,-0.0588 -0.163794,-0.12346 -0.235733,-0.19676 -0.07077,-0.0726 -0.139429,-0.14801 -0.178173,-0.24341 -0.03743,-0.0901 -0.06748,-0.18278 -0.0924,-0.27708 -0.02417,-0.0972 -0.04518,-0.1956 -0.04638,-0.29624 8.99e-4,-0.0986 0.01073,-0.19662 0.04469,-0.28997 0.03091,-0.0798 0.06891,-0.15629 0.119531,-0.22565 0.04152,-0.0583 0.08681,-0.11413 0.14131,-0.16095 0.14554,-0.12445 0.02722,-0.0259 0.435722,-0.2626 0.0379,-0.022 0.0814,-0.0332 0.123864,-0.042 0.06629,-0.009 0.133112,-0.0117 0.199924,-0.006 0.06425,0.006 0.127402,0.0161 0.186304,0.0437 0.0523,0.0247 0.103024,0.0527 0.148186,0.0892 0.04166,0.0337 0.08244,0.0698 0.110178,0.11634 0.02335,0.0447 0.03284,0.0918 0.02786,0.14235 -0.0053,0.0526 -0.01729,0.10326 -0.05482,0.14295 -0.01785,0.0181 -0.03731,0.0391 -0.05945,0.0523 -0.139058,0.0824 -0.29462,0.18669 -0.451239,0.25855 -0.04489,0.0172 -0.09143,0.0306 -0.139818,0.0321 -0.04016,-1e-4 -0.07948,-0.006 -0.118078,-0.0171 -0.02486,-0.007 -0.04964,-0.0146 -0.07337,-0.0249 0,0 0.381633,-0.25313 0.381633,-0.25313 z"
           inkscape:connector-curvature="0" />
      </g>
      <g
         transform="translate(-0.03340869)"
         id="g981">
        <g
           id="g973">
          <path
             inkscape:connector-curvature="0"
             d="m 71.777399,138.40146 c -5.41e-4,0.0271 -0.0046,0.0542 -0.0088,0.0811 -0.01006,0.0588 -0.01549,0.11828 -0.02217,0.17755 -0.009,0.0784 -0.0163,0.15707 -0.02319,0.23572 -0.0072,0.0849 -0.01366,0.16976 -0.01959,0.25471 -0.0063,0.0947 -0.01116,0.18944 -0.01614,0.28419 -0.0055,0.10128 -0.0096,0.20263 -0.01146,0.30405 0,0 -0.397735,0.20177 -0.397735,0.20177 v 0 c 0.0017,-0.10173 0.0059,-0.20337 0.01034,-0.30502 0.0042,-0.0947 0.0092,-0.18945 0.01456,-0.28414 0.0048,-0.085 0.01035,-0.16995 0.01759,-0.25478 0.0065,-0.0786 0.0134,-0.15718 0.02101,-0.23567 0.0059,-0.0587 0.01,-0.11745 0.01555,-0.17613 0.0031,-0.0242 0.0066,-0.0485 0.0069,-0.0728 0,0 0.413168,-0.21052 0.413168,-0.21052 z"
             id="path927"
             style="opacity:1;fill:#000000;fill-opacity:1;stroke:#000000;stroke-width:0;stroke-linecap:round;stroke-linejoin:round;stroke-miterlimit:4;stroke-dasharray:none;stroke-dashoffset:0.57106102;stroke-opacity:1" />
          <path
             inkscape:connector-curvature="0"
             d="m 71.472948,139.09811 c -1.29e-4,-0.0214 0.002,-0.0424 0.0046,-0.0636 0.0012,-0.0399 0.01446,-0.0731 0.03875,-0.10424 0.161604,-0.13787 0.35621,-0.24335 0.559528,-0.30614 0.06996,-0.0222 0.141827,-0.0354 0.214783,-0.0421 0.07134,-0.007 0.141269,0.003 0.209301,0.0239 0.06742,0.0215 0.125656,0.062 0.181124,0.10475 0.05648,0.0439 0.102834,0.0983 0.14609,0.15471 0.04232,0.0553 0.07803,0.11463 0.104177,0.17913 0.02285,0.0583 0.03049,0.11984 0.03173,0.18191 -7.38e-4,0.0696 -0.01436,0.13812 -0.02722,0.20627 -0.01009,0.0501 -0.02085,0.1 -0.03162,0.14994 0,0 -0.406257,0.19575 -0.406257,0.19575 v 0 c 0.01164,-0.0493 0.02165,-0.0988 0.03204,-0.14834 0.01229,-0.0653 0.02538,-0.13084 0.02859,-0.19738 8.85e-4,-0.0568 -0.004,-0.11344 -0.02335,-0.16735 -0.02303,-0.0613 -0.05617,-0.11709 -0.09658,-0.16867 -0.04125,-0.0532 -0.08551,-0.10406 -0.139989,-0.14422 -0.05259,-0.0387 -0.107683,-0.0742 -0.171807,-0.0903 -0.06538,-0.0152 -0.131824,-0.0198 -0.198606,-0.0104 -0.07109,0.01 -0.141107,0.0259 -0.208902,0.0497 -0.02831,0.0105 -0.03868,0.0138 -0.06629,0.026 -0.01045,0.005 -0.04084,0.0203 -0.03101,0.0145 0.621814,-0.36745 0.453556,-0.25834 0.317062,-0.18611 -0.02613,0.0183 -0.04889,0.0393 -0.049,0.0736 -0.0016,0.0194 -0.0051,0.0388 -0.004,0.0582 0,0 -0.413085,0.21049 -0.413085,0.21049 z"
             id="path929"
             style="opacity:1;fill:#000000;fill-opacity:1;stroke:#000000;stroke-width:0;stroke-linecap:round;stroke-linejoin:round;stroke-miterlimit:4;stroke-dasharray:none;stroke-dashoffset:0.57106102;stroke-opacity:1" />
          <path
             inkscape:connector-curvature="0"
             d="m 73.721539,138.60315 c -0.02085,0.0166 -0.03642,0.0404 -0.05145,0.0623 -0.02391,0.0365 -0.04032,0.0772 -0.05786,0.11705 -0.0216,0.0486 -0.04013,0.0985 -0.05354,0.14995 -0.01321,0.053 -0.01276,0.10698 -0.007,0.1608 0.0077,0.0532 0.02336,0.10466 0.0436,0.15426 0.0205,0.0487 0.05098,0.0915 0.08478,0.13172 0.03568,0.0412 0.07691,0.0765 0.123277,0.10498 0.04421,0.0246 0.09098,0.0454 0.141017,0.054 0.04687,0.006 0.09401,4.4e-4 0.140222,-0.008 0.04736,-0.01 0.09056,-0.0304 0.131871,-0.0549 -0.683637,0.38536 -0.397577,0.25665 -0.271445,0.13621 0.04019,-0.0376 0.06771,-0.0833 0.08652,-0.1345 0.01668,-0.0512 0.02266,-0.10438 0.02269,-0.15797 -3.69e-4,-0.0532 -0.01362,-0.10296 -0.03609,-0.1507 -0.02609,-0.048 -0.05924,-0.092 -0.09383,-0.13426 -0.03721,-0.0466 -0.08064,-0.0873 -0.127061,-0.12438 -0.05147,-0.0401 -0.107844,-0.0727 -0.166041,-0.10178 -0.05683,-0.0278 -0.116737,-0.0459 -0.178972,-0.0562 -0.0104,-0.002 -0.02081,-0.003 -0.03122,-0.005 0,0 0.370835,-0.26044 0.370835,-0.26044 v 0 c 0.01073,0.002 0.02147,0.004 0.0322,0.006 0.0645,0.0145 0.126729,0.0365 0.185429,0.0672 0.06018,0.0316 0.118403,0.0669 0.171792,0.10921 0.04836,0.0397 0.0935,0.0831 0.132906,0.13178 0.03666,0.0453 0.07204,0.092 0.09968,0.14344 0.02555,0.0531 0.0429,0.10814 0.04521,0.16752 0.0027,0.0579 -0.0015,0.11534 -0.01636,0.17157 -0.01532,0.0566 -0.03707,0.10927 -0.07693,0.15344 -0.136933,0.1512 -0.321447,0.22596 -0.504901,0.32444 -0.04504,0.0209 -0.09206,0.0372 -0.141709,0.0426 -0.05015,0.005 -0.100581,0.007 -0.149803,-0.007 -0.05233,-0.0158 -0.102668,-0.0376 -0.148655,-0.0675 -0.04836,-0.0331 -0.09265,-0.0717 -0.130664,-0.11642 -0.03631,-0.044 -0.06912,-0.0909 -0.09168,-0.14365 -0.02217,-0.0531 -0.03945,-0.10824 -0.04924,-0.16504 -0.0082,-0.0581 -0.01108,-0.11699 -6.8e-5,-0.17499 0.0107,-0.0539 0.02757,-0.10598 0.04866,-0.15678 0.0171,-0.0409 0.03337,-0.0822 0.05305,-0.12193 0.01312,-0.0244 0.02908,-0.0464 0.04256,-0.0705 0,0 0.428236,-0.17738 0.428236,-0.17738 z"
             id="path931"
             style="opacity:1;fill:#000000;fill-opacity:1;stroke:#000000;stroke-width:0;stroke-linecap:round;stroke-linejoin:round;stroke-miterlimit:4;stroke-dasharray:none;stroke-dashoffset:0.57106102;stroke-opacity:1" />
          <path
             inkscape:connector-curvature="0"
             d="m 75.105122,136.99764 c -0.0015,0.0212 -0.002,0.0425 -0.0023,0.0638 -7.38e-4,0.0534 -0.0042,0.10672 -0.0069,0.16005 -0.0033,0.0782 -0.0098,0.15622 -0.0172,0.23412 -0.0089,0.0888 -0.01734,0.17749 -0.02469,0.26635 -0.0087,0.10786 -0.01487,0.21589 -0.02096,0.32393 -0.0048,0.11282 -0.01333,0.22542 -0.01963,0.33817 -0.0066,0.11005 -0.0015,0.22015 0.01,0.32967 0.01,0.10279 0.02899,0.20424 0.05411,0.30432 0.02224,0.0921 0.0529,0.18162 0.08999,0.2687 0.03652,0.0843 0.08655,0.1611 0.142261,0.23376 0.03912,0.047 0.01919,0.0239 0.05977,0.0696 0,0 -0.383044,0.23138 -0.383044,0.23138 v 0 c -0.0415,-0.0475 -0.02107,-0.0234 -0.06127,-0.0723 -0.05761,-0.0757 -0.10957,-0.15579 -0.147905,-0.24327 -0.03848,-0.0891 -0.06918,-0.18124 -0.09205,-0.27568 -0.02565,-0.10214 -0.04573,-0.20561 -0.05583,-0.31055 -0.01176,-0.1117 -0.01825,-0.22399 -0.01239,-0.33633 0.0059,-0.11275 0.0152,-0.22529 0.0196,-0.33813 0.0054,-0.10785 0.01134,-0.21568 0.018,-0.32347 0.0058,-0.0888 0.01237,-0.17737 0.0215,-0.26581 0.0073,-0.0767 0.01396,-0.15347 0.01566,-0.23048 0.0013,-0.0518 0.0036,-0.10362 0.0016,-0.15543 -4.18e-4,-0.0204 -8.61e-4,-0.0409 -0.0023,-0.0613 0,0 0.414077,-0.21098 0.414077,-0.21098 z"
             id="path933"
             style="opacity:1;fill:#000000;fill-opacity:1;stroke:#000000;stroke-width:0;stroke-linecap:round;stroke-linejoin:round;stroke-miterlimit:4;stroke-dasharray:none;stroke-dashoffset:0.57106102;stroke-opacity:1" />
          <path
             inkscape:connector-curvature="0"
             d="m 74.384939,137.47688 c 0.01855,3.2e-4 0.03703,0.002 0.05542,-0.001 0.03454,-0.003 0.06924,-0.005 0.103899,-0.007 0.04816,-0.002 0.09635,-0.004 0.144541,-0.006 0.05807,-0.002 0.116151,-0.004 0.174237,-0.005 0.06717,-10e-4 0.134381,-0.004 0.201235,-0.011 0.07617,-0.006 0.150899,-0.0219 0.224809,-0.0405 0.07237,-0.0187 0.142489,-0.0437 0.210612,-0.0743 0.06563,-0.0279 0.128081,-0.0629 0.189687,-0.0987 -0.709164,0.42 -0.418778,0.24528 -0.26407,0.14488 0,0 0.453494,-0.17702 0.453494,-0.17702 v 0 c -0.184034,0.12172 -0.370772,0.23732 -0.568253,0.33824 -0.06293,0.0343 -0.126244,0.0681 -0.193127,0.0943 -0.06992,0.0275 -0.141459,0.0505 -0.214761,0.0672 -0.07582,0.0166 -0.152178,0.0304 -0.229755,0.0355 -0.06815,0.005 -0.136362,0.009 -0.204689,0.0101 -0.05841,0.002 -0.116813,0.004 -0.175189,0.007 -0.04863,0.002 -0.09725,0.005 -0.145799,0.008 -0.0355,0.003 -0.07093,0.006 -0.106443,0.009 -0.01991,-3.7e-4 -0.03982,5e-5 -0.05973,5.3e-4 0,0 0.403888,-0.29344 0.403888,-0.29344 z"
             id="path954"
             style="opacity:1;fill:#000000;fill-opacity:1;stroke:#000000;stroke-width:0;stroke-linecap:round;stroke-linejoin:round;stroke-miterlimit:4;stroke-dasharray:none;stroke-dashoffset:0.57106102;stroke-opacity:1" />
        </g>
      </g>
      <g
         transform="translate(-0.16704346,0.23386084)"
         id="g986">
        <path
           style="opacity:1;fill:#000000;fill-opacity:1;stroke:#000000;stroke-width:0;stroke-linecap:round;stroke-linejoin:round;stroke-miterlimit:4;stroke-dasharray:none;stroke-dashoffset:0.57106102;stroke-opacity:1"
           id="path937"
           d="m 77.590374,136.93166 c -0.0017,0.0258 -0.0023,0.0517 -0.0029,0.0775 1.52e-4,0.0539 -0.0046,0.1075 -0.01063,0.16097 -0.0093,0.0701 -0.02085,0.13993 -0.03078,0.20997 -0.01276,0.0918 -0.02645,0.18345 -0.0396,0.27517 -0.01497,0.11515 -0.03115,0.23015 -0.04464,0.34548 -0.01556,0.1148 -0.01224,0.22973 0.0074,0.34357 0.02388,0.1149 0.07675,0.22022 0.131041,0.32324 0.0543,0.10242 0.1215,0.19698 0.189227,0.29077 0.06379,0.0898 0.135973,0.17254 0.214141,0.24997 0.06932,0.0681 0.144942,0.12931 0.224388,0.18518 0.03831,0.0278 0.0806,0.0464 0.125689,0.0597 0,0 -0.371332,0.25069 -0.371332,0.25069 v 0 c -0.04566,-0.0193 -0.0891,-0.0426 -0.128566,-0.0729 -0.07899,-0.0594 -0.154221,-0.12357 -0.224276,-0.19338 -0.07901,-0.0798 -0.152359,-0.16463 -0.217116,-0.25651 -0.06827,-0.0958 -0.136068,-0.19233 -0.191056,-0.2966 -0.0566,-0.10675 -0.111247,-0.21595 -0.138334,-0.33452 -0.02231,-0.11742 -0.02779,-0.23637 -0.01257,-0.35529 0.0127,-0.1152 0.02886,-0.22996 0.04201,-0.34511 0.01113,-0.0909 0.02286,-0.18176 0.03417,-0.27265 0.0091,-0.0693 0.01952,-0.13853 0.02826,-0.20793 0.0064,-0.0512 0.01108,-0.10274 0.0095,-0.15441 -6.8e-4,-0.0248 -0.0011,-0.0497 -0.0029,-0.0745 0,0 0.408949,-0.20837 0.408949,-0.20837 z"
           inkscape:connector-curvature="0" />
        <path
           style="opacity:1;fill:#000000;fill-opacity:1;stroke:#000000;stroke-width:0;stroke-linecap:round;stroke-linejoin:round;stroke-miterlimit:4;stroke-dasharray:none;stroke-dashoffset:0.57106102;stroke-opacity:1"
           id="path941"
           d="m 78.510234,139.04473 c -0.0018,4.8e-4 -0.0039,5.7e-4 -0.0056,0.002 -0.0043,0.002 -0.01339,0.009 -0.01742,0.0118 -0.0023,0.002 -0.0085,0.007 -0.0061,0.006 0.127834,-0.0733 0.254938,-0.14779 0.382407,-0.22168 -0.02264,0.01 -0.03645,0.03 -0.04816,0.051 -0.01829,0.0323 -0.02362,0.0674 -0.02499,0.10392 -6.32e-4,0.0432 0.0059,0.086 0.01884,0.12706 0.01592,0.0472 0.0495,0.0816 0.08696,0.11269 0.05061,0.0392 0.109136,0.0654 0.1676,0.0904 0.06121,0.0251 0.126853,0.034 0.192335,0.0388 0.06109,0.006 0.121921,7.1e-4 0.181793,-0.0117 0.03654,-0.0108 0.07209,-0.0243 0.105162,-0.0433 0.0084,-0.005 0.03327,-0.0199 0.02485,-0.0151 -0.119748,0.0686 -0.239246,0.13753 -0.358869,0.2063 0.05086,-0.0301 0.09326,-0.0711 0.130548,-0.11643 0.03055,-0.0394 0.05333,-0.0826 0.06066,-0.13205 0.0042,-0.0457 -0.0089,-0.0887 -0.02802,-0.12961 -0.02305,-0.0449 -0.05716,-0.0825 -0.0923,-0.11823 -0.04103,-0.0415 -0.08863,-0.0748 -0.138283,-0.105 -0.05633,-0.0308 -0.117418,-0.0512 -0.179398,-0.0669 -0.05819,-0.0171 -0.117311,-0.0214 -0.177387,-0.016 0,0 0.362307,-0.26543 0.362307,-0.26543 v 0 c 0.06262,4.6e-4 0.123951,0.0103 0.18397,0.0285 0.06461,0.0195 0.128609,0.042 0.186615,0.0772 0.0523,0.0328 0.102275,0.0691 0.145417,0.11347 0.03836,0.0396 0.07575,0.0808 0.100996,0.13035 0.02279,0.0474 0.0399,0.0973 0.03929,0.15061 -0.0022,0.0617 -0.01746,0.10384 -0.05184,0.1554 -0.03416,0.0505 -0.07516,0.0955 -0.124297,0.13197 -0.136258,0.0791 -0.272184,0.15887 -0.408775,0.23744 -0.04256,0.0245 -0.09152,0.0376 -0.13933,0.0466 -0.06236,0.008 -0.125094,0.009 -0.187607,9.2e-4 -0.06857,-0.008 -0.136646,-0.0215 -0.199959,-0.0505 -0.06181,-0.0276 -0.122795,-0.0578 -0.175872,-0.10045 -0.04301,-0.0369 -0.08183,-0.0781 -0.101728,-0.13239 -0.01599,-0.0451 -0.02409,-0.0924 -0.02654,-0.14021 -4.86e-4,-0.0407 -0.0012,-0.0817 0.01477,-0.12012 0.0095,-0.0252 0.01948,-0.0506 0.03658,-0.072 0.118785,-0.0694 0.273069,-0.22578 0.438358,-0.23938 0,0 -0.366951,0.27429 -0.366951,0.27429 z"
           inkscape:connector-curvature="0" />
        <path
           style="opacity:1;fill:#000000;fill-opacity:1;stroke:#000000;stroke-width:0;stroke-linecap:round;stroke-linejoin:round;stroke-miterlimit:4;stroke-dasharray:none;stroke-dashoffset:0.57106102;stroke-opacity:1"
           id="path956"
           d="m 76.791864,137.59402 c 0.03199,0.002 0.06383,6.6e-4 0.09577,-0.001 0.04667,-0.007 0.09332,-0.0134 0.139268,-0.0242 0.05423,-0.0122 0.10752,-0.028 0.160757,-0.0439 0.05817,-0.0171 0.115773,-0.0361 0.173661,-0.0542 0.06608,-0.0232 0.131562,-0.048 0.197442,-0.0718 0.07429,-0.0276 0.148091,-0.0565 0.221065,-0.0874 0.07947,-0.0328 0.157789,-0.0683 0.235416,-0.10529 0,0 -0.379009,0.30155 -0.379009,0.30155 v 0 c -0.07839,0.036 -0.157143,0.0713 -0.237016,0.10392 -0.07405,0.0303 -0.148665,0.0593 -0.223821,0.0868 -0.06646,0.0246 -0.132792,0.0497 -0.200308,0.0713 -0.0582,0.0187 -0.116514,0.0372 -0.175262,0.0541 -0.05422,0.0157 -0.108863,0.0303 -0.16425,0.0414 -0.04801,0.008 -0.09625,0.0169 -0.145025,0.0193 -0.03399,0.002 -0.06802,0.001 -0.102015,0.003 0,0 0.403322,-0.29303 0.403322,-0.29303 z"
           inkscape:connector-curvature="0" />
      </g>
      <ellipse
         cx="68.867882"
         cy="129.52863"
         rx="0.52008611"
         ry="0.49770194"
         id="path997"
         style="opacity:1;fill:#000000;fill-opacity:1;stroke:#000000;stroke-width:0;stroke-linecap:round;stroke-linejoin:round;stroke-miterlimit:4;stroke-dasharray:none;stroke-dashoffset:0.57106102;stroke-opacity:1" />
      <ellipse
         cx="70.786919"
         cy="129.71008"
         rx="0.52008611"
         ry="0.49770194"
         id="path997-3"
         style="opacity:1;fill:#000000;fill-opacity:1;stroke:#000000;stroke-width:0;stroke-linecap:round;stroke-linejoin:round;stroke-miterlimit:4;stroke-dasharray:none;stroke-dashoffset:0.57106102;stroke-opacity:1" />
      <ellipse
         cx="86.467575"
         cy="135.97813"
         rx="0.63284034"
         ry="0.60001594"
         id="path997-3-6"
         style="opacity:1;fill:#000000;fill-opacity:1;stroke:#000000;stroke-width:0;stroke-linecap:round;stroke-linejoin:round;stroke-miterlimit:4;stroke-dasharray:none;stroke-dashoffset:0.57106102;stroke-opacity:1" />
      <ellipse
         cx="88.579391"
         cy="136.13483"
         rx="0.71427399"
         ry="0.64804089"
         id="path997-3-6-7"
         style="opacity:1;fill:#000000;fill-opacity:1;stroke:#000000;stroke-width:0;stroke-linecap:round;stroke-linejoin:round;stroke-miterlimit:4;stroke-dasharray:none;stroke-dashoffset:0.57106102;stroke-opacity:1" />
    </g>
  </g>
</svg>
