<?xml version="1.0" encoding="UTF-8" standalone="no"?>
<!-- Created with Inkscape (http://www.inkscape.org/) -->

<svg
   xmlns:dc="http://purl.org/dc/elements/1.1/"
   xmlns:cc="http://creativecommons.org/ns#"
   xmlns:rdf="http://www.w3.org/1999/02/22-rdf-syntax-ns#"
   xmlns:svg="http://www.w3.org/2000/svg"
   xmlns="http://www.w3.org/2000/svg"
   xmlns:sodipodi="http://sodipodi.sourceforge.net/DTD/sodipodi-0.dtd"
   xmlns:inkscape="http://www.inkscape.org/namespaces/inkscape"
   width="100"
   height="100.00094"
   id="svg2826"
   version="1.1"
   inkscape:version="0.47 r22583"
   sodipodi:docname="documents.svg">
  <defs
     id="defs2828">
    <inkscape:perspective
       sodipodi:type="inkscape:persp3d"
       inkscape:vp_x="0 : 526.18109 : 1"
       inkscape:vp_y="0 : 1000 : 0"
       inkscape:vp_z="744.09448 : 526.18109 : 1"
       inkscape:persp3d-origin="372.04724 : 350.78739 : 1"
       id="perspective2833" />
  </defs>
  <sodipodi:namedview
     id="base"
     pagecolor="#ffffff"
     bordercolor="#666666"
     borderopacity="1.0"
     inkscape:pageopacity="0.0"
     inkscape:pageshadow="2"
     inkscape:zoom="2.8"
     inkscape:cx="-6.1154214"
     inkscape:cy="46.792508"
     inkscape:document-units="px"
     showgrid="false"
     inkscape:window-width="1366"
     inkscape:window-height="692"
     inkscape:window-x="1440"
     inkscape:window-y="158"
     inkscape:window-maximized="1"
     inkscape:current-layer="layer1" />
  <metadata
     id="metadata2831">
    <rdf:RDF>
      <cc:Work
         rdf:about="">
        <dc:format>image/svg+xml</dc:format>
        <dc:type
           rdf:resource="http://purl.org/dc/dcmitype/StillImage" />
        <dc:title></dc:title>
      </cc:Work>
    </rdf:RDF>
  </metadata>
  <g
     inkscape:groupmode="layer"
     id="layer1"
     inkscape:label="Capa"
     transform="translate(-268.25817,-575.08175)">
    <path
       style="fill:#000000"
       id="path3101"
       d="m 287.48155,583.08324 c -0.0181,0.61563 -0.0397,0.9143 0.009,1.57083 0.0808,1.08264 0.23521,2.15775 0.33055,3.23905 0.17537,1.98899 0.22441,2.96887 0.35366,5.00102 0.3237,5.81928 0.39609,11.6491 0.44714,17.47688 0.0365,5.88032 0.0145,11.76081 0.0109,17.64119 -0.01,5.47266 0.0123,10.94524 0.0365,16.4178 0.0131,3.98698 0.0226,7.97398 0.0382,11.96095 0.006,2.5519 0.0342,5.10361 0.0515,7.65541 0.0198,1.41011 0.016,2.82027 0.0174,4.23046 0.0736,0.99547 -0.10698,2.02723 0.0592,3.01368 0.0171,0.0266 0.0213,0.0792 0.0514,0.0798 0.044,7.6e-4 0.31768,-0.25328 0.35459,-0.28244 0.30014,-0.23708 0.27864,-0.19401 0.66504,-0.36111 1.57241,-0.74387 3.27679,-1.05425 4.94774,-1.43909 2.93359,-0.77407 5.92318,-1.27258 8.92445,-1.62832 2.07837,-0.16085 4.16934,-0.34841 6.2558,-0.30008 1.47575,0.0343 2.85682,0.19491 4.33,0.33476 5.13728,0.53661 10.25879,1.20505 15.40619,1.63715 2.13288,0.17701 4.26986,0.28759 6.40899,0.30984 1.20701,0.009 2.41403,-0.006 3.62102,-0.015 0.83818,-0.0675 1.7579,0.19854 2.51482,-0.26597 -1.03032,0.60621 -2.02248,1.29307 -3.09094,1.81861 -0.13089,0.0645 0.16105,-0.25845 0.21181,-0.40248 0.0682,-0.19343 0.10713,-0.39791 0.142,-0.60121 0.15217,-0.88691 0.15896,-1.80112 0.19156,-2.69869 0.044,-2.32536 0.0303,-4.65146 0.0298,-6.97718 -0.002,-3.94084 0.0515,-7.88131 0.0972,-11.82175 0.0725,-7.01447 -0.0742,-14.02604 0.31612,-21.03129 0.53595,-5.23445 1.16224,-10.4576 1.81773,-15.67623 0.38779,-3.85899 0.82718,-7.70654 1.43014,-11.53376 0.43585,-2.39424 0.83178,-4.79817 1.32009,-7.18107 0.3555,-1.7696 1.03673,-3.44392 1.6369,-5.13087 0.69659,-1.87488 1.25963,-3.8003 1.91922,-5.68912 0.27675,-1.06246 0.79373,-2.02029 1.15506,-3.04659 0.13942,-0.81688 -0.62127,-0.90152 -1.20161,-0.99108 -0.99938,0.32107 -1.99061,0.66168 -2.98096,1.01436 -1.64355,0.4854 -3.32672,0.75894 -4.99989,1.09136 -1.9069,0.45287 -3.8389,0.70568 -5.77017,0.99869 -2.42125,0.35787 -4.86801,0.44754 -7.30865,0.51699 -2.36903,0.0535 -4.73858,0.0546 -7.108,0.0515 -2.50908,0.14728 -5.01748,0.29179 -7.52912,0.38042 -2.15,0.0754 -4.30116,0.0848 -6.45207,0.0928 -1.52968,-0.0627 -3.03782,0.0359 -4.55181,0.25188 -1.1805,0.12827 -2.35869,0.19382 -3.53368,0.37252 -1.30588,0.18299 -2.59443,0.50193 -3.88,0.80744 -1.37166,0.34312 -2.7739,0.5337 -4.14791,0.85793 -1.27502,0.28922 -2.57126,0.41465 -3.85501,0.64921 -1.05548,0.10894 -2.07596,0.3681 -3.11296,0.58442 -0.40532,0.0321 -0.75591,0.13085 -1.079,0.38893 0,0 3.0491,-2.6135 3.0491,-2.6135 l 0,0 c 0.36536,-0.12616 0.73911,-0.2146 1.11937,-0.27454 1.02794,-0.23081 2.05814,-0.41034 3.10011,-0.55646 1.28162,-0.22445 2.57697,-0.35249 3.84535,-0.6601 1.38213,-0.27948 2.76875,-0.52987 4.14171,-0.86121 1.29263,-0.30542 2.58948,-0.61117 3.90431,-0.78484 1.17777,-0.16629 2.36281,-0.21997 3.542,-0.37327 1.50632,-0.18921 3.01228,-0.21396 4.52857,-0.17147 2.13836,-0.003 4.27695,-0.016 6.41462,-0.0786 2.517,-0.0863 5.02923,-0.2585 7.54478,-0.3764 2.36438,-0.003 4.72912,0.002 7.09303,-0.0538 2.4426,-0.0762 4.88932,-0.18313 7.30911,-0.57286 1.93534,-0.2834 3.86047,-0.60017 5.77422,-1.02347 1.67895,-0.32327 3.36449,-0.6319 4.99989,-1.16294 1.017,-0.35837 2.05103,-0.83788 3.13032,-0.87337 0.82663,0.19772 1.57869,0.57335 1.53053,1.61443 -0.32912,1.05714 -0.90109,1.995 -1.18273,3.0729 -0.70009,1.88457 -1.30582,3.80528 -1.96488,5.70707 -0.57534,1.67954 -1.24056,3.33844 -1.6444,5.07507 -0.53094,2.3861 -0.95425,4.79753 -1.40438,7.20193 -0.65499,3.83841 -1.16664,7.69814 -1.55083,11.57905 -0.64807,5.23618 -1.34058,10.46623 -1.93489,15.7099 -0.19122,2.90373 -0.2823,3.76548 -0.33277,6.7218 -0.0811,4.75404 0.055,9.51229 0.0458,14.26648 0.0474,3.90126 0.10108,7.80246 0.11712,11.70405 0.0112,2.32368 0.0303,4.64754 0.007,6.9712 -0.0198,1.12417 8.2e-4,2.28522 -0.21053,3.3928 -0.035,0.18271 0.007,0.43081 -0.13333,0.54105 -1.1279,0.88259 -2.37881,1.57028 -3.5682,2.35543 -0.84297,0.22534 -1.72148,0.0864 -2.58241,0.12513 -1.19976,0.001 -2.39958,0.003 -3.59929,-0.0122 -2.09224,-0.0519 -4.17728,-0.23192 -6.25903,-0.46028 -5.12366,-0.54255 -10.23599,-1.21201 -15.36707,-1.66265 -3.55077,-0.26679 -7.10227,-0.31755 -10.64731,0.10535 -3.00741,0.36213 -5.99497,0.89927 -8.93205,1.68762 -1.69589,0.41156 -3.41924,0.78119 -4.99869,1.58867 -0.49014,0.26331 -1.16923,0.71816 -1.47695,-0.0489 -0.19202,-1.01121 0.0373,-2.0851 -0.0457,-3.11026 8.1e-4,-1.41648 -0.002,-2.83293 0.0173,-4.24933 0.0172,-2.57046 0.0454,-5.14082 0.0514,-7.71138 0.0156,-4.00109 0.0251,-8.00222 0.0396,-12.00334 0.0262,-5.48797 0.052,-10.97596 0.0484,-16.46405 0.002,-5.87618 -0.002,-11.75239 -0.0272,-17.62852 -0.0395,-5.81462 -0.0919,-11.63401 -0.46752,-17.43725 -0.16696,-2.16712 -0.19455,-2.83049 -0.44233,-4.92973 -0.8255,-6.99361 0.22729,2.25301 -0.46161,-3.1953 -0.0781,-0.61762 -0.0778,-0.96434 -0.0957,-1.55139 0,0 3.4756,-1.89093 3.4756,-1.89093 z" />
    <path
       style="fill:#000000"
       id="path3103"
       d="m 295.01285,589.51513 c 0.36971,1.25184 0.56508,2.54342 0.67399,3.84723 0.11237,1.59086 0.10132,3.18793 0.10269,4.78222 0.002,1.45937 -0.13976,2.36097 1.29798,2.87293 1.11237,0.1872 2.34752,0.43999 3.44568,0.0898 -0.98385,0.57621 -1.94304,1.20323 -2.95153,1.72861 -0.14106,0.0734 0.23875,-0.22305 0.32721,-0.36149 0.10259,-0.16055 0.17839,-0.34104 0.23881,-0.52439 0.26305,-0.79836 0.34406,-1.6971 0.46464,-2.52707 0.26828,-2.13862 0.31267,-4.29858 0.345,-6.45298 0.007,-1.38237 0.25773,-2.99034 -0.84517,-3.97146 -0.74567,-0.41963 -1.6087,-0.38313 -2.42874,-0.3845 -0.14707,0.001 -0.2964,-0.0224 -0.44123,0.005 -1.30934,0.24791 -5.0004,2.69198 1.22077,-1.06676 -0.79732,0.54393 -0.95907,1.41731 -1.06079,2.35394 -0.0467,0.60194 -0.0502,1.206 -0.0563,1.80949 0,0 -3.44433,1.8691 -3.44433,1.8691 l 0,0 c 0.006,-0.6129 0.0105,-1.22599 0.0411,-1.83824 0.0621,-0.99985 0.16188,-1.98985 0.90194,-2.70059 1.69269,-1.03924 3.79578,-2.8608 5.98171,-2.86373 0.90065,0.0221 1.82544,0.0512 2.58542,0.636 1.15546,1.21903 0.97146,2.69888 0.93329,4.31652 -0.0369,2.16695 -0.0849,4.33833 -0.31507,6.49354 -0.0788,0.64608 -0.28067,3.32385 -0.83531,3.70653 -1.20579,0.83198 -2.49676,1.51395 -3.74515,2.27093 -1.18335,0.16397 -2.42112,0.0334 -3.57211,-0.28889 -1.51684,-0.72243 -1.52746,-1.66396 -1.4944,-3.31759 -0.007,-1.58049 -0.007,-3.16271 -0.10642,-4.74042 -0.105,-1.25725 -0.26085,-2.51953 -0.67371,-3.7103 0,0 3.41004,-2.03332 3.41004,-2.03332 z" />
    <path
       style="fill:#000000"
       id="path3105"
       d="m 310.40345,589.49345 c 1.10038,0.0228 2.20106,0.0168 3.30157,0.0144 1.14427,-0.002 2.28851,0.002 3.43278,7.1e-4 1.04492,0.0528 2.06397,-0.0664 3.01757,-0.53749 0.86787,-0.42043 1.69302,-0.86134 2.65851,-0.65614 0.85321,0.29671 1.7198,0.51185 2.61007,0.62694 0.49766,-0.0783 0.93793,-0.48695 1.44114,-0.53256 0.18729,-0.017 0.54292,0.10444 0.72022,0.15641 0.72771,0.2602 1.48707,0.35757 2.24827,0.41867 0.57339,0.0858 1.0839,-0.24004 1.63701,-0.36024 0,0 -3.09303,2.51649 -3.09303,2.51649 l 0,0 c -0.56223,0.15742 -1.11573,0.36575 -1.70678,0.25304 -0.77374,-0.0809 -1.53477,-0.22365 -2.28404,-0.44867 -0.75404,-0.0949 -1.37579,0.43755 -2.13344,0.38737 -0.8835,-0.14206 -1.73555,-0.40353 -2.60463,-0.61574 -0.90311,0.005 -1.71994,0.43271 -2.53575,0.80898 -1.0059,0.36626 -2.03774,0.46543 -3.09827,0.40583 -1.14487,-0.002 -2.28974,0.002 -3.4346,7.1e-4 -1.11296,-0.002 -2.22605,-0.008 -3.33888,0.0144 0,0 3.16228,-2.45323 3.16228,-2.45323 z" />
    <path
       style="fill:#000000"
       id="path3107"
       d="m 316.1075,595.58408 c 1.14096,-0.0883 2.18777,0.31644 3.22205,0.77733 0.96355,0.42877 1.95464,0.77247 2.94381,1.12575 0.87419,0.30697 1.7896,0.39016 2.70264,0.43494 1.02076,0.11966 1.82717,-0.54641 2.68763,-1.01998 0.74312,-0.32556 1.45948,-0.71116 2.19116,-1.06346 0,0 -3.01929,2.56065 -3.01929,2.56065 l 0,0 c -0.72774,0.36085 -1.45752,0.7168 -2.18263,1.08344 -0.90497,0.51019 -1.76652,1.01814 -2.82973,0.85607 -0.93483,-0.0681 -1.86639,-0.19466 -2.75416,-0.53315 -0.99131,-0.36562 -1.99107,-0.70603 -2.95526,-1.15002 -1.02089,-0.4488 -2.05202,-0.74222 -3.1685,-0.61833 0,0 3.16228,-2.45324 3.16228,-2.45324 z" />
    <path
       style="fill:#000000"
       id="path3111"
       d="m 302.57128,611.86426 c 1.02266,0.60052 1.7959,0.86623 2.94907,0.58779 0.98978,-0.4768 2.01953,-0.81902 3.08632,-1.02607 0.91223,-0.18474 1.84679,-0.0941 2.76051,-0.23735 0.98243,-0.32064 1.97303,-0.58698 2.99065,-0.73946 1.06202,-0.14073 2.1354,-0.0633 3.19659,-0.19067 0.91948,-0.23046 1.73324,-0.743 2.63167,-1.04094 0.94823,-0.28362 1.94174,-0.21111 2.90707,-0.36202 1.0319,-0.13081 2.02013,-0.44876 3.0028,-0.794 0.91143,-0.33207 1.86405,-0.45556 2.81979,-0.5198 0.64015,-0.0761 1.23999,-0.0216 1.85318,0.17488 0,0 -1.4218,1.04114 -1.4218,1.04114 l 0,0 c -0.60345,-0.16536 -1.19788,-0.19569 -1.8197,-0.12349 -0.9472,0.0742 -1.88805,0.21623 -2.78921,0.55237 -0.98827,0.34394 -1.98857,0.63938 -3.02436,0.76881 -0.96415,0.1219 -1.95329,0.0815 -2.89092,0.39089 -0.88955,0.32023 -1.71305,0.83426 -2.6475,1.00475 -1.06323,0.10178 -2.13555,0.0468 -3.19598,0.20046 -1.01695,0.16591 -2.00094,0.46 -2.99453,0.73848 -0.91453,0.10778 -1.84315,0.054 -2.75107,0.24349 -1.06448,0.22439 -2.07623,0.6062 -3.08547,1.0271 -1.1083,0.20053 -2.02508,-0.1042 -3.01077,-0.6577 0,0 1.43366,-1.03865 1.43366,-1.03865 z" />
    <path
       style="fill:#000000"
       id="path3113"
       d="m 298.10662,608.37615 c 1.00195,-0.22133 1.98409,-0.51907 2.99727,-0.69128 0.78905,-0.20351 1.58929,-0.62167 2.40614,-0.4347 0.71459,0.31766 1.4515,0.52002 2.21661,0.63166 0.14159,0.0574 0.28318,0.11472 0.42477,0.17203 0,0 -1.42918,1.0316 -1.42918,1.0316 l 0,0 c -0.13579,-0.047 -0.27159,-0.0941 -0.40739,-0.14113 -0.76453,-0.12446 -1.49476,-0.35167 -2.22136,-0.63223 -0.81179,-0.0928 -1.57793,0.3124 -2.36439,0.47629 -1.01472,0.18373 -2.00042,0.48658 -3.00722,0.70727 0,0 1.38475,-1.11951 1.38475,-1.11951 z" />
    <path
       style="fill:#000000"
       id="path3115"
       d="m 300.36187,620.62914 c 1.23032,0.0117 2.46074,0.007 3.6911,0.006 0.92466,0.10906 1.72841,-0.60925 2.62042,-0.55949 0.38396,0.2028 0.21488,0.0675 0.50613,0.40761 0,0 -1.48176,0.96441 -1.48176,0.96441 l 0,0 c -0.24268,-0.2576 -0.10104,-0.16273 -0.42543,-0.28378 -0.87852,0.0661 -1.69129,0.65388 -2.60727,0.54796 -1.23525,-9.9e-4 -2.47054,-0.006 -3.70576,0.006 0,0 1.40257,-1.0881 1.40257,-1.0881 z" />
    <path
       style="fill:#000000"
       id="path3117"
       d="m 305.12697,625.24248 c 1.22916,-0.3161 2.43405,-0.72548 3.66859,-1.01969 1.03122,-0.24009 2.085,-0.28684 3.13609,-0.31017 1.34236,-0.0249 2.52099,-0.11032 3.81347,0.34418 0.98913,0.4237 2.00757,0.75236 3.01931,1.10428 0.86337,0.25594 1.75139,0.34422 2.62414,0.55361 1.14579,0.26589 2.22955,0.71591 3.38408,0.9568 0.54066,-0.0104 0.71174,0.0321 1.22465,-0.15464 0.17064,-0.0621 0.64347,-0.34648 0.48804,-0.24892 -1.84912,1.16074 -0.90865,0.6643 -0.67973,0.0563 -0.15903,-0.38587 -0.80915,-0.87551 -1.15947,-1.10432 -0.48543,-0.18486 -0.23133,-0.10362 -0.76377,-0.23843 0,0 1.42076,-1.04607 1.42076,-1.04607 l 0,0 c 0.55527,0.1574 0.28899,0.0617 0.80019,0.28289 0.47058,0.32734 1.05861,0.75775 1.27225,1.31374 -0.32722,1.49417 -2.65548,2.25505 -4.00293,2.1813 -1.15554,-0.24977 -2.24872,-0.69676 -3.4018,-0.94869 -0.87605,-0.20622 -1.77225,-0.28724 -2.6323,-0.56971 -1.00694,-0.35731 -2.02069,-0.69023 -3.00736,-1.11056 -1.23999,-0.40313 -2.50298,-0.31919 -3.78809,-0.28924 -1.04329,0.0293 -2.08868,0.0897 -3.11052,0.33537 -1.24004,0.30439 -2.45329,0.71402 -3.69035,1.03145 0,0 1.38475,-1.11951 1.38475,-1.11951 z" />
    <path
       style="fill:#000000"
       id="path3119"
       d="m 300.7496,633.27777 c 1.10395,0.0104 2.20795,0.007 3.31193,0.007 0.69272,-7.8e-4 0.35901,-0.0246 1.00167,0.0624 0,0 -1.40603,1.0648 -1.40603,1.0648 l 0,0 c -0.62703,-0.0684 -0.29901,-0.0489 -0.98452,-0.0497 -1.1095,-10e-4 -2.21903,-0.003 -3.3285,0.007 0,0 1.40545,-1.09033 1.40545,-1.09033 z" />
    <path
       style="fill:#000000"
       id="path3121"
       d="m 303.03072,640.64381 c 1.51729,-0.54578 2.96794,-1.27298 4.47298,-1.85294 1.73905,-0.63989 2.49797,-0.79278 4.24254,-0.15097 1.34423,0.76314 2.7184,1.4465 4.19156,1.86658 1.18181,0.28728 2.40227,0.28007 3.60772,0.29144 1.0719,0.1204 1.98288,-0.32371 2.9173,-0.8022 0.60665,-0.35488 1.25606,-0.59408 1.91887,-0.79385 0,0 -1.36264,1.12192 -1.36264,1.12192 l 0,0 c -0.6573,0.21378 -1.29827,0.47023 -1.90485,0.81954 -0.94389,0.47927 -1.88469,0.84045 -2.95454,0.72734 -1.21548,-0.0158 -2.44777,-0.0116 -3.63456,-0.32915 -1.46623,-0.4465 -2.82962,-1.15121 -4.18965,-1.87945 -1.70154,-0.58327 -2.49386,-0.37924 -4.16885,0.24456 -1.51097,0.59701 -2.97572,1.32104 -4.50592,1.86355 0,0 1.37004,-1.12637 1.37004,-1.12637 z" />
    <path
       style="fill:#000000"
       id="path3123"
       d="m 298.55574,651.08113 c 0.80649,0.009 1.61304,0.009 2.41956,0.009 0,0 -1.38292,1.07284 -1.38292,1.07284 l 0,0 c -0.81403,-2e-5 -1.62809,-7.1e-4 -2.44209,0.009 0,0 1.40545,-1.09032 1.40545,-1.09032 z" />
    <path
       style="fill:#000000"
       id="path3125"
       d="m 300.1154,657.88205 c 1.71009,-1.22927 3.62259,-1.92146 5.5842,-2.51858 1.24654,-0.34262 2.52801,-0.46928 3.80999,-0.52495 1.07803,-0.1397 1.97659,0.1741 2.87445,0.78354 0.89785,0.62814 1.88705,1.01574 2.88384,1.41253 0.88744,0.38938 1.80828,0.0384 2.67007,-0.26771 0.99432,-0.31634 1.97376,-0.65409 2.99897,-0.84058 0.96504,-0.26485 1.82327,0.14805 2.73654,0.42423 0.84305,0.37977 1.7208,0.61077 2.62548,0.73488 0.58164,0.0542 0.29057,0.0319 0.87321,0.067 0,0 -1.40191,1.07364 -1.40191,1.07364 l 0,0 c -0.58725,-0.0415 -0.29377,-0.0155 -0.88044,-0.0782 -0.90846,-0.1394 -1.78531,-0.39308 -2.6387,-0.7573 -0.89914,-0.27815 -1.74175,-0.63072 -2.68927,-0.35748 -1.01825,0.20115 -1.99559,0.54355 -2.98552,0.86206 -0.89543,0.30718 -1.82729,0.58351 -2.73558,0.16612 -1.00789,-0.39611 -1.99311,-0.82225 -2.90389,-1.44292 -0.88609,-0.57634 -1.76733,-0.83295 -2.81418,-0.69412 -1.26998,0.0606 -2.5395,0.19288 -3.77105,0.54802 -1.04051,0.32312 -2.08345,0.67019 -3.08339,1.12008 -0.20382,0.0917 -0.77711,0.44322 -0.60089,0.3005 0.32947,-0.26682 0.71074,-0.4515 1.0661,-0.67724 0,0 -1.61803,0.66653 -1.61803,0.66653 z" />
  </g>
</svg>
